<svg width="71" height="111" viewBox="0 0 71 111" fill="none" xmlns="http://www.w3.org/2000/svg">
<g id="&#208;&#180;&#208;&#181;&#208;&#178;&#209;&#131;&#209;&#136;&#208;&#186;&#208;&#176; &#209;&#129; &#208;&#191;&#209;&#139;&#208;&#187;&#208;&#181;&#209;&#129;&#208;&#190;&#209;&#129;&#208;&#186;&#208;&#190;&#208;&#185;">
<path id="Vector" d="M58.1087 105.263L36.435 80.4282C28.9669 71.8684 21.3641 63.4069 14.0269 54.7447C9.96131 49.967 3.65028 48.5196 -1.89105 51.7931C-4.58839 53.3752 -7.23233 55.0632 -9.90098 56.6965C-11.4779 57.6666 -12.8275 55.1132 -11.2547 54.1506C-8.65303 52.557 -6.06223 50.9475 -3.44979 49.3735C-1.22172 48.0069 1.3224 47.2409 3.9346 47.1501C6.54679 47.0592 9.13797 47.6467 11.4556 48.8552C15.2005 50.829 18.1222 55.0914 20.8926 58.2521C31.0824 69.9411 41.2714 81.616 51.4598 93.2768L60.2359 103.331C61.4556 104.726 59.3313 106.681 58.1194 105.283L58.1087 105.263Z" fill="#263238"/>
<path id="Vector_2" d="M10.8592 51.9024C11.2638 51.57 11.6264 51.1897 11.9392 50.7699C12.3033 50.3917 12.6164 49.9676 12.8706 49.5083C12.099 50.2176 11.4206 51.0219 10.8515 51.9021L10.8592 51.9024Z" fill="#455A64"/>
<path id="Vector_3" d="M13.4138 54.2279C13.8234 53.8999 14.1879 53.5191 14.4976 53.0955C14.8583 52.7168 15.1699 52.2942 15.425 51.8376C15.0176 52.1681 14.6535 52.5485 14.3412 52.97C13.9793 53.3477 13.6676 53.7705 13.4138 54.2279Z" fill="#455A64"/>
<path id="Vector_4" d="M15.5847 56.6224C16.058 56.3975 16.5 56.1117 16.8992 55.7723C17.3389 55.4871 17.7402 55.1468 18.0935 54.7598C17.1826 55.2732 16.3397 55.899 15.5847 56.6224Z" fill="#455A64"/>
<path id="Vector_5" d="M18.0386 59.432C18.4941 59.1737 18.9161 58.8602 19.295 58.4988C19.7155 58.1864 20.0934 57.8205 20.4193 57.4104C19.5407 57.9802 18.7382 58.6594 18.0309 59.4317L18.0386 59.432Z" fill="#455A64"/>
<path id="Vector_6" d="M20.8132 63.4518C21.2604 63.1789 21.6698 62.8483 22.0307 62.4685C22.4376 62.1374 22.8014 61.7568 23.1139 61.3354C22.6665 61.6096 22.2571 61.9415 21.8963 62.3226C21.4898 62.6526 21.1259 63.0319 20.8132 63.4518Z" fill="#455A64"/>
<path id="Vector_7" d="M23.2522 65.849C23.6974 65.5717 24.1065 65.2401 24.4698 64.8618C24.8772 64.5326 25.24 64.1517 25.5491 63.7288C25.1032 64.0052 24.6941 64.3368 24.3315 64.7159C23.9261 65.0473 23.5635 65.4279 23.2522 65.849Z" fill="#455A64"/>
<path id="Vector_8" d="M24.5926 67.0245C25.0487 66.7656 25.4708 66.4508 25.8491 66.0875C26.2689 65.7758 26.6467 65.4113 26.9733 65.0029C26.5172 65.2604 26.0951 65.5739 25.7169 65.9361C25.2973 66.2495 24.9194 66.6153 24.5926 67.0245Z" fill="#455A64"/>
<path id="Vector_9" d="M26.9373 69.6872C27.3935 69.4282 27.8155 69.1135 28.1939 68.7502C28.6158 68.4319 28.9941 68.0595 29.319 67.6426C28.8644 67.9039 28.4425 68.2184 28.0624 68.5796C27.6401 68.8975 27.2618 69.2699 26.9373 69.6872Z" fill="#455A64"/>
<path id="Vector_10" d="M29.2818 72.3502C29.738 72.0912 30.1601 71.7764 30.5384 71.4131C30.9577 71.0994 31.3355 70.7336 31.6627 70.3247C31.206 70.5828 30.7838 70.8977 30.4062 71.2617C29.9854 71.5737 29.6074 71.9397 29.2818 72.3502Z" fill="#455A64"/>
<path id="Vector_11" d="M31.6306 75.0095C32.0884 74.753 32.5119 74.4395 32.8908 74.0765C33.309 73.7614 33.6867 73.3958 34.0151 72.988C33.5577 73.245 33.1354 73.56 32.7586 73.925C32.3381 74.2371 31.959 74.6016 31.6306 75.0095Z" fill="#455A64"/>
<path id="Vector_12" d="M33.9674 77.6718C34.425 77.4151 34.8473 77.1002 35.2239 76.7348C35.6422 76.42 36.0209 76.0559 36.3519 75.6504C35.8944 75.9056 35.472 76.2193 35.0955 76.5836C34.6753 76.8976 34.2963 77.2632 33.9674 77.6718Z" fill="#455A64"/>
<path id="Vector_13" d="M36.3119 80.3349C37.1906 79.7637 37.9932 79.0832 38.7004 78.3098C38.2414 78.5661 37.8177 78.881 37.44 79.2467C37.0202 79.5611 36.6412 79.9267 36.3119 80.3349Z" fill="#455A64"/>
<path id="Vector_14" d="M38.6568 82.9938C39.1123 82.7354 39.5342 82.422 39.9132 82.0606C40.3336 81.7482 40.7116 81.3823 41.0375 80.9722C40.5808 81.2303 40.1586 81.5451 39.7809 81.9092C39.3631 82.2232 38.9855 82.5875 38.6568 82.9938Z" fill="#455A64"/>
<path id="Vector_15" d="M41.0014 85.6566C41.4575 85.3977 41.8796 85.0829 42.2579 84.7196C42.6787 84.4091 43.0567 84.0444 43.3821 83.635C42.5035 84.2048 41.7009 84.884 40.9937 85.6563L41.0014 85.6566Z" fill="#455A64"/>
<path id="Vector_16" d="M43.346 88.3198C43.7944 88.064 44.2097 87.7542 44.5828 87.3973C45.0016 87.0845 45.3793 86.7201 45.7069 86.3127C45.2509 86.5702 44.8288 86.8837 44.4505 87.2459C44.0376 87.5548 43.6664 87.9157 43.346 88.3198Z" fill="#455A64"/>
<path id="Vector_17" d="M45.6907 90.9825C46.1468 90.7235 46.5689 90.4088 46.9472 90.0455C47.3677 89.733 47.7456 89.3671 48.0715 88.957C47.6149 89.2152 47.1927 89.53 46.815 89.894C46.3942 90.2061 46.0162 90.572 45.6907 90.9825Z" fill="#455A64"/>
<path id="Vector_18" d="M48.0315 93.6416C48.4893 93.3851 48.9128 93.0716 49.2917 92.7086C49.7099 92.3935 50.0875 92.0279 50.416 91.6201C49.5386 92.1915 48.7362 92.8706 48.0276 93.6414L48.0315 93.6416Z" fill="#455A64"/>
<path id="Vector_19" d="M50.3723 96.3042C50.8299 96.0475 51.2523 95.7325 51.6289 95.3672C52.0481 95.0535 52.427 94.6893 52.7568 94.2827C52.2993 94.5379 51.877 94.8516 51.5004 95.2159C51.0802 95.5299 50.7012 95.8955 50.3723 96.3042Z" fill="#455A64"/>
<path id="Vector_20" d="M52.7208 98.9674C53.1784 98.7107 53.6007 98.3958 53.9773 98.0304C54.3972 97.7161 54.7762 97.3505 55.1055 96.9421C54.6483 97.1996 54.226 97.5145 53.8489 97.8791C53.4287 98.1932 53.0497 98.5588 52.7208 98.9674Z" fill="#455A64"/>
<path id="Vector_21" d="M55.0654 101.63C55.9441 101.059 56.7467 100.378 57.454 99.605C56.995 99.8612 56.5713 100.176 56.1936 100.542C55.7737 100.856 55.3948 101.222 55.0654 101.63Z" fill="#455A64"/>
<path id="Vector_22" d="M8.05697 50.5741C8.11453 50.5764 8.33962 49.9551 8.74528 49.2412C9.15093 48.5272 9.56432 48.002 9.53517 47.9623C9.12497 48.2733 8.79492 48.6777 8.57246 49.1419C8.29045 49.5721 8.11384 50.0628 8.05697 50.5741Z" fill="#455A64"/>
<path id="Vector_23" d="M5.26117 47.1895C4.89797 48.1206 4.91673 49.1574 5.31337 50.0747C5.3671 50.0769 5.2127 49.4287 5.20253 48.6364C5.19236 47.8441 5.31827 47.2034 5.26117 47.1895Z" fill="#455A64"/>
<path id="Vector_24" d="M47.4756 102.975H70.8401V105.768H47.4756V102.975Z" fill="#263238"/>
<path id="Vector_25" d="M47.4065 102.975C47.4065 103.029 52.6686 103.075 59.1521 103.075C65.6356 103.075 70.8977 103.029 70.8977 102.975C70.8977 102.922 65.6394 102.875 59.1521 102.875C52.6647 102.875 47.4065 102.918 47.4065 102.975Z" fill="#455A64"/>
<path id="Vector_26" d="M54.7274 105.86C54.8606 104.92 54.8606 103.966 54.7274 103.025C54.5942 103.966 54.5942 104.92 54.7274 105.86Z" fill="#455A64"/>
<path id="Vector_27" d="M5.61836 12.3327C5.74512 11.3648 6.45954 10.5966 7.08945 9.84761C8.394 8.28879 9.44871 6.53695 10.216 4.65465C10.7038 3.44859 11.1109 2.14266 12.0712 1.26693C13.0314 0.391189 14.7944 0.237556 15.4935 1.33223L17.0605 4.02089L13.1927 14.5989C12.7049 15.9355 11.9867 17.4719 10.5847 17.7177C9.18276 17.9635 7.97287 16.7306 7.06641 15.6167C6.2867 14.6642 5.44936 13.5541 5.61836 12.3327Z" fill="#263238"/>
<path id="Vector_28" d="M18.8927 0.318339C20.212 -0.0394551 21.5947 -0.0964775 22.9389 0.151487C24.2831 0.399451 25.5544 0.946072 26.6591 1.75101C27.9574 2.69589 28.2877 3.36037 29.0252 4.30524C29.781 5.22426 30.189 6.38018 30.1775 7.57005C30.1914 8.99774 29.8453 10.4059 29.1711 11.6645C28.4641 12.9444 27.6412 14.1568 26.7129 15.2865C25.7752 16.4192 24.5432 17.2712 23.1524 17.7486L19.803 16.0355C18.1245 14.864 16.423 13.6695 15.1094 12.0985C13.7958 10.5276 12.8893 8.5034 13.0852 6.46386C13.3579 3.63692 16.1119 0.998187 18.8927 0.318339Z" fill="#263238"/>
<path id="Vector_29" d="M21.5315 2.28109L26.663 3.6792L27.604 4.57413C29.9086 6.32945 29.5975 10.0936 28.1994 11.9872C26.663 14.092 24.6657 16.5963 23.1754 17.8907C20.1795 20.4872 17.341 18.7549 17.341 18.7549L15.82 20.8828L15.4359 23.3141L10.0585 29.8898L4.80028 26.7671L9.444 15.9741L10.1507 15.5055L11.2492 14.1151L19.6993 2.54996C19.9169 2.28576 20.2249 2.11192 20.5636 2.06222C20.9022 2.01253 21.2472 2.09054 21.5315 2.28109Z" fill="#FFBF9D"/>
<path id="Vector_30" d="M19.0731 13.6732C19.2159 13.5311 19.4059 13.4463 19.607 13.4351C19.7918 13.4233 19.9753 13.4726 20.1294 13.5753C20.2834 13.678 20.3995 13.8284 20.4597 14.0035C20.514 14.1972 20.5155 14.4018 20.4642 14.5963C20.4129 14.7908 20.3106 14.968 20.1678 15.1097C20.0278 15.153 19.8802 15.1665 19.7347 15.1493C19.5892 15.1321 19.4488 15.0846 19.3228 15.0098L19.2114 14.9292C19.0274 14.7905 18.9026 14.5875 18.8619 14.3607C18.8427 14.2376 18.8517 14.1117 18.8883 13.9926C18.9249 13.8735 18.9881 13.7643 19.0731 13.6732Z" fill="#FF9A6C"/>
<path id="Vector_31" d="M25.1535 13.8039C25.0713 13.9061 24.952 13.9716 24.8217 13.986C24.6914 14.0004 24.5607 13.9625 24.4582 13.8808C24.4058 13.8437 24.3613 13.7966 24.3275 13.7421C24.2936 13.6876 24.2709 13.6269 24.2609 13.5635C24.2509 13.5002 24.2537 13.4354 24.2691 13.3731C24.2845 13.3108 24.3123 13.2523 24.3507 13.2009C24.4347 13.1002 24.5544 13.0359 24.6848 13.0216C24.8151 13.0073 24.9459 13.044 25.0498 13.1241C25.1019 13.1614 25.146 13.2087 25.1795 13.2634C25.2131 13.318 25.2353 13.3788 25.245 13.4421C25.2547 13.5055 25.2515 13.5702 25.2358 13.6323C25.2201 13.6944 25.1921 13.7528 25.1535 13.8039Z" fill="#263238"/>
<path id="Vector_32" d="M26.7052 12.5019C26.6168 12.5019 26.5054 12.0525 26.0906 11.703C25.6758 11.3534 25.1995 11.3189 25.1995 11.2229C25.1995 11.1268 25.3186 11.1307 25.5337 11.146C25.8169 11.1718 26.0852 11.2845 26.3019 11.4687C26.5167 11.6501 26.6686 11.8948 26.7359 12.1677C26.782 12.3713 26.7474 12.498 26.7052 12.5019Z" fill="#263238"/>
<path id="Vector_33" d="M21.3931 13.7999C21.6666 13.916 21.9247 14.0657 22.1613 14.2454C22.2765 14.3223 22.3956 14.3876 22.4724 14.3299C22.5749 14.2251 22.6421 14.0908 22.6645 13.9459C22.7835 13.604 22.9026 13.2506 23.0294 12.8781C23.5594 11.3686 24.0357 10.1625 24.0971 10.1894C24.1586 10.2163 23.7783 11.4531 23.2483 12.9626C23.1177 13.3313 22.9897 13.6847 22.8642 14.0227C22.8225 14.2052 22.7195 14.3679 22.5723 14.4836C22.525 14.5064 22.4731 14.5182 22.4206 14.5182C22.368 14.5182 22.3162 14.5064 22.2688 14.4836C22.196 14.4498 22.1277 14.4073 22.0653 14.3568C21.8179 14.2013 21.5919 14.014 21.3931 13.7999Z" fill="#263238"/>
<path id="Vector_34" d="M17.3563 18.755C15.9275 17.5907 14.8503 16.0521 14.2452 14.311C14.2452 14.311 13.5653 17.2878 16.8032 19.5309L17.3563 18.755Z" fill="#FF9A6C"/>
<path id="Vector_35" d="M19.9336 13.0627C20.0066 13.1164 19.6301 13.5658 19.7454 14.2149C19.8606 14.8641 20.3791 15.2097 20.333 15.275C20.287 15.3403 20.1525 15.275 19.949 15.1099C19.6841 14.891 19.5035 14.5868 19.4381 14.2495C19.3784 13.9258 19.4458 13.5915 19.6263 13.3162C19.7646 13.1049 19.9067 13.0358 19.9336 13.0627Z" fill="#263238"/>
<path id="Vector_36" d="M27.696 10.8964C27.5385 10.9386 27.2812 10.6045 26.8856 10.3241C26.4899 10.0437 26.1174 9.88237 26.0943 9.72489C26.0943 9.64807 26.2211 9.58278 26.4323 9.59046C26.7116 9.61153 26.9798 9.70855 27.208 9.87102C27.4361 10.0335 27.6155 10.2552 27.7267 10.5123C27.792 10.7197 27.7651 10.858 27.696 10.8964Z" fill="#263238"/>
<path id="Vector_37" d="M20.6174 10.0627C20.5364 10.1656 20.4984 10.2958 20.5113 10.4261C20.5242 10.5564 20.587 10.6767 20.6865 10.7617C20.734 10.805 20.7897 10.8383 20.8503 10.8596C20.9109 10.8809 20.9751 10.8899 21.0392 10.886C21.1033 10.882 21.166 10.8652 21.2235 10.8367C21.281 10.8081 21.3322 10.7682 21.3741 10.7195C21.4548 10.6172 21.4927 10.4876 21.4798 10.3579C21.4669 10.2283 21.4042 10.1086 21.3049 10.0243C21.2577 9.9808 21.2022 9.94725 21.1418 9.9256C21.0813 9.90394 21.0172 9.89463 20.9531 9.89821C20.889 9.90179 20.8262 9.91819 20.7686 9.94644C20.7109 9.97469 20.6595 10.0142 20.6174 10.0627Z" fill="#263238"/>
<path id="Vector_38" d="M20.9936 7.94655C20.9936 8.03873 21.4776 8.05025 21.9039 8.38442C22.3302 8.71858 22.4723 9.15261 22.5607 9.15261C22.649 9.15261 22.6221 9.01433 22.5607 8.81076C22.4765 8.53909 22.3101 8.30022 22.0844 8.12707C21.8646 7.95449 21.5955 7.85629 21.3162 7.84668C21.105 7.84668 20.9897 7.9043 20.9936 7.94655Z" fill="#263238"/>
<path id="Vector_39" d="M22.2919 6.75978C22.2919 6.92494 22.7067 7.07859 23.1062 7.38202C23.5056 7.68546 23.786 8.01577 23.9435 7.97352C24.0165 7.95048 24.0395 7.81605 23.9627 7.60864C23.8504 7.33946 23.6656 7.10676 23.4288 6.93647C23.1981 6.7611 22.9224 6.65458 22.6337 6.62919C22.4148 6.62151 22.2919 6.67144 22.2919 6.75978Z" fill="#263238"/>
<path id="Vector_40" d="M16.277 8.20788C16.4652 7.98511 16.661 7.24381 16.4575 7.02103C15.9466 6.43721 14.8443 5.5922 13.5806 7.07864C11.8483 9.11051 14.2451 10.428 14.2989 10.3742C14.3526 10.3204 15.6317 8.97607 16.277 8.20788Z" fill="#FFBF9D"/>
<path id="Vector_41" d="M14.3718 9.15633C14.3718 9.15633 14.3142 9.15633 14.2297 9.12944C14.1149 9.09224 14.0187 9.01254 13.9608 8.90667C13.9012 8.71182 13.8944 8.50465 13.9409 8.30627C13.9875 8.1079 14.0858 7.92542 14.2259 7.77743C14.3689 7.59889 14.55 7.45454 14.7559 7.35492C14.8293 7.30756 14.913 7.27863 14.9999 7.27061C15.0869 7.26258 15.1745 7.2757 15.2553 7.30884C15.3048 7.33348 15.3444 7.37437 15.3675 7.4247C15.3906 7.47503 15.3957 7.53174 15.382 7.58538C15.3589 7.66604 15.3129 7.69293 15.3205 7.70829C15.3282 7.72366 15.3935 7.70829 15.4473 7.61227C15.4794 7.55229 15.4889 7.48279 15.4742 7.41638C15.4648 7.37182 15.4468 7.32954 15.4211 7.29197C15.3954 7.2544 15.3625 7.22228 15.3244 7.19744C15.2271 7.14259 15.1173 7.11377 15.0056 7.11377C14.8939 7.11377 14.7841 7.14259 14.6868 7.19744C14.4503 7.29989 14.2421 7.45803 14.0799 7.65836C13.7457 8.08087 13.6267 8.64164 13.8495 8.97581C13.8913 9.04068 13.9479 9.0947 14.0147 9.13343C14.0815 9.17216 14.1565 9.19449 14.2336 9.19858C14.3257 9.20242 14.3757 9.16785 14.3718 9.15633Z" fill="#FF9A6C"/>
<path id="Vector_42" d="M16.3653 6.96709L16.4844 7.935C20.5059 7.45489 29.2825 5.28475 28.7754 5.42686C28.008 4.22696 26.9514 3.23906 25.7027 2.55384C23.7438 1.54751 19.7953 -0.0618488 18.305 2.02763C16.8147 4.1171 16.3653 6.96709 16.3653 6.96709Z" fill="#263238"/>
<path id="Vector_43" d="M-10.1335 41.666C-10.5175 42.1615 -13.8553 48.7641 -13.2331 52.4668C-12.6109 56.1695 -8.18226 60.237 -6.56138 63.4557C-5.025 66.5515 2.01547 75.8466 2.27281 79.3381C2.53015 82.8295 5.61827 93.2461 8.22244 100.559L8.8754 102.326L15.2898 101.427C15.2898 101.427 12.5627 91.3871 11.6947 87.2927C10.8266 83.1982 11.6371 82.4492 10.9495 79.3381C10.262 76.2269 7.91901 68.1263 7.91901 68.1263L2.15759 50.7038L2.85664 44.7503L-10.1335 41.666Z" fill="#263238"/>
<path id="Vector_44" d="M13.016 96.3303L14.8596 102.338C14.8596 102.338 20.8823 104.692 20.936 105.829L9.24418 105.675V102.944L7.76925 97.183L13.016 96.3303Z" fill="#263238"/>
<path id="Vector_45" d="M9.24429 105.676V104.765L20.4791 105.219C20.4791 105.219 20.9976 105.457 20.9323 105.829L9.24429 105.676Z" fill="#455A64"/>
<path id="Vector_46" d="M14.8982 102.376C14.8982 102.434 14.6101 102.457 14.3297 102.637C14.0493 102.818 13.8919 103.064 13.8381 103.022C13.7843 102.979 13.8765 102.661 14.2222 102.445C14.5679 102.23 14.9136 102.311 14.8982 102.376Z" fill="white"/>
<path id="Vector_47" d="M16.2271 102.922C16.2271 102.975 15.9928 103.071 15.7969 103.306C15.601 103.54 15.5395 103.809 15.4819 103.805C15.4243 103.801 15.3936 103.475 15.6432 103.175C15.8929 102.876 16.2271 102.864 16.2271 102.922Z" fill="white"/>
<path id="Vector_48" d="M16.9723 104.446C16.9223 104.446 16.8455 104.166 16.9953 103.851C17.1451 103.536 17.4178 103.413 17.4409 103.467C17.4639 103.521 17.2949 103.686 17.1759 103.943C17.0568 104.201 17.0376 104.439 16.9723 104.446Z" fill="white"/>
<path id="Vector_49" d="M9.82032 14.7756C9.82032 14.7756 5.40708 14.864 2.31511 17.9521C-0.776852 21.0402 -8.19757 33.2237 -8.32432 35.0789C-8.40409 36.1657 -8.40409 37.2569 -8.32432 38.3437L-12.5148 42.7762C-12.5148 42.7762 -9.51117 44.5353 -6.15802 44.5353C-2.80487 44.5353 3.64022 42.7762 3.64022 42.7762L5.40707 39.062L14.1452 32.7052C14.1452 32.7052 16.9722 24.6738 16.0004 21.9505C15.0286 19.2273 9.82032 14.7756 9.82032 14.7756Z" fill="#455A64"/>
<path id="Vector_50" d="M9.82039 14.7755L11.2492 14.1226L15.7623 19.9685L15.6855 22.2308L9.82039 14.7755Z" fill="#455A64"/>
<path id="Vector_51" d="M10.2813 14.4263C10.3949 14.748 10.5443 15.056 10.7268 15.3443C11.1297 16.0605 11.5694 16.7554 12.0443 17.4261C12.523 18.0996 13.0358 18.7483 13.5807 19.3696C13.7878 19.6423 14.0234 19.8921 14.2836 20.1147C14.1067 19.8238 13.9049 19.5488 13.6805 19.2928C13.2964 18.7973 12.7702 18.1097 12.2171 17.3262C11.664 16.5426 11.1955 15.8205 10.8574 15.2905C10.6873 14.9884 10.4947 14.6995 10.2813 14.4263Z" fill="#263238"/>
<path id="Vector_52" d="M5.9833 41.6662C6.10621 42.1617 3.97447 50.0087 3.97447 50.0087L10.4465 76.8954C10.4465 76.8954 6.85135 80.2409 -2.32468 79.127C-2.32468 79.127 -8.02849 56.8072 -8.27431 51.088C-8.52013 45.3689 -7.77883 41.6662 -7.77883 41.6662L-6.29239 38.5512C-6.29239 38.5512 1.27044 38.5512 4.86557 37.1876C8.4607 35.8241 12.1634 32.7244 12.1634 32.7244L15.9006 23.9556L16.0504 25.3306L15.7623 31.8871L5.9833 41.6662Z" fill="#6E9BFF"/>
<path id="Vector_53" d="M-1.76403 41.0479C-0.492339 41.2664 0.789629 41.4203 2.07692 41.5088C3.36223 41.6619 4.65442 41.7504 5.94861 41.7738C3.38969 41.3965 0.8127 41.1542 -1.77169 41.0479H-1.76403Z" fill="#263238"/>
<path id="Vector_54" d="M16.5458 30.7696C16.6111 30.7888 17.7673 42.7649 17.7673 42.7649L21.4738 53.4427L18.5623 57.2376C18.5623 57.2376 13.3463 47.6352 12.6857 44.0055C12.025 40.3758 9.46696 29.648 9.46696 29.648L13.2618 27.4126L16.5458 30.7696Z" fill="#FFBF9D"/>
<path id="Vector_55" d="M12.559 19.7765C12.9047 19.8303 15.7354 20.66 16.204 22.8493C16.6726 25.0386 17.1412 30.9691 17.1412 30.9691C17.1412 30.9691 10.0854 30.0434 9.45933 30.704C8.83326 31.3647 8.22254 23.9785 8.22254 23.9785C8.22254 23.9785 10.1622 19.4078 12.559 19.7765Z" fill="#455A64"/>
<path id="Vector_56" d="M21.4738 52.1904C21.4738 52.5438 26.3288 64.1243 26.4171 65.096C26.5055 66.0678 28.5374 69.1559 27.6539 70.0393C26.7705 70.9227 25.2034 66.7707 25.2034 66.7707C25.2034 66.7707 24.8193 68.0075 23.667 67.7424C22.5147 67.4774 22.8719 66.6823 22.8719 66.6823C22.1196 66.3111 21.4228 65.8367 20.8017 65.2727C19.8683 64.3893 19.707 60.8787 19.707 60.3755C19.707 59.8723 16.834 54.4988 16.834 54.4988C19.0617 54.7715 20.022 54.2223 21.4738 52.1904Z" fill="#455A64"/>
<path id="Vector_57" d="M23.5441 64.7312C23.5133 64.7312 23.498 64.8733 23.4826 65.0884C23.471 65.3655 23.4259 65.6403 23.3482 65.9065C23.2656 66.1624 23.1077 66.3874 22.8949 66.5518C22.7259 66.6709 22.5915 66.7016 22.5992 66.7323C22.6069 66.7631 22.7528 66.7784 22.9833 66.6709C23.2552 66.5181 23.4595 66.2685 23.5556 65.9718C23.6433 65.6861 23.672 65.3856 23.6401 65.0884C23.6017 64.8656 23.571 64.7312 23.5441 64.7312Z" fill="#263238"/>
<path id="Vector_58" d="M21.3932 64.8194C21.3664 64.8194 21.3548 64.877 21.3625 64.9539C21.3667 64.997 21.3757 65.0395 21.3894 65.0806V65.1497C21.3894 65.1958 21.3894 65.169 21.3894 65.1497L21.3318 65.192C21.2948 65.214 21.2612 65.2412 21.2319 65.2727C21.1782 65.3303 21.1551 65.3764 21.1705 65.3956C21.1858 65.4148 21.2358 65.4148 21.3049 65.3956L21.4201 65.3495L21.4931 65.3188C21.5162 65.2957 21.5546 65.2957 21.593 65.2112C21.6108 65.1655 21.6108 65.1148 21.593 65.0691L21.5584 64.9999C21.5413 64.9623 21.5207 64.9263 21.497 64.8924C21.4547 64.8463 21.4201 64.8117 21.3932 64.8194Z" fill="#263238"/>
<path id="Vector_59" d="M7.61948 20.9058C7.91751 20.5496 8.25659 20.2299 8.62965 19.9532C9.56115 19.3278 10.6922 19.0717 11.8023 19.235C12.9083 19.4296 13.9342 19.9406 14.7559 20.7061C15.3935 21.2899 15.697 21.7431 15.7239 21.7201C15.6771 21.6011 15.6109 21.4908 15.528 21.3936C15.3289 21.1097 15.1025 20.8459 14.852 20.6062C14.034 19.7814 12.9783 19.2334 11.833 19.0391C10.6747 18.8648 9.49429 19.1516 8.54514 19.838C8.26271 20.043 8.01503 20.292 7.81153 20.5755C7.73138 20.6754 7.66665 20.7867 7.61948 20.9058Z" fill="#263238"/>
<path id="Vector_60" d="M8.13802 25.1079C8.07591 25.3472 8.05386 25.5951 8.07273 25.8415C8.07045 26.4344 8.11539 27.0265 8.20716 27.6122C8.29674 28.1986 8.4342 28.7767 8.61814 29.3406C8.67791 29.5803 8.77374 29.8096 8.90237 30.0205C8.95998 29.9974 8.61046 28.9373 8.40305 27.5815C8.19564 26.2256 8.18795 25.1079 8.13802 25.1079Z" fill="#263238"/>
<path id="Vector_61" d="M5.66059 43.4446C5.66059 43.4446 9.83954 50.1931 10.4118 51.0842C10.9841 51.9753 11.5641 53.3081 10.4118 53.5693C9.25956 53.8305 9.25956 52.6782 8.75639 51.6488C8.25323 50.6195 6.68228 50.823 5.80655 49.8666C5.27237 49.279 4.80358 48.635 4.40844 47.9461C4.40844 47.9461 5.70668 43.1603 5.66059 43.4446Z" fill="#455A64"/>
</g>
</svg>
