<svg width="64" height="168" viewBox="0 0 64 168" fill="none" xmlns="http://www.w3.org/2000/svg">
<g id="&#208;&#180;&#208;&#181;&#208;&#178;&#209;&#131;&#209;&#136;&#208;&#186;&#208;&#176; &#209;&#129; &#209;&#130;&#209;&#128;&#209;&#143;&#208;&#191;&#208;&#190;&#208;&#186;&#208;&#190;&#208;&#185;">
<g id="Group">
<path id="Vector" d="M73.8656 151.603C74.6946 152.729 76.1018 157.858 76.1018 157.858L65.5034 160.709C64.3761 159.017 65.0103 157.489 66.2024 156.987C66.7155 156.772 67.2001 156.085 67.5343 155.506C67.5187 155.448 67.4028 152.418 67.7671 152.175C67.7671 152.175 67.9616 151.805 68.2794 152.038C68.5921 152.271 69.059 153.182 69.059 153.182C70.1855 150.772 71.8789 150.599 73.8656 151.603Z" fill="#263238"/>
</g>
<path id="Vector_2" d="M42.5113 57.2506C42.5113 57.2506 39.8541 69.4041 41.7301 85.7421C43.7478 103.313 51.398 127.829 51.398 127.829L76.6577 121.061L68.0069 88.7753L62.0504 56.3197L42.5113 57.2506Z" fill="#263238"/>
<path id="Vector_3" d="M59.6495 37.1733C59.8967 37.1018 64.4346 47.1393 64.4 47.4765C64.2784 48.7271 50.9388 49.5843 50.9388 49.5843L51.0104 53.0369C51.0104 53.0369 57.2275 54.1246 63.4271 53.4628C69.8209 52.775 71.4173 49.5625 70.3794 45.5672C69.4262 41.9084 65.4701 33.4536 65.4701 33.4536L59.6546 37.1719L59.6495 37.1733Z" fill="#DE9E7C"/>
<g id="Group_2">
<g id="Group_3">
<path id="Vector_4" d="M43.3642 61.2851L62.6871 54.9416C66.5235 57.7758 69.5193 64.4319 70.9144 70.45C71.7191 74.3255 72.3744 79.4696 72.9116 84.4162C73.6851 91.5637 74.2057 98.2949 74.5722 100.19C74.5621 100.193 74.3592 100.247 74.344 100.251C75.0046 102.656 78.7464 110.351 79.7196 113.963C83.0247 126.277 88.2501 145.109 88.2501 145.109L78.7193 147.663C78.7193 147.663 63.3146 106.423 62.5413 103.882C62.4544 103.599 62.3675 103.315 62.2729 103.023L60.8043 98.617C59.4182 94.6005 57.8159 90.1423 56.4592 85.5662L54.0115 78.2166C47.8278 77.7811 43.4432 71.8667 42.1149 70.7235C42.3645 65.0612 42.5312 63.9182 43.3565 61.2767L43.3642 61.2851Z" fill="#263238"/>
<path id="Vector_5" d="M42.1072 68.3418C42.1072 68.3418 41.7706 78.6704 45.4368 102.173C46.1387 106.659 49.4299 112.835 51.2775 116.707L66.0656 151.101L75.2448 148.594C70.0371 132.345 63.5582 113.744 59.9695 107.148L61.3571 68.4617L42.1072 68.3418Z" fill="#263238"/>
</g>
<g id="Group_4" opacity="0.4">
<path id="Vector_6" d="M43.3642 61.2851L62.6871 54.9416C66.5235 57.7758 69.5193 64.4319 70.9144 70.45C71.7191 74.3255 72.3744 79.4696 72.9116 84.4162C73.6851 91.5637 74.2057 98.2949 74.5722 100.19C74.5621 100.193 74.3592 100.247 74.344 100.251C75.0046 102.656 78.7464 110.351 79.7196 113.963C83.0247 126.277 88.2501 145.109 88.2501 145.109L78.7193 147.663C78.7193 147.663 63.3146 106.423 62.5413 103.882C62.4544 103.599 62.3675 103.315 62.2729 103.023L60.8043 98.617C59.4182 94.6005 57.8159 90.1423 56.4592 85.5662L54.0115 78.2166C47.8278 77.7811 44.5316 69.6498 43.2032 68.5067C43.4528 62.8443 42.5312 63.9182 43.3565 61.2767L43.3642 61.2851Z" fill="white"/>
<path id="Vector_7" d="M43.2033 68.5068C43.2033 68.5068 42.4533 78.621 46.1195 102.123C46.8214 106.609 48.6085 111.064 50.456 114.936L65.2441 149.329L75.2449 148.594C70.0372 132.345 63.5583 113.744 59.9697 107.148L61.3572 68.4619L43.2033 68.5068Z" fill="white"/>
</g>
<path id="Vector_8" opacity="0.2" d="M59.9707 107.153L60.4529 93.7561C60.2935 88.2918 60.9902 85.0081 61.7716 82.8521C61.6993 82.6632 61.7079 82.4319 61.7079 82.4319C61.7562 82.4294 62.0139 82.0116 62.3984 81.3568C62.7042 80.7127 62.9956 80.1974 63.2138 79.7538L63.1885 79.9636C64.7344 77.1914 66.9349 73.0884 66.9349 73.0884C66.9349 73.0884 65.9434 78.7413 63.3895 81.9917C63.1992 82.2353 63.0327 82.4257 62.8788 82.5814L59.9683 107.164L59.9707 107.153Z" fill="black"/>
</g>
<g id="Group_5">
<path id="Vector_9" d="M35.3954 35.466C33.4293 40.2462 32.8016 44.5554 32.8016 44.5554L40.523 45.0785C40.523 45.0785 44.0845 34.9169 42.7464 32.6088C41.5057 30.4617 40.9124 31.6214 37.4845 33.2776C36.5325 33.7391 35.7904 34.5159 35.4006 35.4654L35.3954 35.466Z" fill="#6E9BFF"/>
<path id="Vector_10" d="M62.4739 38.3215L62.8398 28.0007C60.2856 25.8535 50.5914 26.2754 50.5914 26.2754L44.6502 28.2057C44.6502 28.2057 42.4649 29.3221 40.6469 30.4703C38.2204 32.0054 36.9683 33.054 36.7116 34.6322C36.7116 34.6322 37.8301 39.9019 40.2148 46.1441C40.8711 47.8629 42.3991 55.209 42.6938 58.378L41.7299 66.5688C60.6567 68.8105 66.5049 59.6753 66.5049 59.6753C65.6188 58.3564 63.4308 54.8775 62.8289 53.5241C62.5072 51.6741 62.3917 50.8982 62.3447 47.5171C62.3329 46.8644 62.3588 38.9874 62.4688 38.3229L62.4739 38.3215Z" fill="#6E9BFF"/>
<path id="Vector_11" d="M61.8721 27.4325C64.3119 27.9759 67.2655 34.9817 67.2655 34.9817L60.6256 40.0869C60.6256 40.0869 56.0585 34.6273 56.557 31.5373C56.9824 28.9249 58.7721 26.738 61.8721 27.4325Z" fill="#6E9BFF"/>
</g>
<g id="Group_6">
<g id="Group_7">
<path id="Vector_12" d="M7.00291 41.3568C6.44703 40.4387 6.57771 39.2222 7.12293 38.2745C7.66815 37.3268 8.5807 36.6138 9.55271 36.0619C10.2032 35.6898 10.9189 35.3783 11.6707 35.3434C12.4224 35.3086 13.2182 35.6002 13.6007 36.2161C13.8971 36.6936 13.9227 37.3165 14.3102 37.728C14.5392 37.9738 14.8639 38.1105 15.1786 38.2501C15.4932 38.3896 15.8093 38.5547 15.9927 38.8335C16.1812 39.1109 16.1801 39.5328 15.9109 39.7455L16.084 39.6002C16.5681 41.0216 18.0927 41.8623 18.8062 43.1858C19.472 44.4128 19.3423 45.9778 18.635 47.2136C17.9291 48.4541 16.7079 49.3747 15.3599 49.9233C14.1132 50.4239 12.7096 50.623 11.4195 50.2921C10.7413 50.1146 10.0632 49.755 9.77348 49.1404C9.44251 48.4327 9.69381 47.6054 9.86929 46.8401C10.0892 45.8755 10.1587 44.8158 9.65535 43.9721C9.0274 42.9068 7.64738 42.4229 7.00421 41.3617L7.00291 41.3568Z" fill="#536181"/>
</g>
<path id="Vector_13" d="M33.5658 44.5737L32.9516 52.9795L17.6917 44.1691L14.5517 47.1603C14.5517 47.1603 26.9572 56.015 31.0762 58.14C36.1044 60.7341 36.6835 60.2207 38.1279 56.2505C38.48 52.2873 39.3626 44.812 39.3626 44.812L33.5658 44.5737Z" fill="#DE9E7C"/>
</g>
<g id="Group_8">
<g id="Group_9">
<path id="Vector_14" d="M48.8679 18.3413C49.0196 21.0176 49.1696 26.4063 51.4549 27.6106C51.4549 27.6106 51.3987 30.3427 46.509 31.6529C41.1375 33.0922 43.2784 29.8015 43.2784 29.8015C46.0356 28.3444 45.4178 26.2821 44.3913 24.4595L48.8628 18.3426L48.8679 18.3413Z" fill="#DE9E7C"/>
<path id="Vector_15" d="M36.5552 16.6594C36.6211 16.6418 36.6755 16.6012 36.7094 16.5452C36.7773 16.4334 36.7383 16.2877 36.6236 16.2247C35.9391 15.8616 35.1121 15.8385 34.3901 16.1673C34.2711 16.2304 34.2263 16.3674 34.2842 16.482L34.2868 16.4917C34.3497 16.605 34.4923 16.65 34.6126 16.5918C35.1838 16.3294 35.8419 16.3509 36.3823 16.6433C36.4333 16.6713 36.4906 16.682 36.5514 16.6656L36.5552 16.6594Z" fill="#263238"/>
<path id="Vector_16" d="M36.6106 19.7884C36.7211 20.7686 36.688 21.7612 36.5152 22.7393C37.0427 22.8009 37.5726 22.6277 37.9629 22.2785L36.6106 19.7884Z" fill="#A24E3F"/>
<path id="Vector_17" d="M36.6183 19.0054C36.8111 19.3598 36.7691 19.751 36.526 19.8786C36.283 20.0062 35.935 19.8235 35.774 19.4659C35.6129 19.1083 35.6194 18.7266 35.8611 18.5941C36.1029 18.4617 36.4204 18.6525 36.6183 19.0054Z" fill="#263238"/>
<path id="Vector_18" d="M35.9436 18.5567L34.9225 18.7834C34.9225 18.7834 35.7384 19.2109 35.9436 18.5567Z" fill="#263238"/>
<path id="Vector_19" d="M48.3946 11.2385C50.4785 15.729 51.4595 17.5846 50.3751 21.0242C48.7429 26.193 42.5216 27.8288 39.0843 24.0496C35.9875 20.6685 33.1065 13.8931 36.6142 9.81974C39.0765 6.9166 43.4696 6.43173 46.4364 8.73901C47.2892 9.40578 47.964 10.2608 48.3996 11.2371L48.3946 11.2385Z" fill="#DE9E7C"/>
<path id="Vector_20" d="M40.6076 6.36056C36.0721 5.84775 32.075 8.07431 32.7547 12.2748C33.4331 16.4705 39.2839 19.0721 39.2839 19.0721L40.6076 6.36056Z" fill="#263238"/>
<path id="Vector_21" d="M41.4711 17.497C41.8286 18.385 41.8083 19.3846 41.4114 20.2769C40.8714 21.447 39.5948 21.2477 38.9026 20.2673C38.2745 19.3841 37.8027 17.7044 38.7511 16.8413C39.4471 16.2332 40.5118 16.2706 41.1283 16.9278C41.2869 17.0935 41.3999 17.2923 41.4724 17.5019L41.4711 17.497Z" fill="#DE9E7C"/>
<path id="Vector_22" opacity="0.3" d="M40.0783 20.3945C40.1088 20.3863 40.1315 20.3698 40.1517 20.3436C40.5535 19.8143 40.6887 19.1014 40.5056 18.479C40.4316 18.223 40.3224 18.0388 40.1679 17.9085C39.9635 17.7342 39.6838 17.6842 39.4519 17.7724C39.3835 17.8011 39.3534 17.8716 39.3767 17.9383C39.4051 18.0035 39.484 18.0344 39.5474 18.0071C39.6842 17.9496 39.8585 17.9914 39.9913 18.1015C40.11 18.1998 40.1936 18.3492 40.2533 18.5518C40.4105 19.0979 40.2913 19.7284 39.9386 20.1977C39.8946 20.2563 39.909 20.3305 39.9639 20.3731C39.9971 20.3954 40.0365 20.4005 40.072 20.391L40.0783 20.3945Z" fill="black"/>
</g>
<g id="Group_10">
<path id="Vector_23" opacity="0.3" d="M61.935 29.8568C61.9306 29.9621 62.5101 36.7712 60.3154 37.9943C59.2699 38.5764 50.2351 40.8306 50.2351 40.8306L49.1174 39.8445L48.0845 41.4069L42.3681 42.9386L44.1759 36.6193L41.4585 27.8169L61.935 29.8568Z" fill="black"/>
<path id="Vector_24" d="M40.1275 18.7108C37.1224 15.5706 36.486 8.61012 40.6114 6.17223C44.3229 3.97535 50.9919 3.422 52.5948 10.3577C54.199 17.2982 55.679 16.1261 58.6739 20.0603C61.8174 24.1836 62.8952 30.4376 61.0171 36.2917L52.1305 38.6728L49.9088 36.8738L48.585 39.6228L40.8701 41.69C43.3247 35.6138 40.5177 34.2475 38.8264 29.7819C37.1351 25.3162 42.7056 21.4137 40.1174 18.7135L40.1275 18.7108Z" fill="#263238"/>
<path id="Vector_25" d="M46.5 5.95275C46.5978 5.36438 46.9522 4.75934 47.5416 4.56497C47.8407 4.464 48.1711 4.47958 48.4862 4.49924L48.6396 4.84852C49.0252 5.3542 49.6191 5.66352 50.1159 6.07694C50.6113 6.48551 51.0306 7.09668 50.8707 7.71729C50.7504 8.18153 50.3208 8.52568 49.8621 8.70064C49.0232 9.01911 48.0186 8.84065 47.3519 8.28016C46.6853 7.71967 46.3657 6.81112 46.5064 5.95625L46.5 5.95275Z" fill="#407BFF"/>
<path id="Vector_26" d="M48.228 8.24323C47.7685 7.7053 47.1959 6.35966 47.1873 5.79983C47.1833 4.9733 47.5732 4.17653 48.0884 3.50236C48.3505 3.16148 48.6507 2.84159 49.0163 2.6031C49.6134 2.21409 50.3492 2.07938 51.0629 2.04432C51.873 2.00421 52.7144 2.08065 53.4091 2.46186C54.3575 2.9781 54.9347 4.05704 54.8259 5.11161C54.717 6.16617 53.9307 7.14722 52.8927 7.51384C53.6066 7.52034 54.3187 7.64183 54.9832 7.86977C55.0431 7.89017 55.1042 7.91543 55.13 7.97099C55.1493 8.02305 55.1218 8.08249 55.0929 8.13707C54.8353 8.57566 54.3366 8.84463 53.8266 8.95004C53.3166 9.05546 52.7969 9.02295 52.2809 8.98423C52.553 9.41103 52.8237 9.83297 53.0906 10.2611C53.174 10.3897 53.2613 10.5329 53.2547 10.6908C53.2455 11.042 52.8123 11.231 52.4467 11.2665C51.3334 11.3722 50.2527 10.829 49.492 10.0594C48.964 9.52945 48.5713 8.89557 48.2267 8.23838L48.228 8.24323Z" fill="#263238"/>
</g>
</g>
<g id="Group_11">
<path id="Vector_27" d="M41.5773 63.5231C41.8675 61.0354 41.4622 51.0826 41.4622 51.0826L53.127 57.0815C55.0666 57.4623 57.2652 56.8419 58.9263 55.3923C61.5044 53.1451 62.3756 48.9298 62.3756 48.9298C62.3756 48.9298 62.6327 51.2084 63.225 53.2567C63.8174 55.3049 65.6681 58.0934 65.6681 58.0934C65.6681 58.0934 62.1048 58.0436 56.1339 59.1126C50.1618 60.1767 41.1035 70.2761 41.1035 70.2761C41.1035 70.2761 41.2897 66.0205 41.5799 63.5328L41.5773 63.5231Z" fill="#263238"/>
<path id="Vector_28" d="M55.5125 57.4418C55.0708 54.3122 55.6281 51.0763 57.1723 48.2369C57.4598 47.7071 57.9335 47.1013 58.6093 47.4928C59.1995 47.8291 59.3392 48.6141 59.3774 49.2232C59.4751 50.8054 58.7631 52.49 58.0965 53.9179C57.3096 55.607 56.2501 57.1713 54.9888 58.5711C54.6533 58.9421 54.1037 58.4127 54.4341 58.0431C56.2542 56.0303 57.6221 53.6286 58.3425 51.0621C58.5375 50.3696 58.6826 49.6332 58.5625 48.9211C58.5309 48.7422 58.4162 48.091 58.1411 48.1803C57.9256 48.2485 57.7311 48.8211 57.6358 49.0132C57.0476 50.1858 56.6326 51.4369 56.3867 52.7104C56.1015 54.2026 56.0669 55.737 56.2758 57.2269C56.3436 57.7032 55.5841 57.9119 55.515 57.4308L55.5125 57.4418Z" fill="#263238"/>
<path id="Vector_29" d="M55.7285 57.6597C54.3536 57.3775 53.3919 56.3651 52.6015 55.3225C51.5933 53.9947 50.7635 52.541 50.1351 51.0073C49.9299 50.5053 49.7289 49.8565 50.1336 49.3785C50.5382 48.9005 51.2271 48.9554 51.7456 49.2068C53.0517 49.8406 54.022 51.2098 54.6257 52.4482C55.4713 54.184 55.7769 56.0956 56.0697 57.9795C56.1426 58.4544 55.3831 58.6631 55.3089 58.1833C55.0399 56.4492 54.7796 54.666 54.0477 53.0507C53.7321 52.3597 53.3353 51.6905 52.8362 51.1059C52.5931 50.8275 52.3259 50.5608 52.0399 50.3251C51.81 50.1369 51.3309 49.7083 50.9895 49.7529C50.2395 49.855 51.2012 51.4764 51.3788 51.8348C51.7456 52.5745 52.1617 53.2958 52.6234 53.9841C53.4237 55.1854 54.4071 56.6032 55.955 56.9224C56.4497 57.024 56.2321 57.7538 55.7386 57.657L55.7285 57.6597Z" fill="#263238"/>
<path id="Vector_30" d="M57.527 58.2243L57.188 58.4401L57.3733 58.0157C59.0409 61.9671 60.3792 66.0485 61.3763 70.216C61.491 70.685 60.7264 70.895 60.6154 70.4199C59.6183 66.2523 58.2801 62.171 56.6124 58.2195C56.5492 58.0647 56.6674 57.8769 56.7977 57.7951L57.1367 57.5794C57.5631 57.3038 57.9496 57.9549 57.5283 58.2292L57.527 58.2243Z" fill="#263238"/>
<path id="Vector_31" d="M57.1642 58.3108C57.1709 62.5356 56.6707 66.7556 55.6797 70.8885C55.5633 71.3673 54.8101 71.1736 54.9214 70.6961C55.8963 66.6248 56.3817 62.4712 56.3767 58.3136C56.3774 57.8294 57.1636 57.8217 57.1642 58.3108Z" fill="#263238"/>
</g>
<path id="Vector_32" d="M17.5615 45.055C17.5615 45.055 18.0746 43.6422 17.51 42.5495C16.9454 41.4568 16.7966 40.4348 16.3152 39.6529C15.8339 38.871 15.6016 40.094 15.6072 40.7639C15.6191 41.4374 15.6214 42.1967 15.099 42.1337C14.5714 42.0721 10.9827 39.4318 10.2408 39.4223C9.4989 39.4129 10.6647 40.6775 10.6647 40.6775C10.6647 40.6775 9.04914 39.3981 8.68891 39.6768C8.5941 39.7491 8.49829 40.061 8.85614 40.4023C9.66133 41.1756 11.4444 42.7174 11.4444 42.7174C11.3435 42.6247 9.00147 40.8839 8.61139 40.6657C8.10658 40.3846 7.70848 40.5017 7.54139 40.7911C7.30525 41.2083 10.1282 43.4656 10.1763 43.6453C10.1763 43.6453 8.59509 42.2889 7.99943 42.5005C7.40377 42.7122 8.34699 43.615 9.34569 44.2583C10.2589 44.8464 11.8823 46.2384 12.8725 46.7486C14.0909 47.3799 15.0623 47.536 16.1168 46.7642C17.1712 45.9924 17.5501 45.0528 17.5501 45.0528L17.5615 45.055Z" fill="#DE9E7C"/>
</g>
</svg>
