<svg width="54" height="135" viewBox="0 0 54 135" fill="none" xmlns="http://www.w3.org/2000/svg">
<g id="&#208;&#180;&#208;&#181;&#208;&#178;&#209;&#131;&#209;&#136;&#208;&#186;&#208;&#176; &#209;&#129; &#208;&#188;&#208;&#181;&#209;&#130;&#208;&#181;&#208;&#187;&#208;&#186;&#208;&#190;&#208;&#185;">
<path id="Vector" d="M58.0724 5.64881C57.696 4.9633 57.109 4.41619 56.3976 4.0879C55.9905 3.94686 55.5541 3.91117 55.1293 3.98416C54.7046 4.05716 54.3053 4.23646 53.9691 4.50526C53.6367 4.77811 53.3655 5.11746 53.1729 5.50136C52.9803 5.88526 52.8707 6.30517 52.8512 6.73394L53.6886 11.7631C53.7571 11.9438 53.8757 12.1013 54.0307 12.2174C54.1856 12.3334 54.3705 12.4031 54.5637 12.4183C54.6921 12.4306 54.8215 12.4097 54.9395 12.3579C55.0576 12.306 55.1602 12.2248 55.2378 12.122C55.276 12.0673 55.3029 12.0055 55.3166 11.9402C55.3304 11.875 55.3309 11.8076 55.318 11.7422C55.3051 11.6768 55.2791 11.6146 55.2416 11.5594C55.2041 11.5042 55.1558 11.457 55.0996 11.4208C55.3047 11.5945 55.5513 11.7124 55.8156 11.7631C55.9488 11.7817 56.0842 11.7488 56.1939 11.6712C56.3036 11.5936 56.3795 11.4772 56.406 11.3457C56.3967 11.1715 56.3237 11.0067 56.2008 10.8825C55.8018 10.3925 55.3076 9.98794 54.7479 9.69299C55.5885 9.87954 56.4665 9.80078 57.2601 9.46762C57.6541 9.29526 57.9951 9.02165 58.2482 8.67479C58.5013 8.32792 58.6573 7.92026 58.7004 7.49352C58.6865 6.82885 58.4672 6.18465 58.0724 5.64881Z" fill="#263238"/>
<path id="Vector_2" d="M50.9922 3.128C49.9227 2.02381 48.6178 1.17335 47.1741 0.639493C45.7305 0.105637 44.1849 -0.0979626 42.6517 0.0437481C40.8512 0.206517 40.1394 0.65726 38.8833 1.14557C37.6195 1.59294 36.5547 2.47096 35.8771 3.62466C35.0357 4.99257 34.5546 6.5502 34.4786 8.15296C34.4814 9.53178 34.6358 10.9061 34.9392 12.2514C35.2365 13.8666 36.3418 16.6336 37.3006 16.6336L41.0187 17.7605C43.3216 17.5935 45.6537 17.4224 47.831 16.6628C50.0082 15.9032 52.0599 14.4717 53.048 12.3933C54.4172 9.50519 53.2783 5.37338 50.9922 3.128Z" fill="#263238"/>
<path id="Vector_3" d="M47.2951 3.49131L41.5212 1.88867L40.0935 2.21003C36.8402 2.56896 34.9811 6.38359 35.2407 9.0171C35.5296 11.9386 35.9986 15.4945 36.6936 17.5937C38.0921 21.8216 41.8353 21.7673 41.8353 21.7673L42.0697 24.6888L39.2226 26.2998L42.4424 36.6836H49.33L53.4668 23.107L50.6573 22.8149L50.3977 20.8408L48.9113 4.8352C48.8603 4.44989 48.6658 4.0978 48.3664 3.84884C48.067 3.59988 47.6846 3.47226 47.2951 3.49131Z" fill="#DAA08D"/>
<path id="Vector_4" d="M43.0953 15.8909C43.0536 15.7368 42.9735 15.5957 42.8625 15.4807C42.7515 15.3657 42.6132 15.2805 42.4603 15.2331C42.3074 15.1856 42.145 15.1774 41.9881 15.2092C41.8312 15.241 41.685 15.3118 41.5629 15.4151C41.3948 15.5717 41.2732 15.7712 41.2112 15.992C41.1492 16.2128 41.1491 16.4464 41.2112 16.6671C41.3197 16.7905 41.4537 16.8891 41.604 16.9561C41.7543 17.0231 41.9174 17.0569 42.082 17.0553C42.1336 17.0596 42.1854 17.0596 42.237 17.0553C42.496 17.0277 42.7351 16.904 42.9069 16.7089C43.0007 16.5969 43.0666 16.4645 43.0994 16.3224C43.1321 16.1802 43.1307 16.0324 43.0953 15.8909Z" fill="#6F4439"/>
<path id="Vector_5" d="M37.1374 12.5228C37.1592 12.6688 37.2376 12.8005 37.3559 12.8895C37.4741 12.9785 37.6227 13.0177 37.7696 12.9986C37.8416 12.9923 37.9116 12.9718 37.9755 12.9383C38.0395 12.9048 38.0961 12.8589 38.1421 12.8034C38.1881 12.7478 38.2225 12.6837 38.2434 12.6147C38.2643 12.5458 38.2712 12.4734 38.2637 12.4017C38.2399 12.2569 38.1608 12.1269 38.0429 12.0389C37.925 11.951 37.7775 11.912 37.6314 11.9301C37.5596 11.9359 37.4897 11.9558 37.4258 11.9889C37.3618 12.022 37.3052 12.0675 37.2591 12.1227C37.2131 12.1779 37.1786 12.2418 37.1577 12.3105C37.1368 12.3792 37.1299 12.4514 37.1374 12.5228Z" fill="#263238"/>
<path id="Vector_6" d="M36.3879 10.3734C36.4674 10.436 36.8401 10.052 37.443 9.95601C38.0459 9.86002 38.5316 10.0896 38.586 10.0061C38.6405 9.92262 38.519 9.8475 38.3055 9.73898C38.0155 9.60433 37.6914 9.56067 37.376 9.61378C37.0591 9.65963 36.7655 9.80597 36.5386 10.0311C36.392 10.2064 36.3502 10.3442 36.3879 10.3734Z" fill="#263238"/>
<path id="Vector_7" d="M40.7799 14.6847C40.4463 14.6415 40.1086 14.6415 39.775 14.6847C39.6201 14.6847 39.4694 14.6847 39.4233 14.5846C39.3846 14.4295 39.3948 14.2662 39.4526 14.1171L39.7164 12.8651C40.0765 11.1038 40.311 9.66812 40.2398 9.6556C40.1686 9.64308 39.8211 11.0537 39.4568 12.815C39.3731 13.2323 39.2935 13.6497 39.214 14.067C39.148 14.2676 39.1554 14.4849 39.2349 14.6806C39.266 14.7305 39.3083 14.7727 39.3584 14.8038C39.4085 14.8349 39.4651 14.8542 39.5238 14.86C39.6113 14.8728 39.7001 14.8728 39.7876 14.86C40.1243 14.842 40.4575 14.7831 40.7799 14.6847Z" fill="#263238"/>
<path id="Vector_8" d="M41.831 21.7878C43.8864 21.4828 45.8169 20.616 47.4081 19.2837C47.4081 19.2837 46.3446 22.5432 41.9189 22.8437L41.831 21.7878Z" fill="#6F4439"/>
<path id="Vector_9" d="M42.6141 14.8097C42.5178 14.8097 42.6141 15.4691 42.1368 16.0242C41.6595 16.5793 40.9477 16.6168 40.9603 16.7086C40.9728 16.8005 41.1361 16.8088 41.4292 16.7712C41.8119 16.7132 42.1617 16.5226 42.4173 16.2328C42.6652 15.9561 42.7945 15.5935 42.7774 15.2228C42.7565 14.9474 42.6602 14.8013 42.6141 14.8097Z" fill="#263238"/>
<path id="Vector_10" d="M36.3671 8.24066C36.4927 8.37004 36.9365 8.19892 37.4809 8.15718C38.0252 8.11545 38.4941 8.18223 38.5904 8.03198C38.6323 7.95686 38.5527 7.82747 38.3434 7.71061C38.0594 7.56607 37.7391 7.50801 37.4222 7.54368C37.105 7.56571 36.8016 7.682 36.5513 7.87755C36.3671 8.03198 36.3001 8.17805 36.3671 8.24066Z" fill="#263238"/>
<path id="Vector_11" d="M43.6861 11.525C43.7055 11.6702 43.6673 11.8172 43.5798 11.9349C43.4922 12.0525 43.3622 12.1315 43.2172 12.1552C43.1473 12.1705 43.0751 12.1718 43.0047 12.159C42.9344 12.1463 42.8672 12.1197 42.8073 12.0809C42.7473 12.0421 42.6956 11.9918 42.6553 11.9329C42.615 11.874 42.5868 11.8077 42.5724 11.7379C42.553 11.5916 42.5916 11.4435 42.6799 11.3251C42.7683 11.2067 42.8994 11.1272 43.0455 11.1035C43.1865 11.0751 43.333 11.1036 43.453 11.1825C43.5731 11.2615 43.6569 11.3847 43.6861 11.525Z" fill="#263238"/>
<path id="Vector_12" d="M44.54 9.26732C44.4814 9.3508 44.0166 9.08787 43.4137 9.16716C42.8108 9.24646 42.4046 9.58451 42.3293 9.53443C42.2539 9.48435 42.3293 9.36331 42.5219 9.20055C42.7565 8.99236 43.048 8.85867 43.3593 8.81658C43.6727 8.77647 43.9908 8.83637 44.2679 8.9877C44.494 9.10873 44.5735 9.22976 44.54 9.26732Z" fill="#263238"/>
<path id="Vector_13" d="M43.9705 7.37659C43.87 7.52684 43.3843 7.44336 42.8233 7.50597C42.2622 7.56857 41.8017 7.72717 41.676 7.59779C41.6174 7.53518 41.676 7.38911 41.8645 7.23469C42.1277 7.03818 42.4411 6.91957 42.7689 6.89246C43.0948 6.85531 43.4245 6.91178 43.7193 7.05522C43.9328 7.17208 44.0166 7.30564 43.9705 7.37659Z" fill="#263238"/>
<path id="Vector_14" d="M48.9532 12.2556C48.8988 11.93 49.15 11.1078 49.464 11.0035C50.3014 10.7322 51.8464 10.5486 52.2149 12.7105C52.7173 15.6654 49.6357 15.561 49.6189 15.4776C49.6022 15.3941 49.1332 13.3532 48.9532 12.2556Z" fill="#DAA08D"/>
<path id="Vector_15" d="M50.251 14.2462C50.251 14.2462 50.3096 14.2713 50.4059 14.2963C50.5364 14.3296 50.6749 14.3101 50.7911 14.2421C50.9665 14.0895 51.0978 13.893 51.1714 13.6728C51.245 13.4527 51.2582 13.217 51.2098 12.99C51.1756 12.7343 51.0824 12.4901 50.9376 12.2763C50.8947 12.189 50.831 12.1134 50.7523 12.0559C50.6735 11.9985 50.5819 11.961 50.4854 11.9466C50.4236 11.9413 50.3618 11.9575 50.3107 11.9925C50.2595 12.0275 50.2221 12.0792 50.2049 12.1386C50.1756 12.2304 50.2049 12.2847 50.2049 12.293C50.2049 12.3014 50.1337 12.2555 50.1337 12.1261C50.1394 12.05 50.1703 11.9781 50.2217 11.9216C50.2567 11.8844 50.2988 11.8545 50.3455 11.8338C50.3922 11.813 50.4427 11.8017 50.4938 11.8005C50.6196 11.8032 50.7424 11.8385 50.8504 11.9029C50.9583 11.9673 51.0475 12.0586 51.1093 12.1678C51.2798 12.4021 51.3904 12.6743 51.4317 12.9608C51.5113 13.5576 51.3019 14.1669 50.8916 14.3631C50.8156 14.3988 50.7327 14.4173 50.6487 14.4173C50.5648 14.4173 50.4818 14.3988 50.4059 14.3631C50.2677 14.3172 50.2426 14.2504 50.251 14.2462Z" fill="#6F4439"/>
<path id="Vector_16" d="M49.5854 11.0035L48.9113 11.8382C45.302 9.06277 38.0627 1.92182 38.4688 2.34753C39.8971 1.63846 41.4798 1.29427 43.0746 1.34588C45.5533 1.5003 50.3013 2.22232 50.5358 5.10207C50.7703 7.98183 49.5854 11.0035 49.5854 11.0035Z" fill="#263238"/>
<path id="Vector_17" d="M52.7086 5.50684C53.0235 6.56106 53.2463 7.64048 53.3744 8.73299C53.4293 9.83207 53.3886 10.9338 53.253 12.0259C53.3831 11.7245 53.4664 11.405 53.5 11.0785C53.7524 9.51474 53.6187 7.91322 53.1106 6.4125C53.027 6.0908 52.8912 5.78489 52.7086 5.50684Z" fill="#455A64"/>
<path id="Vector_18" d="M53.2783 8.69975C52.4979 8.69001 51.7201 8.60899 50.9545 8.45769C50.1423 8.26952 49.3501 8.00398 48.5889 7.66471C47.6463 7.24766 46.7267 6.78095 45.8338 6.26657C43.9203 5.18562 42.2288 4.13389 41.0187 3.34508L39.591 2.41438C39.4216 2.29253 39.2424 2.18503 39.055 2.09302C39.2047 2.23814 39.3673 2.36944 39.5407 2.48533C39.8631 2.7274 40.3404 3.06546 40.935 3.47447C42.1241 4.28831 43.8073 5.36509 45.7249 6.44604C46.6245 6.96528 47.5543 7.43075 48.5093 7.84C49.2916 8.17446 50.107 8.42625 50.942 8.59124C51.5056 8.70346 52.0798 8.75384 52.6545 8.74149C52.8098 8.74108 52.965 8.73133 53.1192 8.71227C53.2239 8.71645 53.2783 8.7081 53.2783 8.69975Z" fill="#455A64"/>
<path id="Vector_19" d="M52.6294 6.82995C52.4528 6.76474 52.2706 6.71584 52.0851 6.68387C51.7334 6.60875 51.2477 6.48771 50.6071 6.32495C47.365 5.48352 44.2692 4.15803 41.4249 2.39346C40.8764 2.0554 40.441 1.7716 40.1437 1.55875C39.9919 1.44787 39.8308 1.35013 39.6622 1.2666C39.7894 1.40107 39.9297 1.52269 40.0809 1.6297C40.3656 1.8509 40.7885 2.15139 41.337 2.51032C42.7435 3.43283 44.2286 4.23027 45.7752 4.89342C47.3236 5.55307 48.9262 6.07811 50.5652 6.46267C51.1974 6.60457 51.7083 6.70474 52.0683 6.75483C52.252 6.80025 52.4402 6.82544 52.6294 6.82995Z" fill="#455A64"/>
<path id="Vector_20" d="M63.4151 59.417C63.4151 59.417 67.9873 68.3651 67.7779 76.1112C67.5686 83.8573 66.1827 91.8413 66.48 96.1109C66.6851 99.0073 69.1136 106.077 69.5323 112.555C69.951 119.032 69.5323 126.845 69.5323 126.845H62.5693C62.5693 126.845 61.0787 116.486 59.6761 110.51C58.5372 105.656 58.42 104.007 57.0843 100.076C55.7486 96.1443 53.45 83.6278 52.5581 78.7906C51.6663 73.9535 50.8247 67.3384 50.8247 67.3384L49.8198 60.6858L63.4151 59.417Z" fill="#263238"/>
<path id="Vector_21" d="M49.933 80.1343C50.0628 80.7102 48.7271 99.7875 47.9064 103.79C47.0858 107.792 46.1981 125.492 46.1981 125.492L38.8332 125.096C38.8332 125.096 37.9497 112.867 37.7152 108.844C37.4808 104.821 38.2428 100.293 38.3349 96.5572C38.427 92.8219 37.5771 85.4848 36.8025 78.3355C36.0279 71.1862 35.3077 61.3616 38.0125 61.2615C38.7159 61.2364 49.8199 60.7356 49.8199 60.7356L51.6371 73.1895L53.4668 77.2044L49.933 80.1343Z" fill="#263238"/>
<path id="Vector_22" d="M35.7975 49.9596C36.0236 49.9847 35.7975 57.5597 35.7975 57.5597L36.6022 63.6973L32.1847 65.2818C31.3474 62.7627 29.9837 60.2036 29.7556 57.5597C29.6065 54.6494 29.6792 51.732 29.9733 48.8328L35.7975 49.9596Z" fill="#DAA08D"/>
<path id="Vector_23" d="M51.7919 22.652C51.7919 22.652 59.8812 23.7705 60.4172 24.9057C60.9531 26.0409 59.3495 48.6407 59.5505 49.5296C59.7514 50.4186 64.353 58.4068 63.4151 59.4168C62.4772 60.4268 38.0124 61.2657 38.0124 61.2657C38.0124 61.2657 37.1206 47.0756 37.129 46.7542C37.1374 46.4329 35.9734 38.7493 35.9734 38.7493L34.7173 28.2529L40.9057 25.0851L41.9566 23.0651C41.9566 23.0651 46.0013 28.0734 45.7794 27.8898L50.4311 21.0952L51.7919 22.652Z" fill="#455A64"/>
<path id="Vector_24" d="M34.7297 28.2317C33.0255 29.3501 31.7955 31.0562 31.2755 33.0229C30.6307 35.4019 28.064 48.3899 28.064 48.3899C28.064 48.3899 36.5846 50.3807 36.5092 49.9342C36.4339 49.4876 36.8777 43.6196 36.8777 43.6196L36.0403 33.5029L34.7297 28.2317Z" fill="#455A64"/>
<path id="Vector_25" d="M35.6845 33.5029C35.618 33.6516 35.5675 33.8069 35.5338 33.9662C35.481 34.1475 35.4377 34.3314 35.404 34.5171C35.3579 34.7341 35.3035 34.9804 35.2658 35.26C35.0507 36.7003 35.0282 38.1626 35.1988 39.6088C35.3626 41.0546 35.6957 42.4764 36.1911 43.845C36.3838 44.3709 36.5554 44.7882 36.6894 45.0678C36.75 45.2144 36.8258 45.3543 36.9155 45.4852C36.949 45.4852 36.681 44.8383 36.3377 43.7866C35.8912 42.4154 35.5826 41.0033 35.4166 39.5713C35.2492 38.1418 35.2492 36.6978 35.4166 35.2683C35.5547 34.179 35.7222 33.5113 35.6845 33.5029Z" fill="#263238"/>
<path id="Vector_26" d="M40.9056 25.0851C40.9607 25.231 41.0309 25.3709 41.115 25.5025L41.743 26.5709L44.0459 30.3605L44.1254 30.4898L44.2133 30.3646L45.8588 27.9482L45.6956 27.969L46.8302 29.0166C47.4039 29.5341 47.9607 30.0433 48.526 30.5024L48.639 30.5942L48.6893 30.4565C49.5267 28.2153 50.3055 26.2829 50.8749 24.9015L51.5448 23.2821C51.6354 23.0897 51.7096 22.8901 51.7667 22.6853C51.6561 22.8669 51.5595 23.0567 51.4778 23.2529C51.2978 23.6202 51.0591 24.1627 50.7493 24.8472C50.1463 26.212 49.3383 28.1443 48.4925 30.3813L48.6558 30.3354C48.1073 29.8847 47.5504 29.3713 46.981 28.8538L45.8463 27.8104L45.7542 27.727L45.683 27.8313L44.0501 30.2561H44.2175L41.8519 26.4999L41.1652 25.444C41.0878 25.3181 41.0011 25.1981 40.9056 25.0851Z" fill="#263238"/>
<path id="Vector_27" d="M61.7444 53.7074C61.7444 53.7074 58.5539 52.0713 57.394 51.1824C56.2342 50.2934 55.1414 35.5649 55.1414 35.5649L37.7653 36.6835L39.2978 53.4653L37.623 55.1681L36.3669 64.2832C36.3669 64.2832 35.5295 101.511 37.7151 101.428C44.3724 101.173 64.9056 100.593 64.5371 98.1766C64.1686 95.7601 61.9411 61.032 61.9411 61.032L64.0347 59.4251L61.7444 53.7074Z" fill="#6E9BFF"/>
<path id="Vector_28" d="M54.5509 36.099L57.0883 23.6076L54.5886 23.0066L52.0973 36.3745L54.5509 36.099Z" fill="#6E9BFF"/>
<path id="Vector_29" d="M40.889 36.9545L37.3719 26.8879L35.3873 27.9063L38.6197 37.4596L40.889 36.9545Z" fill="#6E9BFF"/>
<path id="Vector_30" d="M43.246 43.695L49.9452 43.3444C50.2277 43.3272 50.4921 43.1997 50.681 42.9895C50.8698 42.7794 50.968 42.5035 50.9543 42.2217C50.9381 41.9393 50.8106 41.6748 50.5997 41.4856C50.3887 41.2965 50.1114 41.198 49.828 41.2117L43.1288 41.5665C42.8451 41.5816 42.579 41.7083 42.3891 41.9188C42.1991 42.1293 42.1007 42.4064 42.1155 42.6891C42.123 42.8293 42.1582 42.9667 42.2192 43.0933C42.2801 43.2198 42.3656 43.3331 42.4707 43.4266C42.5758 43.5201 42.6984 43.592 42.8315 43.638C42.9645 43.6841 43.1054 43.7034 43.246 43.695Z" fill="white"/>
<path id="Vector_31" d="M39.2937 53.4653C39.521 53.5456 39.755 53.6056 39.9929 53.6448C40.4451 53.745 41.1066 53.8743 41.9231 54.0246C43.5561 54.3167 45.8338 54.6548 48.3627 54.8593C50.8917 55.0638 53.1904 55.068 54.8526 55.0346C55.69 55.0137 56.3516 54.9887 56.8163 54.9595C57.0578 54.957 57.2987 54.9346 57.5365 54.8927C57.296 54.8662 57.0538 54.8592 56.8121 54.8718H54.8484C53.1736 54.8718 50.9001 54.8259 48.3795 54.6339C45.8589 54.442 43.5854 54.1289 41.9482 53.8743L40.0097 53.5613C39.7736 53.5122 39.5343 53.4802 39.2937 53.4653Z" fill="#263238"/>
<path id="Vector_32" d="M39.4276 119.098L39.3648 125.359C39.3648 125.359 32.7451 127.775 32.6656 129.006L45.4067 129.115L45.4527 126.148L46.198 119.987L39.4276 119.098Z" fill="#263238"/>
<path id="Vector_33" d="M45.4067 129.115V128.122L33.1513 128.347C33.1513 128.347 32.5819 128.593 32.6447 128.998L45.4067 129.115Z" fill="#455A64"/>
<path id="Vector_34" d="M39.3229 125.401C39.3229 125.464 39.6327 125.493 39.9384 125.701C40.244 125.91 40.4031 126.173 40.4617 126.148C40.5204 126.123 40.4282 125.756 40.043 125.518C39.6578 125.28 39.3103 125.359 39.3229 125.401Z" fill="white"/>
<path id="Vector_35" d="M37.8619 125.96C37.8619 126.022 38.1131 126.131 38.3225 126.398C38.5318 126.665 38.5904 126.949 38.6532 126.949C38.7161 126.949 38.7579 126.59 38.49 126.26C38.222 125.93 37.8619 125.901 37.8619 125.96Z" fill="white"/>
<path id="Vector_36" d="M37.0033 127.6C37.0577 127.6 37.1498 127.3 37.0033 126.953C36.8567 126.607 36.5595 126.465 36.5302 126.536C36.5009 126.607 36.6851 126.774 36.8065 127.058C36.9279 127.341 36.9405 127.592 37.0033 127.6Z" fill="white"/>
<path id="Vector_37" d="M10.5326 123.791L28.072 93.4788L56.5018 44.3352L63.1089 32.9372C63.6114 32.0649 64.968 32.8537 64.4613 33.726L46.4865 64.8023L18.0525 113.946L12.3623 123.787L21.9171 123.766V126.291L0.09434 126.346V123.816L10.5326 123.791Z" fill="#263238"/>
<path id="Vector_38" d="M10.5327 123.791H9.84602H0.0400252V126.379H0.0860827H21.9088H21.9842V126.304C21.9842 125.54 21.9842 124.664 21.9842 123.779V123.704H21.9088H12.354L12.4252 123.829L53.6673 52.5821L60.2786 41.1549C61.3673 39.2629 62.4503 37.3973 63.5278 35.5582C63.7957 35.0949 64.0637 34.6358 64.3275 34.1725L64.5285 33.8303C64.6058 33.7025 64.6571 33.5606 64.6792 33.4129C64.6888 33.2613 64.6582 33.1097 64.5906 32.9735C64.523 32.8373 64.4207 32.7211 64.294 32.6367C64.1751 32.5495 64.037 32.4923 63.8912 32.4698C63.7454 32.4472 63.5963 32.4601 63.4566 32.5073C63.1997 32.6439 62.9984 32.8652 62.8871 33.1333L62.0958 34.5022C57.9088 41.7767 53.8306 48.7967 49.9535 55.4869L29.4371 91.0205C23.6046 101.137 18.8858 109.317 15.6199 114.977L11.8516 121.504L10.876 123.207C10.6583 123.591 10.5494 123.791 10.5494 123.791C10.5494 123.791 10.6667 123.603 10.8886 123.228C11.1105 122.852 11.4413 122.28 11.8767 121.558C12.7393 120.068 14.0163 117.882 15.645 115.06L29.5417 91.1165L50.1126 55.5996C53.9814 48.9219 58.047 41.8978 62.2549 34.6233L63.0462 33.2585C63.1844 33.0206 63.2933 32.8036 63.511 32.7243C63.6194 32.6866 63.7354 32.6764 63.8487 32.6946C63.9621 32.7128 64.069 32.7589 64.16 32.8287C64.2554 32.8917 64.3329 32.9782 64.385 33.0799C64.437 33.1815 64.4619 33.2948 64.4573 33.4088C64.3894 33.6509 64.2803 33.8795 64.1349 34.0849L63.3352 35.4663L60.0944 41.0631L53.4789 52.4736L12.2745 123.745L12.2033 123.875H12.3499L21.9046 123.846L21.8251 123.77C21.8251 124.655 21.8251 125.532 21.8251 126.295L21.9004 126.224L0.0777132 126.3L0.127955 126.35C0.127955 125.457 0.127955 124.605 0.127955 123.82L0.0860827 123.866L7.86137 123.825H9.86277L10.5327 123.791Z" fill="#455A64"/>
<path id="Vector_39" d="M0.173823 126.225H21.6574C21.9337 126.55 21.7076 128.04 21.3183 128.22C20.9104 128.362 20.465 128.354 20.0621 128.199C19.6623 128.044 19.2347 127.973 18.806 127.99C18.2743 128.061 17.797 128.453 17.2652 128.407C16.7335 128.361 16.3399 127.882 15.8249 127.886C15.2345 127.886 14.7656 128.528 14.1794 128.466C13.7984 128.424 13.5011 128.094 13.1243 128.048C12.5381 127.952 12.0231 128.503 11.4495 128.512C10.8758 128.52 10.3106 127.927 9.69091 127.982C9.1466 128.028 8.74883 128.558 8.21289 128.641C7.43411 128.766 6.76837 127.927 5.97703 127.982C5.47459 128.015 5.04332 128.399 4.53669 128.399C4.03006 128.399 3.59043 128.003 3.0838 127.936C2.62698 127.928 2.17678 128.045 1.78164 128.274C1.38355 128.506 0.910715 128.575 0.462728 128.466C0.0398398 128.282 -0.173699 126.517 0.173823 126.225Z" fill="#455A64"/>
<path id="Vector_40" d="M37.0261 63.415C37.1685 63.7197 38.0352 67.2881 38.0352 67.2881C38.7611 67.4867 39.4478 67.8071 40.0659 68.2355C40.6832 68.8011 41.2161 69.4518 41.6486 70.1678L40.6395 71.7663C40.6395 71.7663 40.9996 73.1519 41.1712 74.3539C41.3429 75.5559 40.719 75.848 40.719 75.848C40.719 75.848 41.2005 77.8263 40.1538 77.9891C39.8188 78.0433 39.1489 77.05 39.1489 77.05C39.1692 77.279 39.1045 77.5074 38.9672 77.692C38.8298 77.8766 38.6293 78.0045 38.4036 78.0517C37.7002 78.2436 37.1098 77.5133 37.1098 77.5133C37.1098 77.5133 36.4525 78.7194 35.6109 78.277C34.7693 77.8346 34.2166 76.0609 34.2166 76.0609C34.2166 76.0609 33.0066 74.2036 33.2494 72.6135C33.4922 71.0234 33.5676 69.8256 33.5676 69.8256C33.5676 69.8256 32.9396 67.9141 32.3743 66.2948C32.0184 65.2764 31.7421 64.087 33.5132 63.3315C34.6492 62.8955 35.9122 62.9255 37.0261 63.415Z" fill="#455A64"/>
<path id="Vector_41" d="M37.4766 72.2004C37.7459 72.9263 38.0838 73.6251 38.4857 74.2872C38.9044 75.0426 39.2812 75.6937 39.4947 76.0192C39.4947 76.0192 39.4947 76.0443 39.4947 76.0401C39.4947 76.0359 39.4947 76.0401 39.4947 76.0151C39.4947 75.99 39.5282 75.9692 39.5282 75.9608C39.5282 75.9525 39.4822 75.9274 39.4445 75.9942C39.4375 76.0057 39.4333 76.0186 39.4321 76.0319C39.431 76.0453 39.4329 76.0587 39.4377 76.0712C39.4426 76.0837 39.4503 76.0949 39.4601 76.104C39.47 76.1131 39.4819 76.1198 39.4947 76.1236C39.514 76.1281 39.5341 76.1274 39.5531 76.1217C39.572 76.116 39.5891 76.1054 39.6027 76.0911C39.6163 76.0767 39.6258 76.059 39.6304 76.0398C39.6349 76.0206 39.6344 76.0006 39.6287 75.9817C39.4696 75.6228 39.1305 74.9508 38.716 74.1954C38.3646 73.4942 37.9497 72.8265 37.4766 72.2004Z" fill="#263238"/>
<path id="Vector_42" d="M35.429 73.3647C35.8239 74.1069 36.2805 74.8147 36.794 75.4807C37.2495 76.1871 37.765 76.8532 38.3348 77.4715C37.9441 76.727 37.4873 76.0189 36.9699 75.3555C36.5157 74.6482 36.0002 73.9821 35.429 73.3647Z" fill="#263238"/>
<path id="Vector_43" d="M33.7878 74.1162C33.9888 74.7529 34.2914 75.3532 34.6838 75.8941C35.0137 76.4701 35.3993 77.0124 35.8352 77.5135C35.5857 76.8973 35.2609 76.3141 34.868 75.7773C34.5392 75.204 34.1786 74.6494 33.7878 74.1162Z" fill="#263238"/>
</g>
</svg>
