<svg width="78" height="120" viewBox="0 0 78 120" fill="none" xmlns="http://www.w3.org/2000/svg">
<g id="&#208;&#150;&#209;&#150;&#208;&#189;&#208;&#190;4&#208;&#186;&#208;&#176;">
<path id="Rectangle 10" d="M0 17.645L37 15L35.8254 20.2622L34.6508 25.5244L7.63492 27L0 17.645Z" fill="url(#paint0_linear_101_1357)"/>
<g id="freepik--paint-can--inject-41">
<g id="freepik--Bucket--inject-41">
<path id="Vector" d="M25.9786 96.6492L4.18502 96.3708L4 113.744C4 115.316 5.02531 116.896 7.14531 118.123C11.3699 120.56 18.2695 120.636 22.5635 118.281C24.7221 117.092 25.8013 115.519 25.8013 113.932L25.9786 96.6492Z" fill="#37474F"/>
<path id="Vector_2" d="M7.43066 92.0596C3.15211 94.4146 3.10585 98.3045 7.33815 100.742C11.5704 103.18 18.4624 103.263 22.7563 100.908C27.0503 98.5528 27.0811 94.6629 22.8489 92.2176C18.6166 89.7723 11.7092 89.7046 7.43066 92.0596Z" fill="#455A64"/>
<path id="Vector_3" d="M25.0458 96.5814C25.0395 96.8659 24.9875 97.1477 24.8916 97.4165C24.3929 98.5953 23.4646 99.5522 22.2859 100.103C20.0282 101.178 17.5446 101.724 15.0327 101.698C12.5208 101.671 10.0497 101.074 7.81594 99.9521C6.66707 99.3858 5.76836 98.4312 5.28734 97.266C5.18256 96.9813 5.13036 96.6807 5.13316 96.3782C5.13316 95.0766 6.13534 93.8276 7.90073 92.8645C10.1571 91.7896 12.6394 91.2435 15.1501 91.2696C17.6608 91.2958 20.1306 91.8934 22.363 93.015C24.1053 94.0232 25.0535 95.2872 25.0458 96.5814Z" fill="#263238"/>
<path id="Vector_4" d="M24.8915 97.4166C24.3927 98.5954 23.4645 99.5523 22.2858 100.103C20.028 101.178 17.5445 101.724 15.0326 101.698C12.5206 101.672 10.0496 101.074 7.81583 99.9522C6.66696 99.386 5.76825 98.4313 5.28723 97.2662C5.78597 96.0885 6.71825 95.1357 7.90061 94.5951C10.1541 93.5104 12.6376 92.9588 15.1502 92.985C17.6627 93.0111 20.1336 93.6143 22.3629 94.7456C23.5069 95.3109 24.4043 96.259 24.8915 97.4166Z" fill="#ECF0F8"/>
<path id="Vector_5" d="M22.2858 100.133C22.6302 99.9433 22.96 99.7296 23.2726 99.4932C19.2947 101.577 12.4798 100.705 10.3213 99.0644C8.16274 97.4241 7.90061 94.6327 11.3697 93.3837C10.1553 93.6227 8.98547 94.0414 7.90061 94.6252C6.71825 95.1657 5.78597 96.1185 5.28723 97.2962C5.76825 98.4613 6.66696 99.416 7.81583 99.9823C10.0496 101.104 12.5206 101.702 15.0326 101.728C17.5445 101.754 20.028 101.208 22.2858 100.133Z" fill="#EBEBEB"/>
<path id="Vector_6" d="M19.7113 103.142C20.1893 102.887 20.567 103.105 20.5593 103.639C20.547 103.93 20.4636 104.215 20.3162 104.469C20.1687 104.723 19.9613 104.939 19.7113 105.099C19.2333 105.362 18.8479 105.144 18.8556 104.61C18.87 104.317 18.955 104.031 19.1037 103.776C19.2524 103.521 19.4605 103.304 19.7113 103.142Z" fill="#263238"/>
<path id="Vector_7" d="M20.1737 104.06C20.1737 104.178 20.1258 104.291 20.0405 104.374C19.9552 104.457 19.8395 104.504 19.7189 104.504C19.5982 104.504 19.4826 104.457 19.3973 104.374C19.312 104.291 19.264 104.178 19.264 104.06C19.264 103.541 19.264 102.917 19.264 102.187C19.2796 98.3049 18.9182 94.4303 18.1848 90.6149C17.4678 87.372 16.2729 84.5957 14.3302 83.3542C14.0084 83.1032 13.6202 82.9466 13.2108 82.9027C12.8013 82.8587 12.3875 82.9292 12.0175 83.1059C10.2136 84.0765 9.17284 87.8235 8.68716 91.4952C8.35148 91.617 8.02661 91.7654 7.71582 91.9391C8.17066 87.9965 9.25764 83.5724 11.5704 82.3309C12.0826 82.0749 12.6581 81.9638 13.2317 82.0103C13.8052 82.0569 14.354 82.2592 14.8159 82.5943C17.1286 83.9787 18.4238 87.1087 19.1947 90.8105C19.8638 94.4889 20.1991 98.2177 20.1968 101.954C20.1737 102.676 20.1737 103.376 20.1737 104.06Z" fill="#37474F"/>
</g>
</g>
<path id="Vector_8" d="M52.9221 16.3503L53.6148 23.8723L59.9511 23.4201L58.9088 15.0637L52.9221 16.3503Z" fill="#FFBF9D"/>
<path id="Vector_9" d="M49.0969 8.57349C49.0969 8.57349 47.3041 10.6944 47.4694 10.9301C47.8479 11.1789 48.2645 11.364 48.7027 11.4778L49.0969 8.57349Z" fill="#EAA987"/>
<path id="Vector_10" d="M53.7928 2.33801C52.4074 2.91761 49.9796 4.00675 49.0327 8.86009C48.0222 13.8472 48.5306 15.656 49.1661 16.3758C49.5919 16.8535 52.8713 17.3948 53.8246 17.2229C56.5023 16.484 58.874 14.9061 60.593 12.7198C62.6966 9.80911 63.4084 5.77102 61.3874 4.00038C60.3647 3.10288 59.1318 2.4797 57.8037 2.189C56.4756 1.89831 55.0958 1.94957 53.7928 2.33801Z" fill="#FFBF9D"/>
<path id="Vector_11" d="M51.1964 21.9202C51.1167 22.3312 50.8366 22.6221 50.5723 22.5703C50.3081 22.5184 50.1619 22.1477 50.2676 21.7543C50.3734 21.3609 50.6207 21.055 50.887 21.1021C51.1534 21.1491 51.2715 21.507 51.1964 21.9202Z" fill="#263238"/>
<path id="Vector_12" d="M53.024 17.2993L52.9477 16.5159C52.2777 16.6475 51.5904 16.6669 50.914 16.5732C50.2543 16.5723 49.6031 16.4243 49.0074 16.1401C49.0621 16.2277 49.1237 16.3108 49.1918 16.3885C49.5222 16.7897 51.6957 17.2738 53.024 17.2993Z" fill="#E3AB8E"/>
<path id="Vector_13" d="M56.4175 17.6241C55.7266 17.3535 55.1131 16.9159 54.6317 16.3502C53.9504 15.2913 53.5783 14.0624 53.5576 12.8026C53.5576 12.8026 54.352 13.5542 55.6422 12.6052C56.9323 11.6561 57.2501 9.58614 55.7439 8.94285C54.6762 8.4779 53.7801 9.2422 53.2017 10.0702C53.1128 10.204 53.0047 10.3504 52.8458 10.3696C52.687 10.3887 52.4582 10.0957 52.3946 9.85365C52.3586 9.56545 52.2634 9.28786 52.115 9.03839C51.7996 8.651 51.6348 8.16232 51.651 7.66264C51.6882 7.24062 51.7801 6.82525 51.9243 6.42701C51.3621 6.80184 50.8979 7.3064 50.5706 7.8983C50.4404 7.50696 50.4036 7.09045 50.4632 6.68226C50.5228 6.27407 50.6772 5.8856 50.9138 5.54806C50.2937 6.07359 49.8243 6.75507 49.5538 7.52252C49.1816 7.07226 48.9851 6.50194 49.0009 5.91748C49.0154 5.14797 49.2009 4.39139 49.544 3.70279C49.887 3.01418 50.3788 2.41086 50.9837 1.93672C52.2152 0.988755 53.6717 0.378514 55.21 0.166071C56.6748 -0.0803906 58.1724 -0.0523123 59.6269 0.248874C62.722 0.885795 64.2091 2.61185 64.6095 3.24877C64.9637 3.93681 65.1366 4.70418 65.1116 5.478C66.8529 6.68178 66.586 9.03839 65.9187 10.7772C65.2266 12.2822 64.2006 13.6089 62.919 14.656C62.2835 15.2229 61.6479 15.7707 61.0696 16.3566C60.7731 16.6335 60.497 16.9315 60.2434 17.2483C59.8684 17.7515 59.6079 18.1846 59.6079 18.1846C58.5207 18.1773 57.4423 17.9879 56.4175 17.6241Z" fill="#37474F"/>
<path id="Vector_14" d="M62.7667 19.796C65.4169 19.4839 67.3298 20.433 69.2046 24.0125C70.9778 27.42 73.4754 32.337 74.4414 34.8401C74.9181 36.0566 75.7125 37.1267 73.539 39.4769C71.5164 41.5813 69.2531 43.4391 66.796 45.0118L64.1204 40.1839L67.082 36.2477L65.6775 33.2032L62.7667 19.796Z" fill="#455A64"/>
<path id="Vector_15" d="M67.082 36.2667C67.8125 37.1098 68.7474 37.7503 69.7967 38.1265C68.7922 38.445 66.993 37.5215 66.6179 36.8973L67.082 36.2667Z" fill="#37474F"/>
<path id="Vector_16" d="M51.1678 21.3798L50.1241 20.9642C50.1241 20.9642 50.5472 22.0186 51.1678 21.3798Z" fill="#263238"/>
<path id="Vector_17" d="M66.0079 22.5858C65.5185 20.675 64.883 19.4012 61.2541 19.5859H60.7457C59.4746 19.7706 57.6507 19.8789 54.3269 20.1336C53.9138 20.2101 49.948 20.8852 49.2871 20.9744C49.2871 20.9744 46.3255 22.745 44.8384 29.0187C44.4189 30.7957 44.6287 32.6619 46.8212 34.3688C46.764 36.1713 47.1644 37.7318 46.942 39.4642C46.5414 42.278 46.3058 45.1129 46.2366 47.9543C46.2366 47.9543 50.7679 50.1836 58.2544 49.4511C62.8684 49.0053 67.2662 46.4448 68.1369 45.6296C67.5518 43.718 66.8296 41.8512 65.9761 40.0438C65.2448 38.4194 65.0424 36.6054 65.3978 34.8592C66.2558 30.6301 67.387 28.0123 66.0079 22.5858Z" fill="#FAFAFA"/>
<path id="Vector_18" d="M61.8706 19.8916C64.775 19.8916 65.2707 20.9871 65.6838 22.6685C66.815 27.0888 66.2494 29.5855 65.5312 32.7446C65.3851 33.3816 65.2325 34.0758 65.0864 34.8083C64.7164 36.6164 64.9254 38.4955 65.6838 40.1775C66.4971 41.9152 67.1955 43.7045 67.7747 45.534C64.9402 47.5055 61.6673 48.7519 58.2417 49.1645C57.2566 49.26 56.2652 49.3046 55.3055 49.3046C52.3249 49.3676 49.3608 48.8461 46.5797 47.7696C46.6667 45.0121 46.8979 42.2611 47.2724 39.5278C47.3809 38.5436 47.3809 37.5504 47.2724 36.5662C47.2005 35.8446 47.1708 35.1193 47.1835 34.3943V34.235L47.0564 34.1331C45.3023 32.7701 44.7049 31.1714 45.1943 29.1078C46.5098 23.5093 49.0519 21.5667 49.4333 21.2992C50.2722 21.1781 53.9264 20.554 54.4031 20.4648L56.4368 20.3119C58.534 20.1591 59.8051 20.0635 60.8092 19.917H61.2986C61.5083 19.917 61.7117 19.917 61.9024 19.917M61.9024 19.5986H61.2668H60.7584C59.4873 19.7833 57.6634 19.8916 54.3395 20.1463C53.9265 20.2228 49.9607 20.8979 49.2998 20.9871C49.2998 20.9871 46.3382 22.7577 44.8511 29.0314C44.4316 30.8084 44.6413 32.6746 46.8339 34.3815C46.7767 36.184 47.1771 37.7445 46.9547 39.4769C46.5541 42.2907 46.3185 45.1256 46.2492 47.9671C46.2492 47.9671 49.5985 49.6103 55.2992 49.6103C56.2271 49.6103 57.2058 49.5657 58.2671 49.4638C62.8811 49.018 67.2789 46.4576 68.1496 45.6423C67.5645 43.7307 66.8423 41.8639 65.9888 40.0565C65.258 38.4342 65.0556 36.6224 65.4105 34.8783C66.2557 30.6364 67.387 28.0187 66.0079 22.5921C65.5503 20.7896 64.9593 19.5795 61.8706 19.5795L61.9024 19.5986Z" fill="#E0E0E0"/>
<path id="Vector_19" d="M22.5183 17.9744C22.2324 19.1463 21.3617 19.9807 20.9486 21.0953C20.3957 22.5793 20.9486 24.2799 20.5546 25.8021C20.3454 26.5096 19.983 27.162 19.4932 27.7129C19.3249 27.8822 19.1854 28.078 19.0801 28.2925C18.4954 29.6364 21.2727 30.8402 22.1688 31.2669C23.8149 31.9594 25.571 32.352 27.3547 32.4261C27.9295 32.5026 28.5141 32.412 29.0389 32.165C30.0684 31.5727 29.9604 29.9103 29.9731 28.9103C29.9731 27.5155 29.8905 26.0697 30.4116 24.7449C30.8438 23.6239 31.6827 22.7003 32.1339 21.5985C32.47 20.6825 32.663 19.72 32.7059 18.7451C32.8008 18.1078 32.7662 17.4578 32.6042 16.8343C31.9687 14.9617 29.0452 14.7325 27.4437 14.4267C25.8334 14.0287 24.1633 13.9337 22.5183 14.1465C22.4272 14.1514 22.3412 14.19 22.2768 14.2548C22.2448 14.3199 22.2316 14.3927 22.2387 14.4649C22.2387 15.6432 22.798 16.7196 22.5247 17.8916L22.5183 17.9744Z" fill="#407BFF"/>
<path id="Vector_20" opacity="0.3" d="M22.5183 17.9744C22.2324 19.1463 21.3617 19.9807 20.9486 21.0953C20.3957 22.5793 20.9486 24.2799 20.5546 25.8021C20.3454 26.5096 19.983 27.162 19.4932 27.7129C19.3249 27.8822 19.1854 28.078 19.0801 28.2925C18.4954 29.6364 21.2727 30.8402 22.1688 31.2669C23.8149 31.9594 25.571 32.352 27.3547 32.4261C27.9295 32.5026 28.5141 32.412 29.0389 32.165C30.0684 31.5727 29.9604 29.9103 29.9731 28.9103C29.9731 27.5155 29.8905 26.0697 30.4116 24.7449C30.8438 23.6239 31.6827 22.7003 32.1339 21.5985C32.47 20.6825 32.663 19.72 32.7059 18.7451C32.8008 18.1078 32.7662 17.4578 32.6042 16.8343C31.9687 14.9617 29.0452 14.7325 27.4437 14.4267C25.8334 14.0287 24.1633 13.9337 22.5183 14.1465C22.4272 14.1514 22.3412 14.19 22.2768 14.2548C22.2448 14.3199 22.2316 14.3927 22.2387 14.4649C22.2387 15.6432 22.798 16.7196 22.5247 17.8916L22.5183 17.9744Z" fill="white"/>
<path id="Vector_21" opacity="0.5" d="M27.9523 16.4204C29.6217 16.6663 31.2426 17.1712 32.7569 17.9171C32.76 17.6097 32.7216 17.3033 32.6425 17.0063C29.4049 15.5522 25.8488 14.9556 22.3152 15.2739C22.3596 15.5605 22.4168 15.8408 22.474 16.1274C24.3048 16.0912 26.1358 16.1891 27.9523 16.4204ZM21.0505 28.127C20.631 27.8722 20.2243 27.6111 19.8239 27.3308C19.7222 27.4709 19.6142 27.6111 19.4998 27.7448L19.3854 27.8849C19.9121 28.2732 20.4665 28.6223 21.0441 28.9295C22.0121 29.477 23.0318 29.9271 24.0883 30.2734C25.9176 30.9459 27.8612 31.251 29.8081 31.1715C29.8693 30.9634 29.9118 30.7502 29.9352 30.5345C27.9481 30.4979 25.9776 30.1652 24.0883 29.5473C23.0329 29.1719 22.0156 28.6963 21.0505 28.127Z" fill="#407BFF"/>
<path id="Vector_22" d="M34.8794 30.4581C33.8678 29.6401 32.9044 28.7639 31.9941 27.834C31.7341 27.3989 31.6142 26.894 31.651 26.3881C31.6192 25.0442 30.9328 24.0506 30.5388 22.7959C30.4434 22.4774 30.2782 21.9233 29.9032 21.987C29.741 22.0089 29.5909 22.0852 29.4774 22.2036C29.369 22.3299 29.2927 22.4807 29.255 22.643C29.1764 23.0235 29.1938 23.4176 29.3058 23.7895C29.344 23.9424 29.6745 24.6812 29.5029 24.7831C29.4683 24.7962 29.4307 24.799 29.3946 24.7911C29.3585 24.7832 29.3254 24.7649 29.2995 24.7385C28.9865 24.5365 28.691 24.3085 28.4161 24.057C28.1492 23.8086 27.8568 23.522 27.6026 23.2545C26.987 22.6444 26.4335 21.9745 25.9502 21.2546C25.499 20.6877 25.1558 20.6176 24.8254 20.7769C24.4949 20.9361 24.908 21.7705 24.908 21.7705C24.669 21.4024 24.3654 21.0809 24.0119 20.8214C23.5416 20.5985 23.0141 20.6877 23.0459 21.089C23.0788 21.2506 23.1212 21.4101 23.173 21.5666C23.0607 21.6354 22.9639 21.7268 22.8888 21.835C22.8137 21.9433 22.7619 22.0661 22.7368 22.1955C22.7117 22.325 22.7138 22.4582 22.7429 22.5868C22.7721 22.7154 22.8276 22.8365 22.9061 22.9424C22.9061 22.9424 22.3277 23.0379 22.8171 24.2863C23.6957 26.5131 25.1851 28.4452 27.1133 29.8594C27.9464 30.4721 28.7019 31.1843 29.3631 31.9803C31.168 34.063 32.9665 36.2349 34.854 38.3495L34.8794 30.4581Z" fill="#FFBF9D"/>
<path id="Vector_23" d="M24.9463 21.8087C25.4103 22.9865 26.1388 24.0414 27.0753 24.8914C26.3318 23.8914 25.6073 22.8787 24.9463 21.8087ZM23.1986 21.5667C23.7882 23.3483 24.8412 24.9401 26.2491 26.178C25.0186 24.7941 23.9914 23.2414 23.1986 21.5667ZM25.1052 26.5729C24.2228 25.4602 23.484 24.2404 22.9062 22.9424C23.2811 24.343 24.0539 25.6042 25.1306 26.5729H25.1052Z" fill="#F28F8F"/>
<path id="Vector_24" d="M49.287 20.9934C46.9037 21.3883 45.2132 23.471 44.5395 24.4137C42.3533 27.4391 38.4702 32.4389 38.4702 32.4389L33.9135 29.4772C33.9135 29.4772 33.1445 29.5982 32.1403 31.0058C31.5151 32.0696 31.2188 33.2954 31.2887 34.528C31.2887 34.528 34.6952 38.3049 35.3752 38.9864C38.4829 42.0882 40.1862 41.0755 41.1458 40.2921C44.2408 37.7444 48.5307 32.2669 49.3632 31.3752C50.9648 29.7256 51.5622 23.7067 49.287 20.9934Z" fill="#455A64"/>
<path id="Vector_25" d="M36.462 106.513C36.2014 106.456 36.1442 107.252 36.1951 107.602C36.2459 107.952 37.2119 109.207 39.0868 109.818C40.9616 110.43 43.6626 110.366 44.8065 110.455C45.9505 110.545 47.6283 111.277 48.7277 111.64C51.2699 112.468 52.846 111.685 53.5895 111.118C53.7149 111.002 53.8143 110.861 53.8812 110.704C53.948 110.547 53.9807 110.378 53.9772 110.207C54.0344 109.449 53.9772 109.283 53.8946 109.283L36.462 106.513Z" fill="#37474F"/>
<path id="Vector_26" d="M53.812 106.793C53.9225 107.326 54.0053 107.863 54.0599 108.405C54.1171 109.041 54.1489 109.895 53.6659 110.354C53.3006 110.68 52.8727 110.929 52.4083 111.085C51.9439 111.24 51.4528 111.299 50.9649 111.258C49.8265 111.253 48.7022 111.005 47.6665 110.532C46.7994 110.058 45.8464 109.764 44.8638 109.666C43.5283 109.666 42.1945 109.57 40.8726 109.379C39.8812 109.217 38.9222 108.896 38.0318 108.43C37.32 108.027 36.763 107.397 36.4493 106.64C36.4594 106.093 36.6366 105.562 36.957 105.119C37.2775 104.676 37.7258 104.342 38.2415 104.163C39.2093 103.811 40.2516 103.716 41.2667 103.889C42.3788 104.023 43.1733 104.265 44.1965 104.309C44.8754 104.373 45.5602 104.29 46.2047 104.067C46.5163 103.873 46.7673 103.595 46.9292 103.265C47.1263 102.933 47.2216 102.628 47.5648 102.628C47.5648 102.628 52.7634 103.207 53.2273 103.265C53.6913 103.322 53.615 104.073 53.5959 104.468C53.5769 104.863 53.5959 104.812 53.5959 105.15C53.6047 105.533 53.658 105.913 53.7548 106.284C53.7421 106.481 53.7803 106.647 53.812 106.793Z" fill="#455A64"/>
<path id="Vector_27" d="M43.358 104.035C43.2889 103.979 43.2088 103.938 43.1228 103.914C42.6841 103.793 42.2836 104.201 42.0547 104.551C41.9209 104.748 41.814 104.962 41.7369 105.188C41.6197 105.465 41.5801 105.769 41.6224 106.067C41.6224 106.143 41.6796 106.233 41.7559 106.22C41.8322 106.207 41.8576 106.131 41.8704 106.061C41.9583 105.653 42.1199 105.264 42.3472 104.914C42.4317 104.763 42.5413 104.627 42.6714 104.513C42.8144 104.403 42.9791 104.325 43.1546 104.284C43.2245 104.284 43.5297 104.284 43.4724 104.163C43.4591 104.135 43.4395 104.111 43.4152 104.093L43.358 104.035Z" fill="#FAFAFA"/>
<path id="Vector_28" d="M44.6608 104.188C44.4444 104.138 44.217 104.172 44.025 104.284C43.8342 104.425 43.6867 104.617 43.5991 104.838C43.4617 105.062 43.3722 105.313 43.3361 105.574C43.3 105.835 43.3181 106.1 43.3893 106.354C43.4592 106.5 43.5864 106.443 43.6499 106.322C43.7053 106.174 43.7416 106.02 43.758 105.863C43.8495 105.524 43.9819 105.196 44.1522 104.889C44.2127 104.764 44.2897 104.649 44.381 104.545C44.4434 104.475 44.5191 104.419 44.6036 104.379C44.6436 104.36 44.6866 104.347 44.7307 104.341H44.8578C44.8578 104.277 44.7943 104.233 44.7371 104.214L44.6608 104.188Z" fill="#FAFAFA"/>
<path id="Vector_29" d="M46.0334 103.965C45.878 103.993 45.7343 104.066 45.6202 104.175C45.519 104.286 45.4412 104.416 45.3913 104.557C45.2557 104.87 45.1575 105.197 45.0989 105.532C45.0608 105.767 45.0917 106.008 45.1879 106.226C45.2324 106.315 45.315 106.404 45.404 106.373C45.493 106.341 45.5057 106.194 45.5248 106.105C45.5439 106.016 45.563 105.787 45.582 105.627C45.6567 105.043 45.9098 104.496 46.3068 104.061C46.3068 104.061 46.3513 104.016 46.3449 103.984C46.3386 103.952 46.2814 103.933 46.2369 103.933C46.1682 103.937 46.1 103.948 46.0334 103.965Z" fill="#FAFAFA"/>
<path id="Vector_30" d="M41.9594 103.997C41.5018 103.94 40.4595 104.456 39.8303 105.819C39.4299 106.831 39.2376 107.914 39.2647 109.003C38.3219 108.773 37.4762 108.249 36.8497 107.506C36.6371 107.314 36.4704 107.077 36.3619 106.811C36.2535 106.546 36.206 106.259 36.2231 105.973C36.2402 105.687 36.3214 105.408 36.4607 105.157C36.6 104.907 36.7937 104.691 37.0276 104.526C37.7839 103.8 38.8707 103.392 40.504 103.494C42.3407 103.602 42.4106 104.131 42.4106 104.131L41.9594 103.997Z" fill="#FAFAFA"/>
<path id="Vector_31" d="M54.2949 95.2649C54.2949 95.2649 53.2908 102.526 53.1446 104.016C53.0747 104.653 51.6765 105.347 49.7382 105.156C48.3781 105.022 47.5329 104.195 47.4058 103.494C47.2787 102.793 46.891 94.2267 46.891 94.2267L54.2949 95.2649Z" fill="#FFBF9D"/>
<path id="Vector_32" d="M74.5238 95.6342L72.3185 88.6281L65.7916 89.8446C65.7916 89.8446 69.7701 97.3985 70.2912 98.1246C71.1492 99.2265 74.5238 95.6342 74.5238 95.6342Z" fill="#FFBF9D"/>
<path id="Vector_33" d="M77.0724 97.7042C77.1668 98.3579 77.1366 99.0235 76.9834 99.6659C76.8945 100.303 76.7991 100.94 76.7546 101.609C76.7317 102.007 76.6764 102.403 76.5894 102.793C76.5258 103.274 76.5088 103.761 76.5385 104.245C76.5385 104.749 76.5385 105.245 76.5385 105.742C76.5105 105.954 76.5105 106.168 76.5385 106.379C76.5894 106.583 73.3609 108.424 72.0898 109.137L71.8547 109.245C71.4944 109.368 71.1067 109.388 70.736 109.301C70.3652 109.214 70.0262 109.025 69.7574 108.755C69.4912 108.087 69.4319 107.354 69.5872 106.652C69.7425 105.95 70.1053 105.311 70.6281 104.819C70.6281 104.819 70.7934 104.819 70.7616 103.545C70.7616 102.647 70.7616 101.73 70.6599 100.831C70.5894 100.25 70.4286 99.6822 70.1832 99.15C69.9009 98.6845 69.7151 98.1668 69.6367 97.6278C69.7263 97.244 69.9147 96.8904 70.1832 96.6023C70.7749 95.7752 71.5879 95.1327 72.5284 94.7489C72.7901 94.5982 73.0815 94.5064 73.3822 94.4801C73.6829 94.4537 73.9858 94.4932 74.2697 94.596C74.5303 94.7553 74.6574 95.0674 74.8417 95.3094C75.0845 95.5847 75.3699 95.8191 75.6869 96.0036C76.2995 96.3659 76.7804 96.9149 77.0597 97.5705L77.0724 97.7042Z" fill="#455A64"/>
<path id="Vector_34" d="M70.5961 104.793C70.4421 104.984 70.3019 105.187 70.1766 105.398C69.606 106.41 69.4445 107.602 69.7254 108.729C67.4629 108.525 66.8655 107.213 66.8655 107.213C66.8625 106.81 66.9708 106.415 67.1783 106.069C67.3858 105.724 67.6844 105.444 68.0413 105.258C68.1997 105.159 68.3654 105.071 68.537 104.997C69.184 104.71 69.9056 104.639 70.5961 104.793Z" fill="#FAFAFA"/>
<path id="Vector_35" d="M77.5999 98.0609C78.1973 98.2902 78.0448 99.9335 77.6698 101.507C77.2949 103.08 77.0851 103.634 77.2758 104.946C77.4665 106.258 77.5808 106.857 77.047 107.328C76.5132 107.799 72.2678 109.793 72.2678 109.793C72.8474 108.214 73.1672 106.551 73.2148 104.87C73.3292 101.959 73.5198 100.086 74.8671 98.7679C75.202 98.3927 75.6403 98.1253 76.1266 97.9994C76.613 97.8736 77.1257 97.895 77.5999 98.0609Z" fill="#263238"/>
<path id="Vector_36" d="M66.8657 107.214C67.9 108.015 69.1162 108.546 70.4056 108.761C72.3122 108.978 72.3948 108.245 72.5982 105.997C72.8016 103.749 72.8715 100.634 73.7549 99.2647C74.6383 97.8953 76.1254 97.2903 76.7101 97.4304C76.8308 97.3667 77.4155 97.7998 77.5998 98.0673C77.1395 98.0479 76.6803 98.127 76.2529 98.2994C75.8255 98.4719 75.4397 98.7336 75.1212 99.0673C73.9392 100.226 73.7231 102.672 73.6659 104.895C73.6087 107.118 73.5197 109.697 71.7593 109.99C70.8989 110.082 70.029 109.998 69.2015 109.745C68.3739 109.493 67.6055 109.076 66.942 108.519C66.8474 108.441 66.77 108.344 66.7145 108.235C66.659 108.125 66.6266 108.006 66.6194 107.883C66.6123 107.76 66.6305 107.638 66.6728 107.522C66.7152 107.407 66.7809 107.302 66.8657 107.214Z" fill="#37474F"/>
<path id="Vector_37" d="M70.7299 103.965C70.6613 104.014 70.603 104.075 70.5583 104.146C70.5136 104.217 70.4833 104.296 70.4693 104.379C70.458 104.613 70.5113 104.846 70.6235 105.052C70.7356 105.257 70.9023 105.428 71.105 105.545C71.3466 105.685 71.55 105.628 71.1622 105.163C70.917 104.808 70.768 104.395 70.7299 103.965Z" fill="#FAFAFA"/>
<path id="Vector_38" d="M70.6917 102.398C70.6013 102.492 70.5452 102.613 70.5327 102.742C70.6226 103.237 70.9035 103.677 71.3147 103.965C71.7279 104.15 71.5054 103.691 71.3147 103.481C71.0793 103.137 70.871 102.775 70.6917 102.398Z" fill="#FAFAFA"/>
<path id="Vector_39" d="M70.59 100.679C70.5385 100.706 70.4938 100.745 70.4597 100.793C70.4255 100.84 70.4027 100.895 70.3929 100.953C70.6552 101.346 71.0502 101.631 71.5055 101.755C71.7725 101.755 71.8361 101.647 71.5055 101.424C71.1749 101.201 70.59 100.679 70.59 100.679Z" fill="#FAFAFA"/>
<path id="Vector_40" d="M71.1681 80.9341C70.1894 76.7813 69.2615 75.0553 68.232 73.3611C68.232 73.3611 69.0518 58.9093 69.4395 52.3427C69.5763 50.3818 69.3961 48.4117 68.9056 46.5085V46.4511C68.7426 45.8196 68.5301 45.202 68.2701 44.6041C67.6969 43.0125 66.9955 41.4703 66.1728 39.9928C65.5908 40.092 64.9923 39.9984 64.4682 39.726C63.944 39.4536 63.5228 39.0173 63.2685 38.4833C62.3279 36.719 61.8385 33.3879 61.8385 29.6746C61.8385 25.9614 62.3406 19.4839 62.3406 19.4839L59.9955 19.7195L58.413 29.0887C57.1224 25.951 55.4989 22.9615 53.5703 20.1718L51.1553 20.7195C51.1553 20.7195 55.3879 27.0887 55.8518 33.7509C56.2077 38.9864 53.8118 40.4768 51.5366 40.8653C47.9141 41.5023 46.732 40.6042 46.732 40.6042C46.732 40.6042 46.0964 45.0627 46.0011 48.0689C45.9058 51.0752 45.6198 55.1451 45.4545 63.769C45.2575 73.877 45.3084 77.5456 46.1346 86.2078C46.3761 88.7555 47.0815 99.8061 47.0815 99.8061C47.0815 99.8061 48.3526 101.08 51.0472 100.94C52.1975 100.889 53.3478 100.819 53.7991 100.481C53.7991 100.481 54.2503 98.9335 55.2735 92.6534C55.9789 88.3033 56.3031 85.9721 56.2014 83.9786C56.0951 82.2052 55.8443 80.4436 55.4514 78.7112L57.1102 69.1956C57.1102 69.1956 58.3368 73.6541 58.6482 75.3164C58.9596 76.9788 59.4362 77.8641 60.4658 79.9914C63.4718 86.1696 68.4989 95.3221 68.4989 95.3221C69.031 94.4407 69.7863 93.716 70.6882 93.2216C71.59 92.7272 72.6063 92.4806 73.634 92.5069C72.8459 88.6281 71.7337 83.3671 71.1681 80.9341Z" fill="#407BFF"/>
<path id="Vector_41" opacity="0.2" d="M57.1104 69.1701L59.5444 55.6928C59.5444 55.6928 62.1565 55.3871 65.6074 52.3553C65.6074 52.3553 65.3786 54.7183 60.7901 56.7437L58.1717 68.7179L58.6483 75.2909L57.1104 69.1701Z" fill="black"/>
</g>
<defs>
<linearGradient id="paint0_linear_101_1357" x1="9.39682" y1="21.4316" x2="34.0635" y2="21.4316" gradientUnits="userSpaceOnUse">
<stop stop-color="white"/>
<stop offset="1" stop-color="white" stop-opacity="0"/>
</linearGradient>
</defs>
</svg>
