<svg width="215" height="246" viewBox="0 0 215 246" fill="none" xmlns="http://www.w3.org/2000/svg">
<g id="&#208;&#188;&#209;&#131;&#208;&#182;&#209;&#135;&#208;&#184;&#208;&#189;&#208;&#176; &#208;&#191;&#209;&#139;&#208;&#187;&#208;&#181;&#209;&#129;&#208;&#190;&#209;&#129;">
<g id="&#208;&#188;&#209;&#131;&#208;&#182;&#209;&#135;&#208;&#184;&#208;&#189;&#208;&#176; &#208;&#191;&#209;&#139;&#208;&#187;&#208;&#181;&#209;&#129;&#208;&#190;&#209;&#129;_2">
<g id="Group">
<g id="Group_2">
<path id="Vector" d="M72.84 61.4692L69.5695 74.7162L42.1101 90.8495L44.1083 96.1421C44.1083 96.1421 75.2831 88.0407 77.3593 85.2319C79.4356 82.4231 85.0789 63.8679 85.0789 63.8679L72.84 61.4614V61.4692Z" fill="#E9B376"/>
<path id="Vector_2" opacity="0.3" d="M72.0359 64.7192L71.5208 66.8007L81.1136 69.3542L82.542 71.8612L83.104 70.1202L82.2298 65.8335L72.0359 64.7192Z" fill="black"/>
<g id="Group_3">
<path id="Vector_3" d="M48.4948 88.6908C48.4948 88.6908 47.0976 86.4546 44.959 85.9826C42.8203 85.5106 41.2358 84.5666 39.6201 84.3189C38.0043 84.0791 39.4405 85.735 40.385 86.47C41.3295 87.1974 42.391 88.0408 41.7197 88.6521C41.0485 89.2634 33.4148 91.0121 32.5874 91.9639C31.76 92.9156 33.0791 93.0162 33.0791 93.0162C33.0791 93.0162 31.2371 93.4882 31.2292 94.262C31.2292 94.4632 31.5493 94.9352 32.4235 94.85C34.3904 94.6566 38.4961 94.0453 38.4961 94.0453C38.2619 94.0763 33.2508 95.1905 32.5171 95.4536C31.5649 95.8018 31.2917 96.444 31.5102 96.9857C31.8224 97.7517 38.0824 96.5833 38.3868 96.7149C38.3868 96.7149 34.7573 97.272 34.3904 98.2779C34.0236 99.2838 36.3262 99.0594 38.3165 98.4791C40.143 97.9452 43.8662 97.3726 45.6693 96.653C47.8938 95.7631 49.1817 94.6721 49.2832 92.4514C49.3768 90.2229 48.4948 88.683 48.4948 88.683V88.6908Z" fill="#407BFF"/>
<path id="Vector_4" opacity="0.3" d="M33.3135 93.0092C33.2666 93.0092 33.2276 92.9782 33.2198 92.9318C33.2042 92.8776 33.2432 92.8312 33.2901 92.8158C34.7731 92.4753 36.2951 92.1967 37.8016 91.9878C37.8406 91.9801 37.9031 92.0187 37.9109 92.0729C37.9109 92.1271 37.8797 92.1735 37.825 92.1812C36.3264 92.3824 34.8121 92.661 33.3369 93.0014C33.3369 93.0014 33.3213 93.0014 33.3135 93.0014V93.0092Z" fill="black"/>
<path id="Vector_5" opacity="0.3" d="M39.7998 96.653C39.7998 96.653 39.7295 96.6375 39.7139 96.5988C38.7773 94.8656 38.3558 92.8383 38.5431 90.8806C38.5431 90.8264 38.5977 90.78 38.6524 90.7955C38.707 90.7955 38.746 90.8497 38.7382 90.9038C38.5587 92.8228 38.9646 94.8114 39.8856 96.5137C39.909 96.5602 39.8856 96.622 39.8466 96.6453C39.831 96.6453 39.8154 96.653 39.7998 96.653Z" fill="black"/>
</g>
</g>
<path id="Vector_6" d="M46.3562 87.8005L52.9206 83.9316L56.0037 93.7277L46.3562 95.8014L47.6285 91.4682L46.1377 87.8547" fill="#407BFF"/>
</g>
<g id="Group_4">
<path id="Vector_7" d="M84.8057 220.898L78.7331 237.65L73.0586 235.894L74.8304 218.259L84.8057 220.898Z" fill="#E9B376"/>
<g id="Group_5">
<path id="Vector_8" d="M79.6309 242.595C79.4982 243.825 79.4123 244.668 79.4123 244.668L74.2842 244.684C74.2842 244.684 73.2461 244.142 72.6373 244.212C72.0284 244.289 69.921 244.692 69.921 244.692L56.3083 244.722C56.4176 244.158 56.5503 243.655 56.6986 243.206C56.8859 242.664 57.0967 242.2 57.3387 241.805C58.1817 240.436 59.329 239.948 60.5779 239.871C62.4824 239.747 68.477 235.762 68.477 235.762C68.477 235.762 70.6547 235.004 70.764 232.706C70.803 231.847 72.0831 230.794 72.6997 230.702C73.9408 230.524 74.6354 231.297 74.8228 232.535L75.0335 233.967L77.9059 233.518C77.9059 233.518 80.8251 232.056 80.6924 233.472" fill="#263238"/>
<g id="Group_6" opacity="0.2">
<path id="Vector_9" d="M56.3083 244.716L69.921 244.685C69.921 244.685 72.0284 244.282 72.6373 244.205C73.2461 244.128 74.2842 244.677 74.2842 244.677L79.4123 244.662C79.4123 244.662 79.506 243.818 79.6309 242.588L56.6986 243.191C56.5503 243.64 56.4098 244.143 56.3083 244.708V244.716Z" fill="white"/>
</g>
<path id="Vector_10" d="M65.4952 237.241C65.5576 237.179 65.6591 237.171 65.7293 237.217C66.065 237.442 66.3538 237.751 66.5489 238.146C66.6504 238.355 66.346 238.556 66.2445 238.347C66.0728 237.999 65.823 237.72 65.5264 237.527C65.4249 237.465 65.4093 237.326 65.4952 237.241Z" fill="#407BFF"/>
<path id="Vector_11" d="M66.5723 236.606C66.6348 236.544 66.7363 236.537 66.8065 236.583C67.1422 236.807 67.4309 237.117 67.6261 237.512C67.7276 237.721 67.4231 237.922 67.3217 237.713C67.1499 237.365 66.9002 237.086 66.6036 236.893C66.5021 236.831 66.4865 236.691 66.5723 236.606Z" fill="#407BFF"/>
<path id="Vector_12" d="M67.6886 236.011C67.751 235.949 67.8525 235.941 67.9227 235.987C68.2583 236.212 68.5471 236.521 68.7423 236.916C68.8437 237.125 68.5393 237.326 68.4378 237.117C68.2661 236.769 68.0164 236.49 67.7198 236.297C67.6183 236.235 67.6027 236.096 67.6886 236.011Z" fill="#407BFF"/>
</g>
</g>
<g id="Group_7">
<path id="Vector_13" d="M123.981 219.042L126.658 237.179L132.629 237.419L134.393 219.893L123.981 219.042Z" fill="#E9B376"/>
<path id="Vector_14" d="M137.797 245.505L124.442 245.636C124.442 245.636 124.145 245.079 124.465 243.601C124.512 243.369 124.574 243.114 124.66 242.835C124.66 242.82 124.66 242.804 124.676 242.797C124.793 242.386 124.933 241.884 125.082 241.334C125.675 239.113 126.362 236.212 126.362 236.212C126.362 236.212 128.539 231.476 131.146 232.629C133.441 233.643 132.926 236.599 132.926 236.599C132.926 236.599 133.168 238.332 134.909 239.848C135.986 240.785 137.055 241.504 137.578 242.673C137.68 242.889 137.75 243.122 137.812 243.377C137.812 243.408 137.828 243.439 137.828 243.47C137.937 244.035 137.937 244.7 137.797 245.505Z" fill="#263238"/>
<g id="Group_8" opacity="0.2">
<path id="Vector_15" d="M124.457 243.593C124.137 245.079 124.434 245.629 124.434 245.629L137.789 245.497C137.937 244.692 137.937 244.027 137.82 243.462L124.449 243.593H124.457Z" fill="white"/>
</g>
<path id="Vector_16" d="M132.387 237.342C131.63 236.769 130.647 236.854 129.976 237.512C129.796 237.69 129.515 237.419 129.695 237.241C130.53 236.421 131.732 236.359 132.661 237.063C132.864 237.218 132.583 237.497 132.387 237.342Z" fill="#407BFF"/>
<path id="Vector_17" d="M132.778 238.571C132.02 237.999 131.037 238.084 130.366 238.742C130.186 238.92 129.905 238.649 130.085 238.471C130.92 237.651 132.122 237.589 133.051 238.293C133.254 238.448 132.973 238.726 132.778 238.571Z" fill="#407BFF"/>
<path id="Vector_18" d="M133.168 239.71C132.411 239.137 131.428 239.222 130.756 239.88C130.577 240.058 130.296 239.787 130.475 239.609C131.311 238.789 132.513 238.727 133.441 239.431C133.644 239.586 133.363 239.864 133.168 239.71Z" fill="#407BFF"/>
</g>
<g id="Group_9">
<path id="Vector_19" d="M137.875 106.767L109.916 107.277L92.3615 106.921C92.3615 106.921 80.5597 159.708 79.6074 169.636C78.663 179.564 70.1941 231.879 70.1941 231.879L83.8692 234.718C83.8692 234.718 98.8321 178.728 99.8937 173.35C100.823 168.661 111.305 138.577 113.982 130.924C114.271 132.479 114.576 134.05 114.88 135.598C115.645 142.623 118.104 165.009 119.157 173.342C119.157 173.342 121.741 220.961 124.332 234.773L137.172 234.672C138.671 215.018 139.077 146.013 139.077 146.013C139.881 131.017 137.875 106.767 137.875 106.767Z" fill="#263238"/>
<g id="Group_10" opacity="0.5">
<path id="Vector_20" d="M99.6365 114.721C98.0598 120.053 93.7433 124.363 88.381 125.964C88.0922 126.049 88.2171 126.498 88.5137 126.413C94.0322 124.765 98.4734 120.324 100.097 114.837C100.183 114.551 99.7301 114.427 99.6443 114.721H99.6365Z" fill="black"/>
<path id="Vector_21" d="M114.279 114.575C114.006 119.225 113.741 123.883 113.475 128.534C113.46 128.835 112.991 128.835 113.007 128.534C113.147 126.15 113.288 123.752 113.421 121.361C112.273 122.258 110.907 121.198 110.517 120.014C109.877 118.103 110.088 115.82 110.556 113.894C110.626 113.6 111.087 113.723 111.009 114.01C110.681 115.364 110.548 116.741 110.665 118.126C110.72 118.83 110.79 119.643 111.134 120.277C111.508 120.997 112.453 121.593 113.194 120.935C113.28 120.865 113.366 120.858 113.444 120.896C113.569 118.792 113.686 116.672 113.811 114.567C113.826 114.265 114.295 114.265 114.279 114.567V114.575Z" fill="black"/>
<path id="Vector_22" d="M128.079 115.232C128.079 121.392 132.911 126.506 139.101 126.932C139.397 126.955 139.389 126.491 139.101 126.475C133.161 126.065 128.54 121.128 128.548 115.232C128.548 114.938 128.087 114.938 128.087 115.232H128.079Z" fill="black"/>
</g>
<g id="Group_11" opacity="0.3">
<path id="Vector_23" d="M137.875 106.767L109.916 107.277L92.3615 106.921C92.3615 106.921 80.5597 159.708 79.6074 169.636C78.663 179.564 70.1941 231.879 70.1941 231.879L83.8692 234.718C83.8692 234.718 98.8321 178.728 99.8937 173.35C100.823 168.661 111.305 138.577 113.982 130.924C114.271 132.479 114.576 134.05 114.88 135.598C115.645 142.623 118.104 165.009 119.157 173.342C119.157 173.342 121.741 220.961 124.332 234.773L137.172 234.672C138.671 215.018 139.077 146.013 139.077 146.013C139.881 131.017 137.875 106.767 137.875 106.767Z" fill="white"/>
</g>
</g>
<path id="Vector_24" d="M81.7852 42.5742C76.2511 45.7931 70.7483 64.8358 70.7483 64.8358L87.6001 70.2909L92.9703 59.1253L81.7852 42.5742Z" fill="#407BFF"/>
<path id="Vector_25" opacity="0.2" d="M85.4612 58.529L84.5792 69.3851L80.6921 68.0542C82.261 63.8913 81.4805 48.5396 81.4805 48.5396C81.4805 48.5396 84.0328 55.7744 85.4534 58.529H85.4612Z" fill="black"/>
<g id="freepik--freepik--group--inject-124--inject-18">
<path id="Vector_26" d="M117.112 35.6338C113.951 37.9706 110.4 43.3097 113.225 49.1285C115.231 53.2605 121.093 61.3 121.093 61.3L135.791 53.098C135.791 53.098 122.639 32.5929 117.112 35.6338Z" fill="#407BFF"/>
</g>
<path id="Vector_27" d="M84.8447 41.1812C88.7943 40.0515 100.776 35.6719 117.862 35.3237L126.908 51.7665L135.4 92.7303C135.4 92.7303 137.071 97.4194 138.468 106.38C122.834 116.694 101.423 116.47 89.0206 112.137C88.5367 106.852 89.3719 107.881 88.2089 97.698C86.1639 79.7618 82.2456 59.187 81.6367 42.7829C81.6289 42.3806 84.4467 41.2896 84.8447 41.1812Z" fill="#407BFF"/>
<g id="Group_12">
<path id="Vector_28" d="M86.4683 59.8913C86.1327 61.3847 88.6382 92.9084 88.6382 92.9084C88.6382 92.9084 89.0285 102.441 89.4422 103.935C89.8558 105.428 78.0931 191.898 86.078 195.968C94.063 200.038 129.078 197.686 129.078 197.686C129.078 197.686 128.305 100.925 130.186 95.516C132.067 90.1073 135.393 87.8324 135.393 87.8324L133.098 76.2953L127.525 76.5816C127.525 76.5816 120.211 52.4321 116.995 53.6469C113.779 54.8617 86.4605 59.8758 86.4605 59.8758L86.4683 59.8913Z" fill="#263238"/>
<path id="Vector_29" d="M87.9595 61.0051L90.0358 61.2682V61.245L90.0201 61.1909C90.0201 61.1909 90.0436 61.5004 90.0358 61.2914C90.028 61.1057 90.0123 60.92 90.0045 60.7343C89.9811 60.154 89.9811 59.5814 89.9889 59.0011C89.9889 57.2446 90.0358 55.4958 90.0826 53.7394C90.1841 49.9479 90.3246 46.1486 90.4729 42.3571C90.5041 41.5059 90.5431 40.6548 90.5743 39.8036C90.6367 38.3102 88.2951 38.3102 88.2327 39.8036C87.9439 46.5665 87.5458 53.3757 87.6473 60.1462C87.6551 60.6724 87.6317 61.2528 87.7566 61.7712C88.0219 62.8467 89.3567 63.1098 89.9889 62.1735C90.8241 60.9278 88.7947 59.7594 87.9673 61.0051H87.9595Z" fill="#263238"/>
<path id="Vector_30" d="M117.635 57.9489C115.294 50.4588 112.96 42.9686 110.618 35.4784C110.173 34.0547 107.91 34.666 108.363 36.0974C110.704 43.5876 113.038 51.0778 115.38 58.568C115.824 59.9917 118.088 59.3804 117.635 57.9489Z" fill="#263238"/>
<g id="Group_13">
<path id="Vector_31" opacity="0.6" d="M106.763 66.0656L114.865 63.2026L116.847 68.6965L108.745 71.5672" fill="white"/>
<path id="Vector_32" d="M108.738 62.3511L110.228 64.8736C110.416 65.2064 110.829 65.3379 111.181 65.1832C111.493 65.0593 111.68 64.7421 111.649 64.4094L111.321 61.144L108.73 62.3434L108.738 62.3511Z" fill="#407BFF"/>
<path id="Vector_33" opacity="0.4" d="M108.738 62.3511L110.228 64.8736C110.416 65.2064 110.829 65.3379 111.181 65.1832C111.493 65.0593 111.68 64.7421 111.649 64.4094L111.321 61.144L108.73 62.3434L108.738 62.3511Z" fill="black"/>
</g>
</g>
<g id="Group_14" opacity="0.2">
<path id="Vector_34" d="M115.255 104.143C118.814 103.346 121.757 99.6167 123.286 96.3359C124.871 92.9545 126.635 87.2285 126.635 87.2285C124.543 89.9058 122.451 92.583 120.359 95.2603C119.071 96.9085 117.768 98.5721 116.098 99.8411C113.779 101.598 110.923 102.464 108.089 103.161C104.436 104.05 100.721 104.7 96.9744 105.095C96.9744 105.095 105.474 106.341 115.247 104.151L115.255 104.143Z" fill="black"/>
</g>
<path id="Vector_35" d="M135.018 53.5225C135.018 53.5225 145.625 69.3462 144.166 73.5478C142.706 77.7494 117.229 98.8736 117.229 98.8736L113.6 93.0006L130.873 71.0872L123.989 59.674L135.018 53.5225Z" fill="#E9B376"/>
<g id="Group_15">
<g id="Group_16">
<g id="Group_17">
<path id="Vector_36" d="M103.616 36.2518C103.616 36.2518 101.556 31.8335 101.837 23.0202C101.837 23.0125 101.353 22.9273 101.345 22.9196C101.376 21.6893 101.454 20.5364 101.548 19.5382C101.548 19.5073 101.548 19.4995 101.548 19.4995L92.0176 29.311C92.962 31.8645 93.3211 37.1803 93.3054 39.463C93.3054 39.463 92.8762 43.7033 98.1214 42.5503C101.954 41.7069 103.601 36.2518 103.601 36.2518H103.616Z" fill="#E9B376"/>
<path id="Vector_37" opacity="0.2" d="M92.7827 33.0486L98.9178 29.938C98.8475 32.0968 97.6689 34.9289 93.1808 36.2752C93.1808 36.2752 93.0559 33.9152 92.7749 33.0486H92.7827Z" fill="black"/>
</g>
<g id="Group_18">
<path id="Vector_38" d="M79.1936 11.9094C78.5301 14.842 79.5371 20.6686 83.4007 18.4246C87.2644 16.1729 80.3332 6.8644 79.1936 11.9094Z" fill="#263238"/>
<path id="Vector_39" d="M100.229 14.0294C101.306 21.3339 102.055 25.4349 99.1518 29.8687C94.773 36.5386 85.305 35.1381 82.0423 28.2747C79.1075 22.0999 77.843 11.1819 84.3918 6.90295C90.839 2.68586 99.1596 6.72499 100.237 14.0294H100.229Z" fill="#E9B376"/>
<path id="Vector_40" d="M99.6203 5.29301C97.786 1.52471 87.4205 3.43594 85.0476 6.05131C84.6886 6.4382 91.2685 8.17146 90.8861 8.11729L93.8911 8.49645C94.3048 8.31074 95.2571 8.63573 95.9752 9.87377C95.9752 9.87377 96.5138 17.7353 100.354 20.2811C103.211 18.1764 103.804 16.7217 104.062 13.9438C104.436 9.80414 101.736 7.15007 99.6281 5.29301H99.6203Z" fill="#263238"/>
<path id="Vector_41" d="M104.374 19.4453C104.186 21.4261 103.086 23.1207 101.79 24.1343C99.8465 25.651 97.8951 24.1498 97.622 21.8362C97.3722 19.7548 98.0903 16.4507 100.44 15.8317C102.75 15.2282 104.592 17.1781 104.374 19.4453Z" fill="#E9B376"/>
<path id="Vector_42" d="M90.2536 18.2701C90.4097 19.0051 90.1365 19.6861 89.6525 19.7789C89.1608 19.8718 88.6457 19.3533 88.4895 18.6183C88.3334 17.8832 88.6066 17.2022 89.0906 17.1094C89.5823 17.0165 90.0975 17.535 90.2536 18.2701Z" fill="#263238"/>
<path id="Vector_43" d="M82.9789 19.9336C83.135 20.6687 82.8618 21.3496 82.3779 21.4425C81.8861 21.5353 81.371 21.0169 81.2149 20.2818C81.0588 19.5467 81.332 18.8658 81.8159 18.773C82.3077 18.6801 82.8306 19.1985 82.9789 19.9336Z" fill="#263238"/>
<path id="Vector_44" d="M85.266 19.0273C85.266 19.0273 83.6815 23.1825 83.2444 24.8384C84.4776 25.5503 86.1714 24.7533 86.1714 24.7533L85.266 19.0273Z" fill="#D58745"/>
<path id="Vector_45" d="M91.3388 14.4154C91.2373 14.4851 91.0968 14.5006 90.9797 14.4387C89.5513 13.7423 88.4118 14.3845 88.3961 14.3922C88.2244 14.4928 88.0059 14.4387 87.9044 14.2684C87.8029 14.0982 87.8576 13.8893 88.0293 13.7887C88.0918 13.75 89.5201 12.9453 91.292 13.8119C91.4715 13.897 91.5417 14.1059 91.4559 14.2839C91.4246 14.3381 91.3856 14.3845 91.3388 14.4154Z" fill="#263238"/>
</g>
<path id="Vector_46" opacity="0.2" d="M99.4249 20.8384C99.3234 20.8384 99.2376 20.761 99.2298 20.6605C99.1673 19.9873 99.2844 19.3141 99.5654 18.6951C99.7605 18.2772 100.112 17.7278 100.713 17.4415C101.306 17.163 102.008 17.2481 102.43 17.6505C102.508 17.7278 102.508 17.8439 102.43 17.9213C102.352 17.9987 102.235 17.9987 102.157 17.9213C101.86 17.635 101.322 17.5731 100.877 17.782C100.385 18.0141 100.081 18.4939 99.9166 18.8498C99.6591 19.3992 99.5576 20.0105 99.6122 20.614C99.62 20.7224 99.542 20.8152 99.4327 20.823H99.4171L99.4249 20.8384Z" fill="black"/>
</g>
<g id="Group_19">
<path id="Vector_47" d="M93.2351 23.0586L87.5527 26.8192C88.1069 27.3995 88.6611 27.9875 89.348 28.4054C90.0349 28.8232 90.7686 28.8774 91.5569 28.6994C92.6731 28.4363 93.5473 27.531 93.7425 26.4091C93.9298 25.2871 93.641 24.1341 93.2351 23.0663V23.0586Z" fill="black"/>
<path id="Vector_48" d="M88.0056 26.5174C88.0056 26.5174 88.6379 27.1828 89.0594 27.1906C89.4809 27.1983 93.6021 24.1883 93.6021 24.1883L93.2274 23.0586L88.0056 26.5174Z" fill="white"/>
<path id="Vector_49" d="M90.7297 28.7928C90.7297 28.7928 90.7453 27.6166 91.9005 26.7655C93.0479 25.9143 93.7895 25.9994 93.7895 25.9994C93.7895 25.9994 93.7583 27.3922 92.6655 28.166C91.5728 28.9398 90.7375 28.7928 90.7375 28.7928H90.7297Z" fill="#DE5753"/>
</g>
<g id="Group_20">
<path id="Vector_50" d="M78.6157 13.0312C78.6157 13.0312 80.9652 1.23113 91.4478 1.57933C101.93 1.92753 103.999 7.53742 104.163 13.6116C104.163 13.6116 93.9221 11.414 89.5355 11.0194C85.1566 10.6248 78.6157 13.0312 78.6157 13.0312Z" fill="#407BFF"/>
<path id="Vector_51" opacity="0.2" d="M78.6157 13.0312C78.6157 13.0312 80.9652 1.23113 91.4478 1.57933C101.93 1.92753 103.999 7.53742 104.163 13.6116C104.163 13.6116 93.9221 11.414 89.5355 11.0194C85.1566 10.6248 78.6157 13.0312 78.6157 13.0312Z" fill="black"/>
</g>
<path id="Vector_52" d="M83.7364 10.1758C78.1711 11.1895 76.1261 11.4371 71.3648 13.8358C70.5999 14.2227 69.8271 14.656 69.3276 15.3446C68.828 16.0333 68.6797 17.0392 69.1949 17.7124C69.5383 18.1612 70.0691 18.4862 70.6311 18.5481C72.598 18.7647 76.9691 18.4398 79.6541 17.991L79.7088 15.3214C79.74 13.9596 80.6142 12.7525 81.9177 12.3347C83.6817 11.7621 85.9843 11.2127 88.0059 11.2436C92.736 11.321 96.7714 11.8704 101.439 13.0465C97.4271 11.1353 94.8357 10.3538 90.2305 9.94367C88.9816 9.83534 87.0615 9.55679 83.7286 10.1681L83.7364 10.1758Z" fill="#407BFF"/>
<path id="Vector_53" d="M94.5936 0.87517C94.18 0.604348 93.6336 0.573391 93.1731 0.735884C92.7125 0.898378 92.3223 1.25432 92.0725 1.67216L95.179 2.12869C95.2571 1.64894 94.9995 1.13825 94.5936 0.867425V0.87517Z" fill="#407BFF"/>
<path id="Vector_54" d="M79.0999 17.4806C79.0297 17.4806 78.9672 17.4574 78.9048 17.4187C78.7409 17.3104 78.694 17.086 78.8033 16.9312C79.8883 15.3063 81.5274 15.3295 81.5976 15.3218C81.7927 15.3218 81.9489 15.4843 81.9489 15.6777C81.9489 15.8712 81.785 16.0259 81.5898 16.0259C81.5196 16.0259 80.2629 16.0259 79.3887 17.3259C79.3185 17.4264 79.2092 17.4806 79.0921 17.4806H79.0999Z" fill="#263238"/>
</g>
<path id="Vector_55" d="M34.8749 234.199C42.8286 215.776 51.4302 197.623 60.4689 179.694C69.7885 161.209 79.5687 142.925 90.2231 125.159C92.6272 121.15 95.0702 117.173 97.5992 113.242C98.3173 112.128 99.051 111.014 99.8159 109.938C100.011 109.668 100.206 109.397 100.401 109.134C100.425 109.103 101.088 108.236 100.659 108.785C101.065 108.267 101.494 107.764 101.931 107.269C102.813 106.278 103.773 105.389 104.765 104.514C105.553 103.81 104.226 104.862 105.069 104.274C105.334 104.089 105.592 103.911 105.857 103.733C106.396 103.385 106.95 103.06 107.52 102.773C107.809 102.626 108.097 102.487 108.386 102.363C107.699 102.673 108.659 102.27 108.73 102.239C109.331 102.03 109.94 101.852 110.556 101.713C110.861 101.644 111.173 101.589 111.485 101.535C110.665 101.659 111.688 101.535 111.797 101.527C112.109 101.512 112.422 101.504 112.734 101.504C112.843 101.504 113.936 101.574 113.514 101.535C112.984 101.489 113.983 101.62 113.975 101.62C114.264 101.682 114.545 101.752 114.834 101.837C115.068 101.907 115.302 101.992 115.536 102.069C116.332 102.309 114.857 101.721 115.591 102.085C116.012 102.293 116.434 102.502 116.84 102.75C117.035 102.874 117.23 103.005 117.425 103.137C117.729 103.361 117.675 103.315 117.269 103.013C117.394 103.106 117.511 103.207 117.628 103.307C117.924 103.562 118.205 103.826 118.471 104.104C118.635 104.274 118.791 104.445 118.947 104.623C119.103 104.801 119.657 105.249 118.994 104.646C119.704 105.296 120.219 106.456 120.649 107.3C120.758 107.516 120.867 107.741 120.976 107.965C121 108.012 121.328 108.762 121.101 108.236C120.875 107.71 121.195 108.468 121.211 108.515C121.304 108.755 121.39 108.987 121.476 109.227C121.851 110.279 122.155 111.354 122.405 112.438C122.623 113.374 122.779 114.31 122.936 115.254C123.084 116.144 122.85 114.473 122.951 115.363C122.982 115.618 123.014 115.881 123.037 116.136C123.099 116.732 123.146 117.336 123.185 117.932C123.357 120.617 123.326 123.325 123.271 126.017C123.146 132.099 122.701 138.158 122.264 144.224C121.414 156.094 120.641 168.049 122.397 179.88C123.739 188.918 126.706 197.932 131.615 205.701C134.043 209.547 136.977 213.16 140.42 216.163C142.215 217.726 144.135 219.173 146.164 220.418C147.702 221.362 149.505 222.538 151.293 222.933C153.517 223.421 155.812 223.66 158.083 223.784C159.918 223.885 161.674 222.113 161.596 220.302C161.51 218.329 160.05 216.929 158.083 216.82C157.381 216.782 156.678 216.735 155.976 216.666C155.671 216.635 155.367 216.596 155.063 216.565C155.96 216.666 155.102 216.565 154.938 216.542C154.282 216.441 153.572 216.194 152.908 216.163C152.893 216.163 152.807 216.124 152.791 216.132L153.369 216.364C153.197 216.286 153.033 216.209 152.869 216.124C152.456 215.923 152.042 215.714 151.636 215.497C150.582 214.94 149.568 214.329 148.576 213.671C148.124 213.369 147.679 213.06 147.234 212.735C147.117 212.65 146.391 212.085 147.078 212.626C146.867 212.456 146.648 212.294 146.438 212.123C145.595 211.443 144.783 210.723 143.995 209.965C143.206 209.206 142.457 208.425 141.731 207.62C141.372 207.21 141.013 206.8 140.669 206.382C140.498 206.173 140.326 205.956 140.154 205.748C139.912 205.446 139.928 205.461 140.201 205.809C140.092 205.662 139.983 205.515 139.873 205.376C138.554 203.612 137.352 201.747 136.275 199.828C135.729 198.853 135.213 197.863 134.73 196.865C134.527 196.447 134.331 196.021 134.136 195.596C134.019 195.34 133.91 195.085 133.793 194.83C133.637 194.466 133.645 194.489 133.816 194.884C133.746 194.713 133.668 194.535 133.598 194.365C131.842 190.094 130.561 185.637 129.695 181.103C129.5 180.089 129.328 179.068 129.18 178.054C129.156 177.907 129.032 176.963 129.149 177.868C129.11 177.59 129.078 177.311 129.039 177.033C128.961 176.39 128.891 175.74 128.829 175.09C128.548 172.142 128.407 169.179 128.368 166.215C128.282 160.025 128.634 153.835 129.055 147.652C129.476 141.47 129.984 135.272 130.21 129.066C130.405 123.75 130.491 118.427 129.664 113.157C129.008 108.948 127.65 104.584 125.051 101.133C122.03 97.1247 117.565 94.5015 112.414 94.548C100.339 94.6486 93.7355 106.1 88.1858 115.045C77.3676 132.494 67.5328 150.554 58.1585 168.8C48.7608 187.099 39.8314 205.647 31.5264 224.457C30.6132 226.531 29.6999 228.613 28.8023 230.702C28.0842 232.373 28.2403 234.517 30.059 235.468C31.5654 236.258 34.0944 236.01 34.8671 234.223L34.8749 234.199Z" fill="#E0E0E0"/>
<g id="Group_21">
<path id="Vector_56" d="M209.287 175.153H164.609C162.859 175.153 161.44 176.56 161.44 178.295V232.459C161.44 234.194 162.859 235.601 164.609 235.601H209.287C211.037 235.601 212.456 234.194 212.456 232.459V178.295C212.456 176.56 211.037 175.153 209.287 175.153Z" fill="#407BFF"/>
<path id="Vector_57" d="M213.946 183.921H160.042V191.465H213.946V183.921Z" fill="#263238"/>
<path id="Vector_58" d="M160.245 177.645H213.946L213.135 172.839H204.236L197.774 166.433H173.358L167.676 172.839L160.245 173.118V177.637V177.645Z" fill="#263238"/>
<path id="Vector_59" d="M205.103 243.779C210.483 243.779 214.844 239.456 214.844 234.123C214.844 228.789 210.483 224.466 205.103 224.466C199.723 224.466 195.362 228.789 195.362 234.123C195.362 239.456 199.723 243.779 205.103 243.779Z" fill="#263238"/>
<path id="Vector_60" d="M172.188 243.957C175.438 243.957 178.073 241.345 178.073 238.122C178.073 234.9 175.438 232.288 172.188 232.288C168.937 232.288 166.302 234.9 166.302 238.122C166.302 241.345 168.937 243.957 172.188 243.957Z" fill="#263238"/>
<path id="Vector_61" d="M161.447 216.388H154.157V223.615H161.447V216.388Z" fill="#407BFF"/>
<path id="Vector_62" opacity="0.3" d="M212.456 191.464H161.44V194.195H212.456V191.464Z" fill="black"/>
</g>
<g id="Group_22">
<path id="Vector_63" d="M50.3527 236.815H0V243.106H50.3527V236.815Z" fill="#263238"/>
<path id="Vector_64" d="M42.7971 234.408H6.54102V238.076H42.7971V234.408Z" fill="#263238"/>
<path id="Vector_65" d="M25.3914 234.764C25.5787 234.764 30.7537 223.807 30.7537 223.807L39.4879 225.556L35.2418 234.408L25.3914 234.772V234.764Z" fill="#263238"/>
</g>
<path id="Vector_66" d="M113.327 90.8108C112.866 90.8495 105.974 93.3952 103.453 96.7457L106.622 96.057L103.188 104.538C103.188 104.538 102.493 108.143 107.153 106.023C111.813 103.895 113.288 107.873 116.184 103.64C119.079 99.4075 122.225 95.2291 122.225 95.2291L127.306 91.631L118.58 82.5469L113.327 90.8108Z" fill="#407BFF"/>
<path id="Vector_67" opacity="0.3" d="M161.439 216.387H160.042V223.614H161.439V216.387Z" fill="black"/>
<path id="Vector_68" d="M214.415 197.693V217.292C214.415 217.664 215 217.664 215 217.292V197.693C215 197.321 214.415 197.321 214.415 197.693Z" fill="#407BFF"/>
<path id="Vector_69" d="M214.415 220.52V222.911C214.415 223.282 215 223.282 215 222.911V220.52C215 220.148 214.415 220.148 214.415 220.52Z" fill="#407BFF"/>
</g>
</g>
</svg>
