<svg width="215" height="215" viewBox="0 0 215 215" fill="none" xmlns="http://www.w3.org/2000/svg">
<g id="&#208;&#188;&#209;&#131;&#208;&#182;&#209;&#135;&#208;&#184;&#208;&#189;&#208;&#176; &#209;&#128;&#208;&#176;&#208;&#183;&#208;&#177;&#208;&#184;&#208;&#187;">
<g id="freepik--Furniture--inject-72">
<path id="Vector" d="M79.365 95.5366C79.2231 94.2827 79.4904 93.0171 80.1283 91.9209L89.1234 91.9561L91.2839 89.0382L100.452 88.2065L101.078 92.4354V92.4777L101.712 96.7489L92.6738 98.4757L89.7643 96.2978L81.1222 98.814C80.1913 97.9407 79.5684 96.8003 79.3434 95.5578L79.365 95.5366Z" fill="#407BFF"/>
<path id="Vector_2" opacity="0.2" d="M80.121 91.8994C80.0345 93.0835 80.409 94.2676 81.835 94.4579C83.2914 94.5228 84.7508 94.4473 86.1921 94.2324L86.3073 95.0006C86.3073 95.0006 82.2167 95.7054 81.6765 96.1072C81.1364 96.5089 81.1436 98.8136 81.1436 98.8136L89.7857 96.2975C89.7857 96.2975 92.1911 94.5636 92.0759 93.7672C91.9607 92.9707 89.1376 91.9347 89.1376 91.9347L80.121 91.8994Z" fill="black"/>
<path id="Vector_3" opacity="0.2" d="M96.9371 88.5018L98.752 88.9458C98.752 88.9458 95.2591 93.3932 94.3013 96.8116C95.142 95.4955 96.0681 94.2337 97.074 93.0338L99.2345 96.1138L97.7941 97.5234L101.719 96.7763L100.452 88.1987L96.9371 88.5018Z" fill="black"/>
<path id="Vector_4" d="M100.884 85.8519L104.017 85.4079C105.414 85.2106 106.984 87.9664 107.509 91.5609C108.035 95.1555 107.337 98.2355 105.932 98.4329L102.807 98.8769C101.402 99.0743 99.8395 96.3184 99.3065 92.7239C98.7736 89.1293 99.4866 86.0493 100.884 85.8519Z" fill="#263238"/>
<path id="Vector_5" opacity="0.4" d="M102.439 92.2797C102.965 95.8743 104.528 98.623 105.932 98.4327C107.336 98.2424 108.042 95.1624 107.509 91.5608C106.976 87.9592 105.414 85.2175 104.016 85.4078C102.619 85.5981 101.906 88.6852 102.439 92.2797Z" fill="black"/>
<path id="Vector_6" d="M89.9658 206.086L90.0162 205.783L91.4278 189.713H97.4053L93.1274 206.086H89.9658Z" fill="#263238"/>
<path id="Vector_7" d="M145.369 206.086L145.318 205.783L143.907 189.713H137.929L142.207 206.086H145.369Z" fill="#263238"/>
<g id="Group" opacity="0.4">
<path id="Vector_8" d="M89.9658 206.086L90.0162 205.783L91.4278 189.713H97.4053L93.1274 206.086H89.9658Z" fill="white"/>
<path id="Vector_9" d="M145.369 206.086L145.318 205.783L143.907 189.713H137.929L142.207 206.086H145.369Z" fill="white"/>
</g>
<path id="Vector_10" d="M82.0869 206.086L82.1373 205.783L84.8596 189.713H90.8371L85.2485 206.086H82.0869Z" fill="#263238"/>
<path id="Vector_11" d="M153.248 206.086L153.197 205.783L150.475 189.713H144.498L150.086 206.086H153.248Z" fill="#263238"/>
<g id="Group_2" opacity="0.6">
<path id="Vector_12" d="M82.0869 206.086L82.1373 205.783L84.8596 189.713H90.8371L85.2485 206.086H82.0869Z" fill="white"/>
<path id="Vector_13" d="M153.248 206.086L153.197 205.783L150.475 189.713H144.498L150.086 206.086H153.248Z" fill="white"/>
</g>
<path id="Vector_14" d="M154.386 93.5063H80.9492C79.5054 93.5063 78.335 94.6518 78.335 96.0648V190.742C78.335 192.155 79.5054 193.301 80.9492 193.301H154.386C155.829 193.301 157 192.155 157 190.742V96.0648C157 94.6518 155.829 93.5063 154.386 93.5063Z" fill="#407BFF"/>
<path id="Vector_15" opacity="0.4" d="M154.386 93.5063H80.9492C79.5054 93.5063 78.335 94.6518 78.335 96.0648V190.742C78.335 192.155 79.5054 193.301 80.9492 193.301H154.386C155.829 193.301 157 192.155 157 190.742V96.0648C157 94.6518 155.829 93.5063 154.386 93.5063Z" fill="white"/>
<path id="Vector_16" opacity="0.5" d="M153.795 115.257H81.5398V151.28H153.795V115.257Z" fill="white"/>
<path id="Vector_17" opacity="0.5" d="M153.795 153.684H81.5398V189.707H153.795V153.684Z" fill="white"/>
<path id="Vector_18" opacity="0.5" d="M153.795 97.0869H81.5398V112.861H153.795V97.0869Z" fill="white"/>
<path id="Vector_19" opacity="0.5" d="M123.576 99.7088H111.758C111.403 99.709 111.056 99.6112 110.755 99.4266C110.454 99.2421 110.213 98.9784 110.059 98.6657L109.266 97.0869H126.068L125.276 98.6657C125.122 98.9784 124.88 99.2421 124.58 99.4266C124.279 99.6112 123.931 99.709 123.576 99.7088Z" fill="black"/>
<path id="Vector_20" opacity="0.5" d="M123.576 117.879H111.758C111.404 117.879 111.058 117.782 110.757 117.598C110.457 117.415 110.215 117.154 110.059 116.843L109.266 115.257H126.068L125.276 116.843C125.12 117.154 124.878 117.415 124.578 117.598C124.277 117.782 123.93 117.879 123.576 117.879Z" fill="black"/>
<path id="Vector_21" opacity="0.5" d="M123.576 156.306H111.758C111.404 156.305 111.058 156.208 110.757 156.025C110.457 155.842 110.215 155.58 110.059 155.269L109.266 153.684H126.068L125.276 155.269C125.12 155.58 124.878 155.842 124.578 156.025C124.277 156.208 123.93 156.305 123.576 156.306Z" fill="black"/>
<path id="Vector_22" d="M135.841 94.401L133.846 89.566L138.974 72.2769L140.169 78.3242L140.846 65.123L146.096 89.7492L144.67 94.401H135.841Z" fill="#407BFF"/>
<path id="Vector_23" opacity="0.2" d="M138.974 72.2773V82.6874L140.169 78.3246L142.395 83.5262L140.947 65.5957L140.169 78.3246L138.974 72.2773Z" fill="black"/>
<path id="Vector_24" opacity="0.2" d="M138.974 82.6875L140.846 86.7331L142.395 83.5262L140.169 78.3247L138.974 82.9201" fill="white"/>
<path id="Vector_25" opacity="0.2" d="M138.974 72.2778L137.361 82.5258L133.846 89.5669L138.974 72.2778Z" fill="white"/>
<path id="Vector_26" opacity="0.2" d="M140.846 65.123L143.439 83.5257L146.096 89.7492L140.846 65.123Z" fill="white"/>
<path id="Vector_27" opacity="0.2" d="M135.395 93.3229L137.742 89.7495L140.846 92.7238L142.964 90.3063L145.002 93.3229L144.67 94.4013H135.841L135.395 93.3229Z" fill="black"/>
<path id="Vector_28" d="M147.897 93.3232H132.053V97.8975H147.897V93.3232Z" fill="#263238"/>
<path id="Vector_29" opacity="0.5" d="M142.964 94.9155H136.979V96.311H142.964V94.9155Z" fill="white"/>
</g>
<g id="freepik--Sculpture--inject-72">
<path id="Vector_30" d="M148.104 206.977L147.497 209.565C142.78 210.727 136.968 211.692 133.178 210.645C125.867 208.617 124.384 205.278 124.384 205.278C124.384 205.278 132.588 207.809 138.838 204.743L141.104 205.155V207.628L148.104 206.977Z" fill="#407BFF"/>
<path id="Vector_31" opacity="0.2" d="M148.104 206.977L147.497 209.565L143.858 209.367L139.773 210.018V207.414H137.524L139.192 205.864L138.847 204.743L141.112 205.155V207.628L148.104 206.977Z" fill="black"/>
<path id="Vector_32" d="M163.846 209.762L163.484 211.09L158.329 209.754L156.308 210.941C154.96 209.424 152.526 207.998 148.879 210.653C148.879 210.653 150.673 204.957 155.524 204.734C158.961 204.577 162.229 207.842 163.846 209.762Z" fill="#407BFF"/>
<path id="Vector_33" opacity="0.2" d="M156.308 210.941L156.771 209.268L159.685 208.864L159.357 206.671L162.271 209.268L163.846 209.762L163.484 211.089L158.329 209.754L156.308 210.941Z" fill="black"/>
<path id="Vector_34" d="M188.61 210.133C188.61 210.133 180.263 212.681 174.291 207.875C171.545 209.096 168.733 210.169 165.868 211.09L166.592 206.968L165.118 205.319L169.919 200.373L166.736 199.417C168.917 196.82 173.019 193.473 178.048 196.771C180.927 195.234 184.144 194.403 187.423 194.347L186.403 195.402H188.088V196.705L189.175 197.48C189.175 197.579 189.175 197.669 189.217 197.768H184.778L189.234 198.658C189.265 199.344 189.132 200.027 188.846 200.653C189.106 201.212 189.325 201.788 189.503 202.376C190.143 204.437 190.674 207.743 188.61 210.133Z" fill="#407BFF"/>
<path id="Vector_35" opacity="0.2" d="M166.677 199.458L172.345 199.928V202.03L173.996 203.679L171.52 204.272L173.996 205.55L171.764 207.454L167.772 206.918L168.269 208.419L165.809 211.089L166.533 206.968L165.059 205.336L169.861 200.414L166.677 199.458Z" fill="black"/>
<path id="Vector_36" opacity="0.2" d="M177.989 196.813C175.1 198.297 172.345 202.031 172.345 202.031V199.92C173.053 198.744 173.955 197.691 175.015 196.804C176.355 195.939 177.989 196.813 177.989 196.813Z" fill="black"/>
<path id="Vector_37" opacity="0.2" d="M189.52 202.443C184.711 200.044 180.196 203.012 178.764 205.279C178.264 206.019 177.598 206.637 176.817 207.087C176.037 207.537 175.161 207.807 174.257 207.875C178.469 205.691 178.208 202.023 181.838 200.308C182.947 199.821 184.16 199.601 185.374 199.669C186.588 199.736 187.767 200.088 188.813 200.695C189.091 201.261 189.327 201.845 189.52 202.443Z" fill="black"/>
<path id="Vector_38" d="M192.451 210.019L193.892 190.144L205.895 189.6L215 191.232L212.776 209.878L202.559 210.579L192.451 210.019Z" fill="#263238"/>
<path id="Vector_39" opacity="0.2" d="M193.892 190.144L204.892 191.776L203.241 210.538L192.451 210.018L193.892 190.144Z" fill="white"/>
<path id="Vector_40" opacity="0.2" d="M204.892 191.776L215 191.231L212.776 209.878L203.241 210.538L204.892 191.776Z" fill="black"/>
<path id="Vector_41" d="M197.413 193.078C195.197 192.864 195.197 198.082 195.197 198.082L193.201 199.228L195.197 200.341L193.748 202.74L191.643 204.726H193.748L192.721 205.79C192.721 205.79 194.86 207.867 197.194 207.859C196.56 207.172 196.097 206.351 195.841 205.46C195.586 204.569 195.544 203.632 195.719 202.723C196.309 199.591 196.975 199.211 196.975 199.211C196.51 198.914 196.143 198.491 195.92 197.993C195.697 197.495 195.628 196.945 195.719 196.409C196.021 195.188 196.6 194.05 197.413 193.078Z" fill="#407BFF"/>
<path id="Vector_42" opacity="0.2" d="M197.413 193.078C195.197 192.864 195.197 198.082 195.197 198.082L193.201 199.228L195.197 200.341L193.748 202.74L191.643 204.726H193.748L192.721 205.79C192.721 205.79 194.86 207.867 197.194 207.859C196.56 207.172 196.097 206.351 195.841 205.46C195.586 204.569 195.544 203.632 195.719 202.723C196.309 199.591 196.975 199.211 196.975 199.211C196.51 198.914 196.143 198.491 195.92 197.993C195.697 197.495 195.628 196.945 195.719 196.409C196.021 195.188 196.6 194.05 197.413 193.078Z" fill="black"/>
<path id="Vector_43" d="M195.231 192.863C197.008 191.989 199.341 192.534 199.897 193.844C200.453 195.155 199.897 199.227 199.897 199.227C200.532 200.997 200.818 202.868 200.74 204.742C200.479 207.322 197.252 207.875 197.252 207.875C198.328 207.053 199.17 205.974 199.695 204.742C200.698 202.558 199.139 199.227 199.139 199.227L198.701 198.189V196.886L198.019 196.424L199.249 195.361L198.701 194.322L196.924 193.844L197.472 193.078L195.231 192.863Z" fill="#407BFF"/>
<path id="Vector_44" opacity="0.2" d="M209.121 196.424L208 205.904H209.778L210.889 196.424H209.121Z" fill="white"/>
<path id="Vector_45" d="M167.704 213.736L169.524 212.541L173.567 213.736L172.051 214.602L167.704 213.736Z" fill="#407BFF"/>
<path id="Vector_46" d="M144.246 214.601L146.023 212.54C146.023 212.54 146.689 213.95 147.708 213.571C148.476 213.204 149.172 212.707 149.763 212.104L150.925 213.571C150.925 213.571 147.244 215.912 144.246 214.601Z" fill="#407BFF"/>
<path id="Vector_47" d="M191.677 212.862C192.123 212.318 195.753 212.862 195.753 212.862L199.78 212.104L201.894 212.54H203.241L199.224 213.571H202.34L198.676 214.997L195.753 214.601C196.333 214.287 196.895 213.943 197.438 213.571C197.21 213.629 192.435 213.571 192.435 213.571L191.677 212.862Z" fill="#407BFF"/>
<path id="Vector_48" d="M117.924 213.555L121.478 212.541L122.809 213.044L121.807 213.571L117.924 213.555Z" fill="#407BFF"/>
</g>
<g id="freepik--Character--inject-72">
<g id="freepik--group--inject-72">
<path id="Vector_49" d="M51.5243 44.7833C51.5243 44.7833 59.0209 59.1021 60.9919 61.2702C62.9629 63.4382 80.9631 70.5852 80.9631 70.5852L82.9593 72.7533L92.7386 74.0063L96.1078 67.4775C96.1078 67.4775 84.7787 65.0621 83.6669 65.0786C82.555 65.0951 82.2434 66.6119 82.2434 66.6119C82.2434 66.6119 67.3008 58.3685 66.2395 57.2638C65.1782 56.1592 60.7476 43.25 60.7476 43.25L51.5243 44.7833Z" fill="#EBB376"/>
<path id="Vector_50" d="M65.3551 51.9956L55.2473 54.5429L50.6988 48.1624L47.1948 43.2164L51.5833 40.0427L58.9282 34.7339C60.6886 36.0858 65.3551 51.9956 65.3551 51.9956Z" fill="#263238"/>
<path id="Vector_51" opacity="0.2" d="M50.6819 48.1627L47.1779 43.2167L51.5663 40.043C51.6505 41.6834 51.7095 45.599 50.6819 48.1627Z" fill="black"/>
<path id="Vector_52" d="M2.73755 199.463H8.97908L9.49288 185.325H3.24293L2.73755 199.463Z" fill="#EBB376"/>
<path id="Vector_53" d="M9.83812 198.762H2.25731C2.13245 198.76 2.01079 198.8 1.91373 198.877C1.81667 198.954 1.75043 199.062 1.72666 199.182L0.496886 204.615C0.470932 204.73 0.468671 204.85 0.490242 204.967C0.511812 205.084 0.556783 205.195 0.62256 205.295C0.688337 205.394 0.773622 205.48 0.873488 205.547C0.973355 205.615 1.08583 205.662 1.20442 205.686H1.40658C3.8577 205.645 5.61813 205.497 8.71784 205.497C10.6215 205.497 16.2986 205.695 18.9603 205.695C21.6221 205.695 21.9169 203.164 20.8471 202.925C16.0375 201.903 12.424 200.452 10.8826 199.133C10.5949 198.884 10.2217 198.752 9.83812 198.762Z" fill="#407BFF"/>
<path id="Vector_54" d="M10.2677 199.602C10.2379 199.597 10.2109 199.582 10.191 199.559C10.1712 199.537 10.1596 199.508 10.1583 199.479C10.1542 199.451 10.1584 199.424 10.1704 199.399C10.1823 199.374 10.2016 199.353 10.2256 199.339C10.4531 199.198 12.4662 197.995 13.1569 198.341C13.2349 198.377 13.3005 198.434 13.3454 198.506C13.3903 198.578 13.4127 198.661 13.4096 198.745C13.4326 198.89 13.4158 199.038 13.3611 199.174C13.3063 199.31 13.2155 199.429 13.0979 199.52C12.7474 199.755 12.3254 199.865 11.9018 199.833C11.3499 199.818 10.8016 199.74 10.2677 199.602ZM10.6973 199.405C11.4262 199.642 12.2195 199.604 12.921 199.297C12.994 199.233 13.0497 199.152 13.0835 199.061C13.1172 198.971 13.128 198.873 13.1148 198.778C13.1148 198.663 13.0642 198.605 13.0221 198.605C12.9586 198.589 12.8919 198.589 12.8284 198.605C12.073 198.738 11.35 199.009 10.6973 199.405Z" fill="#407BFF"/>
<path id="Vector_55" d="M10.2256 199.636C10.2036 199.621 10.1858 199.602 10.174 199.579C10.1621 199.556 10.1567 199.53 10.1582 199.504C10.1582 199.421 10.3182 197.666 11.0426 197.089C11.1263 197.015 11.2256 196.961 11.3334 196.929C11.4412 196.898 11.5548 196.89 11.6659 196.907C11.7773 196.907 11.8852 196.945 11.9713 197.014C12.0573 197.083 12.1161 197.18 12.1376 197.286C12.2724 197.929 11.0258 199.273 10.3772 199.611H10.3098C10.2851 199.628 10.2556 199.636 10.2256 199.636ZM11.2279 197.262C10.7894 197.811 10.5336 198.478 10.4951 199.174C11.1353 198.696 11.927 197.682 11.8512 197.286C11.8512 197.245 11.8512 197.138 11.6322 197.138H11.5649C11.4407 197.137 11.3205 197.181 11.2279 197.262Z" fill="#407BFF"/>
<path id="Vector_56" opacity="0.2" d="M3.24293 185.334H9.49287L9.22334 192.629H2.98181L3.24293 185.334Z" fill="black"/>
<path id="Vector_57" d="M34.8549 199.924L41.2985 200.592L42.503 187.007L36.0678 186.339L34.8549 199.924Z" fill="#EBB376"/>
<path id="Vector_58" d="M41.9725 198.564H34.3917C34.2668 198.562 34.1452 198.603 34.0481 198.68C33.9511 198.757 33.8848 198.864 33.8611 198.984L32.6313 204.417C32.6053 204.533 32.6031 204.652 32.6246 204.769C32.6462 204.886 32.6912 204.997 32.757 205.097C32.8227 205.197 32.908 205.282 33.0079 205.35C33.1078 205.417 33.2202 205.464 33.3388 205.489C33.406 205.496 33.4738 205.496 33.541 205.489C35.9921 205.489 37.7525 205.307 40.8607 205.307C42.7559 205.307 48.4415 205.497 51.0947 205.497C53.748 205.497 54.0513 202.966 52.9815 202.735C48.1719 201.713 44.5584 200.262 43.017 198.935C42.7293 198.686 42.3561 198.554 41.9725 198.564Z" fill="#407BFF"/>
<path id="Vector_59" d="M42.4019 199.413C42.3733 199.406 42.3477 199.39 42.3282 199.368C42.3087 199.346 42.2963 199.319 42.2924 199.29C42.2863 199.261 42.2905 199.232 42.3044 199.206C42.3182 199.181 42.3408 199.161 42.3682 199.15C42.5872 199.01 44.6004 197.798 45.2911 198.144C45.3691 198.18 45.4346 198.237 45.4796 198.309C45.5245 198.381 45.5468 198.464 45.5437 198.548C45.5642 198.693 45.5472 198.841 45.4942 198.977C45.4413 199.114 45.354 199.236 45.2405 199.331C44.8855 199.562 44.4612 199.67 44.036 199.636C43.4848 199.619 42.9369 199.545 42.4019 199.413ZM42.8315 199.207C43.5592 199.453 44.3557 199.415 45.0552 199.1C45.1287 199.036 45.1849 198.955 45.2187 198.864C45.2525 198.774 45.2629 198.676 45.2489 198.581C45.2489 198.465 45.1984 198.408 45.1563 198.408C45.0956 198.392 45.0317 198.392 44.971 198.408C44.227 198.544 43.5156 198.815 42.8736 199.207H42.8315Z" fill="#407BFF"/>
<path id="Vector_60" d="M42.3682 199.446C42.3452 199.432 42.3262 199.413 42.3129 199.39C42.2997 199.367 42.2926 199.341 42.2924 199.314C42.2924 199.224 42.4524 197.468 43.1768 196.899C43.2626 196.828 43.3619 196.775 43.4689 196.743C43.5759 196.71 43.6885 196.699 43.8001 196.709C43.9125 196.709 44.0216 196.746 44.1091 196.815C44.1965 196.885 44.257 196.981 44.2802 197.089C44.4066 197.732 43.1599 199.075 42.5114 199.422H42.444C42.4218 199.437 42.3954 199.446 42.3682 199.446ZM43.3621 197.064C42.9264 197.614 42.671 198.281 42.6293 198.976C43.2694 198.506 44.0612 197.484 43.9854 197.089C43.9854 197.089 43.9854 196.94 43.7664 196.94H43.7159C43.5866 196.939 43.4611 196.982 43.3621 197.064Z" fill="#407BFF"/>
<path id="Vector_61" opacity="0.2" d="M36.0678 186.339L42.503 187.007L41.8713 194.014L35.436 193.346L36.0678 186.339Z" fill="black"/>
<path id="Vector_62" d="M44.8615 190.683L33.6503 189.323C33.6503 189.323 34.2147 150.769 30.5085 120.177C30.4327 119.551 30.3569 118.924 30.2726 118.306C30.1884 117.688 30.0958 116.962 30.0115 116.295C29.9273 115.627 29.8346 115.025 29.7336 114.399C28.5122 105.949 26.9034 98.4147 24.7976 92.8751C23.9553 102.767 23.113 113.129 22.1865 121.117C22.1275 121.678 22.0601 122.222 22.0012 122.766C21.9422 123.31 21.8664 123.945 21.799 124.505C21.7316 125.066 21.6642 125.602 21.5968 126.154C21.4368 127.39 21.2852 128.528 21.1336 129.55C18.2529 148.963 12.0871 191.376 12.0871 191.376H0.673828C0.673828 191.376 3.00703 150.769 4.04307 131.685C4.28734 127.456 4.49792 122.205 4.68323 116.484C4.68323 115.915 4.68323 115.355 4.74219 114.778C4.80116 114.201 4.74219 113.566 4.80116 112.948C4.86012 112.33 4.80115 111.81 4.84327 111.233C5.45815 89.8003 5.74454 64.427 5.77823 61.3027H38.8895C42.6834 82.0495 45.2288 102.996 46.5124 124.035L46.6135 125.832C46.6135 126.467 46.6893 127.11 46.723 127.753C46.7567 128.396 46.782 128.94 46.8072 129.542C47.7927 149.021 47.5737 170.33 44.8615 190.683Z" fill="#407BFF"/>
<path id="Vector_63" d="M46.142 193.239L32.2692 191.219L32.6903 187.46L47.1275 189.315L46.142 193.239Z" fill="#407BFF"/>
<path id="Vector_64" d="M13.4601 191.45H0V187.518L13.9655 187.263L13.4601 191.45Z" fill="#407BFF"/>
<g id="Group_3" opacity="0.2">
<path id="Vector_65" d="M46.142 193.239L32.2692 191.219L32.6903 187.46L47.1275 189.315L46.142 193.239Z" fill="white"/>
</g>
<g id="Group_4" opacity="0.2">
<path id="Vector_66" d="M13.4601 191.45H0V187.518L13.9655 187.262L13.4601 191.45Z" fill="white"/>
</g>
<path id="Vector_67" opacity="0.5" d="M9.83812 198.762H2.25731C2.13245 198.76 2.01079 198.8 1.91373 198.877C1.81667 198.954 1.75043 199.062 1.72666 199.182L0.496886 204.615C0.470932 204.73 0.468671 204.85 0.490242 204.967C0.511812 205.084 0.556783 205.195 0.62256 205.295C0.688337 205.394 0.773622 205.48 0.873488 205.547C0.973355 205.615 1.08583 205.662 1.20442 205.686H1.40658C3.8577 205.645 5.61813 205.497 8.71784 205.497C10.6215 205.497 16.2986 205.695 18.9603 205.695C21.6221 205.695 21.9169 203.164 20.8471 202.925C16.0375 201.903 12.424 200.452 10.8826 199.133C10.5949 198.884 10.2217 198.752 9.83812 198.762Z" fill="white"/>
<path id="Vector_68" opacity="0.5" d="M41.9725 198.564H34.3917C34.2668 198.562 34.1452 198.603 34.0481 198.68C33.9511 198.757 33.8848 198.864 33.8611 198.984L32.6313 204.417C32.6053 204.533 32.6031 204.652 32.6246 204.769C32.6462 204.886 32.6912 204.997 32.757 205.097C32.8227 205.197 32.908 205.282 33.0079 205.35C33.1078 205.417 33.2202 205.464 33.3388 205.489C33.406 205.496 33.4738 205.496 33.541 205.489C35.9921 205.489 37.7525 205.307 40.8607 205.307C42.7559 205.307 48.4415 205.497 51.0947 205.497C53.748 205.497 54.0513 202.966 52.9815 202.735C48.1719 201.713 44.5584 200.262 43.017 198.935C42.7293 198.686 42.3561 198.554 41.9725 198.564Z" fill="white"/>
<path id="Vector_69" d="M40.8352 67.1471L4.4895 63.7096C4.4895 63.7096 6.66267 44.9805 16.5177 32.0136C18.5554 29.2736 21.0097 26.855 23.7953 24.8418C24.7264 24.1707 25.703 23.5621 26.7181 23.02C26.7181 23.02 44.9204 23.6713 58.9112 34.7587C58.8775 34.7587 39.3359 49.5556 40.8352 67.1471Z" fill="#263238"/>
<path id="Vector_70" opacity="0.4" d="M40.8352 67.1471L4.4895 63.7096C4.4895 63.7096 6.66267 44.9805 16.5177 32.0136C18.5554 29.2736 21.0097 26.855 23.7953 24.8418C24.7264 24.1707 25.703 23.5621 26.7181 23.02C26.7181 23.02 44.9204 23.6713 58.9112 34.7587C58.8775 34.7587 39.3359 49.5556 40.8352 67.1471Z" fill="white"/>
<path id="Vector_71" opacity="0.2" d="M24.7977 92.8841C26.4242 97.4472 27.661 102.135 28.4955 106.898C29.422 94.5328 25.7159 81.3433 25.7159 81.3433L24.7977 92.8841Z" fill="black"/>
<path id="Vector_72" d="M51.8695 24.4789C49.1741 29.4909 50.1849 30.4142 50.1849 30.4142C49.6306 31.1559 48.9888 31.831 48.2728 32.4256C46.7398 33.7033 44.4066 34.9893 41.7365 34.1649C36.9943 32.6976 36.152 25.1961 36.152 25.1961H36.4299C39.1338 25.1961 41.3912 22.7725 42.6546 21.0743C43.0152 20.5803 43.3498 20.0685 43.657 19.5411L43.7328 19.4092L43.9097 19.4586L53.2762 22.0718C52.7202 22.9621 52.257 23.7617 51.8695 24.4789Z" fill="#EBB376"/>
<path id="Vector_73" opacity="0.2" d="M51.8695 24.4789C49.1741 29.4909 50.1849 30.4142 50.1849 30.4142C49.6306 31.1559 48.9889 31.831 48.2729 32.4256C43.8423 30.241 44.2972 23.8112 44.2972 23.8112C44.2972 23.8112 42.6125 21.1485 42.6125 21.0743C42.9732 20.5803 43.3077 20.0685 43.6149 19.5411L43.6907 19.4092L43.8676 19.4586L53.2762 22.0718C52.7203 22.9621 52.257 23.7617 51.8695 24.4789Z" fill="black"/>
<path id="Vector_74" d="M64.0241 10.7782C64.0241 10.7782 63.9315 19.2854 58.8776 21.7667C53.8237 24.248 56.4012 8.7915 56.4012 8.7915L64.0241 10.7782Z" fill="#EBB376"/>
<path id="Vector_75" opacity="0.4" d="M64.0241 10.7782C64.0241 10.7782 63.9315 19.2854 58.8776 21.7667C53.8237 24.248 56.4012 8.7915 56.4012 8.7915L64.0241 10.7782Z" fill="black"/>
<path id="Vector_76" d="M44.752 26.3005C45.4688 27.817 46.6747 29.0611 48.1843 29.8415C49.694 30.622 51.4237 30.8955 53.1077 30.6201C55.2949 30.3091 57.2778 29.1913 58.6501 27.4958C58.844 27.2615 59.024 27.0166 59.1892 26.7621C62.2468 22.0387 65.1359 9.64878 59.4756 9.07998C54.8429 8.6101 50.6397 6.39261 47.5569 9.82188C46.6745 10.7942 46.0421 11.9585 45.7122 13.2182C44.0613 19.0463 42.8062 22.3931 44.752 26.3005Z" fill="#EBB376"/>
<path id="Vector_77" d="M54.026 17.7849C53.926 17.9574 53.8982 18.1611 53.9484 18.3533C53.9987 18.5454 54.1231 18.711 54.2955 18.8153C54.6156 18.9225 54.9946 18.6175 55.1378 18.1558C55.281 17.6942 55.1378 17.2326 54.8683 17.1254C54.5987 17.0182 54.1944 17.315 54.026 17.7849Z" fill="#263238"/>
<path id="Vector_78" d="M59.4083 19.599C59.2146 20.0524 59.4083 20.5305 59.6778 20.6294C59.9474 20.7283 60.3769 20.4398 60.5201 19.9782C60.6633 19.5166 60.5622 19.0467 60.2506 18.9478C59.9389 18.8488 59.5599 19.1456 59.4083 19.599Z" fill="#263238"/>
<path id="Vector_79" d="M57.6142 19.2446C57.689 20.8564 57.9865 22.4509 58.4986 23.9846C58.0917 24.1052 57.6627 24.1367 57.2421 24.0768C56.8214 24.017 56.4193 23.8673 56.0643 23.6384L57.6142 19.2446Z" fill="#D58745"/>
<path id="Vector_80" d="M55.6263 14.6535C55.5802 14.6275 55.5279 14.6138 55.4747 14.6138C55.4214 14.6138 55.3691 14.6275 55.323 14.6535C55.0167 14.8568 54.6668 14.9885 54.3002 15.0385C53.9337 15.0886 53.5603 15.0556 53.2088 14.9421C53.1384 14.917 53.0609 14.9192 52.992 14.948C52.9231 14.9769 52.8681 15.0304 52.8381 15.0976C52.808 15.1648 52.8053 15.2406 52.8303 15.3097C52.8554 15.3788 52.9064 15.436 52.973 15.4696C53.4135 15.6248 53.8854 15.6751 54.3498 15.6164C54.8141 15.5576 55.2574 15.3914 55.6431 15.1317C55.7087 15.0909 55.7552 15.0265 55.7726 14.9525C55.7899 14.8784 55.7767 14.8006 55.7358 14.736C55.7043 14.7027 55.6672 14.6748 55.6263 14.6535Z" fill="#263238"/>
<path id="Vector_81" d="M61.0846 16.211C61.0302 16.1914 60.9705 16.1914 60.9161 16.211C60.8431 16.2338 60.782 16.2836 60.7458 16.3497C60.7096 16.4159 60.7012 16.4933 60.7224 16.5654C60.854 17.0065 61.0917 17.4104 61.4156 17.7431C61.7395 18.0758 62.1401 18.3278 62.5839 18.4779C62.6587 18.4983 62.7387 18.4889 62.8066 18.4519C62.8744 18.4148 62.9245 18.3531 62.9461 18.28C62.9669 18.2068 62.9573 18.1285 62.9195 18.0621C62.8816 17.9958 62.8185 17.9467 62.7439 17.9256C62.396 17.7975 62.0837 17.5913 61.8321 17.3236C61.5805 17.0558 61.3966 16.734 61.2951 16.3841C61.2771 16.3406 61.2484 16.3022 61.2117 16.272C61.1751 16.2418 61.1314 16.2209 61.0846 16.211Z" fill="#263238"/>
<path id="Vector_82" d="M52.4928 7.51438L52.0548 10.1688C51.5526 10.2518 51.1006 10.5165 50.7885 10.9105C50.4765 11.3045 50.3271 11.7989 50.3702 12.2956C50.5808 14.6862 48.3486 17.6703 46.2597 18.5276C46.2597 18.5276 46.4871 17.5796 45.6196 17.5714C44.752 17.5631 43.5306 22.5174 44.4151 25.246C44.4151 25.246 42.006 22.0641 42.1661 16.5904C42.3261 11.5207 43.0673 8.4294 44.2382 6.21191L52.4928 7.51438Z" fill="#EBB376"/>
<path id="Vector_83" opacity="0.4" d="M52.4928 7.51438L52.0548 10.1688C51.5526 10.2518 51.1006 10.5165 50.7885 10.9105C50.4765 11.3045 50.3271 11.7989 50.3702 12.2956C50.5808 14.6862 48.3486 17.6703 46.2597 18.5276C46.2597 18.5276 46.4871 17.5796 45.6196 17.5714C44.752 17.5631 43.5306 22.5174 44.4151 25.246C44.4151 25.246 42.006 22.0641 42.1661 16.5904C42.3261 11.5207 43.0673 8.4294 44.2382 6.21191L52.4928 7.51438Z" fill="black"/>
<path id="Vector_84" d="M43.1262 9.04764C46.0228 9.88222 49.0366 10.2606 52.0547 10.1687C60.7137 10.0946 63.6702 13.7629 63.6702 13.7629C64.3417 13.3656 64.916 12.829 65.3526 12.1909C65.7892 11.5528 66.0775 10.8288 66.1971 10.0698C66.4077 7.67099 63.1564 6.64879 63.1564 6.64879C63.1564 6.64879 62.6594 3.8213 60.6294 2.60952C58.5995 1.39773 55.9715 2.98047 55.9715 2.98047C55.9715 2.98047 53.7141 -0.135549 50.3617 0.00458904C49.2375 0.0214959 48.1532 0.415454 47.2901 1.12063C46.427 1.8258 45.8372 2.79948 45.6195 3.879C45.6195 3.879 41.7869 3.54927 41.5005 5.46175C41.2142 7.37423 43.1262 9.04764 43.1262 9.04764Z" fill="#263238"/>
<path id="Vector_85" d="M41.5176 17.052C41.7156 18.5656 42.5181 19.9409 43.7497 20.8769C45.3838 22.0969 46.9673 20.8769 47.119 18.9397C47.2706 17.291 46.6304 14.5212 44.6678 14.0596C44.2426 13.9652 43.8001 13.9762 43.3803 14.0915C42.9606 14.2069 42.5769 14.4229 42.264 14.7201C41.9511 15.0173 41.719 15.3862 41.5887 15.7934C41.4583 16.2006 41.4339 16.6332 41.5176 17.052Z" fill="#EBB376"/>
<path id="Vector_86" d="M51.5157 26.9187C52.3444 26.1222 53.3383 25.5093 54.4301 25.1217C54.4301 25.1217 54.2701 24.9403 53.9921 24.66C53.1919 23.8769 51.5073 22.3766 50.3112 22.5744C50.2064 22.5864 50.1041 22.6142 50.008 22.6569C49.477 22.9112 49.0367 23.3162 48.7445 23.8192C48.0454 24.9568 48.2644 26.5066 51.5157 26.9187Z" fill="#263238"/>
<path id="Vector_87" d="M50.3113 22.5666L53.3436 25.188L53.9922 24.6522C53.192 23.8691 51.5074 22.3688 50.3113 22.5666Z" fill="white"/>
<path id="Vector_88" d="M51.5157 26.9189C51.5747 25.2702 49.7385 24.2562 48.7445 23.8193C48.0454 24.9569 48.2644 26.5067 51.5157 26.9189Z" fill="#DE5753"/>
<path id="Vector_89" opacity="0.2" d="M36.472 51.9957C36.472 51.9957 20.4681 46.2253 16.5177 32.0136C18.5554 29.2735 21.0097 26.8549 23.7953 24.8418C29.304 28.1392 35.5876 34.4289 35.5876 34.4289C35.5876 34.4289 38.2409 48.146 36.472 51.9957Z" fill="black"/>
<path id="Vector_90" d="M25.2441 38.889C25.2441 38.889 30.2306 54.2218 31.8142 56.6454C33.3977 59.0689 49.9407 69.06 49.9407 69.06L51.5495 71.533L60.9666 74.4017L65.355 68.4994C65.355 68.4994 54.5903 64.2953 53.4868 64.1221C52.3834 63.949 51.8022 65.4081 51.8022 65.4081C51.8022 65.4081 38.4516 54.8483 37.584 53.6118C36.7164 52.3752 34.5348 38.8643 34.5348 38.8643L25.2441 38.889Z" fill="#EBB376"/>
<path id="Vector_91" d="M26.718 23.0281C20.1901 24.413 22.7002 40.1415 25.8167 45.3843L35.9834 42.3754C35.9834 42.3754 36.9773 20.8518 26.718 23.0281Z" fill="#263238"/>
<path id="Vector_92" opacity="0.4" d="M22.1866 121.117C22.1276 121.677 22.0602 122.221 22.0013 122.765L4.84338 112.939C4.84338 112.37 4.84339 111.802 4.8855 111.225L22.1866 121.117Z" fill="white"/>
<path id="Vector_93" opacity="0.4" d="M21.816 124.497C21.7486 125.057 21.6812 125.593 21.6138 126.146L4.76758 116.493C4.76758 115.924 4.76758 115.363 4.82654 114.786L21.816 124.497Z" fill="white"/>
<path id="Vector_94" opacity="0.4" d="M46.6557 125.816L30.0116 116.294C29.919 115.66 29.8347 115.025 29.7336 114.398L46.5799 124.019L46.6557 125.816Z" fill="white"/>
<path id="Vector_95" opacity="0.4" d="M46.8494 129.525L30.5086 120.169C30.4328 119.543 30.3569 118.916 30.2727 118.298L46.7652 127.728C46.7904 128.33 46.8241 128.924 46.8494 129.525Z" fill="white"/>
</g>
</g>
</g>
</svg>
