<svg width="95" height="227" viewBox="0 0 95 227" fill="none" xmlns="http://www.w3.org/2000/svg">
<path d="M75.2309 52.223L74.8454 52.4574C75.1957 49.4996 74.9093 46.5011 74.0055 43.6634C73.6269 42.4918 73.1381 41.2719 73.3928 40.0727C73.7026 38.6255 75.045 37.5986 76.4494 37.123C78.7281 36.3512 81.2202 36.7095 83.5952 37.0679L92.4208 38.4463C92.9906 38.4849 93.5418 38.6649 94.0248 38.9701C94.8372 39.5903 94.9405 40.7619 94.9611 41.7819C95.0483 46.1376 94.9886 50.5024 94.7821 54.8764C94.8028 55.8505 94.6101 56.8174 94.2176 57.7089C93.3915 59.2527 91.5465 59.9005 89.8323 60.2244C87.0182 60.7607 84.1297 60.777 81.3097 60.2727" fill="#455A64"/>
<path d="M75.754 45.6758L78.2255 43.9873L81.4955 39.5903C81.4955 39.5903 82.831 38.8529 83.5194 39.3146C84.2079 39.7764 84.4419 40.3208 84.1184 40.9204C84.1184 40.9204 85.9633 41.327 86.0941 41.8991C86.1171 42.5661 86.0287 43.2323 85.8325 43.8701C85.9713 44.4057 85.9713 44.9679 85.8325 45.5035C85.6769 45.8355 85.5969 46.1981 85.5985 46.5648C85.5985 46.5648 86.7894 47.9432 86.2869 49.3216C85.7843 50.6999 83.6158 53.8012 82.4661 54.6007C81.3983 55.2707 80.2823 55.8604 79.1273 56.365L77.7022 59.1217L71.7887 54.1527L75.754 45.6758Z" fill="#FFBF9D"/>
<path d="M82.1494 44.3526C82.4264 43.755 82.7438 43.177 83.0994 42.6227C83.4217 42.0453 83.7756 41.4862 84.1596 40.948C83.8735 41.5422 83.554 42.1198 83.2027 42.6779C82.8842 43.256 82.5325 43.8151 82.1494 44.3526Z" fill="#FF9A6C"/>
<path d="M82.9274 47.1094C82.9274 47.1094 82.9274 47.0129 82.8379 46.8682C82.7542 46.6836 82.6207 46.5261 82.4524 46.4134C82.2715 46.3031 82.0652 46.2414 81.8535 46.2342C81.7618 46.2402 81.6698 46.2402 81.5781 46.2342C81.5781 46.2342 81.6676 46.1652 81.8535 46.1515C82.0942 46.1262 82.3364 46.1819 82.5419 46.31C82.7327 46.4348 82.874 46.6226 82.9412 46.8406C82.9619 46.9992 82.9412 47.1094 82.9274 47.1094Z" fill="#FF9A6C"/>
<path d="M85.6743 47.9224C85.6743 47.9224 85.571 47.8672 85.4265 47.7638C85.247 47.6279 85.0531 47.5124 84.8482 47.4193C84.6343 47.3165 84.3944 47.2805 84.1598 47.3159C84.0726 47.3388 83.9907 47.3786 83.9188 47.433C83.9188 47.433 83.9188 47.3021 84.1391 47.2401C84.3815 47.1793 84.6375 47.2061 84.862 47.3159C85.0797 47.4093 85.2781 47.5425 85.4471 47.7087C85.6123 47.7983 85.6812 47.9086 85.6743 47.9224Z" fill="#FF9A6C"/>
<path d="M84.6143 45.6071C84.7597 45.2896 84.9398 44.9891 85.1512 44.7112C85.3366 44.4088 85.5535 44.1269 85.7983 43.8704C85.6519 44.1889 85.4695 44.4895 85.2545 44.7663C85.0749 45.0708 84.86 45.3531 84.6143 45.6071Z" fill="#FF9A6C"/>
<path d="M79.8708 45.8136C79.8708 45.8136 79.8708 45.7172 79.8088 45.5793C79.7491 45.3985 79.6303 45.2432 79.4715 45.1382C79.3059 45.0302 79.1115 44.9749 78.9139 44.9797C78.7624 44.9797 78.6661 44.9797 78.6592 44.9797C78.6523 44.9797 78.7418 44.9039 78.907 44.8833C79.1314 44.8594 79.3573 44.9128 79.5472 45.0349C79.7238 45.1537 79.8472 45.3366 79.8914 45.5449C79.919 45.7309 79.8846 45.8136 79.8708 45.8136Z" fill="#FF9A6C"/>
<path d="M52.5953 59.6804L61.9785 67.1304L73.4958 51.1689L80.9858 55.304C80.9858 55.304 69.7646 79.2738 66.7217 81.3896C63.6789 83.5054 61.1111 82.961 57.2008 81.2793C53.2906 79.5977 39.3431 66.586 39.3431 66.586L52.5953 59.6804Z" fill="#FFBF9D"/>
<path d="M62.3157 73.7528C62.2194 73.7528 62.481 72.2366 62.3639 70.3758C62.2469 68.515 61.8338 67.047 61.9302 67.0264C62.3973 68.0773 62.6479 69.2119 62.6668 70.362C62.7809 71.5044 62.6615 72.6581 62.3157 73.7528Z" fill="#FF9A6C"/>
<path d="M72.959 51.9333C72.4906 50.5246 72.2308 49.0548 72.188 47.5708C72.188 46.4474 73.7783 42.9395 73.7783 42.9395L75.754 45.6962L72.959 51.9333Z" fill="#FFBF9D"/>
<path d="M78.2256 43.9871C78.3013 44.0767 77.3582 44.8072 76.1603 45.5997C74.9624 46.3923 74.2258 47.2607 74.1501 47.2055C74.0744 47.1504 74.2465 46.9092 74.5563 46.5164C74.9615 46.0468 75.4241 45.63 75.9331 45.2758C76.6446 44.7585 77.414 44.326 78.2256 43.9871Z" fill="#FF9A6C"/>
<path d="M4.55717 65.8137C4.55717 65.8137 -0.220487 90.4658 0.0135768 92.7746C0.247641 95.0833 1.51435 98.7429 4.39196 99.37C6.20917 99.7398 8.08213 99.7398 9.89934 99.37L6.45723 69.0942L4.55717 65.8137Z" fill="#FFBF9D"/>
<path d="M18.7802 45.235L18.4498 17.5574C18.14 10.6656 21.8919 4.75241 28.7761 4.63525H29.4164C32.5055 4.76442 35.4329 6.05269 37.6166 8.2439C39.8003 10.4351 41.0804 13.3688 41.2022 16.4616C41.4362 22.4231 41.6221 29.0254 41.45 32.2095C41.092 38.8118 34.4556 39.5699 34.4556 39.5699C34.4556 39.5699 34.4143 43.5879 34.4143 45.5245L29.1066 52.9332V53.3122L18.7802 45.235Z" fill="#FFBF9D"/>
<path d="M34.4625 39.5975C31.4144 39.4615 28.4689 38.4547 25.9742 36.696C25.9742 36.696 27.833 41.7478 34.4418 41.4238L34.4625 39.5975Z" fill="#FF9A6C"/>
<path d="M39.1093 22.1815C39.1021 22.4283 38.9986 22.6624 38.8211 22.8338C38.6435 23.0051 38.4059 23.1 38.1593 23.0981C38.0394 23.1017 37.9199 23.0816 37.8078 23.0388C37.6957 22.996 37.5932 22.9315 37.5061 22.8488C37.4191 22.7662 37.3493 22.6671 37.3007 22.5573C37.2521 22.4475 37.2257 22.3291 37.223 22.209C37.2302 21.9622 37.3337 21.7281 37.5113 21.5567C37.6888 21.3854 37.9264 21.2905 38.173 21.2924C38.2932 21.2878 38.413 21.3073 38.5255 21.3497C38.638 21.3922 38.741 21.4567 38.8282 21.5395C38.9154 21.6224 38.9852 21.7218 39.0335 21.8321C39.0818 21.9423 39.1075 22.0611 39.1093 22.1815Z" fill="#263238"/>
<path d="M39.6876 19.3423C39.5637 19.4664 38.8753 18.9082 37.8564 18.8668C36.8375 18.8254 36.0803 19.301 35.977 19.1769C35.8738 19.0529 36.0527 18.9013 36.3901 18.6738C36.8391 18.388 37.3665 18.2506 37.8977 18.281C38.4258 18.2997 38.9343 18.4855 39.3503 18.8117C39.6532 19.0667 39.7496 19.2941 39.6876 19.3423Z" fill="#263238"/>
<path d="M30.0566 22.1815C30.0476 22.4277 29.9436 22.6608 29.7664 22.8318C29.5892 23.0028 29.3526 23.0982 29.1065 23.0981C28.9862 23.1036 28.8659 23.0848 28.753 23.0427C28.64 23.0006 28.5367 22.9361 28.4493 22.8531C28.3619 22.7701 28.2921 22.6703 28.2442 22.5596C28.1962 22.4489 28.1711 22.3297 28.1703 22.209C28.1757 21.9628 28.2777 21.7287 28.4542 21.5572C28.6306 21.3856 28.8675 21.2905 29.1134 21.2924C29.2339 21.2878 29.3541 21.3073 29.467 21.3496C29.5799 21.392 29.6832 21.4564 29.771 21.5392C29.8588 21.6219 29.9292 21.7213 29.9783 21.8316C30.0273 21.9419 30.0539 22.0608 30.0566 22.1815Z" fill="#263238"/>
<path d="M29.7398 19.1698C29.6159 19.2869 28.9206 18.7287 27.9086 18.6873C26.8966 18.646 26.1325 19.1284 26.0292 18.9975C25.9259 18.8665 26.1049 18.7218 26.4354 18.5013C26.8874 18.2159 27.4161 18.0763 27.9499 18.1015C28.4794 18.1188 28.989 18.3074 29.4025 18.6391C29.6985 18.8872 29.7949 19.1146 29.7398 19.1698Z" fill="#263238"/>
<path d="M33.0513 27.1233C33.5917 26.973 34.1495 26.8942 34.7104 26.889C34.972 26.889 35.2198 26.8339 35.268 26.6616C35.2991 26.3941 35.2512 26.1234 35.1303 25.8828C34.91 25.2488 34.6805 24.5802 34.4419 23.8773C33.4918 21.0241 32.8172 18.6808 32.9342 18.6464C33.0512 18.6119 33.9118 20.8862 34.8549 23.7463L35.5089 25.7588C35.6582 26.0799 35.6899 26.4434 35.5984 26.7856C35.5579 26.8756 35.4969 26.9548 35.4205 27.017C35.344 27.0792 35.2541 27.1227 35.1578 27.144C35.0134 27.1767 34.8653 27.1906 34.7172 27.1854C34.1614 27.2317 33.6021 27.2109 33.0513 27.1233Z" fill="#263238"/>
<path d="M30.2012 16.007C30.0497 16.262 29.0791 15.945 27.8812 15.8761C26.6834 15.8072 25.6782 15.945 25.5681 15.6693C25.5199 15.5384 25.7333 15.3179 26.1602 15.1249C26.7292 14.8947 27.3433 14.798 27.9555 14.8422C28.5677 14.8864 29.1616 15.0703 29.6918 15.3799C30.0842 15.6349 30.2631 15.8899 30.2012 16.007Z" fill="#263238"/>
<path d="M39.8598 16.365C39.6395 16.5855 38.8203 16.3236 37.829 16.2891C36.8376 16.2547 35.9909 16.3925 35.805 16.1513C35.7224 16.0273 35.8601 15.7998 36.2318 15.5931C36.7483 15.3477 37.3177 15.2349 37.8886 15.265C38.4595 15.2951 39.0139 15.4671 39.5018 15.7654C39.846 16.0135 39.9562 16.2547 39.8598 16.365Z" fill="#263238"/>
<path d="M18.7801 22.4708C18.67 22.4157 14.3054 20.9408 14.2641 25.4618C14.2228 29.9829 18.7664 29.0938 18.7732 28.9629C18.7801 28.8319 18.7801 22.4708 18.7801 22.4708Z" fill="#FFBF9D"/>
<path d="M17.4034 27.2336C17.4034 27.2336 17.3208 27.2887 17.19 27.3507C17.0019 27.4249 16.7928 27.4249 16.6048 27.3507C16.3133 27.1641 16.0772 26.9026 15.921 26.5935C15.7648 26.2844 15.6942 25.939 15.7167 25.5933C15.708 25.2059 15.7881 24.8216 15.9508 24.4699C15.9928 24.329 16.0687 24.2007 16.172 24.0961C16.2752 23.9915 16.4026 23.914 16.5428 23.8704C16.6343 23.8455 16.7316 23.8541 16.8174 23.8945C16.9032 23.9349 16.9718 24.0045 17.011 24.0909C17.066 24.215 17.011 24.3045 17.0592 24.3114C17.1074 24.3183 17.1624 24.2356 17.128 24.0495C17.0995 23.9389 17.0368 23.84 16.949 23.767C16.8882 23.7195 16.8185 23.6846 16.744 23.6645C16.6695 23.6444 16.5917 23.6394 16.5153 23.6498C16.3298 23.6832 16.1561 23.7642 16.0112 23.8851C15.8664 24.0059 15.7554 24.1623 15.6892 24.339C15.4914 24.7295 15.3921 25.1625 15.4001 25.6002C15.3768 26.0021 15.4713 26.402 15.6718 26.7509C15.8724 27.0999 16.1703 27.3826 16.5291 27.5644C16.6506 27.6008 16.7787 27.6091 16.9039 27.5888C17.0291 27.5685 17.1481 27.5201 17.2519 27.4472C17.4034 27.3438 17.4447 27.2474 17.4034 27.2336Z" fill="#FF9A6C"/>
<path d="M29.8707 27.7501C30.0221 27.7501 30.029 28.777 30.924 29.5076C31.8189 30.2381 32.9135 30.1209 32.9273 30.2725C32.941 30.4242 32.6794 30.4724 32.2389 30.4862C31.6314 30.4985 31.039 30.296 30.566 29.9142C30.1129 29.5449 29.8215 29.0134 29.7537 28.4324C29.6848 27.9982 29.7949 27.7432 29.8707 27.7501Z" fill="#263238"/>
<path d="M50.3304 10.5342C50.2525 10.2687 50.0749 10.0439 49.8348 9.90702C49.3093 9.65839 48.7267 9.55601 48.1481 9.61066C46.7066 9.56603 45.2941 9.19367 44.0176 8.52175C44.4666 8.30869 44.8799 8.0274 45.243 7.68785C45.6273 7.33987 45.9093 6.89334 46.0586 6.39654C46.2078 5.89975 46.2186 5.37157 46.0898 4.86909C46.0678 4.77489 46.0247 4.68688 45.9639 4.61169C45.9031 4.53649 45.8261 4.47605 45.7387 4.4349C45.4495 4.33842 45.1879 4.62787 44.9814 4.8553C44.7179 5.20641 44.3644 5.47957 43.9584 5.6458C43.5523 5.81203 43.1089 5.86514 42.6752 5.79948C42.0716 5.75671 41.4856 5.57764 40.961 5.27571L40.9059 5.20678L40.2175 4.5176C38.9208 3.05338 37.3489 1.85906 35.5913 1.00277C32.9871 0.0103523 30.1617 -0.251769 27.4197 0.244669C25.1135 0.816691 23.0276 2.6637 22.6765 5.0207C21.4029 3.91112 19.4684 3.89734 17.8575 4.51071H17.8231C16.0676 5.11719 15.0694 6.95042 14.5118 8.73541L14.4292 9.02486C13.8325 9.96381 13.0176 10.7441 12.0541 11.2992C11.882 11.3956 11.6893 11.5128 11.6617 11.7127C11.6342 11.9125 11.7994 12.0642 11.9577 12.1813C12.3775 12.4857 12.8595 12.6928 13.369 12.7878C13.2057 13.2113 13.0053 13.6195 12.7701 14.0077C12.5704 14.3385 12.3295 14.7382 12.5016 15.0897C12.5793 15.2193 12.695 15.3219 12.8329 15.3835C12.9708 15.4452 13.1243 15.4629 13.2726 15.4343C13.5654 15.3727 13.8421 15.2507 14.085 15.0759L13.486 16.4543C14.1216 16.5672 14.7747 16.5294 15.393 16.344C15.7441 18.0187 15.985 21.1131 16.4049 22.2503C17.6028 22.2847 17.8988 22.1607 18.4702 22.3674C19.2481 22.6362 18.9383 24.0215 19.9572 23.6355C20.4804 23.4426 21.2996 21.4853 21.4786 20.9615C22.6681 17.4535 23.0906 13.7306 22.7178 10.0449C23.4522 9.27459 24.3289 8.65435 25.2994 8.21852L25.2168 8.28743C27.0755 7.66717 29.1683 7.06068 30.91 7.94973C32.2869 8.63891 33.0441 10.0586 34.0492 11.1958C34.8964 12.2486 35.9589 13.1076 37.1654 13.7151C38.3718 14.3226 39.6942 14.6644 41.0436 14.7175C41.2777 16.7161 41.319 19.9829 41.3947 21.8437L43.0263 18.1359C43.1531 17.9242 43.268 17.7056 43.3705 17.4811L43.4118 17.4122C43.577 17.0607 43.7353 16.723 43.9419 16.3578C44.1565 16.5357 44.4278 16.6305 44.7064 16.6251C44.985 16.6197 45.2524 16.5144 45.46 16.3282C45.6676 16.1421 45.8015 15.8876 45.8375 15.611C45.8735 15.3344 45.8091 15.054 45.656 14.8209C45.5053 14.601 45.3192 14.4078 45.1053 14.2489C45.3309 14.4702 45.6097 14.6296 45.9148 14.7117C46.2199 14.7938 46.5409 14.7958 46.847 14.7175C47.1509 14.6285 47.4172 14.442 47.605 14.1868C47.7928 13.9316 47.8917 13.6216 47.8865 13.3047C47.8638 13.0903 47.785 12.8856 47.6581 12.7114C47.5312 12.5372 47.3607 12.3995 47.1637 12.3123C47.9847 12.3847 48.8088 12.212 49.5319 11.816C50.0207 11.5542 50.4819 11.1269 50.3304 10.5342Z" fill="#263238"/>
<path d="M24.7488 5.80664C24.5059 5.99045 24.2758 6.19079 24.0604 6.40623C23.5323 7.03305 23.1743 7.78544 23.0209 8.59093C22.9027 9.14381 22.8404 9.70718 22.835 10.2725C22.835 10.8859 22.835 11.5337 22.9038 12.2229C22.9455 12.946 22.9455 13.6708 22.9038 14.3939C22.8758 14.7786 22.8206 15.1609 22.7386 15.5379C22.6747 15.9427 22.5089 16.3246 22.2567 16.6475C22.1393 16.7736 21.9917 16.8676 21.8279 16.9207C21.664 16.9738 21.4894 16.9841 21.3204 16.9507C20.9963 16.8845 20.7033 16.7123 20.4875 16.4614C20.1352 15.9634 19.9214 15.3807 19.8679 14.7729H20.0124C19.8043 15.2695 19.5261 15.7337 19.1863 16.1513C18.8624 16.5427 18.3973 16.7903 17.8921 16.8405C17.6555 16.8658 17.4166 16.8227 17.2037 16.7164C17.0084 16.6106 16.8481 16.4502 16.7424 16.2546C16.6457 16.0727 16.6004 15.8678 16.6116 15.6619C16.6228 15.4726 16.698 15.2927 16.825 15.152L16.8939 15.214C16.4964 15.6628 16.0083 16.0222 15.462 16.2684C15.3181 16.3313 15.171 16.3865 15.0214 16.4338L14.863 16.4683L15.0145 16.4063C15.1109 16.3649 15.2623 16.3098 15.4413 16.2202C15.9674 15.9605 16.4357 15.5972 16.8182 15.152L16.887 15.214C16.7781 15.3528 16.7143 15.5218 16.7045 15.6981C16.6946 15.8743 16.7391 16.0494 16.8319 16.1995C16.9254 16.3737 17.0694 16.5155 17.245 16.6061C17.4365 16.702 17.6517 16.7403 17.8646 16.7164C18.3344 16.6584 18.7648 16.4245 19.0693 16.0617C19.3926 15.6528 19.6567 15.2004 19.8541 14.7178L19.9505 14.5041L19.9918 14.7316C20.0445 15.3139 20.2487 15.8723 20.5838 16.3511C20.7789 16.5717 21.0395 16.7239 21.3273 16.7853C21.4717 16.8143 21.6211 16.8054 21.761 16.7596C21.901 16.7137 22.0266 16.6323 22.1259 16.5234C22.3576 16.2216 22.5092 15.866 22.5665 15.4897C22.6484 15.122 22.7037 14.7488 22.7317 14.3732C22.7733 13.6547 22.7733 12.9345 22.7317 12.216C22.6973 11.5268 22.6629 10.8721 22.6766 10.2588C22.6877 9.68579 22.7569 9.11544 22.8832 8.55647C23.0491 7.73539 23.4318 6.97383 23.9915 6.35109C24.21 6.12646 24.4664 5.94216 24.7488 5.80664Z" fill="#455A64"/>
<path d="M45.1261 12.4778C45.1261 12.4778 45.1262 12.4778 45.078 12.526L44.9403 12.6501C44.8518 12.7182 44.7573 12.7782 44.658 12.8292C44.5287 12.9053 44.3955 12.9743 44.2587 13.036C43.3672 13.4271 42.3926 13.5905 41.4225 13.5115C39.9801 13.4 38.6006 12.8735 37.4502 11.9953C36.0626 10.9062 34.9103 9.54628 34.0632 7.99808C33.5951 7.19173 33.2096 6.36472 32.7896 5.59972C32.4046 4.85656 31.9129 4.1739 31.3302 3.57352C30.8101 3.02694 30.1616 2.61942 29.4439 2.38813C29.1176 2.29353 28.7783 2.25165 28.4388 2.26407C28.1255 2.27928 27.8154 2.33487 27.5163 2.42948C27.0068 2.60382 26.5383 2.88056 26.1395 3.24272C25.8375 3.52209 25.5819 3.84778 25.3822 4.20757C25.2315 4.52307 25.1138 4.85333 25.0311 5.1931C25.0297 5.17015 25.0297 5.14714 25.0311 5.12418C25.0311 5.06905 25.0311 5.00013 25.0655 4.92432C25.1232 4.66678 25.211 4.41695 25.3271 4.18001C25.5195 3.80714 25.7732 3.46931 26.0775 3.18068C26.4721 2.80305 26.941 2.51199 27.4543 2.3261C27.7613 2.22298 28.081 2.16267 28.4044 2.14691C28.7577 2.12759 29.1117 2.16956 29.4508 2.27097C30.1933 2.49875 30.866 2.91133 31.4059 3.47014C31.9989 4.0836 32.4998 4.78005 32.8929 5.53769C33.3197 6.30268 33.7052 7.1297 34.1733 7.92915C35.0081 9.45792 36.1412 10.8032 37.5053 11.8851C38.6327 12.7539 39.9846 13.2823 41.4018 13.4082C42.3559 13.4966 43.3173 13.3523 44.2037 12.9878C44.5231 12.8404 44.8314 12.6699 45.1261 12.4778Z" fill="#455A64"/>
<path d="M45.7665 9.57638C45.6942 9.64238 45.6131 9.69805 45.5255 9.74179C45.3044 9.87459 45.0743 9.99203 44.8371 10.0933C44.4759 10.2417 44.1028 10.3593 43.7219 10.4448C43.2529 10.5444 42.776 10.6021 42.2968 10.6171C41.8192 10.6223 41.3421 10.5831 40.8718 10.4999C40.4876 10.4308 40.1099 10.3293 39.7428 10.1967C39.4948 10.1077 39.2533 10.0018 39.0199 9.87962C38.9322 9.83797 38.8491 9.78715 38.7721 9.728C38.7721 9.728 39.1507 9.8934 39.7772 10.0933C40.1421 10.2092 40.5148 10.2991 40.8924 10.362C41.3475 10.4361 41.8083 10.4684 42.2693 10.4585C42.7317 10.4481 43.1924 10.3974 43.6461 10.3069C44.0201 10.2266 44.3881 10.1207 44.7476 9.98989C45.3947 9.76246 45.7458 9.55571 45.7665 9.57638Z" fill="#455A64"/>
<path d="M28.1084 205.305L27.4613 219.088C27.4613 219.088 42.3174 224.319 42.4689 226.876L13.6653 226.669L13.7272 205.194L28.1084 205.305Z" fill="#455A64"/>
<path d="M18.5668 217.84C18.2982 217.905 18.0637 218.068 17.9105 218.298C17.7573 218.528 17.6966 218.808 17.7407 219.081C17.832 219.35 18.0211 219.574 18.2704 219.71C18.5197 219.846 18.8108 219.882 19.0859 219.813C19.361 219.743 19.5999 219.573 19.755 219.335C19.9101 219.097 19.9701 218.81 19.923 218.529C19.8092 218.252 19.5954 218.027 19.3239 217.899C19.0523 217.771 18.7429 217.75 18.4567 217.84" fill="#E0E0E0"/>
<g opacity="0.6">
<path d="M13.6653 226.642L13.7617 224.478L41.3399 225.484C41.3399 225.484 42.6203 226.008 42.4689 226.862L13.6653 226.642Z" fill="white"/>
</g>
<path d="M27.9294 218.929C27.9294 219.06 27.2409 219.116 26.5525 219.529C25.8641 219.943 25.4854 220.487 25.3546 220.439C25.2238 220.391 25.4441 219.632 26.2909 219.143C27.1377 218.654 27.9638 218.812 27.9294 218.929Z" fill="#263238"/>
<path d="M30.9444 220.094C30.9444 220.225 30.3592 220.439 29.8773 220.99C29.3954 221.541 29.2508 222.162 29.1063 222.162C28.9617 222.162 28.886 221.417 29.4987 220.742C30.1114 220.066 30.9375 219.984 30.9444 220.094Z" fill="#263238"/>
<path d="M32.6316 223.478C32.5008 223.478 32.308 222.851 32.6797 222.141C33.0515 221.431 33.7055 221.149 33.7674 221.252C33.8294 221.355 33.4095 221.741 33.1203 222.334C32.8312 222.927 32.7692 223.464 32.6316 223.478Z" fill="#263238"/>
<path d="M27.7298 215.78C27.6678 215.897 27.0414 215.711 26.229 215.78C25.4167 215.849 24.8522 216.049 24.742 215.938C24.6319 215.828 25.2721 215.366 26.2084 215.325C27.1446 215.284 27.7711 215.677 27.7298 215.78Z" fill="#263238"/>
<path d="M28.0739 215.621C28.1729 216.724 28.1844 217.832 28.1083 218.936L27.9982 218.771C29.6779 219.364 31.9153 220.149 34.2904 221.204C36.531 222.114 38.6699 223.258 40.672 224.615C41.2784 225.02 41.8134 225.523 42.2554 226.104C42.5514 226.531 42.5101 226.862 42.4688 226.848C42.3864 226.613 42.2602 226.395 42.0971 226.207C41.6171 225.687 41.0681 225.235 40.4655 224.863C38.4345 223.604 36.3021 222.516 34.0907 221.61C31.7294 220.577 29.5127 219.743 27.8949 219.088L27.771 219.04V218.923C27.7814 217.816 27.8828 216.712 28.0739 215.621Z" fill="#263238"/>
<path d="M9.48645 109.377L9.48645 121.844L14.7873 161.658C14.7873 161.658 13.1076 180.328 12.0749 190.866C11.18 200.025 12.6463 215.959 12.6463 215.959H28.363L33.9874 162.802L37.4777 129.646L43.8112 110.011L9.48645 109.377Z" fill="#263238"/>
<path d="M37.3676 202.92L33.2371 216.145C33.2371 216.145 46.3515 224.471 45.849 226.986L17.9059 220.501L23.4133 199.646L37.3676 202.92Z" fill="#455A64"/>
<path d="M24.9003 213.023C24.6214 213.025 24.3531 213.131 24.1472 213.319C23.9412 213.507 23.8122 213.765 23.785 214.043C23.7992 214.322 23.92 214.585 24.1225 214.778C24.3249 214.97 24.5936 215.077 24.8728 215.077C25.451 215.077 26.0981 214.519 26.0431 213.988C25.9955 213.699 25.8393 213.438 25.6065 213.26C25.3736 213.082 25.0816 213 24.7901 213.03" fill="#E0E0E0"/>
<g opacity="0.6">
<path d="M17.906 220.501L18.5462 218.434L45.0987 225.429C45.0987 225.429 46.2071 226.221 45.8491 227L17.906 220.501Z" fill="white"/>
</g>
<path d="M33.7259 216.118C33.6846 216.249 32.9893 216.118 32.2114 216.393C31.4334 216.669 30.924 217.083 30.8345 217.021C30.745 216.959 31.1237 216.256 32.0737 215.966C33.0237 215.677 33.7878 216.014 33.7259 216.118Z" fill="#263238"/>
<path d="M36.3554 217.923C36.3554 218.054 35.7014 218.13 35.0956 218.564C34.4898 218.998 34.2007 219.522 34.063 219.487C33.9253 219.453 34.063 218.716 34.8065 218.192C35.55 217.668 36.383 217.806 36.3554 217.923Z" fill="#263238"/>
<path d="M37.1404 221.562C37.0096 221.562 36.989 220.873 37.5259 220.273C38.0629 219.674 38.7789 219.536 38.8064 219.653C38.8339 219.77 38.3383 220.053 37.9046 220.563C37.4709 221.073 37.2781 221.583 37.1404 221.562Z" fill="#263238"/>
<path d="M34.3041 213.009C34.2147 213.113 33.6157 212.789 32.8516 212.658C32.0874 212.527 31.4059 212.616 31.3646 212.492C31.3233 212.368 32.053 212.051 32.9411 212.217C33.8291 212.382 34.3936 212.927 34.3041 213.009Z" fill="#263238"/>
<path d="M49.883 110.225L50.6058 117.006L49.7315 166.249L37.2917 205.801L34.2764 215.394L18.2224 212.589L30.6003 110.246L49.883 110.225Z" fill="#263238"/>
<path d="M49.3945 167.276C49.3945 167.276 49.3945 167.358 49.3394 167.51L49.1329 168.199L48.3274 170.846C47.6046 173.168 46.5582 176.538 45.2433 180.791C42.5791 189.302 38.8203 201.335 34.4144 215.429V215.546H34.2836L18.2296 212.755H18.0781V212.617C18.8973 208.606 19.7579 204.409 20.6253 200.136C23.2206 187.469 25.6714 175.518 27.8055 165.084V165.125C25.1482 149.639 23.0279 137.296 21.8094 130.204L19.1245 125.677L18.4361 124.505C18.2846 124.243 18.2158 124.105 18.2158 124.105C18.2158 124.105 18.3053 124.229 18.4636 124.491L19.1521 125.649C19.7785 126.676 20.701 128.185 21.9058 130.149C23.1518 137.234 25.3479 149.577 28.0465 165.05V165.098C25.9192 175.532 23.4891 187.482 20.9075 200.15C20.0332 204.429 19.1727 208.62 18.3535 212.638L18.2364 212.472L34.3042 215.27L34.139 215.367C38.5931 201.28 42.4001 189.261 45.0781 180.749L48.2379 170.825C48.6097 169.681 48.8919 168.799 49.0916 168.192C49.1879 167.896 49.2637 167.675 49.3119 167.503L49.3945 167.276Z" fill="#455A64"/>
<path d="M47.0053 114.263C46.7829 114.707 46.4874 115.11 46.131 115.455C45.303 116.352 44.3416 117.114 43.2809 117.716C42.1944 118.327 41.0225 118.77 39.8044 119.032C39.3033 119.162 38.7864 119.22 38.2692 119.205C39.9603 118.86 41.5942 118.277 43.1225 117.475C44.5724 116.608 45.8817 115.525 47.0053 114.263Z" fill="#455A64"/>
<path d="M14.2985 47.4954C14.2985 47.4954 22.2774 47.5988 22.3944 56.8201C22.5114 66.0413 20.3635 78.3777 20.3635 78.3777L0 75.049C0 75.049 2.52651 57.8814 4.68816 52.94C6.84981 47.9985 11.001 46.6546 14.2985 47.4954Z" fill="#455A64"/>
<path d="M17.541 38.9497L17.5823 42.2785C17.5823 42.2785 6.69833 48.9429 6.08563 50.6658C5.12872 53.333 7.21464 75.883 8.1509 82.2717C9.08715 88.6605 9.69985 99.2877 9.69985 99.2877C9.50709 100.907 8.72918 107.806 8.5915 107.82C6.87044 111.107 9.27992 112.603 9.27992 112.603C20.9831 116.138 35.2197 113.423 50.6541 110.163L50.4476 106.104L45.4015 61.996C45.4015 61.996 46.8678 50.5418 40.8441 47.2268C40.1557 46.8615 36.0251 43.9118 36.0251 43.9118L34.8204 42.2853L17.541 38.9497Z" fill="#455A64"/>
<path d="M36.3211 44.2286C36.0806 44.2735 35.8357 44.2897 35.5914 44.2768C35.1164 44.2768 34.4348 44.2768 33.5949 44.2768C31.9083 44.2217 29.5814 44.0494 27.0274 43.7393C24.4733 43.4291 22.174 43.0845 20.508 42.8295L18.5391 42.5125C18.3037 42.4904 18.0722 42.4371 17.8507 42.354C18.0952 42.3224 18.3428 42.3224 18.5873 42.354C19.0555 42.3954 19.7301 42.4643 20.57 42.5608L27.0962 43.3671C29.6434 43.6704 31.9565 43.884 33.6362 44.0012L35.6189 44.1459C35.8555 44.1436 36.0915 44.1714 36.3211 44.2286Z" fill="#263238"/>
<g opacity="0.3">
<path d="M35.5846 59.9624C35.7633 64.7043 36.9882 69.3479 39.1713 73.56C41.4713 78.0179 44.5756 82.0112 48.3273 85.3381L46.6957 72.154L35.5846 59.9624Z" fill="black"/>
</g>
<path d="M44.7268 48.8322C42.8129 47.3987 39.2676 46.6199 37.2436 47.9087C36.1366 48.5453 35.2721 49.5319 34.7859 50.7137C33.058 55.4001 34.0975 60.438 35.4743 64.1803C36.8512 67.9226 43.5633 75.1245 43.5633 75.1245L60.0855 65.8275C60.0855 65.8275 49.0363 53.4222 47.8797 52.1265C46.9219 50.9427 45.8673 49.8408 44.7268 48.8322Z" fill="#455A64"/>
<path d="M44.727 48.8324C44.8475 48.9118 44.9625 48.9993 45.0712 49.0943C45.3914 49.3626 45.6971 49.6479 45.9868 49.9489C46.751 50.7277 47.7561 51.9475 49.1192 53.4361L60.1339 65.7518L60.2372 65.8621L60.0995 65.9379L44.4998 74.7388L43.598 75.2419L43.4879 75.3039L43.4052 75.2143C41.5603 73.195 39.8461 71.155 38.304 69.1082C37.5425 68.1136 36.8392 67.0758 36.1974 66C35.8857 65.4793 35.6142 64.9355 35.3851 64.3735C35.1648 63.8152 34.9858 63.2639 34.8137 62.7125C33.4369 58.3156 33.3956 54.0013 34.6554 50.7208C34.962 49.9241 35.4583 49.2143 36.1011 48.6532C36.6727 48.1147 37.3503 47.7015 38.0906 47.4403C38.761 47.2473 39.4599 47.1727 40.1559 47.2197C40.7355 47.2445 41.3106 47.3347 41.8701 47.4885C42.6366 47.6811 43.3715 47.9828 44.0523 48.3844C44.297 48.5144 44.5277 48.6691 44.7408 48.8462C44.7408 48.8462 44.5136 48.6808 44.0523 48.4327C43.367 48.0534 42.6326 47.7704 41.8701 47.5919C41.318 47.4517 40.7526 47.3709 40.1834 47.3507C39.5112 47.3118 38.8374 47.3935 38.1939 47.5919C37.4812 47.8509 36.8297 48.2545 36.2801 48.7773C35.6622 49.3268 35.1893 50.0204 34.9032 50.7966C33.6916 54.0426 33.7467 58.3018 35.1235 62.6574C35.3025 63.2019 35.4815 63.7532 35.6949 64.2977C35.9233 64.8455 36.1925 65.3754 36.5003 65.8828C37.1279 66.9515 37.8175 67.9825 38.5656 68.9703C40.1008 71.0379 41.815 73.0365 43.6531 75.0489H43.4603L44.3621 74.5389L59.9756 65.7174V65.9035L49.0297 53.4982C47.6872 51.9958 46.689 50.7414 45.9524 49.9696C45.5875 49.5698 45.264 49.2804 45.0781 49.0874C44.8922 48.8944 44.7201 48.8393 44.727 48.8324Z" fill="#263238"/>
<path d="M6.11978 55.8552C6.11978 55.8552 6.11978 55.9448 6.16797 56.1171L6.24371 56.889C6.29878 57.5782 6.37449 58.5568 6.46399 59.7215C6.63609 62.1544 6.85641 65.4349 7.10424 69.0669C7.35207 72.6989 7.63431 76.0138 7.86838 78.3984C7.98541 79.5631 8.08179 80.5142 8.15063 81.224C8.15063 81.5342 8.20571 81.7892 8.21948 81.9959C8.2345 82.0849 8.2345 82.1757 8.21948 82.2647C8.18653 82.1808 8.16567 82.0926 8.15752 82.0028C8.1231 81.7961 8.07491 81.5411 8.02672 81.2378C7.92346 80.5487 7.78576 79.6114 7.64808 78.4191C7.35894 76.0345 7.05604 72.7333 6.79444 69.0806C6.53284 65.428 6.36074 62.1268 6.24371 59.7284C6.19552 58.5637 6.1542 57.6057 6.11978 56.8959C6.11978 56.5858 6.11978 56.3308 6.11978 56.124C6.10916 56.0347 6.10916 55.9445 6.11978 55.8552Z" fill="#263238"/>
<path d="M42.6272 109.377C42.5301 109.419 42.4285 109.449 42.3243 109.467L41.4293 109.667C41.0438 109.756 40.5688 109.846 40.0112 109.942C39.4535 110.039 38.8271 110.156 38.118 110.259C36.7412 110.48 35.0339 110.666 33.1545 110.831C31.2751 110.997 29.2098 111.086 27.0413 111.107C24.8728 111.128 22.7937 111.052 20.9143 110.942C19.0349 110.831 17.3483 110.638 15.9439 110.432C15.2555 110.342 14.6015 110.232 14.0507 110.135C13.5 110.039 13.0112 109.949 12.6257 109.86L11.7376 109.66L11.4279 109.577C11.5352 109.562 11.6441 109.562 11.7514 109.577L12.6532 109.729C13.0388 109.798 13.5207 109.873 14.0783 109.949C14.6359 110.025 15.2693 110.128 15.9715 110.204C17.3483 110.39 19.0625 110.528 20.935 110.652C22.8075 110.776 24.8727 110.818 27.0344 110.804C29.196 110.79 31.2613 110.68 33.1338 110.549C35.0063 110.418 36.6861 110.232 38.0905 110.032C38.7789 109.949 39.426 109.846 39.9836 109.763C40.5413 109.68 41.0163 109.605 41.4087 109.529L42.3105 109.384C42.4154 109.37 42.5217 109.367 42.6272 109.377Z" fill="#263238"/>
<path d="M9.65171 99.4871L16.9765 102.995L43.825 92.74L47.0744 75.0969C47.0744 75.0969 53.8898 105.931 53.8898 120.232C53.8898 134.532 56.4025 176.813 52.5129 176.441C48.6233 176.069 46.2552 176.062 46.2552 176.062C46.2552 176.062 46.744 124.229 46.4135 119.218C46.0831 114.346 43.7975 104.952 43.7975 104.952L16.949 106.048L8.95642 105.111L9.65171 99.4871Z" fill="#6E9BFF"/>
<path d="M18.5253 103.939C18.452 103.774 18.3899 103.603 18.3395 103.429C18.1821 102.938 18.0624 102.436 17.9815 101.927C17.6725 100.035 17.7997 98.0971 18.3532 96.2618C18.7267 94.9918 19.3033 93.7909 20.0605 92.7056C20.4525 92.054 21.011 91.5187 21.6783 91.1549C21.8646 91.0549 22.0692 90.9935 22.2798 90.9746C22.4904 90.9556 22.7026 90.9795 22.9037 91.0446C23.1088 91.1253 23.2928 91.2516 23.4419 91.414C23.591 91.5764 23.7012 91.7706 23.7642 91.9819C23.9471 92.8134 23.8849 93.6801 23.5853 94.4768C23.3447 95.2982 23.0361 96.0981 22.6628 96.8683C21.8558 98.4677 20.8943 99.9843 19.792 101.396C19.2757 102.085 18.7456 102.775 18.2569 103.367L18.1536 103.498L18.0159 103.409C15.3961 101.604 13.1748 99.2789 11.4897 96.5788C11.2855 96.271 11.1234 95.9372 11.0078 95.5864C10.9386 95.4038 10.909 95.2087 10.9209 95.0138C10.9328 94.819 10.9858 94.6289 11.0766 94.4561C11.1816 94.2944 11.3255 94.1616 11.4951 94.0701C11.6647 93.9786 11.8546 93.9312 12.0473 93.9323C12.4031 93.9294 12.7513 94.0352 13.0455 94.2356C13.5579 94.6067 14.0206 95.0422 14.4224 95.5312C14.7988 95.9639 15.1417 96.4247 15.4481 96.9096C16.3782 98.3513 16.9994 99.9706 17.2724 101.665C17.3445 102.121 17.3882 102.582 17.4032 103.043C17.4227 103.204 17.4227 103.366 17.4032 103.526C17.375 103.369 17.3566 103.21 17.3482 103.05C17.3482 102.74 17.2655 102.278 17.1623 101.672C16.841 100.013 16.1953 98.4346 15.2622 97.0268C14.9504 96.5609 14.6077 96.1165 14.2365 95.6966C13.85 95.2378 13.411 94.826 12.9285 94.4699C12.6848 94.2993 12.3926 94.2123 12.0955 94.2218C11.9521 94.219 11.8104 94.253 11.6839 94.3205C11.5573 94.3881 11.4502 94.487 11.3726 94.6077C11.3069 94.7446 11.2699 94.8935 11.264 95.0452C11.2581 95.197 11.2833 95.3483 11.3382 95.4899C11.4487 95.8132 11.6039 96.1194 11.7994 96.3996C13.4728 99.0499 15.6675 101.331 18.25 103.105L18.009 103.14C18.5047 102.52 19.0279 101.858 19.5373 101.176C20.6241 99.7804 21.5761 98.2851 22.3805 96.7097C22.748 95.9577 23.052 95.1762 23.2892 94.3734C23.5716 93.6428 23.6408 92.8469 23.4889 92.0784C23.4395 91.9103 23.3516 91.756 23.2321 91.628C23.1125 91.4999 22.9647 91.4016 22.8004 91.341C22.6387 91.2891 22.4682 91.2703 22.2991 91.2857C22.13 91.3011 21.9657 91.3504 21.816 91.4306C21.1967 91.7686 20.6786 92.2658 20.3153 92.871C19.5662 93.9221 18.9876 95.0851 18.6011 96.3169C18.0333 98.1151 17.8711 100.017 18.1261 101.886C18.189 102.394 18.2856 102.899 18.4152 103.395C18.4714 103.572 18.5083 103.754 18.5253 103.939Z" fill="#6E9BFF"/>
</svg>
