<svg width="64" height="166" viewBox="0 0 64 166" fill="none" xmlns="http://www.w3.org/2000/svg">
<path d="M36.9234 53.5405L36.6223 53.5782C37.6435 51.8649 38.2839 49.9522 38.5005 47.9686C38.5865 47.1482 38.618 46.2681 39.1013 45.6043C39.6861 44.8039 40.792 44.5436 41.7858 44.6375C43.3985 44.7897 44.8346 45.6918 46.1987 46.5618L51.2549 49.8233C51.5951 50.0031 51.8853 50.2642 52.0995 50.5832C52.4305 51.1852 52.1749 51.9302 51.9099 52.5598C50.7773 55.2481 49.5518 57.9018 48.2334 60.5208C47.9808 61.1224 47.5989 61.661 47.1145 62.0989C46.1856 62.8168 44.8737 62.7076 43.7305 62.436C41.8525 61.9929 40.0704 61.2115 38.4722 60.1302" fill="#455A64"/>
<path d="M39.0286 49.6787L41.0095 49.323L44.2195 47.5293C44.2195 47.5293 45.2423 47.4442 45.5402 47.9153C45.8382 48.3864 45.8339 48.7836 45.4715 49.0617C45.4715 49.0617 46.4962 49.8159 46.4209 50.2017C46.2534 50.616 46.0176 50.9993 45.7231 51.3357C45.6626 51.7014 45.5095 52.0453 45.2783 52.3349C45.092 52.4954 44.9441 52.6952 44.8452 52.92C44.8452 52.92 45.2027 54.0895 44.518 54.795C43.8333 55.5004 41.6541 56.8033 40.7288 56.9773C39.8892 57.0946 39.0417 57.1495 38.1934 57.1417L36.5656 58.4376L34.2795 53.7776L39.0286 49.6787Z" fill="#FFBF9D"/>
<path d="M43.325 50.6219C43.6582 50.3323 44.0109 50.0657 44.3808 49.8241C44.7363 49.5592 45.1064 49.3141 45.4894 49.0901C45.1514 49.3752 44.7975 49.641 44.4293 49.8861C44.0758 50.1525 43.7071 50.3981 43.325 50.6219Z" fill="#FF9A6C"/>
<path d="M43.0529 52.5211C43.0529 52.5211 43.0792 52.4621 43.0635 52.3491C43.0622 52.2132 43.023 52.0803 42.9501 51.9652C42.8688 51.8481 42.7586 51.7539 42.6303 51.6915C42.5722 51.67 42.5156 51.6448 42.4608 51.616C42.4608 51.616 42.5347 51.5984 42.6528 51.6409C42.8079 51.6913 42.9418 51.7918 43.0333 51.9265C43.1168 52.0551 43.1526 52.2087 43.1346 52.3605C43.1041 52.4631 43.0614 52.5249 43.0529 52.5211Z" fill="#FF9A6C"/>
<path d="M44.5219 53.7714C44.5219 53.7714 44.4734 53.7093 44.4125 53.6065C44.3391 53.4742 44.2512 53.3503 44.1505 53.2373C44.0468 53.1158 43.909 53.028 43.755 52.9854C43.6951 52.9755 43.6338 52.9774 43.5748 52.991C43.5748 52.991 43.6104 52.9109 43.7629 52.9333C43.9286 52.9626 44.0788 53.0491 44.1871 53.1778C44.2957 53.2946 44.3815 53.4305 44.4403 53.5784C44.5175 53.6785 44.5299 53.7648 44.5219 53.7714Z" fill="#FF9A6C"/>
<path d="M44.5003 52.0646C44.6763 51.9102 44.8689 51.7757 45.0747 51.6637C45.2712 51.5295 45.4815 51.4165 45.702 51.3267C45.5252 51.4814 45.331 51.6153 45.1233 51.7257C44.9298 51.8628 44.7207 51.9765 44.5003 52.0646Z" fill="#FF9A6C"/>
<path d="M41.5246 50.8912C41.5246 50.8912 41.5508 50.8322 41.5502 50.7309C41.5627 50.6039 41.5319 50.4763 41.4628 50.3687C41.3903 50.2572 41.2857 50.1701 41.1628 50.1189C41.0696 50.0774 41.0102 50.051 41.006 50.0491C41.0018 50.0472 41.0775 50.0254 41.1848 50.058C41.3294 50.1049 41.4539 50.1995 41.5375 50.3262C41.6138 50.4472 41.64 50.5929 41.6105 50.7324C41.5767 50.8538 41.533 50.895 41.5246 50.8912Z" fill="#FF9A6C"/>
<path d="M20.9616 51.8998L24.7074 59.0282L36.1428 52.4203L39.6262 57.0021C39.6262 57.0021 26.192 68.59 23.743 69.0505C21.2941 69.511 19.8621 68.4743 17.9135 66.3742C15.965 64.2741 10.9249 52.4928 10.9249 52.4928L20.9616 51.8998Z" fill="#FFBF9D"/>
<path d="M23.1112 63.1715C23.0519 63.1451 23.6258 62.2893 24.0606 61.119C24.4954 59.9486 24.641 58.9375 24.7059 58.9512C24.7072 59.7221 24.5524 60.4848 24.2508 61.1935C24.0099 61.9236 23.6221 62.5966 23.1112 63.1715Z" fill="#FF9A6C"/>
<path d="M35.6041 52.7408C35.6995 51.7507 35.9399 50.7804 36.3178 49.8609C36.6237 49.1737 38.5578 47.4636 38.5578 47.4636L39.023 49.6913L35.6041 52.7408Z" fill="#FFBF9D"/>
<path d="M41.0095 49.323C41.0317 49.3986 40.2523 49.587 39.2992 49.7436C38.3462 49.9002 37.6563 50.2296 37.6247 50.1751C37.5931 50.1206 37.7648 50.0202 38.0624 49.8648C38.4397 49.6886 38.8379 49.5604 39.2476 49.4832C39.8264 49.3617 40.4177 49.308 41.0095 49.323Z" fill="#FF9A6C"/>
<path d="M4.08461 33.7975L11.4193 16.7762C13.1056 12.4755 17.0252 9.88642 21.2939 11.7011L21.688 11.8766C23.554 12.802 25.0048 14.3922 25.7519 16.331C26.4991 18.2697 26.4879 20.4151 25.7205 22.3404C24.2409 26.0512 22.5572 30.1409 21.5841 32.0414C19.5656 35.9821 15.2748 34.6274 15.2748 34.6274C15.2748 34.6274 14.1551 37.0739 13.6276 38.2585L8.34326 41.3362L8.24002 41.568L4.08461 33.7975Z" fill="#FFBF9D"/>
<path d="M15.2714 34.6462C13.4326 33.7278 11.894 32.3048 10.8376 30.5454C10.8376 30.5454 10.6057 34.1449 14.7613 35.7577L15.2714 34.6462Z" fill="#FF9A6C"/>
<path d="M22.8745 25.2659C22.8029 25.4149 22.6754 25.5298 22.5195 25.586C22.3635 25.6421 22.1914 25.6351 22.0402 25.5663C21.9654 25.5357 21.8974 25.4907 21.84 25.4338C21.7827 25.3769 21.7372 25.3093 21.7061 25.2349C21.675 25.1605 21.6591 25.0807 21.6591 25.0002C21.6591 24.9198 21.6751 24.8401 21.7061 24.7659C21.7778 24.6169 21.9052 24.5021 22.0612 24.4459C22.2171 24.3898 22.3892 24.3968 22.5404 24.4656C22.6156 24.4957 22.6841 24.5404 22.7418 24.5972C22.7994 24.654 22.8452 24.7217 22.8763 24.7963C22.9075 24.8708 22.9233 24.9508 22.923 25.0315C22.9227 25.1121 22.9062 25.1918 22.8745 25.2659Z" fill="#263238"/>
<path d="M24.0037 23.6875C23.8937 23.7294 23.622 23.1993 23.0062 22.8948C22.3904 22.5903 21.7949 22.6737 21.7651 22.5696C21.7353 22.4654 21.8868 22.4217 22.1563 22.375C22.5105 22.3232 22.8725 22.3837 23.1912 22.5478C23.5111 22.7039 23.7735 22.9569 23.9406 23.2704C24.0576 23.5094 24.055 23.675 24.0037 23.6875Z" fill="#263238"/>
<path d="M17.3031 22.7855C17.2306 22.9336 17.103 23.0478 16.9474 23.1038C16.7918 23.1598 16.6202 23.1534 16.4688 23.0859C16.3932 23.0563 16.3243 23.0118 16.2662 22.9551C16.2082 22.8984 16.1622 22.8307 16.131 22.7559C16.0998 22.6812 16.0841 22.601 16.0847 22.5202C16.0853 22.4393 16.1023 22.3595 16.1347 22.2855C16.2051 22.1364 16.3316 22.0211 16.4869 21.9645C16.6423 21.9079 16.8139 21.9147 16.9648 21.9832C17.0402 22.0134 17.1089 22.0582 17.1668 22.1151C17.2247 22.1719 17.2708 22.2397 17.3023 22.3143C17.3338 22.389 17.3501 22.4691 17.3502 22.55C17.3503 22.6309 17.3343 22.7109 17.3031 22.7855Z" fill="#263238"/>
<path d="M17.9285 20.8562C17.8203 20.894 17.5444 20.362 16.9329 20.0594C16.3213 19.7568 15.7196 19.8425 15.6917 19.7341C15.6639 19.6257 15.8134 19.5862 16.0769 19.5419C16.4328 19.4911 16.7962 19.5507 17.1178 19.7123C17.439 19.868 17.7013 20.123 17.8654 20.4392C17.98 20.6721 17.9774 20.8376 17.9285 20.8562Z" fill="#263238"/>
<path d="M17.8004 26.6286C18.1739 26.6847 18.5387 26.7894 18.8853 26.9399C19.0463 27.0116 19.2138 27.0458 19.2904 26.9536C19.3824 26.7985 19.4267 26.6197 19.4178 26.4394C19.4549 25.9912 19.4957 25.5194 19.5403 25.024C19.7327 23.0183 19.9557 21.4001 20.0371 21.4111C20.1185 21.4221 20.0287 23.0491 19.8302 25.0571L19.6846 26.4673C19.689 26.7047 19.6095 26.9357 19.46 27.12C19.4105 27.1639 19.3515 27.1957 19.2874 27.2128C19.2234 27.2299 19.1562 27.2318 19.0912 27.2185C18.9934 27.1989 18.8985 27.1668 18.8088 27.123C18.4541 26.9991 18.1155 26.8331 17.8004 26.6286Z" fill="#263238"/>
<path d="M19.0739 19.0479C18.9112 19.1624 18.4002 18.7025 17.6817 18.3321C16.9633 17.9617 16.3072 17.7706 16.3145 17.5718C16.3205 17.4785 16.5119 17.4021 16.8271 17.401C17.24 17.4161 17.6443 17.5252 18.009 17.72C18.3737 17.9148 18.6892 18.19 18.9312 18.5247C19.1032 18.7882 19.1439 18.9932 19.0739 19.0479Z" fill="#263238"/>
<path d="M24.9207 21.9133C24.725 21.9878 24.2922 21.6032 23.6914 21.3104C23.0907 21.0177 22.5321 20.87 22.4834 20.6715C22.4663 20.573 22.613 20.4716 22.8981 20.447C23.2828 20.4384 23.6639 20.5255 24.0071 20.7003C24.3502 20.8751 24.6446 21.1323 24.8636 21.4484C25.0079 21.6945 25.01 21.8722 24.9207 21.9133Z" fill="#263238"/>
<path d="M10.2843 19.8726C10.2315 19.8087 7.94703 17.7105 6.69029 20.4648C5.43356 23.219 8.472 23.9202 8.5119 23.842C8.5518 23.7638 10.2843 19.8726 10.2843 19.8726Z" fill="#FFBF9D"/>
<path d="M8.13989 22.4087C8.13989 22.4087 8.07403 22.4198 7.97664 22.4219C7.84073 22.4157 7.71204 22.3584 7.6165 22.2615C7.48794 22.0675 7.41382 21.8428 7.40188 21.6109C7.38993 21.379 7.44059 21.1484 7.54858 20.9431C7.64873 20.7037 7.80268 20.4906 7.9986 20.3201C8.0628 20.2454 8.14451 20.1877 8.23654 20.152C8.32856 20.1163 8.42806 20.1038 8.52626 20.1156C8.58933 20.1254 8.6469 20.1573 8.68868 20.2055C8.73046 20.2538 8.75372 20.3151 8.7543 20.3787C8.75441 20.4697 8.69612 20.5094 8.7239 20.5268C8.75168 20.5443 8.8081 20.5088 8.8376 20.3855C8.85016 20.31 8.83854 20.2324 8.80439 20.1636C8.77989 20.1179 8.74648 20.0775 8.70611 20.0448C8.66575 20.012 8.61926 19.9877 8.56937 19.9731C8.44609 19.9427 8.31712 19.9447 8.19508 19.9789C8.07305 20.0131 7.96215 20.0784 7.87326 20.1683C7.64518 20.353 7.46615 20.5906 7.35182 20.8606C7.22806 21.1001 7.17727 21.3706 7.20567 21.639C7.23408 21.9074 7.34044 22.1619 7.51172 22.3715C7.57659 22.427 7.65318 22.4672 7.73576 22.4891C7.81833 22.511 7.90473 22.514 7.98849 22.4979C8.10986 22.4761 8.16156 22.4284 8.13989 22.4087Z" fill="#FF9A6C"/>
<path d="M15.672 26.1409C15.7652 26.1824 15.4898 26.8124 15.8416 27.5045C16.1935 28.1966 16.899 28.4249 16.8662 28.5214C16.8334 28.6179 16.6592 28.5758 16.3843 28.4635C16.0071 28.3046 15.6977 28.0183 15.5106 27.6552C15.3323 27.3052 15.2977 26.9001 15.4142 26.5262C15.4901 26.2417 15.6273 26.1159 15.672 26.1409Z" fill="#263238"/>
<path d="M32.9527 21.2157C32.977 21.032 32.9289 20.8458 32.8184 20.6963C32.5628 20.4002 32.2321 20.1779 31.8611 20.0528C30.9861 19.6305 30.2182 19.0157 29.6156 18.2549C29.9499 18.2476 30.2809 18.1888 30.5969 18.0806C30.9282 17.973 31.2234 17.7771 31.4505 17.5141C31.6777 17.2511 31.8281 16.931 31.8857 16.5883C31.8978 16.5247 31.8953 16.459 31.8784 16.3964C31.8614 16.3337 31.8305 16.2757 31.7879 16.2265C31.6362 16.0883 31.3964 16.1936 31.2073 16.2762C30.9495 16.4188 30.6576 16.489 30.3624 16.4794C30.0672 16.4698 29.7799 16.3808 29.5308 16.2218C29.171 16.0303 28.8591 15.7601 28.6185 15.4317L28.6034 15.3745L28.3674 14.7642C27.9681 13.5132 27.326 12.3519 26.4775 11.3465C25.1451 10.0259 23.4776 9.09134 21.6548 8.64367C20.0797 8.36166 18.2929 8.91993 17.4349 10.2655C16.9533 9.23781 15.7665 8.69931 14.608 8.63311L14.5868 8.62368C13.3412 8.51365 12.2276 9.36154 11.3983 10.3006L11.2686 10.4551C10.6457 10.8659 9.93163 11.12 9.1875 11.1955C9.0553 11.2074 8.90476 11.2262 8.83337 11.3409C8.76199 11.4556 8.82238 11.5937 8.88792 11.7087C9.06334 12.0099 9.3036 12.2687 9.5913 12.4664C9.37546 12.6807 9.14092 12.8755 8.89046 13.0485C8.67749 13.1961 8.42034 13.3746 8.43054 13.6368C8.44307 13.7374 8.4863 13.8319 8.55439 13.9073C8.62248 13.9828 8.71214 14.0357 8.81121 14.0589C9.00814 14.1015 9.21167 14.1026 9.40876 14.0622L8.66476 14.7413C9.02513 14.9845 9.43736 15.1404 9.86839 15.1964C9.62836 16.317 8.93387 18.2759 8.88261 19.0866C9.61044 19.4359 9.82641 19.4412 10.1218 19.7242C10.5273 20.1018 9.95938 20.8643 10.6915 20.9074C11.0661 20.9327 12.1034 19.9599 12.3562 19.6885C14.0436 17.8685 15.3176 15.707 16.092 13.3502C16.7537 13.0802 17.4622 12.9411 18.1782 12.9404L18.1086 12.9599C19.4215 13.0898 20.8746 13.2923 21.7044 14.3133C22.3641 15.1122 22.4435 16.1882 22.7524 17.1592C22.987 18.0354 23.407 18.852 23.984 19.5541C24.5611 20.2563 25.2818 20.8278 26.0978 21.23C25.6976 22.5167 24.8333 24.5264 24.3731 25.6854L26.3871 23.8643C26.5228 23.7696 26.653 23.6674 26.7772 23.5582L26.8214 23.5273C27.0188 23.3576 27.2082 23.1944 27.4348 23.0275C27.5185 23.1952 27.6596 23.3276 27.8325 23.4006C28.0055 23.4736 28.1987 23.4824 28.3772 23.4255C28.5556 23.3685 28.7074 23.2495 28.8049 23.0902C28.9023 22.9308 28.9391 22.7417 28.9084 22.5571C28.8755 22.3813 28.8136 22.2121 28.7252 22.0563C28.8038 22.2535 28.9319 22.4274 29.0973 22.5613C29.2628 22.6951 29.4598 22.7843 29.6695 22.8202C29.8808 22.849 30.0955 22.808 30.2806 22.7033C30.4657 22.5986 30.6109 22.4361 30.6941 22.2408C30.7385 22.1034 30.7457 21.9567 30.7151 21.8153C30.6844 21.6739 30.617 21.543 30.5195 21.4357C31.005 21.7049 31.5592 21.8251 32.1121 21.781C32.4842 21.7548 32.8845 21.6198 32.9527 21.2157Z" fill="#263238"/>
<path d="M18.4962 11.314C18.2966 11.3599 18.1005 11.4194 17.9092 11.4922C17.4135 11.7309 16.9883 12.0931 16.6745 12.5438C16.4512 12.8496 16.2594 13.1771 16.1021 13.5215C15.935 13.8967 15.7586 14.293 15.6132 14.7334C15.442 15.1871 15.2446 15.6305 15.022 16.0614C14.8999 16.2891 14.7618 16.5078 14.6087 16.716C14.4592 16.9461 14.2531 17.1343 14.0099 17.2627C13.9033 17.3076 13.7869 17.3247 13.6716 17.3123C13.5563 17.2999 13.446 17.2583 13.3512 17.1916C13.1697 17.0623 13.0363 16.8767 12.9718 16.664C12.8906 16.2629 12.9177 15.8479 13.0503 15.4614L13.1393 15.501C12.876 15.7478 12.5783 15.9555 12.2555 16.1178C11.9495 16.2685 11.5958 16.2925 11.2712 16.1848C11.1187 16.1354 10.9834 16.0436 10.8813 15.9202C10.79 15.802 10.735 15.6599 10.7232 15.5114C10.7132 15.3736 10.7412 15.2358 10.8042 15.113C10.8626 15.0002 10.9579 14.9108 11.0744 14.8595L11.0999 14.9163C10.733 15.0819 10.3347 15.168 9.93142 15.169C9.82577 15.168 9.72023 15.1614 9.61522 15.1494L9.50838 15.1271L9.61849 15.1307C9.68907 15.1318 9.79729 15.1395 9.93185 15.1338C10.3264 15.1191 10.7135 15.0252 11.0702 14.8576L11.0956 14.9144C10.9908 14.9695 10.9055 15.0554 10.8515 15.1605C10.7974 15.2657 10.7771 15.3849 10.7933 15.5022C10.8034 15.6344 10.8534 15.7605 10.9368 15.8641C11.0286 15.9753 11.1506 16.0577 11.2881 16.1013C11.593 16.1946 11.9216 16.1695 12.2078 16.0309C12.5182 15.8694 12.8039 15.665 13.0569 15.4239L13.1744 15.3196L13.1378 15.4701C13.0117 15.8407 12.9852 16.2382 13.0611 16.623C13.1211 16.8114 13.24 16.9759 13.4004 17.0923C13.4814 17.1496 13.5758 17.1851 13.6744 17.1954C13.773 17.2057 13.8725 17.1904 13.9632 17.1509C14.188 17.0298 14.3782 16.8538 14.5159 16.6393C14.6665 16.4368 14.8021 16.2237 14.9217 16.0016C15.143 15.5735 15.3391 15.1329 15.5092 14.682C15.6757 14.251 15.8329 13.8411 16.0084 13.4697C16.1713 13.1222 16.3692 12.7923 16.5991 12.4849C16.9248 12.0281 17.3678 11.6672 17.8819 11.4396C18.0775 11.3621 18.2855 11.3196 18.4962 11.314Z" fill="#455A64"/>
<path d="M29.2205 20.9788C29.2205 20.9788 29.2205 20.9788 29.1777 20.9951L29.0592 21.0333C28.9861 21.0507 28.9117 21.0615 28.8366 21.0655C28.7364 21.0766 28.6355 21.0823 28.5346 21.0826C27.8794 21.0776 27.2351 20.9105 26.6595 20.5963C25.8022 20.1329 25.0966 19.4328 24.6278 18.5804C24.0704 17.5339 23.7316 16.3863 23.6319 15.2071C23.5634 14.5856 23.5514 13.9741 23.5013 13.3911C23.4668 12.831 23.3501 12.2786 23.1549 11.7517C22.9837 11.2748 22.6956 10.8479 22.3169 10.5097C22.1418 10.3624 21.9444 10.2438 21.7321 10.1584C21.5351 10.0819 21.3292 10.0309 21.1193 10.0068C20.7583 9.97386 20.3945 10.0148 20.0505 10.127C19.7885 10.2152 19.5425 10.3444 19.3216 10.5097C19.1429 10.6614 18.9806 10.8312 18.8371 11.0164C18.8425 11.002 18.8488 10.9879 18.8559 10.9742C18.8709 10.9405 18.8897 10.8983 18.9315 10.8614C19.0371 10.7197 19.1592 10.5909 19.2952 10.4778C19.5152 10.3024 19.7633 10.1653 20.0292 10.0721C20.3749 9.94921 20.7428 9.89966 21.1093 9.92661C21.3263 9.94763 21.5395 9.99834 21.7428 10.0773C21.9655 10.1623 22.172 10.285 22.353 10.4399C22.748 10.7827 23.0496 11.2194 23.2297 11.7092C23.4276 12.247 23.5462 12.8103 23.5818 13.3814C23.6361 13.9663 23.6481 14.5778 23.7185 15.1952C23.8159 16.3591 24.1468 17.4925 24.6917 18.528C25.1489 19.3685 25.837 20.0621 26.6749 20.5274C27.2381 20.8429 27.8691 21.0181 28.5138 21.038C28.7506 21.0354 28.9867 21.0156 29.2205 20.9788Z" fill="#455A64"/>
<path d="M30.4047 19.3791C30.3422 19.3997 30.2772 19.4115 30.2114 19.4142C30.0391 19.4349 29.8655 19.4437 29.692 19.4406C29.4292 19.4324 29.1676 19.4021 28.9099 19.35C28.5941 19.2825 28.2849 19.1871 27.9859 19.065C27.6905 18.9373 27.4076 18.7826 27.1408 18.6028C26.9232 18.4552 26.7184 18.2897 26.5285 18.108C26.4002 17.9856 26.2804 17.8546 26.17 17.7159C26.1274 17.6664 26.0901 17.6126 26.0588 17.5553C26.0588 17.5553 26.2468 17.7602 26.5779 18.0541C26.7709 18.2251 26.9758 18.3821 27.191 18.5241C27.4509 18.6941 27.7258 18.8402 28.0121 18.9604C28.2996 19.0808 28.5969 19.176 28.9008 19.245C29.1528 19.2983 29.4082 19.3344 29.665 19.3529C30.1252 19.3911 30.3976 19.3608 30.4047 19.3791Z" fill="#455A64"/>
<path d="M-19.1045 70.4875L-22.5 78.114L-30.0811 103.921C-30.0811 103.921 -36.1997 114.882 -39.7051 121.045C-42.7505 126.402 -46.1877 136.551 -46.1877 136.551L-36.515 140.858L-18.5761 109.882L-7.39776 90.5562L1.84772 80.2808L-19.1045 70.4875Z" fill="#263238"/>
<path d="M5.5265 82.075L4.12439 86.4215L-9.82489 116.304L-28.253 137.09L-32.7215 142.132L-41.8379 136.017L-6.34652 76.804L5.5265 82.075Z" fill="#263238"/>
<path d="M-10.3122 116.84C-10.3122 116.84 -10.3347 116.891 -10.4099 116.968L-10.7247 117.333L-11.9412 118.731C-13.0186 119.954 -14.5804 121.729 -16.5478 123.97C-20.5056 128.446 -26.0961 134.777 -32.6462 142.191L-32.6781 142.263L-32.7586 142.227L-41.8787 136.121L-41.9719 136.079L-41.9344 135.995C-40.3378 133.766 -38.6651 131.434 -36.9675 129.058C-31.9203 122.02 -27.1572 115.382 -23.002 109.584L-23.0133 109.609C-20.4311 99.408 -18.3743 91.2765 -17.1928 86.6045L-17.612 83.099L-17.7166 82.1937C-17.7384 81.992 -17.7433 81.8888 -17.7433 81.8888C-17.7433 81.8888 -17.722 81.9892 -17.6959 82.1928L-17.5875 83.0897C-17.4816 83.8895 -17.325 85.0655 -17.1185 86.5972C-18.2811 91.2725 -20.2913 99.4248 -22.8444 109.629L-22.8575 109.658C-27.0085 115.458 -31.7588 122.102 -36.7975 129.144C-38.5012 131.522 -40.1721 133.85 -41.7705 136.083L-41.7975 135.95L-32.6708 142.064L-32.7988 142.078C-26.2209 134.681 -20.6044 128.372 -16.6382 123.899L-11.9906 118.694C-11.4502 118.096 -11.0363 117.634 -10.7482 117.318C-10.6082 117.163 -10.5015 117.049 -10.425 116.957L-10.3122 116.84Z" fill="#455A64"/>
<path d="M2.65549 83.7571C2.39777 83.9677 2.10608 84.1333 1.79269 84.2469C1.03908 84.5681 0.239729 84.7711 -0.57703 84.8487C-1.41198 84.9244 -2.25406 84.8747 -3.07513 84.7013C-3.41876 84.6431 -3.75263 84.537 -4.06688 84.386C-2.93216 84.6384 -1.76797 84.7299 -0.608785 84.6577C0.519536 84.5249 1.62029 84.2212 2.65549 83.7571Z" fill="#455A64"/>
<path d="M0.7107 33.9521C0.7107 33.9521 5.59305 36.2017 3.15364 41.8745C0.714237 47.5474 -3.9675 54.5051 -3.9675 54.5051L-15.5935 46.889C-15.5935 46.889 -9.36295 37.0797 -6.68677 34.6493C-4.01058 32.2189 -1.08975 32.5342 0.7107 33.9521Z" fill="#455A64"/>
<path d="M5.03367 29.6131L4.1525 31.6607C4.1525 31.6607 -4.36102 32.7551 -5.20735 33.6411C-6.52267 35.0104 -11.3805 49.3762 -12.5442 53.5408C-13.708 57.7054 -16.2253 64.3741 -16.2253 64.3741C-16.785 65.312 -19.1426 69.3189 -19.2311 69.2896C-21.1857 70.8289 -20.1101 72.404 -20.1101 72.404C-13.8704 77.7735 -4.36904 80.0135 6.01779 82.2486L6.99624 79.7089L15.9035 51.345C15.9035 51.345 19.9255 44.7401 17.1211 41.0617C16.7969 40.6496 15.0581 37.7134 15.0581 37.7134L14.7597 36.3884L5.03367 29.6131Z" fill="#455A64"/>
<path d="M15.154 37.9884C14.9938 37.95 14.8387 37.8928 14.6918 37.818C14.3995 37.6878 13.98 37.5011 13.4631 37.2709C12.4401 36.775 11.055 36.0321 9.56758 35.1425C8.08017 34.253 6.75892 33.4121 5.80305 32.7996L4.67765 32.0662C4.53875 31.9882 4.41079 31.8921 4.29714 31.7806C4.45623 31.8283 4.6086 31.8961 4.75048 31.9824C5.02732 32.136 5.42377 32.363 5.91439 32.6522L9.71129 34.9337C11.1963 35.8172 12.5617 36.5817 13.5636 37.1136L14.7444 37.7454C14.8907 37.8089 15.0283 37.8905 15.154 37.9884Z" fill="#263238"/>
<g opacity="0.3">
<path d="M10.4155 47.4111C9.23406 50.3608 8.7232 53.537 8.91959 56.7118C9.12096 60.069 9.9439 63.3623 11.3468 66.4255L13.9334 57.9135L10.4155 47.4111Z" fill="black"/>
</g>
<path d="M19.0734 43.1077C18.286 41.7064 16.3161 40.2585 14.7195 40.4923C13.8648 40.5784 13.0641 40.945 12.443 41.5347C10.1032 43.928 9.37087 47.2946 9.19902 49.9611C9.02718 52.6275 11.1966 58.8723 11.1966 58.8723L23.8971 57.7124C23.8971 57.7124 20.4756 47.0963 20.1167 45.9868C19.8496 45.0002 19.5007 44.0372 19.0734 43.1077Z" fill="#455A64"/>
<path d="M19.0734 43.108C19.126 43.1896 19.1729 43.2746 19.2139 43.3625C19.3379 43.6144 19.4483 43.8726 19.5447 44.1362C19.8029 44.8219 20.0892 45.8435 20.5227 47.1277L23.9474 57.6795L23.981 57.7753L23.8756 57.7839L11.8779 58.893L11.1859 58.9537L11.1012 58.9614L11.0748 58.884C10.4893 57.1432 9.98988 55.4256 9.5983 53.751C9.40052 52.9339 9.25029 52.1064 9.14835 51.2724C9.09833 50.8685 9.07929 50.4615 9.09138 50.0549C9.10784 49.653 9.14785 49.2667 9.19209 48.8823C9.54225 45.8153 10.6918 43.1649 12.3606 41.5034C12.7663 41.1 13.265 40.8019 13.8135 40.6348C14.3119 40.462 14.8415 40.3949 15.3683 40.4379C15.8334 40.5036 16.2838 40.6495 16.6994 40.8689C17.0494 41.043 17.3787 41.2557 17.6812 41.5031C18.1004 41.8309 18.4706 42.2169 18.7802 42.6491C18.8954 42.7956 18.9952 42.9535 19.0781 43.1202C19.0781 43.1202 18.9834 42.9568 18.7671 42.6786C18.4486 42.2588 18.0737 41.8845 17.653 41.5663C17.3514 41.3293 17.0254 41.1249 16.6807 40.9566C16.2775 40.7486 15.8406 40.614 15.3905 40.559C14.8814 40.5222 14.3705 40.5905 13.8898 40.7597C13.3599 40.9266 12.88 41.2213 12.4925 41.6177C10.8628 43.2713 9.73665 45.8918 9.39776 48.9335C9.35963 49.3155 9.31963 49.7019 9.30269 50.0934C9.29404 50.4911 9.31543 50.889 9.36668 51.2837C9.46182 52.1094 9.60546 52.929 9.79684 53.7383C10.1786 55.4237 10.6892 57.116 11.2724 58.8507L11.1537 58.7979L11.8476 58.733L23.8594 57.6151L23.8087 57.7289L20.4507 47.1411C20.0337 45.8542 19.761 44.8134 19.5179 44.1394C19.4022 43.7949 19.2819 43.5292 19.2201 43.3602C19.1582 43.1912 19.0673 43.1103 19.0734 43.108Z" fill="#263238"/>
<path d="M1.29165 79.5686C1.22053 79.5675 1.14976 79.5581 1.08083 79.5404L0.475601 79.4174C0.213937 79.3666 -0.10281 79.2912 -0.472272 79.1974C-0.841734 79.1037 -1.25919 79.0037 -1.72374 78.8726C-2.63118 78.6302 -3.73259 78.2763 -4.93429 77.8625C-6.136 77.4487 -7.43145 76.9376 -8.77169 76.356C-10.1119 75.7744 -11.3708 75.1584 -12.4974 74.576C-13.6241 73.9935 -14.6095 73.4133 -15.4175 72.902C-15.8168 72.6586 -16.1893 72.4119 -16.502 72.202C-16.8146 71.9921 -17.091 71.8033 -17.3039 71.6429L-17.796 71.2773L-17.9642 71.1418C-17.8939 71.1618 -17.8269 71.1917 -17.765 71.2305L-17.2513 71.5703C-17.0328 71.7181 -16.7569 71.8965 -16.4343 72.0957C-16.1118 72.2949 -15.7502 72.5317 -15.3386 72.7705C-14.542 73.2616 -13.5245 73.8156 -12.4059 74.4046C-11.2873 74.9935 -10.0275 75.5847 -8.69335 76.1686C-7.35923 76.7525 -6.05813 77.251 -4.87005 77.6839C-3.68196 78.1169 -2.5975 78.4634 -1.67875 78.7259C-1.23254 78.864 -0.806127 78.9781 -0.440419 79.0803C-0.0747106 79.1825 0.238281 79.2663 0.500428 79.3274L1.09487 79.486C1.16341 79.5059 1.22944 79.5336 1.29165 79.5686Z" fill="#263238"/>
<path d="M-16.3093 64.4831L-12.7567 68.6361L6.55999 69.7197L13.3649 59.8176C13.3649 59.8176 9.16166 80.5467 5.26688 89.2945C1.37209 98.0424 -8.59689 124.595 -10.8893 123.302C-13.1818 122.008 -14.6374 121.355 -14.6374 121.355C-14.6374 121.355 -0.219623 89.7817 0.941591 86.6262C2.06527 83.5551 3.21699 77.1826 3.21699 77.1826L-13.6051 70.4961L-18.2688 67.7327L-16.3093 64.4831Z" fill="#6E9BFF"/>
</svg>
