<svg width="544" height="445" viewBox="0 0 544 445" fill="none" xmlns="http://www.w3.org/2000/svg">
<path d="M544 404.48H498.246V404.825H544V404.48Z" fill="#EBEBEB"/>
<path d="M380.05 408.237H368.045V408.583H380.05V408.237Z" fill="#EBEBEB"/>
<path d="M496.865 391.66H470.355V392.005H496.865V391.66Z" fill="#EBEBEB"/>
<path d="M75.6758 393.981H66.9313V394.326H75.6758V393.981Z" fill="#EBEBEB"/>
<path d="M39.3576 57.7505L90.181 28.1737H129.345L181.025 56.3552V247.989H39.3576V57.7505Z" fill="#E0E0E0"/>
<path d="M182.475 247.989H39.3576V57.7505L40.8219 56.3691C59.6422 38.2316 84.7791 28.1253 110.917 28.1875C137.055 28.1281 162.193 38.2282 181.025 56.3552L182.406 57.7367L182.475 247.989ZM48.8481 238.485H172.985V61.8258C156.046 46.2933 133.899 37.6765 110.917 37.6765C87.9342 37.6765 65.7871 46.2933 48.8481 61.8258V238.485Z" fill="#FAFAFA"/>
<path d="M107.352 239.632H114.481V176.03H174.781V168.915H114.481V103.863H174.781V96.7487H114.481V36.4486H107.352V96.7487H47.0522V103.863H107.352V168.915H47.0522V176.03H107.352V239.632Z" fill="#F0F0F0"/>
<path d="M187.228 252.728H34.6192V55.8165L36.0007 54.435C55.8852 34.5956 82.8274 23.4536 110.916 23.4536C139.006 23.4536 165.948 34.5956 185.832 54.435L187.214 55.8165L187.228 252.728ZM44.0545 243.237H177.668V59.8226C159.693 42.5951 135.759 32.9772 110.861 32.9772C85.964 32.9772 62.0291 42.5951 44.0545 59.8226V243.237Z" fill="#F0F0F0"/>
<path d="M396.102 48.9092C396.102 48.9092 397.484 39.7917 390.839 33.9481C384.194 28.1046 384.774 24.6234 386.695 24.1813C388.615 23.7392 390.342 29.5689 393.27 31.1714C393.27 31.1714 393.353 22.8828 390.383 19.7745C387.413 16.6663 385.866 8.80582 388.684 8.72293C391.502 8.64005 391.806 13.4198 392.386 16.8458C392.966 20.2718 396.116 25.1345 396.116 25.1345C396.116 25.1345 396.738 17.6885 398.658 14.6079C400.578 11.5273 395.453 4.53715 397.428 1.45652C399.404 -1.6241 402.954 4.21941 402.623 10.8089C402.291 17.3984 397.94 24.4023 398.962 31.2681C398.962 31.2681 400.896 26.4469 402.637 26.0186C404.377 25.5904 406.118 22.3854 407.292 21.1974C408.466 20.0093 409.917 24.1122 407.292 27.9112C404.667 31.7102 397.94 41.8776 399.003 50.0144L396.102 48.9092Z" fill="#E6E6E6"/>
<path d="M392.179 44.7648L389.955 58.4411C389.789 59.4383 389.844 60.4597 390.116 61.4333C390.388 62.4069 390.87 63.3089 391.529 64.0756C392.188 64.8424 393.007 65.4552 393.928 65.8709C394.85 66.2865 395.851 66.4948 396.862 66.4811H399.086C400.097 66.4948 401.099 66.2865 402.02 65.8709C402.941 65.4552 403.76 64.8424 404.419 64.0756C405.078 63.3089 405.56 62.4069 405.832 61.4333C406.104 60.4597 406.159 59.4383 405.993 58.4411L403.825 44.7786L392.179 44.7648Z" fill="#E6E6E6"/>
<path d="M425.057 61.4252H271.164V69.327H425.057V61.4252Z" fill="#E0E0E0"/>
<path d="M285.034 32.2766H278.251V61.4251H285.034V32.2766Z" fill="#EBEBEB"/>
<path d="M317.816 32.2766H311.033V61.4251H317.816V32.2766Z" fill="#EBEBEB"/>
<path d="M355.034 31.5454L348.35 32.6976L353.301 61.4225L359.986 60.2703L355.034 31.5454Z" fill="#EBEBEB"/>
<path d="M293.433 36.117H286.65V61.4251H293.433V36.117Z" fill="#EBEBEB"/>
<path d="M309.016 36.117H302.233V61.4251H309.016V36.117Z" fill="#EBEBEB"/>
<path d="M348.346 36.117H341.563V61.4251H348.346V36.117Z" fill="#EBEBEB"/>
<path d="M326.723 35.2337L320.101 36.7053L325.592 61.4106L332.213 59.939L326.723 35.2337Z" fill="#EBEBEB"/>
<path d="M299.291 30.8261H295.906V61.4252H299.291V30.8261Z" fill="#EBEBEB"/>
<path d="M339.615 30.8261H336.23V61.4252H339.615V30.8261Z" fill="#EBEBEB"/>
<path d="M271.164 128.37L425.057 128.37V120.468L271.164 120.468V128.37Z" fill="#E0E0E0"/>
<path d="M411.188 120.454H417.971V91.3058H411.188V120.454Z" fill="#EBEBEB"/>
<path d="M378.406 120.454H385.189V91.3058H378.406V120.454Z" fill="#EBEBEB"/>
<path d="M336.24 119.299L342.924 120.451L347.875 91.7259L341.191 90.5738L336.24 119.299Z" fill="#EBEBEB"/>
<path d="M402.789 120.454H409.571V95.1462H402.789V120.454Z" fill="#EBEBEB"/>
<path d="M387.22 120.454H394.002V95.1462H387.22V120.454Z" fill="#EBEBEB"/>
<path d="M347.876 120.454H354.659V95.1462H347.876V120.454Z" fill="#EBEBEB"/>
<path d="M364.04 118.958L370.662 120.43L376.152 95.7242L369.531 94.2527L364.04 118.958Z" fill="#EBEBEB"/>
<path d="M396.945 120.468H400.33V89.8692H396.945V120.468Z" fill="#EBEBEB"/>
<path d="M356.607 120.468H359.991V89.8692H356.607V120.468Z" fill="#EBEBEB"/>
<path d="M285.932 120.192H318.962V97.3842H285.932V120.192Z" fill="#EBEBEB"/>
<path d="M267.849 444.638C415.777 444.638 535.697 437.637 535.697 429C535.697 420.364 415.777 413.362 267.849 413.362C119.92 413.362 0 420.364 0 429C0 437.637 119.92 444.638 267.849 444.638Z" fill="#F5F5F5"/>
<path d="M508.662 425.588H456.692L449.785 375.055H515.57L508.662 425.588Z" fill="#263238"/>
<path d="M481.973 375.138C481.973 375.138 474.693 340.754 487.941 322.132C501.189 303.51 475.963 321.924 473.062 339.345C473.062 339.345 468.725 308.179 481.572 286.256C494.42 264.332 470.382 282.332 468.338 304.919C468.338 304.919 464.401 277.124 470.299 261.486C476.198 245.848 465.934 255.96 462.011 265.713C458.088 275.466 463.24 299.766 463.24 299.766C463.24 299.766 452.962 254.911 443.209 258.475C433.456 262.039 457.797 291.436 461.168 306.715C461.168 306.715 449.675 286.145 440.944 290.428C432.213 294.71 454.454 296.837 464.649 327.519L468.227 341.9C468.227 341.9 457.632 321.593 450.711 328.003C443.79 334.413 471.239 345.464 477.607 376.229L481.973 375.138Z" fill="#407BFF"/>
<path d="M480.591 377.113C480.591 377.113 479.072 333.763 457.645 315.39C436.219 297.017 471.93 311.564 480.591 331.581C480.591 331.581 476.516 292.9 454.592 270.507C432.669 248.114 466.832 262.481 476.005 288.935C476.005 288.935 472.441 254.399 460.712 237.504C448.984 220.609 464.276 229.519 471.93 240.074C479.583 250.628 480.591 281.255 480.591 281.255C480.591 281.255 479.583 224.463 492.32 225.831C505.057 227.199 484.68 269.65 485.191 288.963C485.191 288.963 492.831 260.892 504.532 263.42C516.233 265.948 490.261 275.135 487.222 314.907V333.197C487.222 333.197 493.853 305.72 504.076 311.329C514.299 316.937 484.736 338.364 486.228 377.113H480.591Z" fill="#407BFF"/>
<path opacity="0.2" d="M480.591 377.113C480.591 377.113 479.072 333.763 457.645 315.39C436.219 297.017 471.93 311.564 480.591 331.581C480.591 331.581 476.516 292.9 454.592 270.507C432.669 248.114 466.832 262.481 476.005 288.935C476.005 288.935 472.441 254.399 460.712 237.504C448.984 220.609 464.276 229.519 471.93 240.074C479.583 250.628 480.591 281.255 480.591 281.255C480.591 281.255 479.583 224.463 492.32 225.831C505.057 227.199 484.68 269.65 485.191 288.963C485.191 288.963 492.831 260.892 504.532 263.42C516.233 265.948 490.261 275.135 487.222 314.907V333.197C487.222 333.197 493.853 305.72 504.076 311.329C514.299 316.937 484.736 338.364 486.228 377.113H480.591Z" fill="white"/>
<path d="M443.292 370.952V375.759C443.296 377.301 443.91 378.778 445 379.868C446.09 380.958 447.567 381.572 449.108 381.575H516.937C518.478 381.572 519.956 380.958 521.046 379.868C522.135 378.778 522.749 377.301 522.753 375.759V370.952H443.292Z" fill="#263238"/>
<path opacity="0.2" d="M443.292 370.952V375.759C443.296 377.301 443.91 378.778 445 379.868C446.09 380.958 447.567 381.572 449.108 381.575H516.937C518.478 381.572 519.956 380.958 521.046 379.868C522.135 378.778 522.749 377.301 522.753 375.759V370.952H443.292Z" fill="white"/>
<path d="M273.154 208.908C272.882 206.451 273.394 203.97 274.618 201.822L291.872 201.891L296.017 196.172L313.603 194.541L314.804 202.83V202.913L316.02 211.285L298.683 214.669L293.102 210.4L276.525 215.332C274.739 213.621 273.544 211.385 273.112 208.95L273.154 208.908Z" fill="#407BFF"/>
<path opacity="0.2" d="M274.604 201.78C274.439 204.101 275.157 206.422 277.892 206.795C280.686 206.922 283.485 206.774 286.25 206.353L286.471 207.859C286.471 207.859 278.624 209.24 277.588 210.027C276.552 210.815 276.566 215.332 276.566 215.332L293.143 210.4C293.143 210.4 297.757 207.002 297.536 205.441C297.315 203.88 291.9 201.849 291.9 201.849L274.604 201.78Z" fill="black"/>
<path opacity="0.2" d="M306.861 195.122L310.342 195.992C310.342 195.992 303.642 204.709 301.805 211.409C303.418 208.829 305.194 206.356 307.124 204.004L311.268 210.041L308.505 212.804L316.034 211.34L313.603 194.528L306.861 195.122Z" fill="black"/>
<path d="M314.431 189.927L320.441 189.057C323.121 188.67 326.132 194.072 327.141 201.117C328.149 208.162 326.809 214.199 324.115 214.586L318.12 215.456C315.426 215.843 312.428 210.442 311.406 203.396C310.384 196.351 311.751 190.314 314.431 189.927Z" fill="#263238"/>
<path opacity="0.4" d="M317.415 202.526C318.424 209.571 321.422 214.959 324.115 214.586C326.809 214.213 328.163 208.176 327.141 201.117C326.118 194.058 323.121 188.684 320.441 189.057C317.761 189.43 316.393 195.481 317.415 202.526Z" fill="black"/>
<path d="M293.489 425.588L293.585 424.994L296.293 393.497H307.759L299.553 425.588H293.489Z" fill="#263238"/>
<path d="M399.763 425.588L399.667 424.994L396.959 393.497H385.493L393.699 425.588H399.763Z" fill="#263238"/>
<g opacity="0.4">
<path d="M293.489 425.588L293.585 424.994L296.293 393.497H307.759L299.553 425.588H293.489Z" fill="white"/>
<path d="M399.763 425.588L399.667 424.994L396.959 393.497H385.493L393.699 425.588H399.763Z" fill="white"/>
</g>
<path d="M278.376 425.588L278.472 424.994L283.694 393.497H295.16L284.44 425.588H278.376Z" fill="#263238"/>
<path d="M414.876 425.588L414.78 424.994L409.558 393.497H398.092L408.812 425.588H414.876Z" fill="#263238"/>
<g opacity="0.6">
<path d="M278.376 425.588L278.472 424.994L283.694 393.497H295.16L284.44 425.588H278.376Z" fill="white"/>
<path d="M414.876 425.588L414.78 424.994L409.558 393.497H398.092L408.812 425.588H414.876Z" fill="white"/>
</g>
<path d="M417.059 204.93H276.193C273.423 204.93 271.178 207.175 271.178 209.945V395.514C271.178 398.284 273.423 400.529 276.193 400.529H417.059C419.829 400.529 422.074 398.284 422.074 395.514V209.945C422.074 207.175 419.829 204.93 417.059 204.93Z" fill="#407BFF"/>
<path opacity="0.4" d="M417.059 204.93H276.193C273.423 204.93 271.178 207.175 271.178 209.945V395.514C271.178 398.284 273.423 400.529 276.193 400.529H417.059C419.829 400.529 422.074 398.284 422.074 395.514V209.945C422.074 207.175 419.829 204.93 417.059 204.93Z" fill="white"/>
<path opacity="0.5" d="M415.926 247.561H277.326V318.167H415.926V247.561Z" fill="white"/>
<path opacity="0.5" d="M415.926 322.878H277.326V393.484H415.926V322.878Z" fill="white"/>
<path opacity="0.5" d="M415.926 211.948H277.326V242.864H415.926V211.948Z" fill="white"/>
<path opacity="0.5" d="M357.961 217.087H335.291C334.611 217.087 333.944 216.895 333.367 216.533C332.79 216.172 332.327 215.655 332.031 215.042L330.511 211.948H362.741L361.221 215.042C360.925 215.655 360.462 216.172 359.885 216.533C359.308 216.895 358.642 217.087 357.961 217.087Z" fill="black"/>
<path opacity="0.5" d="M357.961 252.7H335.291C334.612 252.7 333.947 252.51 333.371 252.151C332.795 251.792 332.33 251.279 332.031 250.67L330.511 247.561H362.741L361.221 250.67C360.922 251.279 360.457 251.792 359.881 252.151C359.305 252.51 358.64 252.7 357.961 252.7Z" fill="black"/>
<path opacity="0.5" d="M357.961 328.017H335.291C334.612 328.017 333.947 327.826 333.371 327.467C332.795 327.109 332.33 326.595 332.031 325.986L330.511 322.878H362.741L361.221 325.986C360.922 326.595 360.457 327.109 359.881 327.467C359.305 327.826 358.64 328.017 357.961 328.017Z" fill="black"/>
<path d="M381.487 206.684L377.66 197.208L387.496 163.321L389.789 175.173L391.088 149.299L401.159 197.567L398.423 206.684H381.487Z" fill="#407BFF"/>
<path opacity="0.2" d="M387.496 163.321V183.725L389.789 175.173L394.058 185.369L391.281 150.225L389.789 175.173L387.496 163.321Z" fill="black"/>
<path opacity="0.2" d="M387.496 183.725L391.088 191.654L394.058 185.369L389.789 175.173L387.496 184.18" fill="white"/>
<path opacity="0.2" d="M387.496 163.321L384.402 183.407L377.66 197.208L387.496 163.321Z" fill="white"/>
<path opacity="0.2" d="M391.088 149.299L396.061 185.369L401.159 197.567L391.088 149.299Z" fill="white"/>
<path opacity="0.2" d="M380.63 204.571L385.134 197.567L391.088 203.396L395.149 198.658L399.059 204.571L398.423 206.684H381.487L380.63 204.571Z" fill="black"/>
<path d="M404.612 204.571H374.22V213.536H404.612V204.571Z" fill="#263238"/>
<path opacity="0.5" d="M395.149 207.693H383.669V210.428H395.149V207.693Z" fill="white"/>
<path d="M103.733 405.018L101.426 398.498C102.158 398.249 174.352 372.527 191.593 353.2C199.66 344.166 209.552 322.311 219.014 301.161C231.144 274.223 241.615 250.96 251.133 245.158C257.667 241.179 262.696 240.419 266.536 242.878C272.919 247.022 272.518 258.392 271.275 269.029L264.367 268.241C266.177 252.686 263.842 249.385 262.751 248.694C261.66 248.003 258.441 248.694 254.67 251.056C246.975 255.753 235.44 281.379 225.259 303.993C215.077 326.608 205.463 347.965 196.704 357.801C178.345 378.439 106.772 403.941 103.733 405.018Z" fill="#263238"/>
<g opacity="0.2">
<path d="M103.733 405.018L101.426 398.498C102.158 398.249 174.352 372.527 191.593 353.2C199.66 344.166 209.552 322.311 219.014 301.161C231.144 274.223 241.615 250.96 251.133 245.158C257.667 241.179 262.696 240.419 266.536 242.878C272.919 247.022 272.518 258.392 271.275 269.029L264.367 268.241C266.177 252.686 263.842 249.385 262.751 248.694C261.66 248.003 258.441 248.694 254.67 251.056C246.975 255.753 235.44 281.379 225.259 303.993C215.077 326.608 205.463 347.965 196.704 357.801C178.345 378.439 106.772 403.941 103.733 405.018Z" fill="white"/>
</g>
<path d="M101.84 425.574H50.7267C49.325 425.569 47.9381 425.287 46.6454 424.745C45.3527 424.204 44.1794 423.412 43.1928 422.417C42.2061 421.421 41.4254 420.241 40.8953 418.943C40.3652 417.645 40.0961 416.256 40.1034 414.854V395.873C40.1033 393.906 40.4919 391.959 41.2467 390.142C42.0015 388.326 43.1076 386.677 44.5016 385.289C45.8957 383.902 47.5501 382.803 49.3699 382.057C51.1897 381.31 53.139 380.931 55.1059 380.94H76.7808C81.5851 380.94 86.2197 382.717 89.794 385.927L117.036 410.434C117.021 414.454 115.414 418.305 112.566 421.143C109.718 423.981 105.861 425.574 101.84 425.574Z" fill="#263238"/>
<path opacity="0.2" d="M40.1034 395.873V414.854C40.1064 417.286 40.9391 419.644 42.4639 421.538C43.9886 423.431 46.114 424.748 48.4887 425.271C49.2369 425.438 50.0014 425.522 50.7681 425.519H101.882C105.54 425.522 109.076 424.198 111.832 421.792C114.589 419.386 116.379 416.062 116.87 412.437C116.976 411.756 117.027 411.068 117.022 410.379L115.903 409.37L89.7802 385.886C86.2045 382.677 81.5708 380.902 76.7669 380.899H55.1059C53.1355 380.889 51.1828 381.27 49.3603 382.019C47.5378 382.768 45.8815 383.871 44.4869 385.263C43.0924 386.655 41.9871 388.309 41.2347 390.13C40.4824 391.951 40.0979 393.903 40.1034 395.873Z" fill="white"/>
<path opacity="0.2" d="M40.1033 395.873V411.387C43.3636 411.387 46.1126 411.387 46.1126 411.387V400.405C46.1035 399.123 46.3491 397.852 46.8353 396.667C47.3215 395.481 48.0385 394.404 48.9447 393.497C49.8509 392.591 50.9282 391.874 52.114 391.388C53.2997 390.902 54.5703 390.656 55.8518 390.665H73.1614C76.637 390.666 79.9945 391.927 82.6105 394.216L103.608 412.534H112.422L115.862 409.467L89.7387 385.982C86.1631 382.774 81.5293 380.998 76.7255 380.995H55.1059C53.1436 380.986 51.1988 381.364 49.3826 382.107C47.5664 382.85 45.9145 383.943 44.5212 385.325C43.1279 386.707 42.0206 388.35 41.2625 390.16C40.5045 391.97 40.1106 393.911 40.1033 395.873Z" fill="white"/>
<path d="M48.4887 400.377V425.326C49.2369 425.493 50.0014 425.577 50.7681 425.575H101.882C105.54 425.578 109.076 424.253 111.832 421.848C114.589 419.442 116.379 416.118 116.87 412.492H104.009C103.157 412.493 102.323 412.745 101.613 413.217C100.903 413.689 100.348 414.359 100.017 415.145C99.6855 415.93 99.1302 416.601 98.4201 417.072C97.7101 417.544 96.8768 417.796 96.0243 417.797H74.3632C73.4342 417.798 72.5233 417.54 71.7327 417.052C70.9421 416.563 70.3031 415.865 69.8873 415.034L64.1405 403.361C63.7063 402.474 63.0321 401.727 62.1945 401.204C61.3569 400.682 60.3894 400.405 59.4022 400.405L48.4887 400.377Z" fill="#263238"/>
<path d="M113.127 416.595H122.424C123.523 416.595 124.577 416.159 125.354 415.381C126.131 414.604 126.568 413.55 126.568 412.451C126.568 411.352 126.131 410.298 125.354 409.52C124.577 408.743 123.523 408.307 122.424 408.307H113.127C112.027 408.307 110.973 408.743 110.196 409.52C109.419 410.298 108.982 411.352 108.982 412.451C108.982 413.55 109.419 414.604 110.196 415.381C110.973 416.159 112.027 416.595 113.127 416.595Z" fill="#263238"/>
<path d="M58.5301 421.221C64.076 415.675 64.076 406.683 58.5301 401.137C52.9841 395.591 43.9924 395.591 38.4465 401.137C32.9005 406.683 32.9005 415.675 38.4465 421.221C43.9924 426.767 52.9841 426.767 58.5301 421.221Z" fill="#263238"/>
<path opacity="0.1" d="M58.5301 421.221C64.076 415.675 64.076 406.683 58.5301 401.137C52.9841 395.591 43.9924 395.591 38.4465 401.137C32.9005 406.683 32.9005 415.675 38.4465 421.221C43.9924 426.767 52.9841 426.767 58.5301 421.221Z" fill="white"/>
<path opacity="0.4" d="M39.91 411.18C39.91 412.874 40.4123 414.53 41.3534 415.938C42.2946 417.347 43.6322 418.445 45.1973 419.093C46.7623 419.741 48.4844 419.911 50.1459 419.58C51.8073 419.25 53.3335 418.434 54.5313 417.236C55.7291 416.038 56.5449 414.512 56.8753 412.851C57.2058 411.189 57.0362 409.467 56.3879 407.902C55.7397 406.337 54.6419 404.999 53.2334 404.058C51.8249 403.117 50.1689 402.615 48.4749 402.615C46.2034 402.615 44.0248 403.517 42.4186 405.123C40.8124 406.73 39.91 408.908 39.91 411.18Z" fill="black"/>
<path opacity="0.1" d="M113.127 416.595H122.424C123.523 416.595 124.577 416.159 125.354 415.381C126.131 414.604 126.568 413.55 126.568 412.451C126.568 411.352 126.131 410.298 125.354 409.52C124.577 408.743 123.523 408.307 122.424 408.307H113.127C112.027 408.307 110.973 408.743 110.196 409.52C109.419 410.298 108.982 411.352 108.982 412.451C108.982 413.55 109.419 414.604 110.196 415.381C110.973 416.159 112.027 416.595 113.127 416.595Z" fill="white"/>
<path d="M264.038 264.253L224.502 406.624L232.488 408.842L272.025 266.47L264.038 264.253Z" fill="#263238"/>
<path d="M244.226 415.49L235.025 412.092L234.349 404.093C234.349 404.093 231.89 401.04 225.217 401.151L217.675 412.672L205.241 414.578C204.468 414.698 203.739 415.015 203.124 415.499C202.51 415.983 202.03 416.617 201.733 417.341L198.97 423.944L201.843 425.533H245.746L246.16 418.294C246.179 417.682 246.001 417.079 245.653 416.575C245.305 416.07 244.805 415.69 244.226 415.49Z" fill="#263238"/>
<path opacity="0.2" d="M244.226 415.49L235.025 412.092L234.349 404.093C234.349 404.093 231.89 401.04 225.217 401.151L217.675 412.672L205.241 414.578C204.468 414.698 203.739 415.015 203.124 415.499C202.51 415.983 202.03 416.617 201.733 417.341L198.97 423.944L201.843 425.533H245.746L246.16 418.294C246.179 417.682 246.001 417.079 245.653 416.575C245.305 416.07 244.805 415.69 244.226 415.49Z" fill="white"/>
<path d="M198.956 424H242.541L245.69 425.588H201.829L198.956 424Z" fill="#263238"/>
<path d="M268.484 429.442L267.49 433.78C259.753 435.728 250.221 437.344 244.005 435.59C232.014 432.191 229.583 426.597 229.583 426.597C229.583 426.597 243.038 430.838 253.288 425.699L257.004 426.389V430.534L268.484 429.442Z" fill="#407BFF"/>
<path opacity="0.2" d="M268.484 429.442L267.49 433.78L261.522 433.449L254.822 434.54V430.175H251.133L253.868 427.577L253.302 425.699L257.018 426.389V430.534L268.484 429.442Z" fill="black"/>
<path d="M294.303 434.112L293.709 436.336L285.255 434.098L281.939 436.087C279.729 433.545 275.737 431.155 269.755 435.604C269.755 435.604 272.698 426.058 280.655 425.685C286.291 425.422 291.651 430.893 294.303 434.112Z" fill="#407BFF"/>
<path opacity="0.2" d="M281.939 436.087L282.699 433.283L287.479 432.606L286.94 428.931L291.72 433.283L294.303 434.112L293.709 436.336L285.255 434.098L281.939 436.087Z" fill="black"/>
<path d="M334.918 434.733C334.918 434.733 321.228 439.002 311.433 430.948C306.93 432.994 302.318 434.793 297.619 436.336L298.807 429.429L296.389 426.666L304.264 418.377L299.042 416.774C302.62 412.423 309.347 406.814 317.595 412.34C322.317 409.765 327.592 408.372 332.97 408.279L331.299 410.047H334.061V412.23L335.844 413.528C335.844 413.694 335.843 413.846 335.913 414.012H328.632L335.94 415.504C335.992 416.652 335.774 417.797 335.305 418.847C335.731 419.783 336.091 420.748 336.382 421.734C337.432 425.187 338.302 430.727 334.918 434.733Z" fill="#407BFF"/>
<path opacity="0.2" d="M298.945 416.844L308.242 417.631V421.154L310.95 423.917L306.888 424.911L310.95 427.052L307.289 430.244L300.741 429.346L301.556 431.86L297.522 436.336L298.71 429.428L296.293 426.693L304.167 418.446L298.945 416.844Z" fill="black"/>
<path opacity="0.2" d="M317.498 412.409C312.76 414.896 308.242 421.154 308.242 421.154V417.617C309.402 415.646 310.882 413.881 312.621 412.395C314.818 410.945 317.498 412.409 317.498 412.409Z" fill="black"/>
<path opacity="0.2" d="M336.41 421.844C328.522 417.824 321.117 422.798 318.769 426.597C317.949 427.836 316.857 428.873 315.577 429.627C314.296 430.381 312.86 430.833 311.378 430.948C318.285 427.287 317.857 421.14 323.811 418.266C325.63 417.45 327.619 417.082 329.61 417.195C331.6 417.308 333.535 417.898 335.25 418.916C335.705 419.863 336.093 420.842 336.41 421.844Z" fill="black"/>
<path d="M341.217 434.54L343.58 401.233L363.265 400.322L378.199 403.057L374.552 434.305L357.795 435.479L341.217 434.54Z" fill="#263238"/>
<path opacity="0.2" d="M343.58 401.233L361.621 403.968L358.914 435.41L341.217 434.54L343.58 401.233Z" fill="white"/>
<path opacity="0.2" d="M361.621 403.968L378.199 403.057L374.552 434.305L358.914 435.41L361.621 403.968Z" fill="black"/>
<path d="M349.354 406.151C345.721 405.792 345.721 414.536 345.721 414.536L342.447 416.457L345.721 418.322L343.345 422.342L339.891 425.671H343.345L341.659 427.453C341.659 427.453 345.168 430.934 348.995 430.92C347.956 429.769 347.197 428.394 346.777 426.901C346.358 425.408 346.289 423.838 346.577 422.314C347.544 417.065 348.636 416.429 348.636 416.429C347.873 415.931 347.272 415.222 346.907 414.387C346.541 413.553 346.427 412.63 346.577 411.732C347.072 409.687 348.021 407.78 349.354 406.151Z" fill="#407BFF"/>
<path opacity="0.2" d="M349.354 406.151C345.721 405.792 345.721 414.536 345.721 414.536L342.447 416.457L345.721 418.322L343.345 422.342L339.891 425.671H343.345L341.659 427.453C341.659 427.453 345.168 430.934 348.995 430.92C347.956 429.769 347.197 428.394 346.777 426.901C346.358 425.408 346.289 423.838 346.577 422.314C347.544 417.065 348.636 416.429 348.636 416.429C347.873 415.931 347.272 415.222 346.907 414.387C346.541 413.553 346.427 412.63 346.577 411.732C347.072 409.687 348.021 407.78 349.354 406.151Z" fill="black"/>
<path d="M345.776 405.792C348.691 404.328 352.518 405.239 353.429 407.436C354.341 409.632 353.429 416.457 353.429 416.457C354.47 419.422 354.938 422.558 354.811 425.699C354.382 430.023 349.092 430.948 349.092 430.948C350.856 429.572 352.236 427.764 353.098 425.699C354.742 422.038 352.186 416.457 352.186 416.457L351.468 414.716V412.534L350.349 411.76L352.366 409.978L351.468 408.237L348.553 407.436L349.451 406.151L345.776 405.792Z" fill="#407BFF"/>
<path opacity="0.2" d="M368.556 411.76L366.719 427.647H369.634L371.457 411.76H368.556Z" fill="white"/>
<path d="M300.63 440.77L303.614 438.767L310.245 440.77L307.759 442.221L300.63 440.77Z" fill="#407BFF"/>
<path d="M262.157 442.221L265.072 438.767C265.072 438.767 266.163 441.129 267.835 440.494C269.095 439.879 270.236 439.047 271.206 438.035L273.112 440.494C273.112 440.494 267.075 444.417 262.157 442.221Z" fill="#407BFF"/>
<path d="M339.946 439.306C340.679 438.394 346.633 439.306 346.633 439.306L353.236 438.035L356.703 438.767H358.914L352.324 440.494H357.435L351.426 442.884L346.633 442.221C347.583 441.693 348.505 441.117 349.395 440.494C349.022 440.591 341.19 440.494 341.19 440.494L339.946 439.306Z" fill="#407BFF"/>
<path d="M218.987 440.466L224.817 438.767L226.999 439.61L225.355 440.494L218.987 440.466Z" fill="#407BFF"/>
<path d="M231.89 99.1252L217.951 115.758L241.809 103.104L231.89 99.1252Z" fill="#407BFF"/>
<path opacity="0.7" d="M231.89 99.1252L217.951 115.758L241.809 103.104L231.89 99.1252Z" fill="white"/>
<path d="M268.023 49.6783L225.748 42.3381C221.373 41.5785 217.211 44.5093 216.451 48.8842L209.111 91.1594C208.351 95.5344 211.282 99.6967 215.657 100.456L257.932 107.797C262.307 108.556 266.47 105.625 267.229 101.25L274.57 58.9752C275.329 54.6003 272.398 50.4379 268.023 49.6783Z" fill="#407BFF"/>
<path opacity="0.7" d="M268.023 49.6783L225.748 42.3381C221.373 41.5785 217.211 44.5093 216.451 48.8842L209.111 91.1594C208.351 95.5344 211.282 99.6967 215.657 100.456L257.932 107.797C262.307 108.556 266.47 105.625 267.229 101.25L274.57 58.9752C275.329 54.6003 272.398 50.4379 268.023 49.6783Z" fill="white"/>
<path d="M236.076 86.844C236.158 86.3757 236.334 85.9289 236.593 85.5305C236.853 85.132 237.19 84.7902 237.585 84.5257C237.98 84.2611 238.424 84.0791 238.891 83.9909C239.359 83.9026 239.839 83.9098 240.303 84.012C240.807 84.032 241.3 84.1594 241.75 84.3857C242.2 84.6119 242.597 84.9317 242.914 85.3237C243.23 85.7157 243.459 86.1708 243.586 86.6586C243.712 87.1464 243.733 87.6555 243.647 88.1519C243.56 88.6484 243.369 89.1206 243.085 89.537C242.801 89.9534 242.432 90.3044 242.001 90.5664C241.571 90.8284 241.09 90.9955 240.589 91.0563C240.089 91.1172 239.582 91.0704 239.101 90.9192C238.632 90.857 238.18 90.7012 237.772 90.4611C237.364 90.221 237.009 89.9015 236.727 89.5214C236.444 89.1414 236.242 88.7086 236.13 88.2487C236.018 87.7888 236 87.3111 236.076 86.844ZM241.298 58.6348L247.942 59.7952L243.163 80.6275L238.714 79.8538L241.298 58.6348Z" fill="#263238"/>
<path d="M168.758 155.902C168.758 155.902 181.053 179.898 184.285 183.531C187.518 187.165 217.039 199.142 217.039 199.142L220.313 202.775L236.352 204.875L241.878 193.934C241.878 193.934 223.297 189.886 221.474 189.914C219.65 189.941 219.139 192.483 219.139 192.483C219.139 192.483 194.632 178.669 192.892 176.818C191.151 174.966 183.885 153.333 183.885 153.333L168.758 155.902Z" fill="#EBB376"/>
<path d="M191.441 167.99L174.864 172.259L167.404 161.566L161.657 153.278L168.855 147.959L180.901 139.063C183.788 141.328 191.441 167.99 191.441 167.99Z" fill="#263238"/>
<path opacity="0.2" d="M167.376 161.566L161.63 153.278L168.827 147.959C168.965 150.708 169.062 157.27 167.376 161.566Z" fill="black"/>
<path d="M88.7444 415.117H98.981L99.8236 391.425H89.5733L88.7444 415.117Z" fill="#EBB376"/>
<path d="M100.39 413.943H87.957C87.7522 413.939 87.5527 414.008 87.3935 414.136C87.2343 414.265 87.1257 414.446 87.0867 414.647L85.0698 423.751C85.0272 423.945 85.0235 424.146 85.0589 424.341C85.0943 424.537 85.168 424.724 85.2759 424.891C85.3838 425.058 85.5236 425.202 85.6874 425.314C85.8512 425.427 86.0357 425.506 86.2302 425.547H86.5617C90.5817 425.478 93.469 425.229 98.5527 425.229C101.675 425.229 110.986 425.561 115.351 425.561C119.716 425.561 120.2 421.32 118.446 420.919C110.557 419.206 104.631 416.775 102.103 414.564C101.631 414.148 101.019 413.926 100.39 413.943Z" fill="#407BFF"/>
<path d="M101.095 415.352C101.046 415.343 101.001 415.317 100.969 415.28C100.936 415.242 100.917 415.195 100.915 415.145C100.908 415.099 100.915 415.053 100.935 415.011C100.954 414.969 100.986 414.934 101.025 414.91C101.398 414.675 104.7 412.658 105.833 413.238C105.961 413.298 106.068 413.394 106.142 413.514C106.216 413.635 106.252 413.774 106.247 413.915C106.285 414.158 106.258 414.406 106.168 414.634C106.078 414.862 105.929 415.062 105.736 415.214C105.161 415.608 104.469 415.793 103.775 415.739C102.869 415.713 101.97 415.583 101.095 415.352ZM101.799 415.021C102.995 415.418 104.296 415.354 105.446 414.841C105.566 414.733 105.657 414.597 105.712 414.445C105.768 414.293 105.785 414.131 105.764 413.971C105.764 413.777 105.681 413.68 105.612 413.68C105.508 413.654 105.398 413.654 105.294 413.68C104.055 413.904 102.87 414.358 101.799 415.021Z" fill="#407BFF"/>
<path d="M101.026 415.407C100.989 415.383 100.96 415.35 100.941 415.311C100.921 415.273 100.913 415.229 100.915 415.186C100.915 415.048 101.177 412.106 102.366 411.139C102.503 411.015 102.666 410.924 102.842 410.871C103.019 410.819 103.206 410.806 103.388 410.835C103.57 410.834 103.747 410.898 103.889 411.014C104.03 411.129 104.126 411.291 104.161 411.47C104.382 412.548 102.338 414.799 101.274 415.366H101.164C101.123 415.394 101.075 415.408 101.026 415.407ZM102.669 411.429C101.95 412.349 101.531 413.467 101.468 414.634C102.517 413.832 103.816 412.133 103.692 411.47C103.692 411.401 103.692 411.221 103.333 411.221H103.222C103.018 411.219 102.821 411.293 102.669 411.429Z" fill="#407BFF"/>
<path opacity="0.2" d="M89.5733 391.439H99.8237L99.3816 403.665H89.1451L89.5733 391.439Z" fill="black"/>
<path d="M141.419 415.891L151.987 417.01L153.963 394.243L143.408 393.124L141.419 415.891Z" fill="#EBB376"/>
<path d="M153.092 413.611H140.659C140.454 413.608 140.255 413.676 140.096 413.805C139.937 413.934 139.828 414.115 139.789 414.316L137.772 423.42C137.729 423.614 137.726 423.814 137.761 424.01C137.796 424.206 137.87 424.392 137.978 424.559C138.086 424.726 138.226 424.87 138.39 424.983C138.553 425.095 138.738 425.174 138.932 425.215C139.042 425.229 139.154 425.229 139.264 425.215C143.284 425.215 146.171 424.911 151.269 424.911C154.377 424.911 163.702 425.229 168.053 425.229C172.405 425.229 172.902 420.988 171.148 420.601C163.26 418.888 157.333 416.457 154.805 414.233C154.333 413.816 153.721 413.594 153.092 413.611Z" fill="#407BFF"/>
<path d="M153.797 415.034C153.75 415.021 153.708 414.994 153.676 414.957C153.644 414.921 153.623 414.875 153.617 414.827C153.607 414.779 153.614 414.73 153.637 414.687C153.659 414.644 153.697 414.61 153.741 414.592C154.101 414.357 157.402 412.326 158.535 412.907C158.663 412.966 158.771 413.062 158.844 413.183C158.918 413.303 158.955 413.442 158.95 413.584C158.983 413.826 158.955 414.074 158.868 414.303C158.781 414.533 158.638 414.736 158.452 414.896C157.87 415.284 157.174 415.464 156.477 415.407C155.573 415.379 154.674 415.254 153.797 415.034ZM154.501 414.689C155.695 415.101 157.001 415.036 158.148 414.509C158.269 414.401 158.361 414.266 158.416 414.114C158.472 413.962 158.489 413.799 158.466 413.639C158.466 413.445 158.383 413.349 158.314 413.349C158.214 413.322 158.11 413.322 158.01 413.349C156.79 413.577 155.623 414.031 154.57 414.689H154.501Z" fill="#407BFF"/>
<path d="M153.741 415.089C153.704 415.066 153.673 415.033 153.651 414.995C153.629 414.956 153.618 414.913 153.617 414.868C153.617 414.716 153.88 411.774 155.068 410.821C155.208 410.702 155.371 410.613 155.547 410.559C155.722 410.504 155.907 410.485 156.09 410.503C156.274 410.502 156.453 410.565 156.597 410.681C156.74 410.796 156.839 410.958 156.877 411.138C157.085 412.216 155.04 414.468 153.976 415.048H153.866C153.83 415.074 153.786 415.088 153.741 415.089ZM155.372 411.097C154.657 412.02 154.238 413.137 154.17 414.302C155.22 413.515 156.518 411.802 156.394 411.138C156.394 411.138 156.394 410.89 156.035 410.89H155.952C155.74 410.887 155.534 410.961 155.372 411.097Z" fill="#407BFF"/>
<path opacity="0.2" d="M143.408 393.124L153.963 394.243L152.926 405.986L142.372 404.867L143.408 393.124Z" fill="black"/>
<path d="M157.831 400.405L139.444 398.125C139.444 398.125 140.369 333.515 134.291 282.25C134.166 281.2 134.042 280.15 133.904 279.114C133.766 278.078 133.614 276.862 133.476 275.743C133.338 274.624 133.186 273.615 133.02 272.566C131.017 258.406 128.378 245.779 124.924 236.496C123.543 253.073 122.162 270.438 120.642 283.824C120.545 284.764 120.435 285.675 120.338 286.587C120.241 287.499 120.117 288.563 120.007 289.502C119.896 290.442 119.786 291.339 119.675 292.265C119.413 294.337 119.164 296.244 118.915 297.957C114.191 330.49 104.078 401.565 104.078 401.565H85.3599C85.3599 401.565 89.1865 333.515 90.8857 301.535C91.2863 294.448 91.6316 285.648 91.9356 276.061C91.9356 275.107 91.9356 274.168 92.0323 273.201C92.129 272.234 92.0323 271.17 92.129 270.134C92.2257 269.098 92.129 268.228 92.198 267.261C93.2065 231.343 93.6762 188.822 93.7314 183.587H148.036C154.258 218.354 158.433 253.457 160.538 288.715L160.704 291.726C160.704 292.79 160.828 293.868 160.884 294.945C160.939 296.023 160.98 296.934 161.022 297.943C162.638 330.586 162.279 366.297 157.831 400.405Z" fill="#407BFF"/>
<path d="M159.93 404.687L137.178 401.303L137.869 395.003L161.547 398.111L159.93 404.687Z" fill="#407BFF"/>
<path d="M106.33 401.689H84.2547V395.1L107.159 394.672L106.33 401.689Z" fill="#407BFF"/>
<g opacity="0.2">
<path d="M159.93 404.687L137.178 401.303L137.869 395.003L161.547 398.111L159.93 404.687Z" fill="white"/>
</g>
<g opacity="0.2">
<path d="M106.33 401.689H84.2547V395.1L107.159 394.672L106.33 401.689Z" fill="white"/>
</g>
<path opacity="0.5" d="M100.39 413.943H87.957C87.7522 413.939 87.5527 414.008 87.3935 414.136C87.2343 414.265 87.1257 414.446 87.0867 414.647L85.0698 423.751C85.0272 423.945 85.0235 424.146 85.0589 424.341C85.0943 424.537 85.168 424.724 85.2759 424.891C85.3838 425.058 85.5236 425.202 85.6874 425.314C85.8512 425.427 86.0357 425.506 86.2302 425.547H86.5617C90.5817 425.478 93.469 425.229 98.5527 425.229C101.675 425.229 110.986 425.561 115.351 425.561C119.716 425.561 120.2 421.32 118.446 420.919C110.557 419.206 104.631 416.775 102.103 414.564C101.631 414.148 101.019 413.926 100.39 413.943Z" fill="white"/>
<path opacity="0.5" d="M153.092 413.611H140.659C140.454 413.608 140.255 413.676 140.096 413.805C139.937 413.934 139.828 414.115 139.789 414.316L137.772 423.42C137.729 423.614 137.726 423.814 137.761 424.01C137.796 424.206 137.87 424.392 137.978 424.559C138.086 424.726 138.226 424.87 138.39 424.983C138.553 425.095 138.738 425.174 138.932 425.215C139.042 425.229 139.154 425.229 139.264 425.215C143.284 425.215 146.171 424.911 151.269 424.911C154.377 424.911 163.702 425.229 168.053 425.229C172.405 425.229 172.902 420.988 171.148 420.601C163.26 418.888 157.333 416.457 154.805 414.233C154.333 413.816 153.721 413.594 153.092 413.611Z" fill="white"/>
<path d="M151.227 193.381L91.6179 187.62C91.6179 187.62 95.182 156.234 111.345 134.504C114.687 129.912 118.712 125.859 123.281 122.485C124.808 121.361 126.409 120.341 128.074 119.432C128.074 119.432 157.927 120.524 180.873 139.104C180.818 139.104 148.768 163.901 151.227 193.381Z" fill="#263238"/>
<path opacity="0.4" d="M151.227 193.381L91.6179 187.62C91.6179 187.62 95.182 156.234 111.345 134.504C114.687 129.912 118.712 125.859 123.281 122.485C124.808 121.361 126.409 120.341 128.074 119.432C128.074 119.432 157.927 120.524 180.873 139.104C180.818 139.104 148.768 163.901 151.227 193.381Z" fill="white"/>
<path opacity="0.2" d="M124.925 236.51C127.592 244.157 129.62 252.012 130.989 259.994C132.509 239.273 126.43 217.17 126.43 217.17L124.925 236.51Z" fill="black"/>
<path d="M169.324 121.877C164.904 130.277 166.561 131.824 166.561 131.824C165.652 133.067 164.6 134.198 163.425 135.195C160.911 137.336 157.085 139.491 152.705 138.109C144.928 135.65 143.546 123.079 143.546 123.079H144.002C148.437 123.079 152.139 119.018 154.211 116.172C154.803 115.344 155.351 114.487 155.855 113.603L155.979 113.382L156.27 113.464L171.631 117.844C170.72 119.336 169.96 120.676 169.324 121.877Z" fill="#EBB376"/>
<path opacity="0.2" d="M169.324 121.877C164.904 130.277 166.561 131.824 166.561 131.824C165.652 133.067 164.6 134.198 163.425 135.195C156.159 131.534 156.905 120.759 156.905 120.759C156.905 120.759 154.142 116.296 154.142 116.172C154.734 115.344 155.282 114.487 155.786 113.603L155.91 113.382L156.2 113.464L171.631 117.844C170.719 119.336 169.96 120.676 169.324 121.877Z" fill="black"/>
<path d="M189.258 98.9178C189.258 98.9178 189.107 113.174 180.818 117.332C172.529 121.491 176.756 95.5885 176.756 95.5885L189.258 98.9178Z" fill="#EBB376"/>
<path opacity="0.4" d="M189.258 98.9178C189.258 98.9178 189.107 113.174 180.818 117.332C172.529 121.491 176.756 95.5885 176.756 95.5885L189.258 98.9178Z" fill="black"/>
<path d="M157.651 124.93C158.827 127.472 160.804 129.557 163.28 130.864C165.756 132.172 168.593 132.631 171.355 132.169C174.942 131.648 178.194 129.775 180.445 126.933C180.763 126.541 181.058 126.13 181.329 125.704C186.344 117.788 191.082 97.0252 181.799 96.072C174.201 95.2846 167.307 91.5685 162.251 97.3153C160.804 98.9446 159.767 100.896 159.226 103.007C156.518 112.774 154.46 118.382 157.651 124.93Z" fill="#EBB376"/>
<path d="M172.861 110.66C172.697 110.949 172.651 111.291 172.734 111.613C172.816 111.935 173.02 112.212 173.303 112.387C173.828 112.566 174.449 112.055 174.684 111.282C174.919 110.508 174.684 109.734 174.242 109.555C173.8 109.375 173.137 109.873 172.861 110.66Z" fill="#263238"/>
<path d="M181.688 113.699C181.37 114.459 181.688 115.26 182.13 115.426C182.572 115.592 183.277 115.108 183.512 114.335C183.747 113.561 183.581 112.774 183.07 112.608C182.558 112.442 181.937 112.939 181.688 113.699Z" fill="#263238"/>
<path d="M178.746 113.105C178.868 115.806 179.356 118.478 180.196 121.049C179.529 121.251 178.825 121.303 178.135 121.203C177.445 121.103 176.786 120.852 176.204 120.468L178.746 113.105Z" fill="#D58745"/>
<path d="M175.485 105.411C175.41 105.367 175.324 105.344 175.237 105.344C175.15 105.344 175.064 105.367 174.988 105.411C174.486 105.751 173.912 105.972 173.311 106.056C172.71 106.14 172.097 106.084 171.521 105.894C171.405 105.852 171.278 105.856 171.165 105.904C171.052 105.953 170.962 106.042 170.913 106.155C170.863 106.267 170.859 106.394 170.9 106.51C170.941 106.626 171.025 106.722 171.134 106.778C171.856 107.038 172.63 107.123 173.392 107.024C174.153 106.926 174.881 106.647 175.513 106.212C175.621 106.144 175.697 106.036 175.725 105.912C175.754 105.787 175.732 105.657 175.665 105.549C175.613 105.493 175.553 105.446 175.485 105.411Z" fill="#263238"/>
<path d="M184.437 108.022C184.348 107.989 184.25 107.989 184.161 108.022C184.041 108.06 183.941 108.143 183.882 108.254C183.822 108.365 183.809 108.495 183.843 108.616C184.059 109.355 184.449 110.031 184.98 110.589C185.511 111.147 186.168 111.569 186.896 111.82C187.019 111.855 187.15 111.839 187.261 111.777C187.373 111.715 187.455 111.611 187.49 111.489C187.524 111.366 187.509 111.235 187.447 111.124C187.385 111.013 187.281 110.93 187.159 110.895C186.588 110.68 186.076 110.335 185.663 109.886C185.251 109.437 184.949 108.898 184.783 108.312C184.753 108.239 184.706 108.174 184.646 108.124C184.586 108.073 184.514 108.038 184.437 108.022Z" fill="#263238"/>
<path d="M170.346 93.4473L169.628 97.8955C168.804 98.0347 168.063 98.4784 167.551 99.1386C167.04 99.7988 166.795 100.627 166.865 101.46C167.211 105.466 163.55 110.467 160.124 111.903C160.124 111.903 160.497 110.315 159.074 110.301C157.651 110.287 155.648 118.59 157.098 123.162C157.098 123.162 153.147 117.83 153.41 108.657C153.672 100.161 154.888 94.9807 156.808 91.2646L170.346 93.4473Z" fill="#EBB376"/>
<path opacity="0.4" d="M170.346 93.4473L169.628 97.8955C168.804 98.0347 168.063 98.4784 167.551 99.1386C167.04 99.7988 166.795 100.627 166.865 101.46C167.211 105.466 163.55 110.467 160.124 111.903C160.124 111.903 160.497 110.315 159.074 110.301C157.651 110.287 155.648 118.59 157.098 123.162C157.098 123.162 153.147 117.83 153.41 108.657C153.672 100.161 154.888 94.9807 156.808 91.2646L170.346 93.4473Z" fill="black"/>
<path d="M154.985 96.0168C159.735 97.4154 164.678 98.0496 169.628 97.8955C183.829 97.7712 188.678 103.919 188.678 103.919C189.78 103.253 190.721 102.354 191.438 101.284C192.154 100.215 192.626 99.0016 192.823 97.7298C193.168 93.7098 187.836 91.9968 187.836 91.9968C187.836 91.9968 187.021 87.2584 183.691 85.2277C180.362 83.197 176.052 85.8493 176.052 85.8493C176.052 85.8493 172.35 80.6275 166.851 80.8623C165.008 80.8906 163.229 81.5508 161.814 82.7326C160.398 83.9143 159.431 85.546 159.074 87.3551C159.074 87.3551 152.788 86.8025 152.319 90.0075C151.849 93.2125 154.985 96.0168 154.985 96.0168Z" fill="#263238"/>
<path d="M152.346 109.431C152.671 111.967 153.987 114.272 156.007 115.841C158.687 117.885 161.284 115.841 161.533 112.594C161.781 109.831 160.732 105.19 157.513 104.416C156.815 104.258 156.09 104.276 155.401 104.47C154.713 104.663 154.083 105.025 153.57 105.523C153.057 106.021 152.677 106.639 152.463 107.322C152.249 108.004 152.209 108.729 152.346 109.431Z" fill="#EBB376"/>
<path d="M168.744 125.967C170.103 124.632 171.733 123.605 173.524 122.955C173.524 122.955 173.261 122.651 172.805 122.181C171.493 120.869 168.73 118.355 166.769 118.686C166.597 118.706 166.429 118.753 166.271 118.825C165.4 119.251 164.678 119.929 164.199 120.772C163.052 122.679 163.412 125.276 168.744 125.967Z" fill="#263238"/>
<path d="M166.769 118.673L171.742 123.066L172.805 122.168C171.493 120.855 168.73 118.341 166.769 118.673Z" fill="white"/>
<path d="M168.744 125.966C168.841 123.204 165.829 121.504 164.199 120.772C163.052 122.679 163.412 125.276 168.744 125.966Z" fill="#DE5753"/>
<path opacity="0.2" d="M144.071 167.99C144.071 167.99 117.824 158.32 111.345 134.504C114.687 129.912 118.712 125.859 123.281 122.485C132.315 128.011 142.621 138.551 142.621 138.551C142.621 138.551 146.972 161.539 144.071 167.99Z" fill="black"/>
<path d="M125.657 146.025C125.657 146.025 133.835 171.72 136.432 175.781C139.029 179.843 166.161 196.586 166.161 196.586L168.799 200.73L184.244 205.538L191.441 195.647C191.441 195.647 173.786 188.601 171.977 188.311C170.167 188.021 169.214 190.466 169.214 190.466C169.214 190.466 147.318 172.77 145.895 170.698C144.472 168.626 140.894 145.984 140.894 145.984L125.657 146.025Z" fill="#EBB376"/>
<path d="M128.074 119.446C117.368 121.767 121.485 148.125 126.596 156.911L143.27 151.869C143.27 151.869 144.9 115.799 128.074 119.446Z" fill="#263238"/>
<path opacity="0.4" d="M120.642 283.824C120.545 284.764 120.435 285.676 120.338 286.587L92.1981 270.12C92.1981 269.167 92.1981 268.214 92.2671 267.247L120.642 283.824Z" fill="white"/>
<path opacity="0.4" d="M120.034 289.488C119.924 290.428 119.813 291.326 119.703 292.251L92.0737 276.075C92.0737 275.121 92.0737 274.182 92.1704 273.215L120.034 289.488Z" fill="white"/>
<path opacity="0.4" d="M160.773 291.699L133.476 275.743C133.324 274.679 133.186 273.616 133.02 272.566L160.649 288.687L160.773 291.699Z" fill="white"/>
<path opacity="0.4" d="M161.091 297.915L134.291 282.236C134.166 281.186 134.042 280.136 133.904 279.1L160.953 294.904C160.994 295.912 161.049 296.907 161.091 297.915Z" fill="white"/>
</svg>
