<svg width="198" height="187" viewBox="0 0 198 187" fill="none" xmlns="http://www.w3.org/2000/svg">
<g id="freepik--character-3--inject-46">
<path id="Vector" d="M175.771 177.72L139.179 135.79C126.57 121.339 113.734 107.053 101.346 92.428C94.4822 84.3616 83.827 81.9178 74.4714 87.4446C69.9174 90.1157 65.4535 92.9657 60.9479 95.7231C58.2854 97.3611 56.0069 93.0501 58.6623 91.4249C63.0549 88.7342 67.429 86.0169 71.8397 83.3595C75.6015 81.0523 79.8968 79.7589 84.3071 79.6055C88.7174 79.4522 93.0921 80.444 97.0051 82.4843C103.328 85.8169 108.261 93.0132 112.938 98.3495C130.142 118.085 147.344 137.796 164.546 157.483L179.363 174.458C181.422 176.813 177.836 180.114 175.789 177.753L175.771 177.72Z" fill="#263238"/>
<path id="Vector_2" d="M95.9981 87.6292C96.6811 87.0681 97.2934 86.426 97.8214 85.7171C98.4362 85.0786 98.9649 84.3626 99.394 83.5872C98.0913 84.7847 96.9459 86.1427 95.9852 87.6287L95.9981 87.6292Z" fill="#455A64"/>
<path id="Vector_3" d="M100.311 91.5551C101.003 91.0013 101.618 90.3585 102.141 89.6432C102.75 89.0038 103.276 88.2903 103.707 87.5195C103.019 88.0774 102.404 88.7197 101.877 89.4314C101.266 90.069 100.74 90.7828 100.311 91.5551Z" fill="#455A64"/>
<path id="Vector_4" d="M103.976 95.5979C104.775 95.2182 105.522 94.7357 106.196 94.1627C106.938 93.6811 107.616 93.1066 108.212 92.4531C106.674 93.32 105.251 94.3765 103.976 95.5979Z" fill="#455A64"/>
<path id="Vector_5" d="M108.119 100.341C108.888 99.9052 109.601 99.3761 110.241 98.7659C110.95 98.2384 111.589 97.6206 112.139 96.9282C110.655 97.8902 109.3 99.037 108.106 100.341L108.119 100.341Z" fill="#455A64"/>
<path id="Vector_6" d="M112.804 107.129C113.559 106.668 114.25 106.11 114.859 105.468C115.546 104.909 116.161 104.267 116.688 103.555C115.933 104.018 115.242 104.579 114.632 105.222C113.946 105.779 113.332 106.42 112.804 107.129Z" fill="#455A64"/>
<path id="Vector_7" d="M116.922 111.175C117.673 110.707 118.364 110.147 118.977 109.509C119.665 108.953 120.278 108.31 120.8 107.596C120.047 108.062 119.356 108.622 118.744 109.262C118.059 109.822 117.447 110.464 116.922 111.175Z" fill="#455A64"/>
<path id="Vector_8" d="M119.185 113.16C119.955 112.723 120.668 112.192 121.306 111.578C122.015 111.052 122.653 110.437 123.204 109.747C122.434 110.182 121.722 110.711 121.083 111.323C120.375 111.852 119.737 112.469 119.185 113.16Z" fill="#455A64"/>
<path id="Vector_9" d="M123.143 117.656C123.913 117.219 124.626 116.687 125.265 116.074C125.977 115.537 126.616 114.908 127.164 114.204C126.397 114.645 125.685 115.176 125.043 115.786C124.33 116.323 123.691 116.951 123.143 117.656Z" fill="#455A64"/>
<path id="Vector_10" d="M127.102 122.152C127.872 121.715 128.585 121.183 129.223 120.57C129.931 120.04 130.569 119.423 131.122 118.732C130.351 119.168 129.638 119.7 129 120.314C128.29 120.841 127.651 121.459 127.102 122.152Z" fill="#455A64"/>
<path id="Vector_11" d="M131.067 126.641C131.84 126.208 132.555 125.679 133.195 125.066C133.901 124.534 134.538 123.917 135.093 123.229C134.321 123.662 133.608 124.194 132.972 124.811C132.262 125.337 131.622 125.953 131.067 126.641Z" fill="#455A64"/>
<path id="Vector_12" d="M135.012 131.137C135.785 130.703 136.498 130.171 137.134 129.555C137.84 129.023 138.479 128.408 139.038 127.724C138.266 128.154 137.553 128.684 136.917 129.299C136.208 129.829 135.568 130.447 135.012 131.137Z" fill="#455A64"/>
<path id="Vector_13" d="M138.971 135.633C140.454 134.668 141.81 133.519 143.004 132.214C142.229 132.646 141.513 133.178 140.876 133.795C140.167 134.326 139.527 134.943 138.971 135.633Z" fill="#455A64"/>
<path id="Vector_14" d="M142.93 140.122C143.699 139.686 144.411 139.157 145.051 138.547C145.761 138.019 146.399 137.401 146.949 136.709C146.178 137.145 145.465 137.676 144.828 138.291C144.122 138.821 143.485 139.436 142.93 140.122Z" fill="#455A64"/>
<path id="Vector_15" d="M146.888 144.618C147.658 144.181 148.371 143.649 149.01 143.036C149.72 142.511 150.358 141.896 150.908 141.205C149.424 142.167 148.069 143.313 146.875 144.617L146.888 144.618Z" fill="#455A64"/>
<path id="Vector_16" d="M150.847 149.114C151.604 148.682 152.305 148.159 152.935 147.556C153.642 147.028 154.28 146.413 154.833 145.725C154.063 146.16 153.35 146.689 152.712 147.301C152.014 147.822 151.388 148.431 150.847 149.114Z" fill="#455A64"/>
<path id="Vector_17" d="M154.805 153.61C155.575 153.172 156.288 152.641 156.927 152.028C157.637 151.5 158.275 150.882 158.825 150.19C158.054 150.626 157.341 151.157 156.704 151.772C155.993 152.299 155.355 152.917 154.805 153.61Z" fill="#455A64"/>
<path id="Vector_18" d="M158.758 158.099C159.531 157.666 160.246 157.137 160.885 156.524C161.591 155.992 162.229 155.374 162.784 154.686C161.302 155.651 159.948 156.797 158.751 158.099L158.758 158.099Z" fill="#455A64"/>
<path id="Vector_19" d="M162.71 162.594C163.482 162.161 164.195 161.629 164.831 161.012C165.539 160.483 166.179 159.868 166.735 159.181C165.963 159.612 165.25 160.142 164.614 160.757C163.905 161.287 163.265 161.904 162.71 162.594Z" fill="#455A64"/>
<path id="Vector_20" d="M166.675 167.091C167.447 166.657 168.16 166.126 168.796 165.509C169.505 164.978 170.145 164.361 170.701 163.671C169.929 164.106 169.216 164.638 168.579 165.253C167.87 165.784 167.23 166.401 166.675 167.091Z" fill="#455A64"/>
<path id="Vector_21" d="M170.633 171.586C172.117 170.622 173.472 169.473 174.666 168.167C173.891 168.6 173.175 169.132 172.538 169.749C171.829 170.28 171.189 170.897 170.633 171.586Z" fill="#455A64"/>
<path id="Vector_22" d="M91.2669 85.3865C91.3641 85.3904 91.7441 84.3414 92.429 83.136C93.1139 81.9307 93.8118 81.0438 93.7626 80.9769C93.0701 81.502 92.5128 82.1847 92.1373 82.9684C91.6611 83.6948 91.363 84.5232 91.2669 85.3865Z" fill="#455A64"/>
<path id="Vector_23" d="M86.5467 79.6721C85.9335 81.2441 85.9652 82.9945 86.6348 84.5433C86.7255 84.547 86.4649 83.4526 86.4477 82.1149C86.4305 80.7772 86.6431 79.6955 86.5467 79.6721Z" fill="#455A64"/>
<path id="Vector_24" d="M157.819 173.858H197.266V178.572H157.819V173.858Z" fill="#263238"/>
<path id="Vector_25" d="M157.702 173.858C157.702 173.949 166.587 174.026 177.533 174.026C188.479 174.026 197.364 173.949 197.364 173.858C197.364 173.767 188.486 173.689 177.533 173.689C166.58 173.689 157.702 173.761 157.702 173.858Z" fill="#455A64"/>
<path id="Vector_26" d="M170.062 178.728C170.287 177.14 170.287 175.529 170.062 173.942C169.838 175.529 169.838 177.14 170.062 178.728Z" fill="#455A64"/>
<path id="Vector_27" d="M61.8295 104.839C60.0591 108.846 57.4198 112.497 54.7999 115.986C52.11 119.615 49.2311 123.1 46.1751 126.427C42.1026 130.798 37.7448 134.915 33.8539 139.448C30.4558 143.385 27.1226 148.119 25.268 152.898C24.766 154.184 24.3458 155.501 24.0099 156.841C23.8608 157.424 23.7376 158.008 23.6273 158.592C23.5819 158.845 23.5365 159.104 23.4976 159.357C23.4976 159.506 23.4522 159.655 23.4328 159.798C23.4846 159.441 23.4328 159.759 23.4328 159.947C23.1628 162.288 23.1389 164.65 23.3614 166.996C23.3614 167.32 23.4328 167.644 23.4717 167.969C23.4198 167.573 23.5301 168.299 23.543 168.403C23.6403 169 23.757 169.596 23.8997 170.186C24.1669 171.336 24.5158 172.465 24.9437 173.565C24.9762 173.63 25.1383 173.987 24.9437 173.617C24.9891 173.721 25.0345 173.824 25.0864 173.928C25.1967 174.168 25.3134 174.408 25.4366 174.642C25.7081 175.168 26.009 175.679 26.338 176.172C26.4028 176.276 26.779 176.82 26.6557 176.632C26.5325 176.444 26.7141 176.71 26.7336 176.73L27.0124 177.06C27.3956 177.5 27.8095 177.912 28.251 178.293L28.4974 178.507C28.5493 178.545 28.906 178.831 28.6855 178.662C28.465 178.494 28.7698 178.721 28.7892 178.733L29.1459 178.986C29.6063 179.298 30.0862 179.583 30.5726 179.849C30.806 179.972 31.033 180.089 31.2729 180.199L31.6815 180.387C31.5842 180.342 31.2729 180.231 31.7204 180.387C32.1679 180.543 32.7774 180.776 33.3221 180.932C33.8669 181.087 34.4181 181.224 34.9758 181.327L35.6243 181.444C35.1509 181.366 36.0912 181.49 36.2144 181.496C37.3396 181.585 38.4706 181.57 39.593 181.451H39.4957L39.9367 181.379L40.6954 181.224C41.2329 181.104 41.7633 180.955 42.2842 180.776C42.3815 180.737 43.1661 180.42 42.7187 180.621C42.9521 180.517 43.1726 180.407 43.3671 180.283C43.5803 180.159 43.786 180.023 43.9832 179.875C43.6071 180.16 44.1843 179.667 44.288 179.564C44.4881 179.36 44.6744 179.143 44.8457 178.915C44.5798 179.265 44.943 178.74 45.0208 178.623C45.0986 178.507 45.2737 178.189 45.3904 177.975C45.4358 177.878 45.4812 177.78 45.5331 177.683C45.6498 177.437 45.4358 177.988 45.585 177.56C45.7592 177.076 45.9043 176.582 46.0195 176.081C46.0195 175.977 46.1816 175.115 46.1232 175.634C46.1232 175.342 46.1816 175.044 46.1946 174.745C46.2108 174.231 46.1978 173.715 46.1556 173.202C46.1556 173.098 46.1556 172.722 46.1556 173.202C46.1556 173.046 46.1038 172.897 46.0713 172.742C46.0065 172.417 45.9287 172.093 45.8314 171.769C45.718 171.319 45.5526 170.884 45.3386 170.472C45.0365 169.874 44.6896 169.299 44.301 168.753L44.0805 168.449C43.8276 168.118 44.2621 168.663 43.9897 168.345C43.7173 168.027 43.6071 167.891 43.4061 167.696C42.976 167.225 43.8527 165.23 43.3714 164.811C42.9953 164.457 43.6651 164.058 43.2342 163.773C42.6864 163.395 39.7054 164.68 39.1131 164.376C38.6605 164.124 38.1823 163.922 37.6865 163.773C37.0986 163.566 36.4987 163.395 35.8901 163.261C35.6135 163.196 35.3346 163.137 35.0536 163.086L34.5737 163.001C34.5737 163.001 34.1652 162.943 34.4181 163.001L33.7696 162.93C33.4194 162.93 33.0627 162.872 32.7126 162.859C30.5879 162.794 28.4612 162.859 26.3444 163.053C25.4949 163.118 24.6519 163.176 23.7959 163.176C23.151 163.176 22.5324 162.92 22.0764 162.464C21.6203 162.008 21.3641 161.39 21.3641 160.745C21.3641 160.1 21.6203 159.481 22.0764 159.025C22.5324 158.569 23.151 158.313 23.7959 158.313C25.8192 158.313 27.836 158.047 29.8528 157.976C32.4683 157.851 39.4915 157.981 42.0378 158.592C47.2266 160.474 48.4059 164.48 50.3383 170.018C52.0633 174.979 50.5783 181.496 45.9546 184.375C43.7627 185.744 40.9418 186.275 38.3998 186.392C35.91 186.498 33.4224 186.138 31.0654 185.329C28.5585 184.479 26.2631 183.101 24.3342 181.289C22.4717 179.405 21.0441 177.136 20.1514 174.642C18.3097 169.875 17.9661 164.415 18.6145 159.376C20.2487 146.822 28.9189 137.205 37.4206 128.496C41.091 124.734 44.69 120.96 47.9908 116.868C48.3669 116.401 48.7431 115.934 49.1127 115.461C49.6121 114.812 49.5926 114.858 50.079 114.216C50.8701 113.178 51.644 112.128 52.4005 111.064C53.8012 109.134 55.0999 107.132 56.2914 105.066C56.7843 104.19 57.2447 103.302 57.6532 102.381C58.1785 101.181 59.9359 100.903 60.98 101.512C62.2186 102.232 62.3807 103.633 61.8489 104.839H61.8295Z" fill="#263238"/>
<path id="Vector_28" d="M25.5243 163.521C25.7471 161.582 25.7471 159.624 25.5243 157.685C25.3015 159.624 25.3015 161.582 25.5243 163.521Z" fill="#455A64"/>
<path id="Vector_29" d="M32.1843 162.574C32.4104 161.069 32.4104 159.539 32.1843 158.035C31.9581 159.539 31.9581 161.069 32.1843 162.574Z" fill="#455A64"/>
<path id="Vector_30" d="M35.3425 162.814C35.6445 162.117 35.837 161.378 35.9132 160.622C36.1046 159.886 36.1854 159.125 36.1531 158.365C35.8546 159.063 35.6622 159.802 35.5824 160.557C35.3949 161.294 35.3141 162.054 35.3425 162.814Z" fill="#455A64"/>
<path id="Vector_31" d="M38.7013 164.02C39.1468 163.402 39.5007 162.723 39.7518 162.003C40.1014 161.328 40.3483 160.605 40.4846 159.857C40.0426 160.476 39.6911 161.155 39.4406 161.873C39.0905 162.549 38.8415 163.272 38.7013 164.02Z" fill="#455A64"/>
<path id="Vector_32" d="M42.7326 164.755C43.3291 164.284 43.8496 163.724 44.276 163.095C44.7999 162.539 45.2372 161.907 45.573 161.221C44.9792 161.698 44.4591 162.259 44.0296 162.888C43.5093 163.444 43.0725 164.073 42.7326 164.755Z" fill="#455A64"/>
<path id="Vector_33" d="M44.2462 168.034C44.9481 167.731 45.6032 167.329 46.1916 166.841C46.8409 166.442 47.4267 165.948 47.9296 165.375C47.2265 165.677 46.5711 166.079 45.9841 166.569C45.3338 166.966 44.7478 167.46 44.2462 168.034Z" fill="#455A64"/>
<path id="Vector_34" d="M45.757 170.661C46.5003 170.519 47.2191 170.27 47.8905 169.921C48.6054 169.677 49.2789 169.325 49.8878 168.877C49.145 169.017 48.4264 169.264 47.7543 169.61C47.0385 169.855 46.3647 170.21 45.757 170.661Z" fill="#455A64"/>
<path id="Vector_35" d="M46.5872 174.033C47.3334 174.156 48.0934 174.171 48.8439 174.078C49.5996 174.092 50.3532 173.996 51.0812 173.793C50.3359 173.661 49.575 173.644 48.8245 173.741C48.0682 173.723 47.3135 173.821 46.5872 174.033Z" fill="#455A64"/>
<path id="Vector_36" d="M45.8932 177.366C46.5988 177.675 47.3461 177.878 48.111 177.969C48.8571 178.169 49.628 178.26 50.4001 178.241C49.6933 177.93 48.9434 177.726 48.1759 177.638C47.4326 177.435 46.6634 177.343 45.8932 177.366Z" fill="#455A64"/>
<path id="Vector_37" d="M44.5443 179.532C45.1331 180.022 45.788 180.425 46.4898 180.732C47.1495 181.131 47.8638 181.433 48.6104 181.627C48.0229 181.135 47.3677 180.731 46.6649 180.427C46.0058 180.026 45.2913 179.725 44.5443 179.532Z" fill="#455A64"/>
<path id="Vector_38" d="M42.3913 180.854C43.0657 182.245 43.9396 183.53 44.9852 184.668C44.317 183.273 43.4426 181.988 42.3913 180.854Z" fill="#455A64"/>
<path id="Vector_39" d="M39.136 181.497C39.0891 182.267 39.1546 183.041 39.3306 183.792C39.3994 184.562 39.5785 185.318 39.8623 186.036C39.9132 185.266 39.8476 184.492 39.6678 183.741C39.599 182.971 39.4199 182.215 39.136 181.497Z" fill="#455A64"/>
<path id="Vector_40" d="M35.4915 181.503C35.2015 182.216 35.0159 182.968 34.9402 183.734C34.7563 184.485 34.6799 185.258 34.7133 186.03C35.1963 184.563 35.4586 183.034 35.4915 181.49V181.503Z" fill="#455A64"/>
<path id="Vector_41" d="M31.6396 180.394C31.2096 181.035 30.8774 181.737 30.6539 182.476C30.3353 183.177 30.117 183.919 30.0054 184.681C30.7657 183.342 31.3229 181.897 31.6591 180.394H31.6396Z" fill="#455A64"/>
<path id="Vector_42" d="M28.2415 178.403C27.6313 178.873 27.0956 179.433 26.6527 180.063C26.1309 180.624 25.6939 181.257 25.3557 181.944C25.964 181.472 26.4993 180.912 26.9445 180.284C27.4638 179.722 27.9005 179.088 28.2415 178.403Z" fill="#455A64"/>
<path id="Vector_43" d="M26.0819 175.835C24.6168 176.305 23.2291 176.989 21.964 177.865C22.7145 177.687 23.4337 177.396 24.0976 177.003C24.8128 176.713 25.4814 176.32 26.0819 175.835Z" fill="#455A64"/>
<path id="Vector_44" d="M24.5128 172.736C23.7464 172.845 22.9997 173.063 22.295 173.384C21.5513 173.59 20.843 173.907 20.1939 174.324C20.9608 174.217 21.7079 173.999 22.4117 173.676C23.1548 173.468 23.8629 173.151 24.5128 172.736Z" fill="#455A64"/>
<path id="Vector_45" d="M23.7605 169.733C22.9925 169.664 22.2184 169.712 21.4649 169.876C20.6937 169.928 19.9339 170.09 19.2081 170.356C20.745 170.365 22.2747 170.146 23.7475 169.707L23.7605 169.733Z" fill="#455A64"/>
<path id="Vector_46" d="M23.1119 166.394C22.3435 166.332 21.5703 166.383 20.8163 166.543C20.0472 166.595 19.2894 166.756 18.5661 167.023C19.3342 167.084 20.1071 167.036 20.8617 166.88C21.6319 166.832 22.3905 166.668 23.1119 166.394Z" fill="#455A64"/>
<path id="Vector_47" d="M23.0667 163.41C21.5445 163.185 19.9975 163.185 18.4754 163.41C19.9975 163.635 21.5445 163.635 23.0667 163.41Z" fill="#455A64"/>
<path id="Vector_48" d="M23.3781 159.85C21.8559 159.625 20.309 159.625 18.7868 159.85C20.309 160.075 21.8559 160.075 23.3781 159.85Z" fill="#455A64"/>
<path id="Vector_49" d="M23.9614 156.413C23.2364 156.149 22.4755 155.996 21.7047 155.959C20.9517 155.823 20.1831 155.795 19.422 155.875C20.1481 156.136 20.9084 156.289 21.6788 156.329C22.4318 156.465 23.2004 156.494 23.9614 156.413Z" fill="#455A64"/>
<path id="Vector_50" d="M25.0186 153.203C24.3186 152.882 23.576 152.664 22.8137 152.555C22.0747 152.336 21.3083 152.222 20.5375 152.218C21.2375 152.538 21.9801 152.757 22.7424 152.866C23.4806 153.089 24.2474 153.203 25.0186 153.203Z" fill="#455A64"/>
<path id="Vector_51" d="M26.3997 149.929C24.9619 149.381 23.4526 149.045 21.9186 148.93C23.3563 149.477 24.8656 149.813 26.3997 149.929Z" fill="#455A64"/>
<path id="Vector_52" d="M28.0598 146.861C27.3925 146.472 26.6714 146.183 25.9198 146.005C25.2049 145.716 24.4509 145.534 23.6826 145.467C24.3479 145.855 25.0668 146.144 25.816 146.323C26.5331 146.613 27.2893 146.794 28.0598 146.861Z" fill="#455A64"/>
<path id="Vector_53" d="M30.2711 143.599C29.6182 143.188 28.911 142.869 28.17 142.653C27.4678 142.332 26.7231 142.113 25.9587 142.004C27.3116 142.737 28.7644 143.268 30.2711 143.58V143.599Z" fill="#455A64"/>
<path id="Vector_54" d="M32.8911 139.987C32.2436 139.57 31.5377 139.251 30.7965 139.041C30.0924 138.719 29.3454 138.5 28.5787 138.392C29.2282 138.81 29.9363 139.129 30.6798 139.339C31.3818 139.661 32.1266 139.879 32.8911 139.987Z" fill="#455A64"/>
<path id="Vector_55" d="M35.7769 136.836C35.2162 136.311 34.5801 135.874 33.8898 135.539C33.2568 135.099 32.5647 134.752 31.8341 134.508C32.3948 135.032 33.0309 135.469 33.7212 135.805C34.3541 136.244 35.0463 136.591 35.7769 136.836Z" fill="#455A64"/>
<path id="Vector_56" d="M39.1361 133.321C37.9417 132.353 36.6138 131.562 35.1933 130.973C35.7547 131.494 36.388 131.931 37.0739 132.27C37.7046 132.722 38.3998 133.076 39.1361 133.321Z" fill="#455A64"/>
<path id="Vector_57" d="M42.3524 129.936C41.789 129.415 41.1535 128.978 40.4653 128.639C39.8342 128.197 39.1416 127.849 38.4097 127.608C38.973 128.129 39.6086 128.566 40.2967 128.905C40.9279 129.347 41.6205 129.695 42.3524 129.936Z" fill="#455A64"/>
<path id="Vector_58" d="M45.7634 126.434C45.2013 125.912 44.5655 125.475 43.8764 125.137C43.2423 124.696 42.5477 124.348 41.8142 124.106C42.3764 124.628 43.0121 125.065 43.7013 125.403C44.3353 125.844 45.0299 126.192 45.7634 126.434Z" fill="#455A64"/>
<path id="Vector_59" d="M48.6036 123.354C48.0396 122.834 47.4042 122.397 46.7166 122.057C46.0836 121.618 45.3914 121.271 44.6608 121.026C45.2183 121.551 45.8525 121.988 46.5415 122.323C47.1763 122.763 47.8707 123.11 48.6036 123.354Z" fill="#455A64"/>
<path id="Vector_60" d="M51.7036 119.664C50.5092 118.696 49.1813 117.905 47.7608 117.316C48.3222 117.837 48.9555 118.274 49.6414 118.613C50.2721 119.065 50.9673 119.419 51.7036 119.664Z" fill="#455A64"/>
<path id="Vector_61" d="M54.4014 116.318C53.8365 115.799 53.2012 115.362 52.5143 115.021C51.8802 114.579 51.1856 114.232 50.4521 113.99C51.017 114.508 51.6523 114.945 52.3392 115.286C52.9696 115.734 53.6651 116.082 54.4014 116.318Z" fill="#455A64"/>
<path id="Vector_62" d="M57.0991 112.933C56.5342 112.414 55.899 111.977 55.2121 111.636C54.5797 111.192 53.8847 110.844 53.1499 110.605C53.7148 111.124 54.35 111.56 55.0369 111.902C55.6673 112.349 56.3629 112.697 57.0991 112.933Z" fill="#455A64"/>
<path id="Vector_63" d="M87.1497 20.8221C87.3637 19.1879 88.5699 17.891 89.6334 16.6264C91.8359 13.9946 93.6166 11.0369 94.912 7.85894C95.7356 5.8227 96.423 3.61785 98.0442 2.13931C99.6654 0.660767 102.642 0.401382 103.822 2.24956L106.468 6.78894L99.9378 24.6482C99.1142 26.9049 97.9016 29.4988 95.5346 29.9139C93.1676 30.3289 91.1249 28.2472 89.5945 26.3666C88.2781 24.7584 86.8644 22.8843 87.1497 20.8221Z" fill="#263238"/>
<path id="Vector_64" d="M109.561 0.537464C111.789 -0.0666136 114.123 -0.162887 116.393 0.255761C118.662 0.67441 120.809 1.59729 122.674 2.9563C124.866 4.55157 125.423 5.67345 126.668 7.26872C127.945 8.82034 128.633 10.7719 128.614 12.7808C128.637 15.1913 128.053 17.5687 126.915 19.6937C125.721 21.8546 124.332 23.9015 122.764 25.8089C121.181 27.7213 119.101 29.1597 116.753 29.9656L111.098 27.0734C108.264 25.0955 105.392 23.0787 103.174 20.4264C100.956 17.7742 99.4256 14.3566 99.7563 10.9132C100.217 6.14036 104.866 1.68528 109.561 0.537464Z" fill="#263238"/>
<path id="Vector_65" d="M114.017 3.85099L122.68 6.21146L124.269 7.72242C128.16 10.686 127.635 17.0411 125.274 20.2382C122.68 23.7918 119.308 28.02 116.792 30.2053C111.734 34.5891 106.942 31.6644 106.942 31.6644L104.374 35.257L103.725 39.3619L94.6463 50.464L85.7686 45.1918L93.6088 26.9694L94.802 26.1783L96.6566 23.8308L110.923 4.30492C111.291 3.85887 111.811 3.56536 112.382 3.48146C112.954 3.39757 113.537 3.52928 114.017 3.85099Z" fill="#FFBF9D"/>
<path id="Vector_66" d="M109.866 23.0851C110.107 22.8452 110.428 22.7021 110.767 22.6831C111.079 22.6632 111.389 22.7464 111.649 22.9198C111.909 23.0932 112.105 23.3472 112.207 23.6428C112.299 23.9698 112.301 24.3153 112.215 24.6437C112.128 24.972 111.955 25.2712 111.714 25.5104C111.478 25.5836 111.229 25.6064 110.983 25.5774C110.737 25.5483 110.5 25.4681 110.287 25.3418L110.099 25.2057C109.789 24.9715 109.578 24.6288 109.509 24.2459C109.477 24.038 109.492 23.8255 109.554 23.6244C109.616 23.4233 109.722 23.2389 109.866 23.0851Z" fill="#FF9A6C"/>
<path id="Vector_67" d="M120.132 23.3057C119.993 23.4782 119.792 23.5887 119.572 23.613C119.352 23.6373 119.131 23.5735 118.958 23.4354C118.869 23.3729 118.794 23.2934 118.737 23.2014C118.68 23.1094 118.642 23.0069 118.625 22.8998C118.608 22.7928 118.612 22.6835 118.638 22.5784C118.664 22.4732 118.711 22.3743 118.776 22.2876C118.918 22.1176 119.12 22.009 119.34 21.9849C119.56 21.9607 119.781 22.0227 119.957 22.1579C120.045 22.2209 120.119 22.3008 120.176 22.3931C120.232 22.4853 120.27 22.5879 120.286 22.6949C120.302 22.8019 120.297 22.911 120.271 23.0159C120.244 23.1208 120.197 23.2194 120.132 23.3057Z" fill="#263238"/>
<path id="Vector_68" d="M122.751 21.1074C122.602 21.1074 122.414 20.3487 121.714 19.7586C121.014 19.1685 120.209 19.1101 120.209 18.948C120.209 18.7859 120.41 18.7923 120.774 18.8183C121.252 18.8618 121.705 19.052 122.071 19.363C122.433 19.6693 122.69 20.0824 122.803 20.5432C122.881 20.8869 122.823 21.1009 122.751 21.1074Z" fill="#263238"/>
<path id="Vector_69" d="M113.783 23.2991C114.245 23.4952 114.68 23.7479 115.08 24.0514C115.274 24.1811 115.475 24.2913 115.605 24.194C115.778 24.017 115.892 23.7902 115.929 23.5455C116.13 22.9684 116.331 22.3718 116.545 21.7428C117.44 19.1942 118.244 17.158 118.348 17.2034C118.452 17.2488 117.81 19.3369 116.915 21.8854C116.695 22.508 116.478 23.1046 116.267 23.6752C116.196 23.9834 116.022 24.2581 115.774 24.4534C115.694 24.4919 115.606 24.5119 115.518 24.5119C115.429 24.5119 115.341 24.4919 115.261 24.4534C115.138 24.3964 115.023 24.3246 114.918 24.2394C114.5 23.9768 114.119 23.6607 113.783 23.2991Z" fill="#263238"/>
<path id="Vector_70" d="M106.967 31.6648C104.555 29.699 102.736 27.1013 101.715 24.1619C101.715 24.1619 100.567 29.1876 106.034 32.9748L106.967 31.6648Z" fill="#FF9A6C"/>
<path id="Vector_71" d="M111.319 22.054C111.442 22.1448 110.806 22.9035 111.001 23.9995C111.195 25.0954 112.071 25.679 111.993 25.7893C111.915 25.8995 111.688 25.7893 111.345 25.5104C110.897 25.1408 110.593 24.6273 110.482 24.0578C110.381 23.5112 110.495 22.9468 110.8 22.482C111.033 22.1253 111.273 22.0086 111.319 22.054Z" fill="#263238"/>
<path id="Vector_72" d="M124.424 18.3968C124.159 18.4681 123.724 17.9039 123.056 17.4306C122.388 16.9572 121.759 16.6848 121.72 16.4189C121.72 16.2892 121.934 16.179 122.291 16.192C122.762 16.2275 123.215 16.3913 123.6 16.6656C123.986 16.94 124.289 17.3143 124.476 17.7483C124.587 18.0985 124.541 18.3319 124.424 18.3968Z" fill="#263238"/>
<path id="Vector_73" d="M112.473 16.9894C112.336 17.1631 112.272 17.383 112.294 17.603C112.316 17.823 112.422 18.0261 112.59 18.1696C112.67 18.2427 112.764 18.2988 112.866 18.3349C112.969 18.3709 113.077 18.386 113.185 18.3794C113.294 18.3727 113.399 18.3444 113.496 18.2961C113.594 18.2479 113.68 18.1806 113.751 18.0983C113.887 17.9256 113.951 17.7068 113.929 17.4879C113.907 17.2689 113.802 17.067 113.634 16.9246C113.554 16.8512 113.46 16.7945 113.358 16.758C113.256 16.7214 113.148 16.7057 113.04 16.7117C112.932 16.7178 112.826 16.7454 112.728 16.7931C112.631 16.8408 112.544 16.9076 112.473 16.9894Z" fill="#263238"/>
<path id="Vector_74" d="M113.108 13.4162C113.108 13.5718 113.926 13.5913 114.645 14.1554C115.365 14.7196 115.605 15.4524 115.754 15.4524C115.903 15.4524 115.858 15.219 115.754 14.8753C115.612 14.4166 115.331 14.0133 114.95 13.7209C114.579 13.4296 114.125 13.2638 113.653 13.2476C113.297 13.2476 113.102 13.3448 113.108 13.4162Z" fill="#263238"/>
<path id="Vector_75" d="M115.3 11.4127C115.3 11.6916 116.001 11.951 116.675 12.4633C117.349 12.9756 117.823 13.5332 118.089 13.4619C118.212 13.423 118.251 13.196 118.121 12.8459C117.932 12.3914 117.62 11.9985 117.22 11.711C116.83 11.4149 116.365 11.2351 115.877 11.1922C115.508 11.1793 115.3 11.2636 115.3 11.4127Z" fill="#263238"/>
<path id="Vector_76" d="M105.145 13.8575C105.463 13.4814 105.794 12.2298 105.45 11.8537C104.587 10.868 102.726 9.4413 100.593 11.9509C97.6681 15.3814 101.715 17.6057 101.805 17.5149C101.896 17.4241 104.056 15.1544 105.145 13.8575Z" fill="#FFBF9D"/>
<path id="Vector_77" d="M37.4945 158.149H43.8367V165.127H37.4945V158.149Z" fill="#263238"/>
<path id="Vector_78" d="M101.929 15.4593C101.929 15.4593 101.831 15.4593 101.689 15.4139C101.495 15.3511 101.333 15.2165 101.235 15.0378C101.134 14.7088 101.123 14.359 101.201 14.0241C101.28 13.6892 101.446 13.3811 101.682 13.1312C101.924 12.8298 102.229 12.5861 102.577 12.4179C102.701 12.3379 102.842 12.2891 102.989 12.2755C103.136 12.262 103.284 12.2841 103.42 12.3401C103.504 12.3817 103.571 12.4507 103.61 12.5357C103.649 12.6207 103.657 12.7164 103.634 12.807C103.595 12.9432 103.517 12.9886 103.53 13.0145C103.543 13.0404 103.654 13.0145 103.744 12.8524C103.799 12.7511 103.815 12.6338 103.79 12.5217C103.774 12.4464 103.744 12.375 103.7 12.3116C103.657 12.2482 103.601 12.1939 103.537 12.152C103.373 12.0594 103.187 12.0107 102.999 12.0107C102.81 12.0107 102.625 12.0594 102.46 12.152C102.061 12.325 101.71 12.592 101.436 12.9302C100.872 13.6435 100.671 14.5903 101.047 15.1545C101.117 15.264 101.213 15.3552 101.326 15.4206C101.438 15.486 101.565 15.5237 101.695 15.5306C101.851 15.5371 101.935 15.4787 101.929 15.4593Z" fill="#FF9A6C"/>
<path id="Vector_79" d="M105.294 11.7626L105.495 13.3968C112.285 12.5862 127.103 8.92225 126.247 9.16219C124.951 7.13635 123.167 5.46844 121.059 4.31154C117.752 2.61251 111.085 -0.104629 108.569 3.42312C106.053 6.95087 105.294 11.7626 105.294 11.7626Z" fill="#263238"/>
<path id="Vector_80" opacity="0.3" d="M1.5954 133.794H42.1256V137.484H1.5954V133.794Z" fill="black"/>
<path id="Vector_81" d="M1.5954 133.794H42.1256V165.116H1.5954V133.794Z" fill="#E0E0E0"/>
<path id="Vector_82" opacity="0.3" d="M1.5954 133.794H42.1256V137.484H1.5954V133.794Z" fill="black"/>
<path id="Vector_83" d="M4.29302 117.498V114.327C4.29302 113.767 4.40323 113.213 4.61734 112.697C4.83145 112.18 5.14528 111.71 5.54091 111.314C5.93653 110.919 6.40622 110.605 6.92313 110.391C7.44004 110.177 7.99406 110.066 8.55356 110.066H31.9314C31.9314 110.066 40.0504 119.015 40.1866 119.703C40.3227 120.39 43.63 133.827 43.63 133.827H6.26102e-05V123.568C0.000219813 122.589 0.240269 121.625 0.699248 120.76C1.15823 119.895 1.82215 119.156 2.6329 118.607L4.29302 117.498ZM7.69107 115.883H18.4559L22.3144 112.459H9.85702C9.27622 112.461 8.71968 112.693 8.30899 113.103C7.89831 113.514 7.66685 114.07 7.66514 114.651L7.69107 115.883Z" fill="#407BFF"/>
<path id="Vector_84" d="M32.5474 174.746C32.5487 175.528 32.7818 176.292 33.2172 176.942C33.6526 177.592 34.2709 178.098 34.9938 178.396C35.7167 178.694 36.5119 178.772 37.2788 178.618C38.0457 178.465 38.75 178.088 39.3025 177.534C39.8551 176.981 40.2312 176.276 40.3833 175.509C40.5354 174.742 40.4567 173.947 40.1571 173.224C39.8575 172.502 39.3505 171.884 38.7001 171.45C38.0498 171.016 37.2852 170.784 36.5031 170.784C35.9831 170.784 35.4682 170.886 34.9878 171.085C34.5075 171.285 34.0711 171.577 33.7037 171.945C33.3363 172.313 33.045 172.749 32.8466 173.23C32.6482 173.711 32.5465 174.226 32.5474 174.746Z" fill="#263238"/>
<path id="Vector_85" d="M4.72103 174.746C4.72103 175.53 4.9536 176.296 5.38926 176.948C5.82492 177.6 6.44413 178.107 7.16851 178.407C7.8929 178.707 8.68989 178.785 9.45867 178.632C10.2274 178.478 10.9334 178.1 11.4873 177.545C12.0411 176.991 12.418 176.284 12.5702 175.515C12.7223 174.746 12.6429 173.949 12.3421 173.225C12.0412 172.501 11.5323 171.883 10.8798 171.448C10.2274 171.014 9.46073 170.782 8.6768 170.784C8.15678 170.784 7.64187 170.886 7.16151 171.085C6.68115 171.285 6.24478 171.577 5.87737 171.945C5.50996 172.313 5.21871 172.749 5.02029 173.23C4.82188 173.711 4.72017 174.226 4.72103 174.746Z" fill="#263238"/>
<path id="Vector_86" d="M0.259468 165.116H43.63V171.516H0.259468V165.116Z" fill="#407BFF"/>
<path id="Vector_87" d="M60.5554 70.3467C59.9069 71.1832 54.2716 82.3307 55.3221 88.582C56.3727 94.8334 63.8497 101.701 66.5863 107.135C69.1802 112.362 81.0669 128.055 81.5014 133.95C81.9359 139.845 87.1497 157.432 91.5464 169.779L92.6488 172.762L103.479 171.244C103.479 171.244 98.8743 154.293 97.4087 147.38C95.9431 140.467 97.3114 139.203 96.1507 133.95C94.9899 128.697 91.0341 115.021 91.0341 115.021L81.3069 85.6055L82.4871 75.554L60.5554 70.3467Z" fill="#263238"/>
<path id="Vector_88" d="M57.9483 72.2207C57.9483 72.2207 52.112 79.1011 51.9823 87.2007C51.8526 95.3002 54.9459 97.343 55.1923 103.782C55.4387 110.222 58.2661 117.913 57.3193 125.448C56.3726 132.984 52.1315 134.527 51.9758 143.658C51.8202 152.788 54.0769 170.79 54.0769 170.79L63.5448 170.563C63.5448 170.563 65.6005 148.923 65.4448 146.881C65.2892 144.838 65.9247 142.069 68.2787 135.947C70.6327 129.825 71.9232 128.243 71.7675 120.552C71.6119 112.861 68.9401 80.651 68.9401 80.651L67.6821 72.2207H57.9483Z" fill="#263238"/>
<path id="Vector_89" d="M69.0376 114.236C68.9969 114.105 68.9426 113.979 68.8755 113.86C68.7393 113.588 68.5707 113.211 68.3502 112.809C67.8833 111.895 67.1959 110.585 66.2945 108.996C65.3931 107.407 64.2842 105.527 62.9289 103.517C61.5736 101.506 59.7708 99.5284 58.2922 97.1809C56.8318 95.0182 55.6937 92.6546 54.9136 90.1643C54.3445 88.1147 54.1252 85.9837 54.2651 83.8611C54.3365 82.4268 54.6638 81.0169 55.2314 79.6978C55.6658 78.7834 56.042 78.3489 56.0095 78.323C55.6512 78.7106 55.3498 79.1473 55.1146 79.62C54.4919 80.9402 54.1224 82.3656 54.0252 83.8221C53.8507 85.9759 54.0504 88.1435 54.6153 90.2291C55.382 92.7634 56.5253 95.1681 58.0069 97.3625C59.5049 99.7424 61.3531 101.681 62.6695 103.692C63.9859 105.702 65.1532 107.544 66.087 109.113C67.0208 110.682 67.7342 111.979 68.2335 112.868L68.8171 113.892C68.879 114.014 68.9528 114.129 69.0376 114.236Z" fill="#455A64"/>
<path id="Vector_90" d="M63.707 163.08L63.2336 173.002C63.2336 173.002 73.0063 176.828 73.097 178.669L54.1094 178.423L54.2262 162.931L63.707 163.08Z" fill="#263238"/>
<path id="Vector_91" d="M57.3711 172.087C57.1865 172.142 57.0287 172.263 56.928 172.427C56.8274 172.591 56.7912 172.786 56.8264 172.976C56.8698 173.162 56.9841 173.325 57.1449 173.429C57.3058 173.533 57.5009 173.57 57.6889 173.533C57.8849 173.474 58.0522 173.345 58.1587 173.17C58.2652 172.996 58.3035 172.788 58.266 172.587C58.1982 172.397 58.0597 172.241 57.8796 172.152C57.6994 172.063 57.4916 172.046 57.2997 172.107" fill="#E0E0E0"/>
<path id="Vector_92" d="M54.1094 178.423L54.1808 176.86L72.3383 177.684C72.3383 177.684 73.1813 178.066 73.0776 178.669L54.1094 178.423Z" fill="#455A64"/>
<path id="Vector_93" d="M63.519 172.911C63.519 173.002 63.0521 173.041 62.5917 173.339C62.1312 173.637 61.8848 174.026 61.8005 173.987C61.7162 173.948 61.8589 173.404 62.449 173.06C63.0391 172.716 63.5644 172.82 63.519 172.911Z" fill="white"/>
<path id="Vector_94" d="M65.5227 173.773C65.5227 173.864 65.1401 174.02 64.8158 174.422C64.4916 174.824 64.4008 175.239 64.31 175.232C64.2192 175.226 64.1674 174.694 64.5759 174.214C64.9844 173.734 65.5227 173.682 65.5227 173.773Z" fill="white"/>
<path id="Vector_95" d="M66.6253 176.205C66.541 176.205 66.4178 175.751 66.6578 175.239C66.8977 174.727 67.3062 174.526 67.3776 174.59C67.4489 174.655 67.1441 174.941 66.9496 175.362C66.755 175.784 66.7161 176.199 66.6253 176.205Z" fill="white"/>
<path id="Vector_96" d="M99.6395 162.639L102.752 172.781C102.752 172.781 112.92 176.756 113.011 178.676L93.2714 178.416V173.806L90.7812 164.078L99.6395 162.639Z" fill="#263238"/>
<path id="Vector_97" d="M93.2715 178.417V176.88L112.24 177.645C112.24 177.645 113.115 178.047 113.005 178.676L93.2715 178.417Z" fill="#455A64"/>
<path id="Vector_98" d="M102.817 172.846C102.817 172.943 102.331 172.982 101.857 173.287C101.384 173.592 101.118 174.007 101.027 173.935C100.936 173.864 101.092 173.326 101.676 172.963C102.259 172.6 102.843 172.736 102.817 172.846Z" fill="white"/>
<path id="Vector_99" d="M105.061 173.767C105.061 173.858 104.665 174.02 104.334 174.415C104.004 174.811 103.9 175.265 103.803 175.258C103.705 175.252 103.654 174.701 104.075 174.195C104.497 173.689 105.061 173.67 105.061 173.767Z" fill="white"/>
<path id="Vector_100" d="M106.319 176.341C106.235 176.341 106.105 175.868 106.358 175.336C106.611 174.804 107.071 174.597 107.11 174.688C107.149 174.778 106.864 175.057 106.663 175.492C106.462 175.926 106.429 176.328 106.319 176.341Z" fill="white"/>
<path id="Vector_101" d="M54.7775 100.696C54.7639 100.938 54.7747 101.182 54.8099 101.422C54.8553 101.889 54.9331 102.557 55.0368 103.368C55.2508 105.021 55.5945 107.291 56.0031 109.794L57.0342 116.214L57.3649 118.159C57.3948 118.4 57.4491 118.637 57.527 118.866C57.5597 118.625 57.5597 118.381 57.527 118.14C57.4881 117.673 57.4103 117.005 57.3065 116.195C57.0925 114.541 56.7488 112.271 56.3403 109.768C55.9317 107.265 55.5556 105.08 55.2703 103.361L54.9396 101.416C54.9188 101.169 54.8642 100.927 54.7775 100.696Z" fill="#455A64"/>
<path id="Vector_102" d="M94.2441 24.9463C94.2441 24.9463 86.793 25.0954 81.5728 30.3092C76.3525 35.523 63.8238 56.0929 63.6098 59.2251C63.4751 61.06 63.4751 62.9023 63.6098 64.7372L56.5348 72.2207C56.5348 72.2207 61.6059 75.1908 67.2672 75.1908C72.9285 75.1908 83.81 72.2207 83.81 72.2207L86.793 65.9499L101.546 55.2175C101.546 55.2175 106.319 41.6577 104.678 37.06C103.038 32.4622 94.2441 24.9463 94.2441 24.9463Z" fill="#455A64"/>
<path id="Vector_103" d="M94.2442 24.9462L96.6566 23.8438L104.276 33.7137L104.147 37.5332L94.2442 24.9462Z" fill="#455A64"/>
<path id="Vector_104" d="M95.0224 24.3564C95.2141 24.8997 95.4664 25.4196 95.7746 25.9063C96.4547 27.1156 97.1971 28.2888 97.9989 29.4211C98.8071 30.5583 99.6729 31.6535 100.593 32.7024C100.942 33.1628 101.34 33.5846 101.78 33.9605C101.481 33.4693 101.14 33.005 100.761 32.5727C100.113 31.7362 99.2245 30.5754 98.2907 29.2525C97.3569 27.9296 96.5657 26.7104 95.9951 25.8155C95.7078 25.3055 95.3826 24.8178 95.0224 24.3564Z" fill="#263238"/>
<path id="Vector_105" d="M87.7658 70.3466C87.9734 71.1832 84.3743 84.4317 84.3743 84.4317L95.3012 129.826C95.3012 129.826 89.2314 135.474 73.7391 133.593C73.7391 133.593 64.1092 95.9099 63.6941 86.2539C63.2791 76.598 64.5307 70.3466 64.5307 70.3466L67.0403 65.0874C67.0403 65.0874 79.8089 65.0874 85.8787 62.7853C91.9485 60.4832 98.1999 55.2499 98.1999 55.2499L104.51 40.4451L104.763 42.7666L104.276 53.8362L87.7658 70.3466Z" fill="#407BFF"/>
<path id="Vector_106" d="M67.0403 65.1137L63.6098 64.7375L61.8719 66.5728L64.9911 70.3469L67.0403 65.1137Z" fill="#407BFF"/>
<path id="Vector_107" d="M63.3699 66.3391C63.3699 66.3391 63.3699 66.2418 63.3115 66.0602C63.2435 65.7987 63.1612 65.5411 63.0651 65.2885C62.7257 64.3537 62.2911 63.4562 61.7681 62.6103C60.9767 61.3566 60.0067 60.225 58.8889 59.2511C58.2305 58.6731 57.5207 58.1565 56.7683 57.7077C56.3722 57.4441 55.9334 57.2511 55.4714 57.1371C55.2142 57.0798 54.9471 57.0835 54.6916 57.1476C54.436 57.2118 54.199 57.3348 53.9993 57.5067C53.815 57.7025 53.6884 57.9454 53.6335 58.2086C53.5786 58.4718 53.5975 58.7451 53.6881 58.9982C53.856 59.454 54.1241 59.8662 54.4727 60.2044C55.077 60.8334 55.7134 61.4308 56.3792 61.9942C57.5084 62.9503 58.7242 63.7991 60.0108 64.5298C60.8736 65.0214 61.7683 65.4546 62.689 65.8268C63.0132 65.9629 63.2726 66.0537 63.4477 66.1121C63.5381 66.1449 63.6315 66.1688 63.7266 66.1834C63.4074 66.0068 63.0782 65.8488 62.7409 65.71C61.8536 65.2934 60.9878 64.8324 60.1469 64.3288C58.8954 63.578 57.7108 62.721 56.6062 61.7673C55.9535 61.2053 55.3301 60.6101 54.7386 59.9839C54.422 59.6853 54.1799 59.3166 54.0317 58.9074C53.9594 58.7143 53.9418 58.505 53.9807 58.3026C54.0196 58.1001 54.1135 57.9122 54.2522 57.7596C54.4132 57.6258 54.6027 57.5306 54.8061 57.4811C55.0095 57.4317 55.2215 57.4294 55.426 57.4743C55.8549 57.5797 56.2628 57.7573 56.6322 57.9996C57.3694 58.4363 58.068 58.9353 58.7202 59.4911C60.5779 61.079 62.0409 63.077 62.9938 65.3274C63.2207 65.9759 63.344 66.3455 63.3699 66.3391Z" fill="#407BFF"/>
<path id="Vector_108" d="M63.1493 66.5401C63.1493 66.5401 63.2271 66.4494 63.3438 66.2613C63.4606 66.0732 63.6227 65.7944 63.8173 65.4248C64.3752 64.3776 64.8627 63.2944 65.2763 62.1823C65.8899 60.534 66.348 58.8319 66.6446 57.0982C66.8234 56.0618 66.8234 55.0025 66.6446 53.9661C66.5465 53.4079 66.3488 52.8719 66.061 52.3838C65.76 51.8551 65.279 51.4524 64.7057 51.2489C64.4036 51.1651 64.0842 51.1668 63.7831 51.2538C63.482 51.3408 63.2109 51.5097 63.0002 51.7418C62.6206 52.1712 62.3434 52.6812 62.1896 53.2333C61.9199 54.2416 61.744 55.2728 61.6643 56.3136C61.5214 58.0704 61.6261 59.8386 61.9755 61.5663C62.2119 62.729 62.5638 63.8651 63.0261 64.9578C63.1882 65.3405 63.3309 65.6063 63.4346 65.8268C63.5384 66.0473 63.5903 66.1251 63.6032 66.1186C63.6162 66.1122 63.4346 65.6906 63.1428 64.906C62.7369 63.8059 62.4245 62.6735 62.209 61.5209C61.8986 59.8099 61.8201 58.065 61.9755 56.333C62.0623 55.3187 62.2381 54.314 62.5008 53.3305C62.6418 52.8268 62.8945 52.3614 63.2401 51.9687C63.4087 51.7818 63.6259 51.6452 63.8674 51.5743C64.1089 51.5033 64.3654 51.5007 64.6084 51.5667C65.1028 51.7451 65.5169 52.0948 65.7756 52.5524C66.0433 53.0068 66.2278 53.5053 66.3204 54.0244C66.4923 55.0244 66.4923 56.0464 66.3204 57.0464C66.0393 58.7634 65.6053 60.4519 65.0234 62.0916C64.6325 63.1959 64.1823 64.2783 63.6746 65.334C63.3438 66.1186 63.1298 66.5272 63.1493 66.5401Z" fill="#407BFF"/>
<path id="Vector_109" d="M74.6858 69.3027C76.8329 69.6718 78.9973 69.9315 81.1707 70.0809C83.3407 70.3395 85.5224 70.4888 87.7074 70.5284C83.3871 69.8914 79.0362 69.4823 74.6729 69.3027H74.6858Z" fill="#263238"/>
<path id="Vector_110" d="M0.402005 133.827C0.402005 133.918 10.045 133.995 21.9317 133.995C33.8184 133.995 43.4678 133.918 43.4678 133.827C43.4678 133.736 33.8248 133.658 21.9317 133.658C10.0385 133.658 0.402005 133.697 0.402005 133.827Z" fill="#263238"/>
<path id="Vector_111" d="M7.36672 115.883C7.36672 115.974 12.5546 116.052 18.9681 116.052C25.3816 116.052 30.563 115.974 30.563 115.883C30.563 115.792 25.3751 115.715 18.9681 115.715C12.5611 115.715 7.36672 115.792 7.36672 115.883Z" fill="#263238"/>
<path id="Vector_112" opacity="0.3" d="M40.1864 119.703C40.1864 119.703 14.0202 130.844 14.3963 130.844H43.2019L40.1864 119.703Z" fill="black"/>
<path id="Vector_113" d="M105.599 51.9495C105.709 51.9819 107.661 72.2016 107.661 72.2016L113.919 90.2294L109.004 96.6365C109.004 96.6365 100.197 80.4244 99.0818 74.2962C97.9664 68.1681 93.6475 50.0559 93.6475 50.0559L100.055 46.2817L105.599 51.9495Z" fill="#FFBF9D"/>
<path id="Vector_114" d="M98.8678 33.3895C99.4515 33.4803 104.231 34.881 105.022 38.5774C105.813 42.2737 106.604 52.2863 106.604 52.2863C106.604 52.2863 94.6916 50.7235 93.6346 51.8389C92.5776 52.9543 91.5464 40.4839 91.5464 40.4839C91.5464 40.4839 94.8213 32.767 98.8678 33.3895Z" fill="#455A64"/>
<path id="Vector_115" d="M113.919 88.1152C113.919 88.7118 122.116 108.264 122.265 109.904C122.414 111.545 125.845 116.759 124.353 118.25C122.862 119.742 120.216 112.732 120.216 112.732C120.216 112.732 119.567 114.82 117.622 114.372C115.677 113.925 116.28 112.583 116.28 112.583C115.009 111.956 113.833 111.155 112.784 110.203C111.208 108.711 110.936 102.784 110.936 101.934C110.936 101.085 106.085 92.0126 106.085 92.0126C109.847 92.473 111.468 91.5457 113.919 88.1152Z" fill="#455A64"/>
<path id="Vector_116" d="M117.414 109.288C117.363 109.288 117.337 109.528 117.311 109.891C117.291 110.359 117.215 110.823 117.084 111.272C116.944 111.704 116.678 112.084 116.319 112.362C116.033 112.563 115.806 112.615 115.819 112.667C115.832 112.719 116.079 112.744 116.468 112.563C116.927 112.305 117.272 111.884 117.434 111.383C117.582 110.9 117.63 110.393 117.577 109.891C117.512 109.515 117.46 109.288 117.414 109.288Z" fill="#263238"/>
<path id="Vector_117" d="M113.783 109.437C113.738 109.437 113.718 109.535 113.731 109.664C113.738 109.737 113.753 109.809 113.776 109.878V109.995C113.776 110.073 113.776 110.027 113.776 109.995L113.679 110.066C113.617 110.104 113.56 110.149 113.511 110.203C113.42 110.3 113.381 110.378 113.407 110.41C113.433 110.443 113.517 110.443 113.634 110.41L113.828 110.332L113.952 110.28C113.99 110.241 114.055 110.241 114.12 110.099C114.15 110.022 114.15 109.936 114.12 109.859L114.062 109.742C114.033 109.679 113.998 109.618 113.958 109.561C113.887 109.483 113.828 109.424 113.783 109.437Z" fill="#263238"/>
<path id="Vector_118" d="M90.5283 35.2961C91.0315 34.6947 91.604 34.1549 92.2338 33.6878C93.8065 32.6318 95.7161 32.1995 97.5903 32.4752C99.4576 32.8038 101.19 33.6665 102.577 34.9588C103.654 35.9445 104.166 36.7097 104.211 36.6708C104.132 36.47 104.021 36.2838 103.881 36.1196C103.544 35.6403 103.162 35.195 102.739 34.7902C101.358 33.3976 99.5758 32.4724 97.6422 32.1444C95.6866 31.8502 93.6936 32.3345 92.0911 33.4933C91.6143 33.8394 91.1961 34.2597 90.8526 34.7384C90.7172 34.907 90.608 35.095 90.5283 35.2961Z" fill="#263238"/>
<path id="Vector_119" d="M91.4038 42.3906C91.2989 42.7946 91.2617 43.2131 91.2936 43.6292C91.2897 44.6302 91.3656 45.6298 91.5205 46.6187C91.6718 47.6088 91.9038 48.5847 92.2144 49.5369C92.3153 49.9416 92.4771 50.3286 92.6943 50.6847C92.7916 50.6458 92.2014 48.856 91.8513 46.5669C91.5011 44.2777 91.4881 42.3906 91.4038 42.3906Z" fill="#263238"/>
<path id="Vector_120" d="M87.2211 73.3492C87.2211 73.3492 94.2766 84.743 95.2428 86.2475C96.2091 87.752 97.1883 90.0022 95.2428 90.4432C93.2974 90.8842 93.2974 88.9387 92.4479 87.2008C91.5983 85.4629 88.946 85.8065 87.4675 84.1918C86.5656 83.1996 85.7742 82.1125 85.107 80.9494C85.107 80.9494 87.2989 72.8693 87.2211 73.3492Z" fill="#455A64"/>
</g>
</svg>
