<svg width="202" height="266" viewBox="0 0 202 266" fill="none" xmlns="http://www.w3.org/2000/svg">
<path d="M167.007 252.699L112.287 195.22C93.4318 175.408 74.2613 155.846 55.7121 135.776C45.4359 124.708 30.0679 121.849 17.0185 130.242C10.6654 134.3 4.45152 138.607 -1.82737 142.785C-5.53721 145.266 -9.04304 139.271 -5.34248 136.809C0.778747 132.732 6.87214 128.618 13.0212 124.588C18.2632 121.092 24.3264 119.007 30.6199 118.535C36.9134 118.063 43.2225 119.221 48.9324 121.895C58.1606 126.267 65.6266 136.209 72.6197 143.523C98.3473 170.578 124.072 197.599 149.793 224.587L171.95 247.857C175.03 251.085 170.096 255.983 167.035 252.745L167.007 252.699Z" fill="#263238"/>
<path d="M47.7914 129.264C48.735 128.427 49.5727 127.48 50.2862 126.442C51.1277 125.499 51.8418 124.451 52.4102 123.324C50.6179 125.101 49.0597 127.097 47.7729 129.264H47.7914Z" fill="#455A64"/>
<path d="M54.1818 134.596C55.1381 133.769 55.9801 132.82 56.6859 131.773C57.5191 130.83 58.2296 129.785 58.8005 128.665C57.8499 129.497 57.0085 130.446 56.2964 131.487C55.4602 132.429 54.7494 133.473 54.1818 134.596Z" fill="#455A64"/>
<path d="M59.6537 140.129C60.7737 139.543 61.812 138.815 62.7422 137.962C63.775 137.235 64.71 136.379 65.5245 135.416C63.3769 136.736 61.4046 138.32 59.6537 140.129Z" fill="#455A64"/>
<path d="M65.8491 146.632C66.9228 145.968 67.9102 145.175 68.7891 144.271C69.773 143.48 70.6491 142.565 71.3953 141.55C69.3312 143.002 67.4613 144.71 65.8305 146.632H65.8491Z" fill="#455A64"/>
<path d="M71.4138 152.885C72.4938 152.23 73.4823 151.436 74.3538 150.524C75.3361 149.728 76.2147 148.814 76.9692 147.803C75.8889 148.461 74.9004 149.258 74.0292 150.173C73.0476 150.966 72.169 151.876 71.4138 152.885Z" fill="#455A64"/>
<path d="M77.3032 158.641C78.3783 157.975 79.366 157.179 80.2432 156.27C81.2271 155.48 82.1032 154.565 82.8494 153.549C81.7728 154.213 80.7849 155.009 79.9093 155.92C78.9304 156.716 78.0549 157.63 77.3032 158.641Z" fill="#455A64"/>
<path d="M82.4044 164.211C83.4795 163.545 84.4671 162.749 85.3444 161.841C86.3268 161.052 87.2027 160.14 87.9506 159.129C86.8754 159.791 85.8878 160.584 85.0105 161.49C84.0288 162.283 83.1529 163.197 82.4044 164.211Z" fill="#455A64"/>
<path d="M88.3214 170.373C89.3965 169.707 90.3841 168.911 91.2614 168.002C92.2483 167.198 93.1245 166.267 93.8676 165.235C92.7963 165.906 91.8093 166.702 90.9275 167.606C89.9397 168.41 89.0634 169.34 88.3214 170.373Z" fill="#455A64"/>
<path d="M94.2387 176.534C95.3139 175.868 96.3015 175.072 97.1788 174.163C98.1598 173.37 99.0355 172.455 99.7849 171.442C98.7083 172.106 97.7205 172.903 96.8449 173.813C95.8602 174.602 94.9839 175.517 94.2387 176.534Z" fill="#455A64"/>
<path d="M100.165 182.686C101.245 182.026 102.236 181.232 103.114 180.324C104.093 179.528 104.968 178.614 105.721 177.604C104.642 178.265 103.654 179.061 102.781 179.974C101.796 180.764 100.918 181.675 100.165 182.686Z" fill="#455A64"/>
<path d="M106.064 188.847C107.143 188.186 108.131 187.389 109.004 186.476C109.982 185.68 110.86 184.77 111.619 183.765C110.54 184.421 109.552 185.215 108.679 186.126C107.696 186.92 106.817 187.834 106.064 188.847Z" fill="#455A64"/>
<path d="M111.981 195.007C114.045 193.551 115.915 191.84 117.546 189.916C116.463 190.576 115.472 191.372 114.596 192.286C113.614 193.082 112.736 193.996 111.981 195.007Z" fill="#455A64"/>
<path d="M117.898 201.159C118.972 200.495 119.959 199.702 120.838 198.798C121.822 198.007 122.698 197.093 123.444 196.077C122.368 196.741 121.38 197.537 120.504 198.448C119.527 199.242 118.652 200.152 117.898 201.159Z" fill="#455A64"/>
<path d="M123.815 207.321C124.89 206.655 125.878 205.859 126.755 204.95C127.74 204.164 128.616 203.253 129.361 202.239C127.297 203.691 125.427 205.399 123.797 207.321H123.815Z" fill="#455A64"/>
<path d="M129.732 213.482C130.789 212.824 131.761 212.041 132.626 211.148C133.606 210.357 134.482 209.446 135.232 208.437C134.157 209.099 133.17 209.892 132.292 210.798C131.326 211.579 130.466 212.481 129.732 213.482Z" fill="#455A64"/>
<path d="M135.65 219.643C136.725 218.977 137.712 218.181 138.59 217.273C139.574 216.482 140.45 215.567 141.196 214.552C140.119 215.215 139.131 216.012 138.256 216.922C137.271 217.712 136.395 218.627 135.65 219.643Z" fill="#455A64"/>
<path d="M141.558 225.794C142.637 225.135 143.628 224.341 144.507 223.433C145.485 222.637 146.361 221.723 147.113 220.712C145.052 222.169 143.183 223.876 141.548 225.794H141.558Z" fill="#455A64"/>
<path d="M147.465 231.956C148.544 231.296 149.533 230.499 150.405 229.586C151.386 228.792 152.265 227.882 153.021 226.874C151.942 227.531 150.954 228.325 150.081 229.235C149.098 230.029 148.219 230.944 147.465 231.956Z" fill="#455A64"/>
<path d="M153.392 238.117C154.471 237.457 155.459 236.66 156.332 235.747C157.314 234.952 158.193 234.038 158.948 233.026C157.87 233.688 156.882 234.485 156.007 235.396C155.024 236.191 154.146 237.105 153.392 238.117Z" fill="#455A64"/>
<path d="M159.309 244.278C161.373 242.822 163.243 241.111 164.874 239.187C163.791 239.847 162.8 240.643 161.924 241.557C160.942 242.353 160.064 243.267 159.309 244.278Z" fill="#455A64"/>
<path d="M40.9007 126.35C41.0398 126.35 41.5221 124.837 42.431 123.085C43.3399 121.332 44.2859 120.032 44.2117 119.939C43.2524 120.725 42.4957 121.728 42.0044 122.863C41.366 123.923 40.9879 125.117 40.9007 126.35Z" fill="#455A64"/>
<path d="M33.824 118.5C33.0387 120.77 33.1854 123.256 34.232 125.418C34.3619 125.418 33.926 123.878 33.824 121.978C33.7219 120.078 33.9631 118.528 33.824 118.5Z" fill="#455A64"/>
<path d="M145.444 247.792H201.861V254.497H145.444V247.792Z" fill="#263238"/>
<path d="M145.277 247.793C145.277 247.922 157.983 248.032 173.638 248.032C189.294 248.032 202 247.922 202 247.793C202 247.663 189.303 247.553 173.638 247.553C157.974 247.553 145.277 247.654 145.277 247.793Z" fill="#455A64"/>
<path d="M162.955 254.718C163.276 252.461 163.276 250.169 162.955 247.912C162.634 250.169 162.634 252.461 162.955 254.718Z" fill="#455A64"/>
<path d="M34.7236 30.1323C35.0296 27.8081 36.7547 25.9634 38.2758 24.1649C41.4258 20.4217 43.9725 16.215 45.8252 11.695C47.0031 8.79892 47.9862 5.663 50.3049 3.56009C52.6235 1.45719 56.8806 1.08827 58.5686 3.7169L62.3525 10.1732L53.013 35.5741C51.8352 38.7838 50.1008 42.4731 46.7156 43.0634C43.3304 43.6536 40.4089 40.693 38.2201 38.0182C36.3374 35.7309 34.3155 33.0653 34.7236 30.1323Z" fill="#263238"/>
<path d="M66.7767 1.282C69.9621 0.422835 73.3009 0.285907 76.5467 0.881343C79.7924 1.47678 82.8623 2.78938 85.5299 4.72228C88.6647 6.9912 89.4623 8.58682 91.243 10.8557C93.0682 13.0626 94.0533 15.8383 94.0254 18.6955C94.059 22.1238 93.2233 25.5053 91.5955 28.5275C89.8882 31.601 87.9013 34.5123 85.6597 37.2251C83.3956 39.9451 80.4205 41.9909 77.0622 43.1372L68.9747 39.0236C64.9217 36.2105 60.8131 33.3421 57.6412 29.5698C54.4693 25.7975 52.2805 20.9368 52.7535 16.0392C53.412 9.25091 60.0619 2.91452 66.7767 1.282Z" fill="#263238"/>
<path d="M73.1483 5.99523L85.5392 9.3525L87.8114 11.5015C93.3762 15.7165 92.6249 24.7554 89.249 29.3024C85.5392 34.3568 80.7164 40.3704 77.1179 43.4786C69.8837 49.7135 63.0298 45.5538 63.0298 45.5538L59.357 50.6635L58.4296 56.5019L45.4451 72.2921L32.7482 64.7936L43.9612 38.8762L45.6677 37.7509L48.3202 34.4121L68.7243 6.64086C69.2497 6.00645 69.9935 5.58899 70.8112 5.46967C71.6288 5.35034 72.4618 5.53768 73.1483 5.99523Z" fill="#FFBF9D"/>
<path d="M67.2126 33.3513C67.5573 33.01 68.0161 32.8066 68.5018 32.7795C68.9479 32.7513 69.3911 32.8696 69.7631 33.1162C70.1351 33.3628 70.4153 33.7241 70.5607 34.1445C70.6918 34.6096 70.6955 35.101 70.5716 35.568C70.4477 36.035 70.2006 36.4606 69.8559 36.8008C69.5178 36.9049 69.1615 36.9373 68.8101 36.896C68.4587 36.8547 68.1198 36.7406 67.8154 36.561L67.5465 36.3673C67.1023 36.0343 66.8008 35.5468 66.7025 35.0023C66.6561 34.7067 66.678 34.4044 66.7663 34.1184C66.8547 33.8324 67.0073 33.5701 67.2126 33.3513Z" fill="#FF9A6C"/>
<path d="M81.8942 33.6652C81.6959 33.9106 81.4079 34.0677 81.0932 34.1023C80.7786 34.1369 80.463 34.046 80.2155 33.8497C80.089 33.7608 79.9816 33.6476 79.8997 33.5168C79.8179 33.386 79.7633 33.2401 79.7391 33.088C79.7149 32.9358 79.7215 32.7803 79.7588 32.6307C79.796 32.4812 79.8631 32.3405 79.9559 32.2172C80.1586 31.9753 80.4477 31.821 80.7625 31.7866C81.0772 31.7522 81.3931 31.8404 81.6439 32.0327C81.7697 32.1223 81.8763 32.236 81.9572 32.3671C82.0382 32.4983 82.092 32.6443 82.1153 32.7964C82.1386 32.9486 82.1311 33.1038 82.0931 33.2531C82.0551 33.4023 81.9875 33.5424 81.8942 33.6652Z" fill="#263238"/>
<path d="M85.6411 30.5385C85.4278 30.5385 85.1588 29.4594 84.1571 28.6201C83.1555 27.7808 82.0054 27.6978 82.0054 27.4672C82.0054 27.2366 82.293 27.2458 82.8123 27.2827C83.4962 27.3446 84.1441 27.6152 84.6673 28.0575C85.1859 28.4931 85.5527 29.0806 85.7153 29.7361C85.8266 30.2249 85.7431 30.5293 85.6411 30.5385Z" fill="#263238"/>
<path d="M72.8145 33.6558C73.475 33.9346 74.098 34.294 74.6694 34.7257C74.9476 34.9102 75.2351 35.067 75.4206 34.9286C75.6682 34.6768 75.8303 34.3543 75.8844 34.0063C76.1719 33.1854 76.4594 32.3369 76.7655 31.4422C78.0454 27.8175 79.1954 24.9214 79.3438 24.9859C79.4922 25.0505 78.574 28.0204 77.2941 31.6451C76.9788 32.5306 76.6696 33.3791 76.3667 34.1907C76.266 34.629 76.0172 35.0197 75.6618 35.2975C75.5475 35.3523 75.4223 35.3807 75.2954 35.3807C75.1686 35.3807 75.0433 35.3523 74.9291 35.2975C74.7533 35.2165 74.5882 35.1143 74.4375 34.9932C73.8402 34.6196 73.2946 34.17 72.8145 33.6558Z" fill="#263238"/>
<path d="M63.0667 45.5537C59.6164 42.7577 57.0155 39.0631 55.5543 34.8823C55.5543 34.8823 53.9126 42.0304 61.7311 47.4167L63.0667 45.5537Z" fill="#FF9A6C"/>
<path d="M69.29 31.8849C69.4662 32.014 68.5572 33.0931 68.8355 34.6518C69.1137 36.2106 70.3658 37.0407 70.2545 37.1974C70.1432 37.3542 69.8186 37.1975 69.327 36.8009C68.6875 36.2751 68.2515 35.5449 68.0935 34.7348C67.9493 33.9574 68.1121 33.1547 68.5479 32.4936C68.8818 31.9863 69.225 31.8203 69.29 31.8849Z" fill="#263238"/>
<path d="M88.034 26.6828C87.6537 26.7843 87.0323 25.9818 86.077 25.3085C85.1217 24.6352 84.2221 24.2478 84.1665 23.8697C84.1665 23.6852 84.4725 23.5284 84.9826 23.5469C85.657 23.5975 86.3046 23.8305 86.8555 24.2206C87.4064 24.6108 87.8396 25.1432 88.1082 25.7605C88.2658 26.2585 88.2009 26.5906 88.034 26.6828Z" fill="#263238"/>
<path d="M70.941 24.6809C70.7454 24.928 70.6536 25.2408 70.6848 25.5537C70.7159 25.8666 70.8675 26.1553 71.1079 26.3596C71.2226 26.4634 71.3571 26.5433 71.5034 26.5946C71.6497 26.6458 71.8048 26.6673 71.9596 26.6578C72.1144 26.6484 72.2657 26.6081 72.4046 26.5395C72.5434 26.4708 72.6671 26.3751 72.7681 26.2581C72.9631 26.0125 73.0546 25.7013 73.0235 25.3899C72.9923 25.0785 72.8409 24.7913 72.6012 24.5887C72.4871 24.4843 72.3531 24.4037 72.2071 24.3517C72.0612 24.2997 71.9063 24.2774 71.7515 24.286C71.5967 24.2946 71.4452 24.334 71.306 24.4018C71.1668 24.4696 71.0426 24.5646 70.941 24.6809Z" fill="#263238"/>
<path d="M71.8499 19.5992C71.8499 19.8205 73.0185 19.8482 74.048 20.6506C75.0775 21.4531 75.4206 22.4953 75.6339 22.4953C75.8472 22.4953 75.7823 22.1633 75.6339 21.6744C75.4305 21.0221 75.0287 20.4485 74.4839 20.0327C73.953 19.6183 73.3034 19.3825 72.629 19.3594C72.1189 19.3594 71.8406 19.4977 71.8499 19.5992Z" fill="#263238"/>
<path d="M74.9846 16.7495C74.9846 17.1461 75.9862 17.5151 76.9508 18.2437C77.9153 18.9723 78.5924 19.7655 78.9727 19.6641C79.1489 19.6087 79.2045 19.2859 79.019 18.7879C78.7479 18.1415 78.3016 17.5827 77.7299 17.1738C77.1727 16.7527 76.5071 16.4969 75.81 16.4359C75.2814 16.4175 74.9846 16.5374 74.9846 16.7495Z" fill="#263238"/>
<path d="M60.4608 20.227C60.9153 19.692 61.3883 17.9119 60.8967 17.377C59.6632 15.975 57.0014 13.9459 53.9501 17.5153C49.7672 22.3944 55.5546 25.558 55.6844 25.4289C55.8142 25.2998 58.9027 22.0716 60.4608 20.227Z" fill="#FFBF9D"/>
<path d="M55.8604 22.5049C55.8604 22.5049 55.7213 22.5049 55.5172 22.4403C55.2401 22.351 55.0078 22.1596 54.868 21.9054C54.7241 21.4375 54.7075 20.94 54.8199 20.4637C54.9323 19.9873 55.1697 19.5491 55.508 19.1937C55.8533 18.765 56.2906 18.4184 56.7878 18.1792C56.965 18.0654 57.1671 17.996 57.3771 17.9767C57.587 17.9574 57.7985 17.9889 57.9936 18.0685C58.1133 18.1277 58.2089 18.2259 58.2646 18.3467C58.3203 18.4676 58.3327 18.6038 58.2996 18.7326C58.244 18.9263 58.1327 18.9908 58.1512 19.0277C58.1698 19.0646 58.3275 19.0277 58.4573 18.7971C58.5349 18.6531 58.5579 18.4862 58.5222 18.3268C58.4997 18.2198 58.4562 18.1182 58.3941 18.028C58.332 17.9378 58.2527 17.8607 58.1605 17.801C57.9256 17.6693 57.6604 17.6001 57.3907 17.6001C57.121 17.6001 56.8559 17.6693 56.6209 17.801C56.0498 18.047 55.5471 18.4268 55.1555 18.9078C54.3486 19.9224 54.0611 21.269 54.5991 22.0714C54.7001 22.2272 54.8368 22.3569 54.998 22.4499C55.1593 22.5429 55.3404 22.5965 55.5265 22.6064C55.7491 22.6156 55.8697 22.5326 55.8604 22.5049Z" fill="#FF9A6C"/>
<path d="M60.674 17.2473L60.9615 19.5716C70.672 18.4187 91.8644 13.2075 90.6402 13.5488C88.787 10.6675 86.2357 8.29521 83.2205 6.64977C78.4905 4.23327 68.9562 0.368727 65.3576 5.38619C61.7591 10.4036 60.674 17.2473 60.674 17.2473Z" fill="#263238"/>
<path d="M-3.31144 100.571C-4.23889 101.761 -12.2985 117.615 -10.796 126.507C-9.29355 135.398 1.40004 145.165 5.31391 152.894C9.02375 160.328 26.0241 182.649 26.6455 191.033C27.2669 199.417 34.7236 224.43 41.0118 241.991L42.5885 246.234L58.077 244.076C58.077 244.076 51.4921 219.966 49.396 210.134C47.3 200.302 49.2569 198.504 47.5968 191.033C45.9366 183.562 40.2791 164.11 40.2791 164.11L26.3672 122.273L28.0552 107.977L-3.31144 100.571Z" fill="#263238"/>
<path d="M-7.03976 103.236C-7.03976 103.236 -15.3868 113.022 -15.5723 124.542C-15.7578 136.061 -11.3339 138.967 -10.9815 148.126C-10.629 157.284 -6.58527 168.223 -7.93936 178.94C-9.29345 189.658 -15.359 191.853 -15.5816 204.839C-15.8042 217.826 -12.5767 243.43 -12.5767 243.43L0.964215 243.107C0.964215 243.107 3.90425 212.329 3.68166 209.423C3.45907 206.518 4.36803 202.58 7.73471 193.873C11.1014 185.166 12.947 182.916 12.7244 171.977C12.5018 161.038 8.68067 115.226 8.68067 115.226L6.8814 103.236H-7.03976Z" fill="#263238"/>
<path d="M8.8197 162.994C8.76156 162.808 8.68384 162.628 8.58784 162.459C8.39307 162.071 8.15193 161.536 7.8366 160.964C7.16883 159.664 6.18574 157.801 4.89657 155.541C3.60741 153.281 2.02145 150.607 0.0830621 147.747C-1.85533 144.888 -4.43368 142.075 -6.54829 138.736C-8.637 135.66 -10.2647 132.299 -11.3804 128.757C-12.1944 125.842 -12.5079 122.811 -12.3078 119.792C-12.2057 117.752 -11.7377 115.746 -10.9259 113.87C-10.3045 112.57 -9.76658 111.952 -9.81296 111.915C-10.3255 112.466 -10.7565 113.087 -11.0929 113.76C-11.9835 115.638 -12.512 117.665 -12.651 119.736C-12.9006 122.8 -12.615 125.883 -11.807 128.849C-10.7104 132.453 -9.07533 135.874 -6.95637 138.995C-4.81394 142.379 -2.17068 145.137 -0.287944 147.996C1.5948 150.856 3.26424 153.475 4.59978 155.707C5.93532 157.939 6.95552 159.784 7.66966 161.047L8.50434 162.505C8.59283 162.678 8.69849 162.841 8.8197 162.994Z" fill="#455A64"/>
<path d="M1.19598 232.464L0.518951 246.575C0.518951 246.575 14.4958 252.017 14.6256 254.636L-12.5304 254.286L-12.3635 232.251L1.19598 232.464Z" fill="#263238"/>
<path d="M-12.5303 254.285L-12.4283 252.062L13.5405 253.234C13.5405 253.234 14.7462 253.778 14.5978 254.636L-12.5303 254.285Z" fill="#455A64"/>
<path d="M0.926988 246.446C0.926988 246.575 0.259225 246.63 -0.39927 247.054C-1.05777 247.479 -1.41023 248.032 -1.5308 247.977C-1.65137 247.921 -1.44733 247.147 -0.60334 246.658C0.240647 246.169 0.99191 246.317 0.926988 246.446Z" fill="white"/>
<path d="M3.79297 247.673C3.79297 247.802 3.24574 248.023 2.78201 248.595C2.31829 249.167 2.18841 249.757 2.05857 249.748C1.92873 249.739 1.85456 248.982 2.43886 248.3C3.02316 247.617 3.79297 247.543 3.79297 247.673Z" fill="white"/>
<path d="M5.36977 251.131C5.2492 251.131 5.07302 250.485 5.41618 249.756C5.75934 249.028 6.34363 248.742 6.44565 248.834C6.54767 248.926 6.11173 249.332 5.8335 249.932C5.55526 250.531 5.49961 251.122 5.36977 251.131Z" fill="white"/>
<path d="M52.5865 231.836L57.0383 246.261C57.0383 246.261 71.5808 251.915 71.7107 254.645L43.4789 254.276V247.718L39.9174 233.884L52.5865 231.836Z" fill="#263238"/>
<path d="M43.4791 254.276V252.09L70.6072 253.179C70.6072 253.179 71.8593 253.751 71.7016 254.645L43.4791 254.276Z" fill="#455A64"/>
<path d="M57.1311 246.354C57.1311 246.492 56.4356 246.547 55.7585 246.981C55.0815 247.414 54.7012 248.005 54.5714 247.903C54.4416 247.802 54.6641 247.036 55.4989 246.52C56.3336 246.003 57.1682 246.197 57.1311 246.354Z" fill="white"/>
<path d="M60.34 247.663C60.34 247.792 59.7742 248.023 59.3012 248.586C58.8282 249.148 58.6798 249.794 58.5407 249.785C58.4016 249.775 58.3274 248.991 58.9302 248.272C59.5331 247.553 60.34 247.525 60.34 247.663Z" fill="white"/>
<path d="M62.1393 251.325C62.0187 251.325 61.8332 250.651 62.1949 249.895C62.5566 249.139 63.2151 248.844 63.2707 248.973C63.3264 249.102 62.9184 249.498 62.6308 250.116C62.3433 250.734 62.2969 251.306 62.1393 251.325Z" fill="white"/>
<path d="M44.8702 35.998C44.8702 35.998 34.2137 36.2102 26.7477 43.6257C19.2816 51.0412 1.36312 80.2974 1.05706 84.7522C0.864444 87.362 0.864444 89.9823 1.05706 92.592L-9.06154 103.236C-9.06154 103.236 -1.80877 107.46 6.28794 107.46C14.3846 107.46 29.9473 103.236 29.9473 103.236L34.2137 94.3168L55.3134 79.0523C55.3134 79.0523 62.1394 59.7664 59.7929 53.2271C57.4465 46.6878 44.8702 35.998 44.8702 35.998Z" fill="#455A64"/>
<path d="M44.8701 35.9981L48.3203 34.4302L59.2179 48.468L59.0324 53.9005L44.8701 35.9981Z" fill="#455A64"/>
<path d="M45.983 35.1592C46.2572 35.9318 46.6181 36.6713 47.0588 37.3635C48.0315 39.0835 49.0933 40.7521 50.24 42.3626C51.3959 43.98 52.6341 45.5377 53.9498 47.0295C54.4499 47.6844 55.0189 48.2842 55.6471 48.8188C55.2201 48.1203 54.7329 47.4599 54.191 46.8451C53.2635 45.6553 51.9929 44.0043 50.6574 42.1228C49.3218 40.2412 48.1903 38.5072 47.3742 37.2344C46.9633 36.5091 46.4982 35.8154 45.983 35.1592Z" fill="#263238"/>
<path d="M35.6048 100.57C35.9016 101.76 30.7542 120.603 30.7542 120.603L46.3819 185.166C46.3819 185.166 37.7009 193.2 15.5439 190.525C15.5439 190.525 1.77114 136.929 1.17757 123.195C0.583994 109.462 2.37397 100.57 2.37397 100.57L5.96323 93.0904C5.96323 93.0904 24.2249 93.0904 32.9059 89.8162C41.5869 86.5419 50.5276 79.0987 50.5276 79.0987L59.5518 58.042L59.9135 61.3439L59.2179 77.088L35.6048 100.57Z" fill="#407BFF"/>
<path d="M5.96313 93.1273L1.0569 92.5923L-1.42868 95.2025L3.03239 100.57L5.96313 93.1273Z" fill="#407BFF"/>
<path d="M0.713786 94.8704C0.713786 94.8704 0.713761 94.732 0.63029 94.4738C0.532965 94.1018 0.415308 93.7354 0.277851 93.3762C-0.207578 92.0466 -0.82915 90.7702 -1.57707 89.567C-2.70902 87.784 -4.09624 86.1745 -5.69498 84.7893C-6.63655 83.9673 -7.65166 83.2325 -8.72773 82.5942C-9.29432 82.2193 -9.92189 81.9447 -10.5826 81.7826C-10.9505 81.7012 -11.3324 81.7063 -11.6979 81.7976C-12.0634 81.8889 -12.4024 82.0637 -12.688 82.3083C-12.9515 82.5868 -13.1326 82.9322 -13.2112 83.3066C-13.2897 83.6809 -13.2627 84.0696 -13.1332 84.4296C-12.893 85.0778 -12.5095 85.6641 -12.011 86.1452C-11.1467 87.0398 -10.2365 87.8894 -9.28424 88.6908C-7.66928 90.0506 -5.93048 91.2579 -4.09044 92.2971C-2.85643 92.9962 -1.57682 93.6125 -0.26009 94.1418C0.203639 94.3354 0.574663 94.4645 0.825077 94.5476C0.954361 94.5942 1.08793 94.6282 1.22388 94.649C0.767363 94.3978 0.296652 94.173 -0.185878 93.9757C-1.45485 93.3832 -2.69302 92.7275 -3.89571 92.0112C-5.68559 90.9434 -7.37977 89.7245 -8.9596 88.368C-9.89318 87.5687 -10.7847 86.7221 -11.6307 85.8316C-12.0834 85.4069 -12.4297 84.8825 -12.6416 84.3005C-12.745 84.0259 -12.7702 83.7282 -12.7146 83.4402C-12.659 83.1522 -12.5246 82.885 -12.3263 82.668C-12.096 82.4777 -11.8251 82.3422 -11.5342 82.2719C-11.2432 82.2016 -10.94 82.1983 -10.6476 82.2622C-10.0341 82.412 -9.45073 82.6647 -8.92252 83.0093C-7.86806 83.6304 -6.86898 84.3401 -5.93613 85.1306C-3.27937 87.3891 -1.18695 90.2309 0.175845 93.4315C0.500455 94.3539 0.676688 94.8796 0.713786 94.8704Z" fill="#407BFF"/>
<path d="M0.398497 95.1565C0.398497 95.1565 0.509781 95.0274 0.676723 94.7599C0.843666 94.4924 1.07557 94.0958 1.35381 93.5701C2.15182 92.0807 2.84896 90.5401 3.44059 88.9584C4.31805 86.614 4.9732 84.1931 5.39751 81.7274C5.65314 80.2533 5.65314 78.7466 5.39751 77.2726C5.25716 76.4787 4.9744 75.7164 4.56278 75.0221C4.13226 74.2702 3.44432 73.6974 2.62442 73.408C2.19245 73.2888 1.73564 73.2912 1.30495 73.4149C0.874271 73.5387 0.486632 73.779 0.1852 74.109C-0.357677 74.7198 -0.754075 75.4451 -0.974123 76.2303C-1.35985 77.6645 -1.61133 79.1311 -1.72536 80.6114C-1.92976 83.1101 -1.77992 85.625 -1.2802 88.0822C-0.942216 89.7359 -0.438892 91.3519 0.222278 92.906C0.454142 93.4502 0.658188 93.8283 0.806581 94.1419C0.954974 94.4555 1.02918 94.5662 1.04773 94.557C1.06628 94.5477 0.80657 93.9482 0.389214 92.8322C-0.191277 91.2676 -0.638043 89.657 -0.946329 88.0177C-1.39027 85.5842 -1.50256 83.1023 -1.2802 80.6391C-1.15608 79.1965 -0.904702 77.7675 -0.528961 76.3687C-0.327274 75.6523 0.0341192 74.9902 0.528355 74.4318C0.769516 74.1659 1.08007 73.9717 1.42553 73.8708C1.77099 73.7698 2.13781 73.7661 2.48528 73.8599C3.19239 74.1137 3.78465 74.6111 4.15469 75.2619C4.53747 75.9082 4.80131 76.6172 4.93378 77.3556C5.17968 78.7778 5.17968 80.2314 4.93378 81.6536C4.53182 84.0957 3.91104 86.4972 3.07886 88.8293C2.51983 90.4 1.87584 91.9394 1.14974 93.441C0.676732 94.557 0.370673 95.138 0.398497 95.1565Z" fill="#407BFF"/>
<path d="M16.898 99.0854C19.9687 99.6103 23.0642 99.9797 26.1726 100.192C29.2761 100.56 32.3964 100.772 35.5214 100.829C29.3425 99.9227 23.1199 99.3408 16.8795 99.0854H16.898Z" fill="#263238"/>
<path d="M61.1098 74.4039C61.2675 74.45 64.0591 103.208 64.0591 103.208L73.009 128.849L65.9789 137.961C65.9789 137.961 53.3841 114.903 51.7888 106.187C50.1936 97.4713 44.0167 71.7107 44.0167 71.7107L53.18 66.3428L61.1098 74.4039Z" fill="#FFBF9D"/>
<path d="M51.483 48.0069C52.3178 48.136 59.1531 50.1282 60.2846 55.3855C61.4161 60.6428 62.5476 74.8835 62.5476 74.8835C62.5476 74.8835 45.5102 72.6607 43.9984 74.2471C42.4867 75.8335 41.012 58.0971 41.012 58.0971C41.012 58.0971 45.6957 47.1215 51.483 48.0069Z" fill="#455A64"/>
<path d="M73.009 125.843C73.009 126.691 84.7321 154.499 84.9454 156.833C85.1588 159.166 90.065 166.582 87.9319 168.703C85.7987 170.825 82.0147 160.854 82.0147 160.854C82.0147 160.854 81.0872 163.824 78.3048 163.188C75.5225 162.551 76.385 160.642 76.385 160.642C74.5683 159.751 72.8857 158.611 71.386 157.257C69.1323 155.136 68.7427 146.706 68.7427 145.498C68.7427 144.289 61.8054 131.386 61.8054 131.386C67.1846 132.041 69.5032 130.722 73.009 125.843Z" fill="#455A64"/>
<path d="M78.0081 155.956C77.9339 155.956 77.8968 156.297 77.8597 156.814C77.8317 157.479 77.7226 158.139 77.535 158.778C77.3358 159.393 76.9543 159.933 76.4407 160.328C76.0326 160.614 75.708 160.688 75.7265 160.761C75.7451 160.835 76.0975 160.872 76.654 160.614C77.3104 160.247 77.8038 159.648 78.0359 158.935C78.2476 158.249 78.3169 157.527 78.2399 156.814C78.1472 156.279 78.073 155.956 78.0081 155.956Z" fill="#263238"/>
<path d="M72.8142 156.169C72.7493 156.169 72.7215 156.307 72.74 156.491C72.7502 156.595 72.7719 156.697 72.8049 156.796V156.962C72.8049 157.072 72.8049 157.008 72.8049 156.962L72.6658 157.063C72.5766 157.116 72.4954 157.181 72.4247 157.257C72.2949 157.395 72.2392 157.506 72.2763 157.552C72.3134 157.598 72.434 157.598 72.6009 157.552L72.8792 157.441L73.0554 157.368C73.111 157.312 73.2038 157.312 73.2965 157.109C73.3395 157 73.3395 156.878 73.2965 156.768L73.213 156.602C73.1717 156.512 73.1221 156.425 73.0647 156.344C72.9626 156.233 72.8791 156.15 72.8142 156.169Z" fill="#263238"/>
<path d="M39.5558 50.7189C40.2754 49.8635 41.0942 49.0957 41.995 48.4315C44.2442 46.9296 46.9753 46.3147 49.6558 46.7067C52.3264 47.1742 54.8037 48.4012 56.7879 50.2392C58.3275 51.6412 59.0602 52.7295 59.1251 52.6742C59.0123 52.3886 58.8524 52.1236 58.6521 51.8902C58.1715 51.2084 57.6247 50.5751 57.0198 49.9994C55.0446 48.0188 52.4955 46.7028 49.73 46.2363C46.9331 45.8179 44.0828 46.5066 41.7909 48.1548C41.109 48.647 40.5109 49.2449 40.0195 49.9257C39.826 50.1655 39.6697 50.4329 39.5558 50.7189Z" fill="#263238"/>
<path d="M40.8078 60.8086C40.6578 61.3831 40.6046 61.9784 40.6501 62.5702C40.6446 63.9939 40.7532 65.4157 40.9747 66.8222C41.191 68.2303 41.523 69.6184 41.9671 70.9726C42.1114 71.5482 42.3428 72.0987 42.6534 72.6052C42.7925 72.5498 41.9486 70.0042 41.4477 66.7484C40.9469 63.4926 40.9284 60.8086 40.8078 60.8086Z" fill="#263238"/>
<path d="M34.8257 104.841C34.8257 104.841 44.9164 121.046 46.2983 123.186C47.6802 125.326 49.0807 128.526 46.2983 129.153C43.5159 129.781 43.5159 127.014 42.301 124.542C41.086 122.07 37.2927 122.559 35.1781 120.262C33.8882 118.851 32.7563 117.305 31.8021 115.65C31.8021 115.65 34.937 104.158 34.8257 104.841Z" fill="#455A64"/>
</svg>
