<svg width="140" height="326" viewBox="0 0 140 326" fill="none" xmlns="http://www.w3.org/2000/svg">
<path d="M142.595 13.7477C141.709 12.0974 140.328 10.7803 138.654 9.98994C137.696 9.65038 136.669 9.56446 135.669 9.74019C134.67 9.91593 133.73 10.3476 132.939 10.9947C132.157 11.6516 131.519 12.4685 131.065 13.3927C130.612 14.3169 130.354 15.3278 130.308 16.36L132.279 28.4672C132.44 28.9022 132.719 29.2815 133.084 29.5609C133.449 29.8402 133.884 30.008 134.338 30.0446C134.64 30.0741 134.945 30.024 135.223 29.8991C135.5 29.7742 135.742 29.5787 135.924 29.3313C136.015 29.1996 136.078 29.0508 136.11 28.8937C136.143 28.7366 136.144 28.5744 136.113 28.4169C136.083 28.2594 136.022 28.1097 135.933 27.9768C135.845 27.8439 135.732 27.7305 135.599 27.6433C136.082 28.0614 136.662 28.3452 137.284 28.4672C137.598 28.5119 137.916 28.4328 138.174 28.2461C138.433 28.0593 138.611 27.779 138.673 27.4625C138.652 27.043 138.48 26.6463 138.191 26.3472C137.252 25.1677 136.089 24.1937 134.772 23.4837C136.75 23.9328 138.816 23.7432 140.683 22.9411C141.611 22.5262 142.413 21.8675 143.009 21.0324C143.604 20.1974 143.971 19.216 144.073 18.1887C144.04 16.5885 143.524 15.0377 142.595 13.7477Z" fill="#263238"/>
<path d="M125.934 7.67882C123.417 5.02058 120.346 2.97317 116.949 1.68796C113.552 0.402748 109.915 -0.0873985 106.307 0.253757C102.07 0.645607 100.395 1.73073 97.4394 2.90628C94.4653 3.9833 91.9598 6.09704 90.3651 8.87447C88.3852 12.1676 87.2532 15.9174 87.0743 19.7759C87.0809 23.0953 87.4443 26.4039 88.1581 29.6425C88.8576 33.5309 91.4588 40.1924 93.7151 40.1924L102.464 42.9052C107.883 42.5033 113.371 42.0913 118.495 40.2627C123.618 38.434 128.446 34.9878 130.772 29.9841C133.993 23.0313 131.313 13.0843 125.934 7.67882Z" fill="#263238"/>
<path d="M117.234 8.55304L103.647 4.69482L100.287 5.46847C92.6313 6.33255 88.2567 15.5159 88.8675 21.8559C89.5474 28.8891 90.6509 37.4495 92.2865 42.5034C95.5773 52.6814 104.386 52.5508 104.386 52.5508L104.937 59.584L98.2376 63.4623L105.814 88.4604H122.022L131.757 55.776L125.146 55.0727L124.535 50.3203L121.037 11.7883C120.917 10.8607 120.459 10.0131 119.755 9.41375C119.05 8.8144 118.15 8.50716 117.234 8.55304Z" fill="#AE7461"/>
<path d="M107.351 38.4041C107.253 38.0332 107.065 37.6935 106.804 37.4166C106.542 37.1398 106.217 36.9347 105.857 36.8205C105.497 36.7062 105.115 36.6865 104.746 36.7631C104.377 36.8397 104.032 37.0102 103.745 37.2587C103.35 37.6357 103.064 38.1161 102.918 38.6477C102.772 39.1792 102.772 39.7414 102.918 40.2729C103.173 40.57 103.488 40.8073 103.842 40.9686C104.196 41.1298 104.579 41.2113 104.967 41.2073C105.088 41.2177 105.21 41.2177 105.331 41.2073C105.941 41.1408 106.504 40.8432 106.908 40.3734C107.129 40.1039 107.284 39.7851 107.361 39.4429C107.438 39.1007 107.435 38.7448 107.351 38.4041Z" fill="#6F4439"/>
<path d="M93.331 30.2956C93.3823 30.6472 93.5669 30.9643 93.8452 31.1785C94.1234 31.3928 94.473 31.487 94.8187 31.441C94.9881 31.4259 95.1529 31.3766 95.3034 31.2959C95.4539 31.2153 95.5871 31.1048 95.6954 30.9711C95.8036 30.8374 95.8846 30.683 95.9337 30.517C95.9828 30.351 95.999 30.1767 95.9814 30.0042C95.9254 29.6555 95.7392 29.3425 95.4618 29.1308C95.1844 28.9191 94.8374 28.8252 94.4936 28.8688C94.3246 28.8827 94.1601 28.9308 94.0096 29.0104C93.8592 29.09 93.7259 29.1995 93.6175 29.3324C93.5092 29.4654 93.428 29.6191 93.3788 29.7845C93.3296 29.9499 93.3133 30.1237 93.331 30.2956Z" fill="#263238"/>
<path d="M91.5673 25.1208C91.7545 25.2715 92.6314 24.3472 94.0502 24.1161C95.469 23.885 96.6119 24.4376 96.74 24.2366C96.8681 24.0357 96.5824 23.8548 96.0799 23.5936C95.3975 23.2694 94.6348 23.1643 93.8925 23.2922C93.1469 23.4026 92.456 23.7549 91.922 24.2969C91.5771 24.7189 91.4786 25.0505 91.5673 25.1208Z" fill="#263238"/>
<path d="M101.903 35.5004C101.118 35.3964 100.323 35.3964 99.5382 35.5004C99.1736 35.5004 98.8189 35.5004 98.7105 35.2593C98.6194 34.8859 98.6434 34.4929 98.7795 34.134L99.4002 31.1198C100.248 26.8797 100.799 23.4234 100.632 23.3933C100.464 23.3631 99.6465 26.7592 98.7893 30.9992C98.5923 32.0039 98.4051 33.0087 98.2179 34.0134C98.0627 34.4962 98.0801 35.0195 98.2671 35.4904C98.3404 35.6107 98.4399 35.7122 98.5577 35.7872C98.6756 35.8621 98.8088 35.9083 98.947 35.9224C99.1528 35.9532 99.3619 35.9532 99.5677 35.9224C100.36 35.8789 101.144 35.7372 101.903 35.5004Z" fill="#263238"/>
<path d="M104.376 52.6007C109.213 51.8663 113.755 49.7796 117.5 46.5723C117.5 46.5723 114.997 54.4193 104.583 55.1427L104.376 52.6007Z" fill="#6F4439"/>
<path d="M106.218 35.8016C105.992 35.8016 106.218 37.3891 105.095 38.7254C103.972 40.0617 102.297 40.1521 102.327 40.3732C102.356 40.5942 102.74 40.6143 103.43 40.5239C104.331 40.3842 105.154 39.9253 105.755 39.2278C106.339 38.5614 106.643 37.6886 106.603 36.7963C106.553 36.1332 106.327 35.7815 106.218 35.8016Z" fill="#263238"/>
<path d="M91.5179 19.9867C91.8135 20.2982 92.8579 19.8862 94.1388 19.7858C95.4196 19.6853 96.5232 19.8461 96.7498 19.4844C96.8483 19.3035 96.6611 18.992 96.1684 18.7107C95.5002 18.3627 94.7464 18.223 94.0008 18.3088C93.2543 18.3619 92.5404 18.6418 91.9514 19.1126C91.5179 19.4843 91.3603 19.836 91.5179 19.9867Z" fill="#263238"/>
<path d="M108.741 27.8941C108.786 28.2437 108.697 28.5976 108.491 28.8808C108.285 29.164 107.979 29.3543 107.637 29.4113C107.473 29.4481 107.303 29.4512 107.137 29.4205C106.972 29.3898 106.814 29.3258 106.673 29.2323C106.532 29.1389 106.41 29.0177 106.315 28.876C106.22 28.7342 106.154 28.5746 106.12 28.4065C106.075 28.0543 106.165 27.6979 106.373 27.4128C106.581 27.1277 106.89 26.9364 107.233 26.8793C107.565 26.8111 107.91 26.8795 108.192 27.0696C108.475 27.2598 108.672 27.5562 108.741 27.8941Z" fill="#263238"/>
<path d="M110.751 22.4586C110.613 22.6595 109.519 22.0266 108.1 22.2175C106.681 22.4084 105.726 23.2222 105.548 23.1016C105.371 22.981 105.548 22.6897 106.001 22.2978C106.554 21.7966 107.24 21.4748 107.972 21.3735C108.71 21.2769 109.458 21.4211 110.11 21.7854C110.642 22.0768 110.829 22.3682 110.751 22.4586Z" fill="#263238"/>
<path d="M109.411 17.9071C109.174 18.2688 108.031 18.0678 106.711 18.2186C105.391 18.3693 104.307 18.7511 104.012 18.4396C103.874 18.2889 104.012 17.9372 104.455 17.5655C105.074 17.0924 105.812 16.8069 106.583 16.7416C107.35 16.6522 108.126 16.7881 108.82 17.1334C109.322 17.4148 109.519 17.7363 109.411 17.9071Z" fill="#263238"/>
<path d="M121.136 29.6527C121.007 28.869 121.599 26.8897 122.338 26.6385C124.308 25.9854 127.944 25.5433 128.811 30.7479C129.993 37.8615 122.742 37.6103 122.702 37.4094C122.663 37.2084 121.559 32.2952 121.136 29.6527Z" fill="#AE7461"/>
<path d="M124.19 34.4454C124.19 34.4454 124.328 34.5057 124.554 34.566C124.862 34.6461 125.187 34.5991 125.461 34.4354C125.874 34.068 126.183 33.5949 126.356 33.065C126.529 32.535 126.56 31.9675 126.446 31.4211C126.366 30.8057 126.146 30.2176 125.806 29.703C125.705 29.4928 125.555 29.3107 125.37 29.1725C125.184 29.0342 124.969 28.9439 124.742 28.9093C124.596 28.8964 124.451 28.9355 124.33 29.0198C124.21 29.1041 124.122 29.2284 124.081 29.3715C124.013 29.5925 124.081 29.7231 124.081 29.7432C124.081 29.7633 123.914 29.6528 123.914 29.3413C123.927 29.1583 124 28.985 124.121 28.849C124.203 28.7595 124.302 28.6876 124.412 28.6376C124.522 28.5876 124.641 28.5604 124.761 28.5576C125.057 28.5641 125.346 28.649 125.6 28.804C125.854 28.9591 126.064 29.1789 126.21 29.4418C126.611 30.0059 126.871 30.6611 126.968 31.3508C127.156 32.7876 126.663 34.2545 125.697 34.7267C125.519 34.8127 125.323 34.8572 125.126 34.8572C124.928 34.8572 124.733 34.8127 124.554 34.7267C124.229 34.6162 124.17 34.4555 124.19 34.4454Z" fill="#6F4439"/>
<path d="M122.623 26.6384L121.037 28.6479C112.544 21.9664 95.5083 4.77518 96.464 5.80002C99.825 4.09301 103.549 3.2644 107.302 3.38863C113.135 3.76039 124.308 5.4986 124.86 12.4313C125.412 19.3641 122.623 26.6384 122.623 26.6384Z" fill="#263238"/>
<path d="M129.973 13.4058C130.714 15.9437 131.238 18.5423 131.54 21.1724C131.669 23.8184 131.573 26.4707 131.254 29.0999C131.56 28.3741 131.756 27.605 131.836 26.8191C132.429 23.0544 132.115 19.1989 130.919 15.5861C130.722 14.8116 130.403 14.0751 129.973 13.4058Z" fill="#455A64"/>
<path d="M131.313 21.0921C129.477 21.0687 127.647 20.8736 125.845 20.5094C123.934 20.0564 122.07 19.4171 120.278 18.6004C118.06 17.5963 115.896 16.4728 113.795 15.2345C109.292 12.6322 105.312 10.1002 102.464 8.20125L99.1046 5.96067C98.7062 5.66732 98.2843 5.40853 97.8435 5.18701C98.1957 5.53637 98.5782 5.85248 98.9864 6.13147C99.7451 6.71423 100.868 7.52808 102.267 8.51273C105.066 10.472 109.026 13.0642 113.539 15.6665C115.656 16.9165 117.844 18.0371 120.091 19.0223C121.932 19.8275 123.851 20.4337 125.816 20.8309C127.142 21.101 128.493 21.2223 129.845 21.1926C130.211 21.1916 130.576 21.1681 130.939 21.1223C131.185 21.1323 131.313 21.1122 131.313 21.0921Z" fill="#455A64"/>
<path d="M129.786 16.5905C129.371 16.4335 128.942 16.3158 128.506 16.2388C127.678 16.058 126.535 15.7666 125.027 15.3748C117.398 13.3491 110.113 10.1581 103.42 5.91007C102.13 5.09623 101.105 4.413 100.405 3.90058C100.048 3.63365 99.6689 3.39836 99.2722 3.19727C99.5716 3.52099 99.9017 3.81378 100.257 4.07139C100.927 4.6039 101.923 5.32732 103.213 6.1914C106.523 8.41226 110.018 10.332 113.657 11.9285C117.301 13.5165 121.072 14.7805 124.929 15.7063C126.417 16.0479 127.619 16.2891 128.466 16.4097C128.898 16.519 129.341 16.5796 129.786 16.5905Z" fill="#455A64"/>
<path d="M155.167 143.188C155.167 143.188 165.926 164.73 165.434 183.378C164.941 202.026 161.68 221.247 162.379 231.526C162.862 238.499 168.577 255.519 169.562 271.113C170.547 286.706 169.562 305.515 169.562 305.515H153.177C153.177 305.515 149.669 280.577 146.369 266.189C143.689 254.504 143.413 250.535 140.27 241.071C137.127 231.606 131.717 201.474 129.619 189.829C127.52 178.184 125.54 162.259 125.54 162.259L123.175 146.243L155.167 143.188Z" fill="#263238"/>
<path d="M123.441 193.064C123.746 194.451 120.603 240.378 118.672 250.013C116.741 259.649 114.652 302.26 114.652 302.26L97.3212 301.305C97.3212 301.305 95.2423 271.866 94.6905 262.181C94.1388 252.495 95.932 241.593 96.1488 232.601C96.3655 223.609 94.3654 205.945 92.5426 188.734C90.7199 171.523 89.0252 147.871 95.3901 147.63C97.0454 147.569 123.175 146.364 123.175 146.364L127.451 176.345L131.757 186.011L123.441 193.064Z" fill="#263238"/>
<path d="M90.178 120.421C90.71 120.482 88.8675 138.507 88.8675 138.507L90.0696 153.95L79.734 157.426C77.7636 151.362 76.4971 145.083 75.9603 138.718C75.6094 131.711 75.7807 124.688 76.4727 117.708L90.178 120.421Z" fill="#AE7461"/>
<path d="M127.816 54.6808C127.816 54.6808 146.851 57.3735 148.112 60.1064C149.374 62.8393 145.6 117.246 146.073 119.386C146.546 121.526 157.374 140.757 155.167 143.189C152.96 145.62 95.39 147.64 95.39 147.64C95.39 147.64 93.2913 113.478 93.311 112.705C93.3307 111.931 90.5917 93.4338 90.5917 93.4338L87.6358 68.1645L102.198 60.5385L104.671 55.6755C104.671 55.6755 114.189 67.7325 113.667 67.2904L124.613 50.9331L127.816 54.6808Z" fill="#455A64"/>
<path d="M87.6655 68.1143C83.6551 70.8067 80.7606 74.9141 79.5369 79.6487C78.0196 85.3758 71.9798 116.643 71.9798 116.643C71.9798 116.643 92.0303 121.436 91.8529 120.361C91.6756 119.286 92.72 105.159 92.72 105.159L90.7494 80.8042L87.6655 68.1143Z" fill="#455A64"/>
<path d="M89.912 80.8042C89.7555 81.1621 89.6366 81.536 89.5573 81.9195C89.4332 82.3559 89.3313 82.7986 89.2519 83.2457C89.1435 83.7682 89.0154 84.361 88.9268 85.0342C88.4206 88.5015 88.3675 92.022 88.7691 95.5036C89.1546 98.9843 89.9383 102.407 91.1042 105.702C91.5575 106.968 91.9614 107.972 92.2767 108.646C92.4194 108.999 92.5977 109.335 92.8088 109.65C92.8876 109.65 92.257 108.093 91.4491 105.561C90.3984 102.26 89.6723 98.8607 89.2815 95.4132C88.8876 91.9719 88.8876 88.4956 89.2815 85.0543C89.6066 82.4319 90.0007 80.8243 89.912 80.8042Z" fill="#263238"/>
<path d="M102.198 60.5385C102.328 60.8899 102.493 61.2266 102.691 61.5433L104.169 64.1154L109.588 73.2385L109.775 73.55L109.982 73.2485L113.854 67.4311L113.47 67.4813L116.14 70.0032C117.49 71.2491 118.8 72.4749 120.131 73.5801L120.397 73.8011L120.515 73.4696C122.485 68.0741 124.318 63.4221 125.658 60.0964L127.234 56.198C127.448 55.7348 127.622 55.2542 127.757 54.7612C127.496 55.1984 127.269 55.6552 127.077 56.1277C126.653 57.0119 126.091 58.318 125.362 59.9658C123.944 63.2513 122.042 67.9033 120.052 73.2887L120.436 73.1782C119.145 72.0931 117.835 70.8572 116.495 69.6114L113.825 67.0995L113.608 66.8985L113.44 67.1497L109.598 72.9873H109.992L104.425 63.9446L102.809 61.4026C102.627 61.0993 102.423 60.8105 102.198 60.5385Z" fill="#263238"/>
<path d="M151.236 129.444C151.236 129.444 143.728 125.505 140.999 123.365C138.269 121.225 135.698 85.7676 135.698 85.7676L94.8087 88.4603L98.4148 128.861L94.4737 132.96L91.5178 154.904C91.5178 154.904 89.5473 244.527 94.6904 244.326C110.356 243.713 158.675 242.317 157.808 236.499C156.941 230.682 151.699 147.077 151.699 147.077L156.625 143.209L151.236 129.444Z" fill="#407BFF"/>
<path d="M134.309 87.054L140.28 56.982L134.397 55.5352L128.535 87.7171L134.309 87.054Z" fill="#407BFF"/>
<path d="M102.159 89.1133L93.8826 64.8789L89.2123 67.3305L96.8187 90.3291L102.159 89.1133Z" fill="#407BFF"/>
<path d="M107.706 105.34L123.471 104.496C124.135 104.454 124.757 104.147 125.202 103.641C125.646 103.135 125.877 102.471 125.845 101.793C125.807 101.113 125.507 100.476 125.011 100.021C124.514 99.5655 123.862 99.3285 123.195 99.3614L107.43 100.215C106.763 100.252 106.137 100.557 105.69 101.064C105.242 101.57 105.011 102.237 105.046 102.918C105.063 103.256 105.146 103.586 105.29 103.891C105.433 104.196 105.634 104.469 105.882 104.694C106.129 104.919 106.418 105.092 106.731 105.203C107.044 105.313 107.375 105.36 107.706 105.34Z" fill="white"/>
<path d="M98.405 128.861C98.94 129.054 99.4906 129.199 100.05 129.293C101.115 129.535 102.671 129.846 104.593 130.208C108.435 130.911 113.795 131.725 119.746 132.217C125.697 132.709 131.107 132.72 135.018 132.639C136.989 132.589 138.545 132.529 139.639 132.458C140.207 132.452 140.774 132.399 141.334 132.298C140.768 132.234 140.198 132.217 139.629 132.247H135.008C131.067 132.247 125.717 132.137 119.786 131.675C113.854 131.212 108.504 130.459 104.652 129.846L100.09 129.092C99.5344 128.974 98.9713 128.897 98.405 128.861Z" fill="#263238"/>
<path d="M98.7203 286.867L98.5726 301.938C98.5726 301.938 82.9953 307.756 82.808 310.72L112.79 310.981L112.899 303.837L114.652 289.007L98.7203 286.867Z" fill="#263238"/>
<path d="M112.79 310.981V308.59L83.9511 309.132C83.9511 309.132 82.6111 309.725 82.7589 310.7L112.79 310.981Z" fill="#455A64"/>
<path d="M98.4739 302.039C98.4739 302.189 99.203 302.26 99.9222 302.762C100.641 303.265 101.016 303.898 101.154 303.837C101.292 303.777 101.075 302.893 100.169 302.32C99.2621 301.747 98.4443 301.938 98.4739 302.039Z" fill="white"/>
<path d="M95.0354 303.385C95.0354 303.536 95.6266 303.797 96.1192 304.44C96.6119 305.083 96.7498 305.766 96.8976 305.766C97.0454 305.766 97.1439 304.902 96.5134 304.109C95.8828 303.315 95.0354 303.244 95.0354 303.385Z" fill="white"/>
<path d="M93.0156 307.333C93.1436 307.333 93.3604 306.61 93.0156 305.776C92.6707 304.942 91.9712 304.601 91.9022 304.771C91.8332 304.942 92.2667 305.344 92.5525 306.027C92.8382 306.71 92.8678 307.313 93.0156 307.333Z" fill="white"/>
<path d="M24.7847 302.742L66.0582 229.767L132.959 111.459L148.507 84.0192C149.689 81.9193 152.881 83.8183 151.689 85.9182L109.391 160.731L42.4804 279.04L29.0904 302.732L51.5745 302.682V308.76L0.221635 308.891V302.802L24.7847 302.742Z" fill="#263238"/>
<path d="M24.7849 302.742H23.169H0.093731V308.972H0.202113H51.555H51.7324V308.791C51.7324 306.952 51.7324 304.842 51.7324 302.712V302.531H51.555H29.0709L29.2384 302.833L126.289 131.313L141.846 103.803C144.408 99.2479 146.957 94.7567 149.492 90.3291C150.123 89.2139 150.753 88.1086 151.374 86.9934L151.847 86.1695C152.029 85.8617 152.149 85.5202 152.202 85.1647C152.224 84.7996 152.152 84.4348 151.993 84.1068C151.834 83.7789 151.593 83.4992 151.295 83.2959C151.015 83.0862 150.69 82.9484 150.347 82.8941C150.004 82.8399 149.653 82.8709 149.324 82.9844C148.72 83.3133 148.246 83.846 147.985 84.4916L146.122 87.7871C136.27 105.3 126.673 122.2 117.549 138.306L69.2704 223.85C55.5454 248.205 44.4413 267.898 36.7561 281.522L27.8885 297.236L25.5928 301.336C25.0805 302.26 24.8243 302.742 24.8243 302.742C24.8243 302.742 25.1002 302.29 25.6224 301.386C26.1446 300.482 26.923 299.105 27.9477 297.367C29.9773 293.78 32.9824 288.515 36.8152 281.723L69.5167 224.081L117.924 138.577C127.028 122.501 136.595 105.591 146.497 88.0785L148.359 84.793C148.684 84.2203 148.94 83.6978 149.453 83.5069C149.708 83.4161 149.981 83.3915 150.247 83.4354C150.514 83.4793 150.766 83.5902 150.98 83.7581C151.204 83.9099 151.387 84.1182 151.509 84.3628C151.632 84.6075 151.69 84.8802 151.679 85.1547C151.519 85.7375 151.263 86.288 150.921 86.7824L149.039 90.1081L141.413 103.582L125.845 131.051L28.8837 302.632L28.7162 302.943H29.061L51.5451 302.873L51.3579 302.692C51.3579 304.822 51.3579 306.932 51.3579 308.771L51.5353 308.6L0.182418 308.781L0.300647 308.901C0.300647 306.751 0.300647 304.701 0.300647 302.813L0.202113 302.923L18.4988 302.823H23.2084L24.7849 302.742Z" fill="#455A64"/>
<path d="M0.40897 308.6H50.9638C51.614 309.383 51.082 312.97 50.1657 313.402C49.2059 313.744 48.1579 313.727 47.2098 313.352C46.2688 312.979 45.2627 312.808 44.254 312.85C43.0027 313.02 41.8795 313.965 40.6282 313.854C39.3768 313.744 38.4507 312.588 37.2388 312.598C35.8496 312.598 34.746 314.146 33.3666 313.995C32.47 313.895 31.7705 313.101 30.8837 312.99C29.5043 312.759 28.2924 314.085 26.9426 314.106C25.5928 314.126 24.2626 312.699 22.8044 312.83C21.5235 312.94 20.5875 314.216 19.3264 314.417C17.4937 314.719 15.9272 312.699 14.065 312.83C12.8826 312.91 11.8678 313.834 10.6756 313.834C9.48341 313.834 8.44886 312.88 7.25667 312.719C6.1817 312.701 5.12228 312.983 4.19245 313.533C3.25569 314.091 2.14301 314.257 1.08882 313.995C0.0936824 313.553 -0.408814 309.303 0.40897 308.6Z" fill="#455A64"/>
<path d="M90.0991 152.814C90.434 153.548 92.4736 162.138 92.4736 162.138C94.1818 162.616 95.7978 163.388 97.2522 164.419C98.7048 165.781 99.959 167.347 100.977 169.071L98.602 172.919C98.602 172.919 99.4494 176.255 99.8533 179.149C100.257 182.042 98.7892 182.745 98.7892 182.745C98.7892 182.745 99.9223 187.508 97.4591 187.9C96.6709 188.03 95.0944 185.639 95.0944 185.639C95.1421 186.19 94.99 186.74 94.6667 187.185C94.3435 187.629 93.8717 187.937 93.3406 188.051C91.6854 188.513 90.2961 186.754 90.2961 186.754C90.2961 186.754 88.7492 189.658 86.7688 188.593C84.7884 187.528 83.4878 183.258 83.4878 183.258C83.4878 183.258 80.6403 178.787 81.2118 174.959C81.7833 171.131 81.9606 168.247 81.9606 168.247C81.9606 168.247 80.4827 163.645 79.1526 159.747C78.3151 157.295 77.6648 154.432 81.8325 152.613C84.5058 151.564 87.4779 151.636 90.0991 152.814Z" fill="#455A64"/>
<path d="M94.1289 173.964C94.7626 175.711 95.5577 177.393 96.5035 178.988C97.4888 180.806 98.3755 182.374 98.878 183.157C98.878 183.157 98.878 183.218 98.878 183.207C98.878 183.197 98.878 183.208 98.878 183.147C98.878 183.087 98.9568 183.037 98.9568 183.017C98.9568 182.997 98.8484 182.936 98.7598 183.097C98.7434 183.125 98.7335 183.156 98.7307 183.188C98.7279 183.22 98.7324 183.252 98.7439 183.282C98.7553 183.312 98.7733 183.339 98.7966 183.361C98.8198 183.383 98.8477 183.399 98.878 183.408C98.9234 183.419 98.9707 183.418 99.0153 183.404C99.0599 183.39 99.1001 183.365 99.132 183.33C99.164 183.296 99.1864 183.253 99.1972 183.207C99.2079 183.161 99.2066 183.112 99.1933 183.067C98.8189 182.203 98.0208 180.585 97.0454 178.767C96.2185 177.079 95.2423 175.471 94.1289 173.964Z" fill="#263238"/>
<path d="M89.3111 176.767C90.2402 178.554 91.3147 180.258 92.5231 181.861C93.5948 183.562 94.8079 185.165 96.1489 186.654C95.2294 184.861 94.1545 183.157 92.9369 181.56C91.8683 179.857 90.655 178.253 89.3111 176.767Z" fill="#263238"/>
<path d="M85.4486 178.576C85.9217 180.109 86.6337 181.554 87.5571 182.856C88.3334 184.243 89.2409 185.549 90.2666 186.755C89.6795 185.271 88.9151 183.867 87.9906 182.575C87.217 181.195 86.3683 179.86 85.4486 178.576Z" fill="#263238"/>
</svg>
