<svg width="105" height="334" viewBox="0 0 105 334" fill="none" xmlns="http://www.w3.org/2000/svg">
<path d="M67.8716 115.543C67.8716 115.543 59.6244 139.889 62.6525 172.931C65.9048 208.486 84.1898 256.641 84.1898 256.641L134.691 243.157L118.082 178.605L106.85 113.718L67.8716 115.543Z" fill="#263238"/>
<path d="M100.689 75.4655C101.177 75.3232 109.918 95.3148 109.844 95.9864C109.581 98.477 83.3228 100.181 83.3228 100.181L83.3997 107.058C83.3997 107.058 95.6104 109.225 107.819 107.908C120.41 106.54 123.61 100.142 121.642 92.1852C119.835 84.8981 112.209 68.0586 112.209 68.0586L100.699 75.4628L100.689 75.4655Z" fill="#B97964"/>
<path d="M69.2753 123.668L108.388 111.036C116.048 116.717 121.915 130.041 124.572 142.084C126.094 149.839 127.283 160.132 128.238 170.029C129.613 184.329 130.489 197.796 131.179 201.589C131.158 201.594 130.748 201.702 130.717 201.71C131.987 206.523 139.331 221.928 141.199 229.156C147.544 253.8 157.591 291.488 157.591 291.488L138.314 296.568C138.314 296.568 108.326 214.024 106.833 208.939C106.665 208.37 106.497 207.802 106.314 207.218L103.467 198.4C100.777 190.361 97.6618 181.438 95.0452 172.28L90.3008 157.57C77.8473 156.68 69.1619 144.836 66.5138 142.545C67.1629 131.218 67.5284 128.933 69.2601 123.651L69.2753 123.668Z" fill="#263238"/>
<path d="M67.1164 137.699C67.1164 137.699 66.1668 158.362 72.9533 205.394C74.253 214.372 80.7356 226.74 84.3639 234.493L113.317 303.354L131.913 298.371C121.825 265.843 109.232 228.608 102.161 215.399L105.973 138.007L67.1164 137.699Z" fill="#263238"/>
<g opacity="0.4">
<path d="M69.2753 123.668L108.388 111.036C116.048 116.717 121.915 130.041 124.572 142.084C126.094 149.839 127.283 160.132 128.238 170.029C129.613 184.329 130.489 197.796 131.179 201.589C131.158 201.594 130.748 201.702 130.717 201.71C131.987 206.523 139.331 221.928 141.199 229.156C147.544 253.8 157.591 291.488 157.591 291.488L138.314 296.568C138.314 296.568 108.326 214.024 106.833 208.939C106.665 208.37 106.497 207.802 106.314 207.218L103.467 198.4C100.777 190.361 97.6618 181.438 95.0452 172.28L90.3008 157.57C77.8473 156.68 69.1619 144.836 66.5138 142.545C67.1629 131.218 67.5284 128.933 69.2601 123.651L69.2753 123.668Z" fill="white"/>
<path d="M67.1164 137.699C67.1164 137.699 66.1668 158.362 72.9533 205.394C74.253 214.372 80.7356 226.74 84.3639 234.493L113.317 303.354L131.913 298.371C121.825 265.843 109.232 228.608 102.161 215.399L105.973 138.007L67.1164 137.699Z" fill="white"/>
</g>
<path opacity="0.2" d="M101.319 215.414L102.572 188.649C102.374 177.733 103.833 171.172 105.436 166.865C105.296 166.488 105.318 166.026 105.318 166.026C105.414 166.021 105.937 165.186 106.717 163.878C107.34 162.592 107.931 161.562 108.375 160.676L108.32 161.095C111.459 155.557 115.93 147.361 115.93 147.361C115.93 147.361 113.832 158.654 108.676 165.147C108.292 165.634 107.956 166.014 107.646 166.325L101.314 215.436L101.319 215.414Z" fill="black"/>
<path d="M52.2846 72.5024C49.7296 82.5076 49.7919 90.6252 49.7919 90.6252L69.7658 88.9122C69.7658 88.9122 69.1531 68.8092 65.9068 64.6657C62.8949 60.8101 62.0474 63.2724 55.7828 67.5645C54.0434 68.7595 52.8005 70.5124 52.2946 72.4996L52.2846 72.5024Z" fill="#407BFF"/>
<path d="M106.578 77.6069L107.549 57.034C102.544 52.7635 83.3432 53.6396 83.3432 53.6396L71.5356 57.5087C71.5356 57.5087 67.1828 59.742 63.5564 62.0372C58.7162 65.1056 56.2124 67.2003 55.6665 70.347C55.6665 70.347 57.7546 80.8466 62.3261 93.2798C63.5841 96.7033 66.4333 111.34 66.9407 117.656L64.8367 133.985C102.251 138.384 114.047 120.155 114.047 120.155C112.324 117.529 108.076 110.603 106.917 107.908C106.324 104.221 106.114 102.675 106.102 95.936C106.094 94.6352 106.334 78.9345 106.568 77.6096L106.578 77.6069Z" fill="#407BFF"/>
<path d="M104.853 55.9848C109.667 57.059 115.345 71.0109 115.345 71.0109L102.084 81.2096C102.084 81.2096 93.1772 70.3452 94.2373 64.1849C95.1413 58.9769 98.735 54.612 104.853 55.9848Z" fill="#407BFF"/>
<path d="M16.8828 88.3202C15.8048 86.4936 16.0959 84.0683 17.202 82.1767C18.308 80.2851 20.1362 78.8592 22.0781 77.7539C23.3778 77.0087 24.8051 76.384 26.2966 76.3104C27.7882 76.2368 29.3583 76.8137 30.1005 78.0389C30.6758 78.9889 30.7101 80.2303 31.4676 81.0482C31.9151 81.5367 32.5555 81.8075 33.1757 82.0838C33.7959 82.3601 34.4183 82.6875 34.7747 83.2421C35.1411 83.7939 35.1278 84.6348 34.5884 85.0601L34.9354 84.7696C35.858 87.5997 38.8589 89.2668 40.2386 91.9005C41.5265 94.3421 41.2281 97.4619 39.7932 99.9284C38.3607 102.405 35.9151 104.246 33.2278 105.347C30.7426 106.351 27.9542 106.756 25.4048 106.103C24.0648 105.753 22.7297 105.04 22.1714 103.817C21.5338 102.408 22.0539 100.758 22.422 99.2322C22.8835 97.3086 23.0491 95.1965 22.0733 93.5178C20.8562 91.3981 18.1326 90.4414 16.8853 88.3299L16.8828 88.3202Z" fill="#407BFF"/>
<g opacity="0.3">
<path d="M16.8784 88.3285C15.801 86.5029 16.0938 84.0781 17.2016 82.1862C18.3094 80.2944 20.1394 78.8677 22.083 77.7615C23.3838 77.0158 24.8122 76.3904 26.3045 76.3159C27.7969 76.2414 29.3675 76.8172 30.1092 78.0417C30.6842 78.9911 30.7178 80.2322 31.4752 81.0494C31.9226 81.5376 32.5631 81.808 33.1835 82.0838C33.8038 82.3597 34.4263 82.6867 34.7825 83.2409C35.1488 83.7924 35.135 84.633 34.595 85.0585L34.9424 84.7679C35.8637 87.5968 38.865 89.2617 40.2439 91.894C41.5309 94.3342 41.2304 97.4534 39.7932 99.9203C38.3585 102.397 35.9105 104.239 33.2211 105.341C30.734 106.347 27.9439 106.753 25.3937 106.102C24.0532 105.753 22.7179 105.041 22.1601 103.818C21.523 102.411 22.0444 100.761 22.4136 99.2346C22.8765 97.3111 23.0436 95.1994 22.0683 93.5217C20.852 91.4033 18.1275 90.4484 16.8809 88.3381L16.8784 88.3285Z" fill="white"/>
</g>
<path d="M52.1784 90.5731L50.0859 105.046L37.7773 95.7513L31.2296 100.665C31.2296 100.665 39.2777 108.352 46.1533 116.481C53.471 125.13 59.513 121.643 61.6637 113.611C63.6331 106.258 65.7542 89.4047 65.7542 89.4047L52.166 90.5662L52.1784 90.5731Z" fill="#B97964"/>
<path d="M79.51 37.5613C79.7405 42.893 79.8964 53.6289 84.3939 56.0149C84.3939 56.0149 84.2108 61.4588 74.4857 64.098C63.8023 66.9973 68.1316 60.4281 68.1316 60.4281C73.6344 57.5087 72.4641 53.4034 70.4774 49.778L79.4999 37.564L79.51 37.5613Z" fill="#B97964"/>
<path d="M55.093 33.9901C55.2226 33.955 55.3301 33.8745 55.3981 33.7637C55.5342 33.542 55.462 33.2536 55.2393 33.1291C53.9103 32.4111 52.2924 32.3669 50.8701 33.0192C50.6354 33.1444 50.5437 33.4157 50.6537 33.6426L50.6585 33.6618C50.7785 33.886 51.0561 33.9751 51.2932 33.8595C52.4186 33.3389 53.706 33.3803 54.7552 33.9584C54.8542 34.0138 54.9658 34.0348 55.0854 34.0024L55.093 33.9901Z" fill="#263238"/>
<path d="M55.2995 40.2862C55.4931 42.2428 55.4 44.2247 55.0281 46.1782C56.0796 46.2989 57.1421 45.9507 57.9308 45.2517L55.2995 40.2862Z" fill="#A24E3F"/>
<path d="M55.2791 38.7016C55.6524 39.4068 55.5587 40.1869 55.0728 40.4426C54.5868 40.6984 53.9008 40.3363 53.5906 39.6244C53.2803 38.9124 53.3032 38.1515 53.7868 37.8861C54.2703 37.6206 54.8956 37.9991 55.2791 38.7016Z" fill="#263238"/>
<path d="M53.9441 37.8002L51.9464 38.2457C51.9464 38.2457 53.5238 39.0972 53.9441 37.8002Z" fill="#263238"/>
<path d="M78.4953 23.2764C82.5056 32.2094 84.4002 35.9001 82.1621 42.7584C78.7936 53.0646 66.4276 56.3599 59.718 48.852C53.6724 42.1349 48.1432 28.655 55.1981 20.5199C60.1513 14.7221 68.8659 13.7302 74.6821 18.3089C76.3538 19.6321 77.6682 21.3313 78.5054 23.2736L78.4953 23.2764Z" fill="#B97964"/>
<path d="M63.2173 13.4582C54.2354 12.4624 46.2491 16.9231 47.4867 25.2908C48.7219 33.6488 60.2575 38.7997 60.2575 38.7997L63.2173 13.4582Z" fill="#263238"/>
<path d="M64.7942 35.7427C65.4798 37.5103 65.4133 39.5025 64.603 41.2831C63.5018 43.6181 60.9761 43.2283 59.6294 41.2783C58.4074 39.5219 57.516 36.177 59.4189 34.4515C60.8147 33.2356 62.9245 33.3041 64.1295 34.6103C64.4395 34.9397 64.6584 35.3351 64.7966 35.7524L64.7942 35.7427Z" fill="#B97964"/>
<path opacity="0.3" d="M61.9594 41.5365C62.0208 41.5202 62.0671 41.4871 62.1083 41.4346C62.9313 40.3756 63.2236 38.9503 62.8736 37.7067C62.7322 37.1952 62.5181 36.8274 62.2113 36.5672C61.8056 36.2195 61.2448 36.1204 60.7761 36.2972C60.6378 36.3549 60.5754 36.4959 60.6203 36.629C60.6754 36.7594 60.8332 36.8209 60.9613 36.766C61.2379 36.6507 61.587 36.7338 61.8508 36.9536C62.0866 37.1498 62.2502 37.4482 62.3644 37.853C62.6645 38.944 62.4067 40.2046 61.6843 41.1436C61.594 41.2609 61.6209 41.4092 61.73 41.4941C61.796 41.5387 61.8751 41.5487 61.9467 41.5296L61.9594 41.5365Z" fill="black"/>
<path opacity="0.3" d="M105.056 60.642C105.044 60.8509 106.001 74.3609 101.658 76.7967C99.5892 77.9558 81.7855 82.4648 81.7855 82.4648L79.6166 80.5122L77.5465 83.6168L66.279 86.6788L69.9978 74.1314L64.8956 56.6743L105.056 60.642Z" fill="black"/>
<path d="M61.948 38.3469C56.0657 32.1017 54.9844 18.2278 63.2357 13.346C70.6593 8.94689 83.9097 7.80927 86.9099 21.6288C89.9125 35.4581 92.8804 33.1136 98.7218 40.9417C104.853 49.1463 106.829 61.6095 102.948 73.2906L85.2491 78.0838L80.8866 74.5085L78.1875 79.9961L62.8219 84.1573C67.8522 72.0304 62.3167 69.3208 59.0766 60.4263C55.8366 51.5318 66.9941 43.7225 61.9278 38.3524L61.948 38.3469Z" fill="#263238"/>
<path d="M74.3057 12.7881C74.5143 11.6163 75.2301 10.4099 76.3999 10.0198C76.9936 9.81719 77.646 9.84644 78.2683 9.88388L78.5624 10.5784C79.3114 11.583 80.4771 12.1956 81.4482 13.0159C82.4168 13.8266 83.2297 15.041 82.8977 16.2774C82.6482 17.2022 81.7902 17.8896 80.8792 18.2404C79.2133 18.8788 77.2325 18.529 75.9295 17.4168C74.6265 16.3045 74.0184 14.4976 74.3182 12.795L74.3057 12.7881Z" fill="#407BFF"/>
<path d="M77.5828 17.3969C76.6875 16.3279 75.5893 13.6507 75.5865 12.5357C75.5998 10.8894 76.3919 9.30034 77.4286 7.95478C77.9557 7.27443 78.5581 6.63568 79.2875 6.15871C80.4788 5.38072 81.9382 5.10851 83.3511 5.03488C84.955 4.9507 86.6177 5.09849 87.9825 5.8541C89.8455 6.87732 90.9599 9.0233 90.7174 11.1244C90.4749 13.2254 88.8939 15.1837 86.8308 15.9194C88.2431 15.9286 89.6489 16.1668 90.9578 16.6173C91.0757 16.6576 91.196 16.7076 91.2455 16.8181C91.2825 16.9217 91.2265 17.0402 91.1679 17.1491C90.647 18.024 89.6533 18.5624 88.6416 18.7751C87.63 18.9878 86.6025 18.9258 85.5826 18.8514C86.1098 19.7 86.6346 20.539 87.1518 21.3904C87.3135 21.6461 87.4825 21.9308 87.4653 22.2454C87.4381 22.945 86.5761 23.3237 85.8519 23.3963C83.6464 23.6128 81.5223 22.5365 80.037 21.0078C79.006 19.9549 78.2453 18.6945 77.5803 17.3873L77.5828 17.3969Z" fill="#263238"/>
<path d="M65.2216 127.941C65.8514 122.999 65.2953 103.23 65.2953 103.23L88.0558 115.121C91.8551 115.873 96.1873 114.636 99.4839 111.753C104.601 107.283 106.413 98.9085 106.413 98.9085C106.413 98.9085 106.863 103.434 107.976 107.501C109.09 111.569 112.657 117.104 112.657 117.104C112.657 117.104 105.661 117.012 93.9113 119.149C82.1587 121.275 64.1286 141.356 64.1286 141.356C64.1286 141.356 64.5967 132.902 65.2265 127.96L65.2216 127.941Z" fill="#263238"/>
<path d="M92.4557 115.881C91.6544 109.641 92.8342 103.187 95.9596 97.5201C96.5415 96.4626 97.4941 95.2531 98.8232 96.0318C99.9845 96.7007 100.243 98.2656 100.304 99.4803C100.46 102.635 99.0106 105.996 97.6566 108.846C96.0583 112.216 93.9229 115.339 91.3918 118.134C90.7185 118.875 89.6424 117.821 90.3056 117.083C93.9579 113.064 96.7238 108.27 98.2109 103.15C98.6134 101.769 98.9183 100.3 98.697 98.8801C98.6386 98.5235 98.4268 97.2254 97.8799 97.4043C97.4514 97.5408 97.0527 98.6833 96.8594 99.0667C95.6667 101.407 94.8154 103.903 94.2984 106.443C93.6985 109.419 93.5938 112.479 93.9726 115.45C94.0957 116.399 92.5864 116.818 92.4608 115.859L92.4557 115.881Z" fill="#263238"/>
<path d="M93.0684 116.281C90.3236 115.717 88.4243 113.694 86.8686 111.611C84.8843 108.957 83.2601 106.052 82.0411 102.987C81.6431 101.984 81.2572 100.687 82.0793 99.7316C82.9014 98.7759 84.2787 98.8851 85.3103 99.3874C87.9084 100.653 89.816 103.39 90.9929 105.865C92.6416 109.333 93.205 113.154 93.7433 116.919C93.8772 117.869 92.3516 118.286 92.2152 117.327C91.7208 113.861 91.2448 110.297 89.8209 107.069C89.2066 105.688 88.4294 104.351 87.4451 103.183C86.9656 102.626 86.4375 102.093 85.8709 101.623C85.4157 101.246 84.4676 100.39 83.7831 100.479C82.2792 100.684 84.1633 103.924 84.5096 104.64C85.225 106.119 86.0397 107.56 86.9464 108.936C88.5179 111.336 90.4502 114.17 93.5404 114.807C94.5281 115.009 94.0741 116.468 93.0888 116.275L93.0684 116.281Z" fill="#263238"/>
<path d="M96.7072 117.485L95.9968 117.913L96.3954 117.066C99.7201 124.993 102.357 133.176 104.284 141.528C104.506 142.468 102.914 142.88 102.7 141.927C100.773 133.576 98.1355 125.392 94.8108 117.465C94.6849 117.155 94.9364 116.78 95.2093 116.618L95.9197 116.19C96.813 115.644 97.5925 116.951 96.7097 117.495L96.7072 117.485Z" fill="#263238"/>
<path d="M96.2002 117.649C96.1076 126.092 95.0017 134.526 92.9165 142.787C92.6719 143.744 91.1707 143.357 91.4051 142.403C93.4566 134.266 94.5312 125.964 94.6255 117.656C94.6391 116.688 96.2113 116.672 96.2002 117.649Z" fill="#263238"/>
<path d="M37.6916 95.6575C37.6916 95.6575 38.7271 92.8434 37.6362 90.6665C36.5452 88.4895 36.2712 86.4536 35.3385 84.8958C34.4057 83.338 33.9262 85.7742 33.9248 87.1088C33.9359 88.4504 33.9264 89.9631 32.8995 89.8374C31.8626 89.7145 24.8494 84.4537 23.3897 84.4347C21.9301 84.4157 22.7839 85.6225 22.7839 85.6225C22.7839 85.6225 21.0453 84.3861 20.3313 84.9411C20.1434 85.085 19.9492 85.7064 20.6471 86.3865C22.2172 87.9271 25.6976 90.999 25.6976 90.999C25.5007 90.8144 20.9242 87.3459 20.1606 86.9111C19.1724 86.3509 18.3869 86.584 18.0528 87.1605C17.5805 87.9916 23.0937 92.4893 23.1852 92.8472C23.1852 92.8472 20.0987 90.1446 18.9227 90.566C17.7467 90.9875 19.5861 92.7862 21.5395 94.068C23.3257 95.2398 26.4944 98.0133 28.4336 99.03C30.8194 100.288 32.7281 100.599 34.8172 99.062C36.9063 97.5248 37.6691 95.6533 37.6691 95.6533L37.6916 95.6575Z" fill="#B97964"/>
</svg>
