<svg width="52" height="269" viewBox="0 0 52 269" fill="none" xmlns="http://www.w3.org/2000/svg">
<rect width="52" height="269" fill="#E4E4E4"/>
<g id="iPhone 13 / 13 Pro - 1" clip-path="url(#clip0_0_1)">
<rect width="390" height="9523" transform="translate(-338 -2450)" fill="white"/>
<g id="&#208;&#148;&#208;&#181;&#209;&#130;&#208;&#176;&#208;&#187;&#209;&#140;&#208;&#189;&#209;&#150;&#209;&#136;&#208;&#181; &#208;&#191;&#209;&#128;&#208;&#190; &#208;&#191;&#208;&#190;&#209;&#129;&#208;&#187;&#209;&#131;&#208;&#179;&#208;&#184;">
<path id="Rectangle 62" d="M-310.669 -219.271C-188.44 -256.243 -97.4099 -256.243 24.8191 -219.271C341.52 -123.477 51.5748 676 51.5748 676H-338.425C-338.425 676 -627.37 -123.477 -310.669 -219.271Z" fill="#407BFF"/>
<g id="&#209;&#128;&#208;&#181;&#208;&#179;&#209;&#131;&#208;&#187;&#209;&#143;&#209;&#128;&#208;&#189;&#208;&#181; &#208;&#191;&#209;&#128;&#208;&#184;&#208;&#177;&#208;&#184;&#209;&#128;&#208;&#176;&#208;&#189;&#208;&#189;&#209;&#143;">
<rect id="Rectangle 29" x="-310" y="61" width="335" height="184" rx="10" fill="white"/>
<g id="&#208;&#178;&#209;&#150;&#208;&#180; 35 &#208;&#179;&#209;&#128;&#208;&#189;/&#208;&#188;2">
<path d="M-76.6869 125V118.175H-73.6709C-72.8995 118.175 -72.2929 118.322 -71.8509 118.617C-71.4002 118.912 -71.1749 119.345 -71.1749 119.917C-71.1749 120.472 -71.3872 120.901 -71.8119 121.204C-72.2365 121.499 -72.7955 121.646 -73.4889 121.646L-73.3069 121.373C-72.4922 121.373 -71.8942 121.525 -71.5129 121.828C-71.1315 122.131 -70.9409 122.569 -70.9409 123.141C-70.9409 123.73 -71.1575 124.19 -71.5909 124.519C-72.0155 124.84 -72.6785 125 -73.5799 125H-76.6869ZM-75.7899 124.272H-73.6189C-73.0382 124.272 -72.6005 124.181 -72.3059 123.999C-72.0025 123.808 -71.8509 123.505 -71.8509 123.089C-71.8509 122.673 -71.9852 122.37 -72.2539 122.179C-72.5225 121.988 -72.9472 121.893 -73.5279 121.893H-75.7899V124.272ZM-75.7899 121.204H-73.7359C-73.2072 121.204 -72.8042 121.104 -72.5269 120.905C-72.2409 120.706 -72.0979 120.415 -72.0979 120.034C-72.0979 119.653 -72.2409 119.367 -72.5269 119.176C-72.8042 118.985 -73.2072 118.89 -73.7359 118.89H-75.7899V121.204ZM-68.7777 125V118.175H-67.8547V125H-68.7777ZM-68.3097 116.667C-68.5004 116.667 -68.6607 116.602 -68.7907 116.472C-68.9207 116.342 -68.9857 116.186 -68.9857 116.004C-68.9857 115.822 -68.9207 115.67 -68.7907 115.549C-68.6607 115.419 -68.5004 115.354 -68.3097 115.354C-68.119 115.354 -67.9587 115.415 -67.8287 115.536C-67.6987 115.657 -67.6337 115.809 -67.6337 115.991C-67.6337 116.182 -67.6987 116.342 -67.8287 116.472C-67.95 116.602 -68.1104 116.667 -68.3097 116.667ZM-60.543 124.558V118.981H-63.832L-63.91 120.502C-63.9273 120.961 -63.9577 121.412 -64.001 121.854C-64.0357 122.296 -64.1007 122.703 -64.196 123.076C-64.2827 123.44 -64.4083 123.739 -64.573 123.973C-64.7377 124.198 -64.95 124.328 -65.21 124.363L-66.133 124.194C-65.8643 124.203 -65.6433 124.107 -65.47 123.908C-65.2967 123.7 -65.1623 123.418 -65.067 123.063C-64.9717 122.708 -64.9023 122.305 -64.859 121.854C-64.8157 121.395 -64.781 120.927 -64.755 120.45L-64.664 118.175H-59.62V124.558H-60.543ZM-66.419 126.651V124.194H-58.554V126.651H-59.425V125H-65.548V126.651H-66.419ZM-51.2729 125.078C-51.9316 125.078 -52.5556 124.974 -53.1449 124.766C-53.7256 124.549 -54.1936 124.263 -54.5489 123.908L-54.0939 123.167C-53.7992 123.47 -53.4049 123.722 -52.9109 123.921C-52.4082 124.12 -51.8622 124.22 -51.2729 124.22C-50.5189 124.22 -49.9426 124.055 -49.5439 123.726C-49.1366 123.397 -48.9329 122.955 -48.9329 122.4C-48.9329 121.845 -49.1322 121.403 -49.5309 121.074C-49.9209 120.745 -50.5406 120.58 -51.3899 120.58H-52.0399V119.891L-49.2319 116.368L-49.1019 116.732H-54.1719V115.9H-48.3219V116.563L-51.1299 120.086L-51.5849 119.787H-51.2339C-50.1419 119.787 -49.3272 120.03 -48.7899 120.515C-48.2439 121 -47.9709 121.624 -47.9709 122.387C-47.9709 122.898 -48.0922 123.358 -48.3349 123.765C-48.5776 124.172 -48.9459 124.493 -49.4399 124.727C-49.9252 124.961 -50.5362 125.078 -51.2729 125.078ZM-43.779 125.078C-44.429 125.078 -45.0487 124.974 -45.638 124.766C-46.2273 124.549 -46.6953 124.263 -47.042 123.908L-46.587 123.167C-46.301 123.47 -45.911 123.722 -45.417 123.921C-44.9143 124.12 -44.3727 124.22 -43.792 124.22C-43.0207 124.22 -42.4357 124.051 -42.037 123.713C-41.6297 123.366 -41.426 122.916 -41.426 122.361C-41.426 121.971 -41.5213 121.637 -41.712 121.36C-41.894 121.074 -42.206 120.853 -42.648 120.697C-43.09 120.541 -43.6967 120.463 -44.468 120.463H-46.405L-45.937 115.9H-40.958V116.732H-45.56L-45.079 116.277L-45.482 120.099L-45.963 119.631H-44.26C-43.3413 119.631 -42.6047 119.744 -42.05 119.969C-41.4953 120.194 -41.0967 120.511 -40.854 120.918C-40.6027 121.317 -40.477 121.785 -40.477 122.322C-40.477 122.833 -40.5983 123.301 -40.841 123.726C-41.0837 124.142 -41.4477 124.471 -41.933 124.714C-42.4183 124.957 -43.0337 125.078 -43.779 125.078ZM-35.2494 125V118.175H-30.4134V118.981H-34.5604L-34.3264 118.747V125H-35.2494ZM-25.5565 125.065C-26.1458 125.065 -26.6788 124.931 -27.1555 124.662C-27.6321 124.385 -28.0135 123.99 -28.2995 123.479C-28.5768 122.959 -28.7155 122.326 -28.7155 121.581C-28.7155 120.836 -28.5768 120.207 -28.2995 119.696C-28.0221 119.176 -27.6451 118.782 -27.1685 118.513C-26.6918 118.244 -26.1545 118.11 -25.5565 118.11C-24.9065 118.11 -24.3258 118.257 -23.8145 118.552C-23.2945 118.838 -22.8871 119.245 -22.5925 119.774C-22.2978 120.294 -22.1505 120.896 -22.1505 121.581C-22.1505 122.274 -22.2978 122.881 -22.5925 123.401C-22.8871 123.921 -23.2945 124.328 -23.8145 124.623C-24.3258 124.918 -24.9065 125.065 -25.5565 125.065ZM-29.0795 127.522V118.175H-28.1955V120.229L-28.2865 121.594L-28.1565 122.972V127.522H-29.0795ZM-25.6215 124.246C-25.1361 124.246 -24.7028 124.138 -24.3215 123.921C-23.9401 123.696 -23.6368 123.384 -23.4115 122.985C-23.1861 122.578 -23.0735 122.11 -23.0735 121.581C-23.0735 121.052 -23.1861 120.589 -23.4115 120.19C-23.6368 119.791 -23.9401 119.479 -24.3215 119.254C-24.7028 119.029 -25.1361 118.916 -25.6215 118.916C-26.1068 118.916 -26.5445 119.029 -26.9345 119.254C-27.3158 119.479 -27.6191 119.791 -27.8445 120.19C-28.0611 120.589 -28.1695 121.052 -28.1695 121.581C-28.1695 122.11 -28.0611 122.578 -27.8445 122.985C-27.6191 123.384 -27.3158 123.696 -26.9345 123.921C-26.5445 124.138 -26.1068 124.246 -25.6215 124.246ZM-20.1673 125V118.175H-19.2443V121.191H-14.9413V118.175H-14.0183V125H-14.9413V121.984H-19.2443V125H-20.1673ZM-11.3429 126.3L-7.05288 114.054H-6.20788L-10.4979 126.3H-11.3429ZM-4.83039 125V118.175H-3.89439L-0.800394 123.414H-1.19039L1.95561 118.175H2.81361V125H1.96861V119.228L2.13761 119.306L-0.800394 124.168H-1.21639L-4.18039 119.254L-3.98539 119.215V125H-4.83039ZM4.75111 120.749V120.294L7.22111 118.11C7.55911 117.807 7.78011 117.564 7.88411 117.382C7.99678 117.191 8.05311 117.005 8.05311 116.823C8.05311 116.572 7.94045 116.355 7.71511 116.173C7.48978 115.991 7.12145 115.9 6.61011 115.9C6.28078 115.9 5.97745 115.952 5.70011 116.056C5.42278 116.151 5.19745 116.299 5.02411 116.498L4.54311 116.121C4.76845 115.852 5.05878 115.649 5.41411 115.51C5.76945 115.371 6.18111 115.302 6.64911 115.302C7.35111 115.302 7.87545 115.445 8.22211 115.731C8.57745 116.017 8.75511 116.368 8.75511 116.784C8.75511 117.053 8.68578 117.308 8.54711 117.551C8.41711 117.794 8.14845 118.097 7.74111 118.461L5.51811 120.424L5.29711 120.164H9.01511V120.749H4.75111Z" fill="#263238"/>
</g>
<rect id="Rectangle 31" x="-310" y="137" width="335" height="36" fill="#ECF0F8"/>
<path id="Rectangle 32" d="M-310 209H25.0001V235C25.0001 240.523 20.523 245 15.0001 245H-300C-305.523 245 -310 240.523 -310 235V209Z" fill="#ECF0F8"/>
<g id="&#208;&#178;&#209;&#150;&#208;&#180; 35 &#208;&#179;&#209;&#128;&#208;&#189;/&#208;&#188;2_2">
<path d="M-76.6869 160V153.175H-73.6709C-72.8995 153.175 -72.2929 153.322 -71.8509 153.617C-71.4002 153.912 -71.1749 154.345 -71.1749 154.917C-71.1749 155.472 -71.3872 155.901 -71.8119 156.204C-72.2365 156.499 -72.7955 156.646 -73.4889 156.646L-73.3069 156.373C-72.4922 156.373 -71.8942 156.525 -71.5129 156.828C-71.1315 157.131 -70.9409 157.569 -70.9409 158.141C-70.9409 158.73 -71.1575 159.19 -71.5909 159.519C-72.0155 159.84 -72.6785 160 -73.5799 160H-76.6869ZM-75.7899 159.272H-73.6189C-73.0382 159.272 -72.6005 159.181 -72.3059 158.999C-72.0025 158.808 -71.8509 158.505 -71.8509 158.089C-71.8509 157.673 -71.9852 157.37 -72.2539 157.179C-72.5225 156.988 -72.9472 156.893 -73.5279 156.893H-75.7899V159.272ZM-75.7899 156.204H-73.7359C-73.2072 156.204 -72.8042 156.104 -72.5269 155.905C-72.2409 155.706 -72.0979 155.415 -72.0979 155.034C-72.0979 154.653 -72.2409 154.367 -72.5269 154.176C-72.8042 153.985 -73.2072 153.89 -73.7359 153.89H-75.7899V156.204ZM-68.7777 160V153.175H-67.8547V160H-68.7777ZM-68.3097 151.667C-68.5004 151.667 -68.6607 151.602 -68.7907 151.472C-68.9207 151.342 -68.9857 151.186 -68.9857 151.004C-68.9857 150.822 -68.9207 150.67 -68.7907 150.549C-68.6607 150.419 -68.5004 150.354 -68.3097 150.354C-68.119 150.354 -67.9587 150.415 -67.8287 150.536C-67.6987 150.657 -67.6337 150.809 -67.6337 150.991C-67.6337 151.182 -67.6987 151.342 -67.8287 151.472C-67.95 151.602 -68.1104 151.667 -68.3097 151.667ZM-60.543 159.558V153.981H-63.832L-63.91 155.502C-63.9273 155.961 -63.9577 156.412 -64.001 156.854C-64.0357 157.296 -64.1007 157.703 -64.196 158.076C-64.2827 158.44 -64.4083 158.739 -64.573 158.973C-64.7377 159.198 -64.95 159.328 -65.21 159.363L-66.133 159.194C-65.8643 159.203 -65.6433 159.107 -65.47 158.908C-65.2967 158.7 -65.1623 158.418 -65.067 158.063C-64.9717 157.708 -64.9023 157.305 -64.859 156.854C-64.8157 156.395 -64.781 155.927 -64.755 155.45L-64.664 153.175H-59.62V159.558H-60.543ZM-66.419 161.651V159.194H-58.554V161.651H-59.425V160H-65.548V161.651H-66.419ZM-51.2729 160.078C-51.9316 160.078 -52.5556 159.974 -53.1449 159.766C-53.7256 159.549 -54.1936 159.263 -54.5489 158.908L-54.0939 158.167C-53.7992 158.47 -53.4049 158.722 -52.9109 158.921C-52.4082 159.12 -51.8622 159.22 -51.2729 159.22C-50.5189 159.22 -49.9426 159.055 -49.5439 158.726C-49.1366 158.397 -48.9329 157.955 -48.9329 157.4C-48.9329 156.845 -49.1322 156.403 -49.5309 156.074C-49.9209 155.745 -50.5406 155.58 -51.3899 155.58H-52.0399V154.891L-49.2319 151.368L-49.1019 151.732H-54.1719V150.9H-48.3219V151.563L-51.1299 155.086L-51.5849 154.787H-51.2339C-50.1419 154.787 -49.3272 155.03 -48.7899 155.515C-48.2439 156 -47.9709 156.624 -47.9709 157.387C-47.9709 157.898 -48.0922 158.358 -48.3349 158.765C-48.5776 159.172 -48.9459 159.493 -49.4399 159.727C-49.9252 159.961 -50.5362 160.078 -51.2729 160.078ZM-43.779 160.078C-44.429 160.078 -45.0487 159.974 -45.638 159.766C-46.2273 159.549 -46.6953 159.263 -47.042 158.908L-46.587 158.167C-46.301 158.47 -45.911 158.722 -45.417 158.921C-44.9143 159.12 -44.3727 159.22 -43.792 159.22C-43.0207 159.22 -42.4357 159.051 -42.037 158.713C-41.6297 158.366 -41.426 157.916 -41.426 157.361C-41.426 156.971 -41.5213 156.637 -41.712 156.36C-41.894 156.074 -42.206 155.853 -42.648 155.697C-43.09 155.541 -43.6967 155.463 -44.468 155.463H-46.405L-45.937 150.9H-40.958V151.732H-45.56L-45.079 151.277L-45.482 155.099L-45.963 154.631H-44.26C-43.3413 154.631 -42.6047 154.744 -42.05 154.969C-41.4953 155.194 -41.0967 155.511 -40.854 155.918C-40.6027 156.317 -40.477 156.785 -40.477 157.322C-40.477 157.833 -40.5983 158.301 -40.841 158.726C-41.0837 159.142 -41.4477 159.471 -41.933 159.714C-42.4183 159.957 -43.0337 160.078 -43.779 160.078ZM-35.2494 160V153.175H-30.4134V153.981H-34.5604L-34.3264 153.747V160H-35.2494ZM-25.5565 160.065C-26.1458 160.065 -26.6788 159.931 -27.1555 159.662C-27.6321 159.385 -28.0135 158.99 -28.2995 158.479C-28.5768 157.959 -28.7155 157.326 -28.7155 156.581C-28.7155 155.836 -28.5768 155.207 -28.2995 154.696C-28.0221 154.176 -27.6451 153.782 -27.1685 153.513C-26.6918 153.244 -26.1545 153.11 -25.5565 153.11C-24.9065 153.11 -24.3258 153.257 -23.8145 153.552C-23.2945 153.838 -22.8871 154.245 -22.5925 154.774C-22.2978 155.294 -22.1505 155.896 -22.1505 156.581C-22.1505 157.274 -22.2978 157.881 -22.5925 158.401C-22.8871 158.921 -23.2945 159.328 -23.8145 159.623C-24.3258 159.918 -24.9065 160.065 -25.5565 160.065ZM-29.0795 162.522V153.175H-28.1955V155.229L-28.2865 156.594L-28.1565 157.972V162.522H-29.0795ZM-25.6215 159.246C-25.1361 159.246 -24.7028 159.138 -24.3215 158.921C-23.9401 158.696 -23.6368 158.384 -23.4115 157.985C-23.1861 157.578 -23.0735 157.11 -23.0735 156.581C-23.0735 156.052 -23.1861 155.589 -23.4115 155.19C-23.6368 154.791 -23.9401 154.479 -24.3215 154.254C-24.7028 154.029 -25.1361 153.916 -25.6215 153.916C-26.1068 153.916 -26.5445 154.029 -26.9345 154.254C-27.3158 154.479 -27.6191 154.791 -27.8445 155.19C-28.0611 155.589 -28.1695 156.052 -28.1695 156.581C-28.1695 157.11 -28.0611 157.578 -27.8445 157.985C-27.6191 158.384 -27.3158 158.696 -26.9345 158.921C-26.5445 159.138 -26.1068 159.246 -25.6215 159.246ZM-20.1673 160V153.175H-19.2443V156.191H-14.9413V153.175H-14.0183V160H-14.9413V156.984H-19.2443V160H-20.1673ZM-11.3429 161.3L-7.05288 149.054H-6.20788L-10.4979 161.3H-11.3429ZM-4.83039 160V153.175H-3.89439L-0.800394 158.414H-1.19039L1.95561 153.175H2.81361V160H1.96861V154.228L2.13761 154.306L-0.800394 159.168H-1.21639L-4.18039 154.254L-3.98539 154.215V160H-4.83039ZM4.75111 155.749V155.294L7.22111 153.11C7.55911 152.807 7.78011 152.564 7.88411 152.382C7.99678 152.191 8.05311 152.005 8.05311 151.823C8.05311 151.572 7.94045 151.355 7.71511 151.173C7.48978 150.991 7.12145 150.9 6.61011 150.9C6.28078 150.9 5.97745 150.952 5.70011 151.056C5.42278 151.151 5.19745 151.299 5.02411 151.498L4.54311 151.121C4.76845 150.852 5.05878 150.649 5.41411 150.51C5.76945 150.371 6.18111 150.302 6.64911 150.302C7.35111 150.302 7.87545 150.445 8.22211 150.731C8.57745 151.017 8.75511 151.368 8.75511 151.784C8.75511 152.053 8.68578 152.308 8.54711 152.551C8.41711 152.794 8.14845 153.097 7.74111 153.461L5.51811 155.424L5.29711 155.164H9.01511V155.749H4.75111Z" fill="#263238"/>
</g>
<g id="&#208;&#178;&#209;&#150;&#208;&#180; 35 &#208;&#179;&#209;&#128;&#208;&#189;/&#208;&#188;2_3">
<path d="M-76.6869 196V189.175H-73.6709C-72.8995 189.175 -72.2929 189.322 -71.8509 189.617C-71.4002 189.912 -71.1749 190.345 -71.1749 190.917C-71.1749 191.472 -71.3872 191.901 -71.8119 192.204C-72.2365 192.499 -72.7955 192.646 -73.4889 192.646L-73.3069 192.373C-72.4922 192.373 -71.8942 192.525 -71.5129 192.828C-71.1315 193.131 -70.9409 193.569 -70.9409 194.141C-70.9409 194.73 -71.1575 195.19 -71.5909 195.519C-72.0155 195.84 -72.6785 196 -73.5799 196H-76.6869ZM-75.7899 195.272H-73.6189C-73.0382 195.272 -72.6005 195.181 -72.3059 194.999C-72.0025 194.808 -71.8509 194.505 -71.8509 194.089C-71.8509 193.673 -71.9852 193.37 -72.2539 193.179C-72.5225 192.988 -72.9472 192.893 -73.5279 192.893H-75.7899V195.272ZM-75.7899 192.204H-73.7359C-73.2072 192.204 -72.8042 192.104 -72.5269 191.905C-72.2409 191.706 -72.0979 191.415 -72.0979 191.034C-72.0979 190.653 -72.2409 190.367 -72.5269 190.176C-72.8042 189.985 -73.2072 189.89 -73.7359 189.89H-75.7899V192.204ZM-68.7777 196V189.175H-67.8547V196H-68.7777ZM-68.3097 187.667C-68.5004 187.667 -68.6607 187.602 -68.7907 187.472C-68.9207 187.342 -68.9857 187.186 -68.9857 187.004C-68.9857 186.822 -68.9207 186.67 -68.7907 186.549C-68.6607 186.419 -68.5004 186.354 -68.3097 186.354C-68.119 186.354 -67.9587 186.415 -67.8287 186.536C-67.6987 186.657 -67.6337 186.809 -67.6337 186.991C-67.6337 187.182 -67.6987 187.342 -67.8287 187.472C-67.95 187.602 -68.1104 187.667 -68.3097 187.667ZM-60.543 195.558V189.981H-63.832L-63.91 191.502C-63.9273 191.961 -63.9577 192.412 -64.001 192.854C-64.0357 193.296 -64.1007 193.703 -64.196 194.076C-64.2827 194.44 -64.4083 194.739 -64.573 194.973C-64.7377 195.198 -64.95 195.328 -65.21 195.363L-66.133 195.194C-65.8643 195.203 -65.6433 195.107 -65.47 194.908C-65.2967 194.7 -65.1623 194.418 -65.067 194.063C-64.9717 193.708 -64.9023 193.305 -64.859 192.854C-64.8157 192.395 -64.781 191.927 -64.755 191.45L-64.664 189.175H-59.62V195.558H-60.543ZM-66.419 197.651V195.194H-58.554V197.651H-59.425V196H-65.548V197.651H-66.419ZM-51.2729 196.078C-51.9316 196.078 -52.5556 195.974 -53.1449 195.766C-53.7256 195.549 -54.1936 195.263 -54.5489 194.908L-54.0939 194.167C-53.7992 194.47 -53.4049 194.722 -52.9109 194.921C-52.4082 195.12 -51.8622 195.22 -51.2729 195.22C-50.5189 195.22 -49.9426 195.055 -49.5439 194.726C-49.1366 194.397 -48.9329 193.955 -48.9329 193.4C-48.9329 192.845 -49.1322 192.403 -49.5309 192.074C-49.9209 191.745 -50.5406 191.58 -51.3899 191.58H-52.0399V190.891L-49.2319 187.368L-49.1019 187.732H-54.1719V186.9H-48.3219V187.563L-51.1299 191.086L-51.5849 190.787H-51.2339C-50.1419 190.787 -49.3272 191.03 -48.7899 191.515C-48.2439 192 -47.9709 192.624 -47.9709 193.387C-47.9709 193.898 -48.0922 194.358 -48.3349 194.765C-48.5776 195.172 -48.9459 195.493 -49.4399 195.727C-49.9252 195.961 -50.5362 196.078 -51.2729 196.078ZM-43.779 196.078C-44.429 196.078 -45.0487 195.974 -45.638 195.766C-46.2273 195.549 -46.6953 195.263 -47.042 194.908L-46.587 194.167C-46.301 194.47 -45.911 194.722 -45.417 194.921C-44.9143 195.12 -44.3727 195.22 -43.792 195.22C-43.0207 195.22 -42.4357 195.051 -42.037 194.713C-41.6297 194.366 -41.426 193.916 -41.426 193.361C-41.426 192.971 -41.5213 192.637 -41.712 192.36C-41.894 192.074 -42.206 191.853 -42.648 191.697C-43.09 191.541 -43.6967 191.463 -44.468 191.463H-46.405L-45.937 186.9H-40.958V187.732H-45.56L-45.079 187.277L-45.482 191.099L-45.963 190.631H-44.26C-43.3413 190.631 -42.6047 190.744 -42.05 190.969C-41.4953 191.194 -41.0967 191.511 -40.854 191.918C-40.6027 192.317 -40.477 192.785 -40.477 193.322C-40.477 193.833 -40.5983 194.301 -40.841 194.726C-41.0837 195.142 -41.4477 195.471 -41.933 195.714C-42.4183 195.957 -43.0337 196.078 -43.779 196.078ZM-35.2494 196V189.175H-30.4134V189.981H-34.5604L-34.3264 189.747V196H-35.2494ZM-25.5565 196.065C-26.1458 196.065 -26.6788 195.931 -27.1555 195.662C-27.6321 195.385 -28.0135 194.99 -28.2995 194.479C-28.5768 193.959 -28.7155 193.326 -28.7155 192.581C-28.7155 191.836 -28.5768 191.207 -28.2995 190.696C-28.0221 190.176 -27.6451 189.782 -27.1685 189.513C-26.6918 189.244 -26.1545 189.11 -25.5565 189.11C-24.9065 189.11 -24.3258 189.257 -23.8145 189.552C-23.2945 189.838 -22.8871 190.245 -22.5925 190.774C-22.2978 191.294 -22.1505 191.896 -22.1505 192.581C-22.1505 193.274 -22.2978 193.881 -22.5925 194.401C-22.8871 194.921 -23.2945 195.328 -23.8145 195.623C-24.3258 195.918 -24.9065 196.065 -25.5565 196.065ZM-29.0795 198.522V189.175H-28.1955V191.229L-28.2865 192.594L-28.1565 193.972V198.522H-29.0795ZM-25.6215 195.246C-25.1361 195.246 -24.7028 195.138 -24.3215 194.921C-23.9401 194.696 -23.6368 194.384 -23.4115 193.985C-23.1861 193.578 -23.0735 193.11 -23.0735 192.581C-23.0735 192.052 -23.1861 191.589 -23.4115 191.19C-23.6368 190.791 -23.9401 190.479 -24.3215 190.254C-24.7028 190.029 -25.1361 189.916 -25.6215 189.916C-26.1068 189.916 -26.5445 190.029 -26.9345 190.254C-27.3158 190.479 -27.6191 190.791 -27.8445 191.19C-28.0611 191.589 -28.1695 192.052 -28.1695 192.581C-28.1695 193.11 -28.0611 193.578 -27.8445 193.985C-27.6191 194.384 -27.3158 194.696 -26.9345 194.921C-26.5445 195.138 -26.1068 195.246 -25.6215 195.246ZM-20.1673 196V189.175H-19.2443V192.191H-14.9413V189.175H-14.0183V196H-14.9413V192.984H-19.2443V196H-20.1673ZM-11.3429 197.3L-7.05288 185.054H-6.20788L-10.4979 197.3H-11.3429ZM-4.83039 196V189.175H-3.89439L-0.800394 194.414H-1.19039L1.95561 189.175H2.81361V196H1.96861V190.228L2.13761 190.306L-0.800394 195.168H-1.21639L-4.18039 190.254L-3.98539 190.215V196H-4.83039ZM4.75111 191.749V191.294L7.22111 189.11C7.55911 188.807 7.78011 188.564 7.88411 188.382C7.99678 188.191 8.05311 188.005 8.05311 187.823C8.05311 187.572 7.94045 187.355 7.71511 187.173C7.48978 186.991 7.12145 186.9 6.61011 186.9C6.28078 186.9 5.97745 186.952 5.70011 187.056C5.42278 187.151 5.19745 187.299 5.02411 187.498L4.54311 187.121C4.76845 186.852 5.05878 186.649 5.41411 186.51C5.76945 186.371 6.18111 186.302 6.64911 186.302C7.35111 186.302 7.87545 186.445 8.22211 186.731C8.57745 187.017 8.75511 187.368 8.75511 187.784C8.75511 188.053 8.68578 188.308 8.54711 188.551C8.41711 188.794 8.14845 189.097 7.74111 189.461L5.51811 191.424L5.29711 191.164H9.01511V191.749H4.75111Z" fill="#263238"/>
</g>
<g id="&#208;&#178;&#209;&#150;&#208;&#180; 35 &#208;&#179;&#209;&#128;&#208;&#189;/&#208;&#188;2_4">
<path d="M-76.6869 232V225.175H-73.6709C-72.8995 225.175 -72.2929 225.322 -71.8509 225.617C-71.4002 225.912 -71.1749 226.345 -71.1749 226.917C-71.1749 227.472 -71.3872 227.901 -71.8119 228.204C-72.2365 228.499 -72.7955 228.646 -73.4889 228.646L-73.3069 228.373C-72.4922 228.373 -71.8942 228.525 -71.5129 228.828C-71.1315 229.131 -70.9409 229.569 -70.9409 230.141C-70.9409 230.73 -71.1575 231.19 -71.5909 231.519C-72.0155 231.84 -72.6785 232 -73.5799 232H-76.6869ZM-75.7899 231.272H-73.6189C-73.0382 231.272 -72.6005 231.181 -72.3059 230.999C-72.0025 230.808 -71.8509 230.505 -71.8509 230.089C-71.8509 229.673 -71.9852 229.37 -72.2539 229.179C-72.5225 228.988 -72.9472 228.893 -73.5279 228.893H-75.7899V231.272ZM-75.7899 228.204H-73.7359C-73.2072 228.204 -72.8042 228.104 -72.5269 227.905C-72.2409 227.706 -72.0979 227.415 -72.0979 227.034C-72.0979 226.653 -72.2409 226.367 -72.5269 226.176C-72.8042 225.985 -73.2072 225.89 -73.7359 225.89H-75.7899V228.204ZM-68.7777 232V225.175H-67.8547V232H-68.7777ZM-68.3097 223.667C-68.5004 223.667 -68.6607 223.602 -68.7907 223.472C-68.9207 223.342 -68.9857 223.186 -68.9857 223.004C-68.9857 222.822 -68.9207 222.67 -68.7907 222.549C-68.6607 222.419 -68.5004 222.354 -68.3097 222.354C-68.119 222.354 -67.9587 222.415 -67.8287 222.536C-67.6987 222.657 -67.6337 222.809 -67.6337 222.991C-67.6337 223.182 -67.6987 223.342 -67.8287 223.472C-67.95 223.602 -68.1104 223.667 -68.3097 223.667ZM-60.543 231.558V225.981H-63.832L-63.91 227.502C-63.9273 227.961 -63.9577 228.412 -64.001 228.854C-64.0357 229.296 -64.1007 229.703 -64.196 230.076C-64.2827 230.44 -64.4083 230.739 -64.573 230.973C-64.7377 231.198 -64.95 231.328 -65.21 231.363L-66.133 231.194C-65.8643 231.203 -65.6433 231.107 -65.47 230.908C-65.2967 230.7 -65.1623 230.418 -65.067 230.063C-64.9717 229.708 -64.9023 229.305 -64.859 228.854C-64.8157 228.395 -64.781 227.927 -64.755 227.45L-64.664 225.175H-59.62V231.558H-60.543ZM-66.419 233.651V231.194H-58.554V233.651H-59.425V232H-65.548V233.651H-66.419ZM-51.2729 232.078C-51.9316 232.078 -52.5556 231.974 -53.1449 231.766C-53.7256 231.549 -54.1936 231.263 -54.5489 230.908L-54.0939 230.167C-53.7992 230.47 -53.4049 230.722 -52.9109 230.921C-52.4082 231.12 -51.8622 231.22 -51.2729 231.22C-50.5189 231.22 -49.9426 231.055 -49.5439 230.726C-49.1366 230.397 -48.9329 229.955 -48.9329 229.4C-48.9329 228.845 -49.1322 228.403 -49.5309 228.074C-49.9209 227.745 -50.5406 227.58 -51.3899 227.58H-52.0399V226.891L-49.2319 223.368L-49.1019 223.732H-54.1719V222.9H-48.3219V223.563L-51.1299 227.086L-51.5849 226.787H-51.2339C-50.1419 226.787 -49.3272 227.03 -48.7899 227.515C-48.2439 228 -47.9709 228.624 -47.9709 229.387C-47.9709 229.898 -48.0922 230.358 -48.3349 230.765C-48.5776 231.172 -48.9459 231.493 -49.4399 231.727C-49.9252 231.961 -50.5362 232.078 -51.2729 232.078ZM-43.779 232.078C-44.429 232.078 -45.0487 231.974 -45.638 231.766C-46.2273 231.549 -46.6953 231.263 -47.042 230.908L-46.587 230.167C-46.301 230.47 -45.911 230.722 -45.417 230.921C-44.9143 231.12 -44.3727 231.22 -43.792 231.22C-43.0207 231.22 -42.4357 231.051 -42.037 230.713C-41.6297 230.366 -41.426 229.916 -41.426 229.361C-41.426 228.971 -41.5213 228.637 -41.712 228.36C-41.894 228.074 -42.206 227.853 -42.648 227.697C-43.09 227.541 -43.6967 227.463 -44.468 227.463H-46.405L-45.937 222.9H-40.958V223.732H-45.56L-45.079 223.277L-45.482 227.099L-45.963 226.631H-44.26C-43.3413 226.631 -42.6047 226.744 -42.05 226.969C-41.4953 227.194 -41.0967 227.511 -40.854 227.918C-40.6027 228.317 -40.477 228.785 -40.477 229.322C-40.477 229.833 -40.5983 230.301 -40.841 230.726C-41.0837 231.142 -41.4477 231.471 -41.933 231.714C-42.4183 231.957 -43.0337 232.078 -43.779 232.078ZM-35.2494 232V225.175H-30.4134V225.981H-34.5604L-34.3264 225.747V232H-35.2494ZM-25.5565 232.065C-26.1458 232.065 -26.6788 231.931 -27.1555 231.662C-27.6321 231.385 -28.0135 230.99 -28.2995 230.479C-28.5768 229.959 -28.7155 229.326 -28.7155 228.581C-28.7155 227.836 -28.5768 227.207 -28.2995 226.696C-28.0221 226.176 -27.6451 225.782 -27.1685 225.513C-26.6918 225.244 -26.1545 225.11 -25.5565 225.11C-24.9065 225.11 -24.3258 225.257 -23.8145 225.552C-23.2945 225.838 -22.8871 226.245 -22.5925 226.774C-22.2978 227.294 -22.1505 227.896 -22.1505 228.581C-22.1505 229.274 -22.2978 229.881 -22.5925 230.401C-22.8871 230.921 -23.2945 231.328 -23.8145 231.623C-24.3258 231.918 -24.9065 232.065 -25.5565 232.065ZM-29.0795 234.522V225.175H-28.1955V227.229L-28.2865 228.594L-28.1565 229.972V234.522H-29.0795ZM-25.6215 231.246C-25.1361 231.246 -24.7028 231.138 -24.3215 230.921C-23.9401 230.696 -23.6368 230.384 -23.4115 229.985C-23.1861 229.578 -23.0735 229.11 -23.0735 228.581C-23.0735 228.052 -23.1861 227.589 -23.4115 227.19C-23.6368 226.791 -23.9401 226.479 -24.3215 226.254C-24.7028 226.029 -25.1361 225.916 -25.6215 225.916C-26.1068 225.916 -26.5445 226.029 -26.9345 226.254C-27.3158 226.479 -27.6191 226.791 -27.8445 227.19C-28.0611 227.589 -28.1695 228.052 -28.1695 228.581C-28.1695 229.11 -28.0611 229.578 -27.8445 229.985C-27.6191 230.384 -27.3158 230.696 -26.9345 230.921C-26.5445 231.138 -26.1068 231.246 -25.6215 231.246ZM-20.1673 232V225.175H-19.2443V228.191H-14.9413V225.175H-14.0183V232H-14.9413V228.984H-19.2443V232H-20.1673ZM-11.3429 233.3L-7.05288 221.054H-6.20788L-10.4979 233.3H-11.3429ZM-4.83039 232V225.175H-3.89439L-0.800394 230.414H-1.19039L1.95561 225.175H2.81361V232H1.96861V226.228L2.13761 226.306L-0.800394 231.168H-1.21639L-4.18039 226.254L-3.98539 226.215V232H-4.83039ZM4.75111 227.749V227.294L7.22111 225.11C7.55911 224.807 7.78011 224.564 7.88411 224.382C7.99678 224.191 8.05311 224.005 8.05311 223.823C8.05311 223.572 7.94045 223.355 7.71511 223.173C7.48978 222.991 7.12145 222.9 6.61011 222.9C6.28078 222.9 5.97745 222.952 5.70011 223.056C5.42278 223.151 5.19745 223.299 5.02411 223.498L4.54311 223.121C4.76845 222.852 5.05878 222.649 5.41411 222.51C5.76945 222.371 6.18111 222.302 6.64911 222.302C7.35111 222.302 7.87545 222.445 8.22211 222.731C8.57745 223.017 8.75511 223.368 8.75511 223.784C8.75511 224.053 8.68578 224.308 8.54711 224.551C8.41711 224.794 8.14845 225.097 7.74111 225.461L5.51811 227.424L5.29711 227.164H9.01511V227.749H4.75111Z" fill="#263238"/>
</g>
<g id="&#208;&#182;&#208;&#181;&#208;&#189;&#209;&#137;&#208;&#184;&#208;&#189;&#208;&#176;">
<path id="Vector" d="M45.4867 103.623C45.4867 103.623 42.7555 118.317 46.9641 136.801C51.4893 156.691 65.3441 182.207 65.3441 182.207L92.4234 169.359L78.2498 134.345L67.0428 98.5879L45.4867 103.623Z" fill="#263238"/>
<path id="Vector_2" d="M55.8408 76.4358C56.0854 76.3123 62.0661 86.1243 62.0748 86.4899C62.1145 87.8443 48.5267 91.3178 48.5267 91.3178L49.0544 94.9788C49.0544 94.9788 55.5827 94.9428 61.863 93.0481C68.3392 91.0885 69.5564 87.3628 67.965 83.3097C66.5048 79.5985 61.3297 71.3592 61.3297 71.3592L55.8459 76.4333L55.8408 76.4358Z" fill="#DE9E7C"/>
<g id="Group">
<g id="Group_2">
<path id="Vector_3" d="M46.3717 110.308L68.4437 98.289C73.3247 100.632 77.6776 107.593 80.0603 114.206C81.4839 118.488 82.8854 124.271 84.1232 129.855C85.9086 137.924 87.3443 145.573 88.0085 147.673C87.9969 147.679 87.7636 147.791 87.7461 147.799C88.8202 150.417 94.1815 158.398 95.7722 162.334C101.18 175.756 109.653 196.242 109.653 196.242L98.6959 201.506C98.6959 201.506 75.4584 157.607 74.2346 154.86C74.0972 154.553 73.9599 154.246 73.8124 153.932L71.5394 149.199C69.4112 144.896 66.9737 140.135 64.8122 135.178L61.0228 127.282C53.6589 128.281 47.7545 122.513 46.0447 121.515C45.6499 114.913 45.7078 113.552 46.3616 110.301L46.3717 110.308Z" fill="#263238"/>
<path id="Vector_4" d="M47.5573 117.662C47.5573 117.662 48.4216 129.714 55.6604 156.06C57.0447 161.088 61.7159 167.446 64.3876 171.484L86.1895 207.749L96.8012 202.613C88.6169 185.047 78.6327 165.066 73.5563 158.294L70.4695 113.123L47.5573 117.662Z" fill="#263238"/>
</g>
<g id="Group_3" opacity="0.4">
<path id="Vector_5" d="M46.3717 110.308L68.4437 98.289C73.3247 100.632 77.6776 107.593 80.0603 114.206C81.4839 118.488 82.8854 124.271 84.1232 129.855C85.9086 137.924 87.3443 145.573 88.0085 147.673C87.9969 147.679 87.7636 147.791 87.7461 147.799C88.8202 150.417 94.1815 158.398 95.7722 162.334C101.18 175.756 109.653 196.242 109.653 196.242L98.6959 201.506C98.6959 201.506 75.4584 157.607 74.2346 154.86C74.0972 154.553 73.9599 154.246 73.8124 153.932L71.5394 149.199C69.4112 144.896 66.9737 140.135 64.8122 135.178L61.0228 127.282C53.6589 128.281 47.7545 122.513 46.0447 121.515C45.6499 114.913 45.7078 113.552 46.3616 110.301L46.3717 110.308Z" fill="white"/>
<path id="Vector_6" d="M47.5573 117.662C47.5573 117.662 48.4216 129.714 55.6604 156.06C57.0447 161.088 61.7159 167.446 64.3876 171.484L86.1895 207.749L96.8012 202.613C88.6169 185.047 78.6327 165.066 73.5563 158.294L70.4695 113.123L47.5573 117.662Z" fill="white"/>
</g>
</g>
<g id="Group_4">
<g id="Group_5">
<path id="Vector_7" d="M8.55923 83.9132C7.86614 83.0544 7.86834 81.7168 8.34076 80.5728C8.81318 79.4288 9.70186 78.4524 10.6717 77.6355C11.3205 77.0858 12.0453 76.5862 12.8394 76.3757C13.6334 76.1651 14.5109 76.2954 14.986 76.8692C15.3543 77.3142 15.4513 77.9778 15.9088 78.3308C16.1794 78.5423 16.5395 78.6145 16.8892 78.692C17.2388 78.7695 17.5929 78.8742 17.8189 79.1316C18.0501 79.3864 18.0963 79.8401 17.8344 80.1306L18.0018 79.9346C18.6752 81.3508 20.3879 81.9034 21.2938 83.1616C22.1382 84.327 22.1761 86.0389 21.564 87.5298C20.9539 89.0257 19.7609 90.2962 18.3915 91.1961C17.1243 92.0212 15.6567 92.5583 14.2501 92.4996C13.5103 92.4651 12.7501 92.2346 12.3736 91.6408C11.9429 90.9564 12.1168 90.0094 12.2172 89.1464C12.3424 88.0591 12.2972 86.9043 11.6683 86.1134C10.8822 85.113 9.36297 84.9106 8.56115 83.9181L8.55923 83.9132Z" fill="#ADC6FF"/>
</g>
<path id="Vector_8" d="M30.7075 83.8892L30.628 91.3081L19.4692 85.5978L16.9676 88.3286C16.9676 88.3286 25.0913 94.2736 29.2389 97.7673C33.6529 101.484 35.9832 99.1732 36.6342 94.7058C37.2304 90.6156 36.9221 83.6757 36.9221 83.6757L30.7075 83.8892Z" fill="#DE9E7C"/>
</g>
<g id="Group_6">
<path id="Vector_9" d="M31.3298 75.2623C29.1404 80.4524 28.564 84.703 28.564 84.703L39.918 84.1779C39.918 84.1779 41.0878 73.6428 39.5755 71.4133C38.1733 69.3389 37.5115 70.6121 33.6677 72.7425C32.6001 73.3356 31.7696 74.2301 31.3356 75.261L31.3298 75.2623Z" fill="#6E9BFF"/>
<path id="Vector_10" d="M60.1497 75.7016L59.3896 64.5073C56.4133 62.787 46.074 65.4839 46.074 65.4839L39.924 68.9361C39.924 68.9361 37.7074 70.6435 35.8877 72.3C33.4593 74.5137 32.2349 75.9321 32.1361 77.6904C32.1361 77.6904 33.9227 83.1041 37.1745 89.2715C38.0695 90.9699 40.5268 98.5239 41.1962 101.867L41.0779 110.907C61.6063 108.941 66.8523 97.7547 66.8523 97.7547C65.7556 96.54 63.0231 93.3014 62.2272 91.9838C61.6759 90.0668 61.4656 89.2584 61.0378 85.6298C60.9523 84.9299 60.1007 76.445 60.1444 75.7042L60.1497 75.7016Z" fill="#6E9BFF"/>
<path id="Vector_11" d="M55.3584 64.5298C58.0264 64.5503 61.9634 71.3921 61.9634 71.3921L55.4357 78.407C55.4357 78.407 49.9465 73.5981 50.1351 70.1646C50.2987 67.261 51.9679 64.4995 55.3584 64.5298Z" fill="#6E9BFF"/>
</g>
<g id="Group_7">
<g id="Group_8">
<path id="Vector_12" d="M38.3669 45.2506C41.0838 49.5676 42.335 51.3232 41.5419 55.2648C40.3471 61.1885 33.8524 64.4144 29.7609 61.1799C26.0772 58.2913 22.2602 51.7154 25.5836 46.5209C27.9117 42.8277 32.57 41.2677 35.9988 43.0368C36.9848 43.5491 37.8003 44.3052 38.3722 45.248L38.3669 45.2506Z" fill="#DE9E7C"/>
<path id="Vector_13" d="M30.4935 42.3815C25.5376 42.9097 21.4598 46.2657 22.649 50.6368C23.8363 55.003 30.4396 56.4153 30.4396 56.4153L30.4935 42.3815Z" fill="#263238"/>
<path id="Vector_14" d="M32.2364 53.2665C32.718 54.1381 32.8041 55.22 32.4721 56.2761C32.0157 57.6656 30.6167 57.7551 29.764 56.8636C28.9909 56.0617 28.3005 54.3643 29.2307 53.2082C29.916 52.3871 31.0689 52.1737 31.805 52.7349C31.994 52.8757 32.1375 53.0629 32.2383 53.2715L32.2364 53.2665Z" fill="#D8916C"/>
<path id="Vector_15" opacity="0.3" d="M31.0845 56.8402C31.1188 56.8234 31.1432 56.799 31.1635 56.7642C31.5672 56.0635 31.6415 55.2203 31.3584 54.5589C31.2434 54.2865 31.096 54.1044 30.9024 53.9947C30.6462 53.8474 30.317 53.8601 30.0591 54.0177C29.9833 54.0673 29.9567 54.1548 29.9913 54.2247C30.0316 54.2918 30.1264 54.3073 30.1965 54.2605C30.348 54.1613 30.5543 54.1656 30.7205 54.2577C30.869 54.3399 30.9828 54.4889 31.0751 54.7042C31.3195 55.2853 31.2542 56.0309 30.9004 56.6513C30.8562 56.7289 30.8814 56.8096 30.9498 56.8443C30.9907 56.8614 31.0368 56.8574 31.0768 56.8378L31.0845 56.8402Z" fill="#2D2D2D"/>
<path id="Vector_16" d="M40.6441 54.3111C41.0959 57.1514 41.8382 62.9068 44.4261 63.6582C44.4261 63.6582 44.6602 66.6077 39.5418 69.1772C33.919 71.9998 35.8671 67.9549 35.8671 67.9549C38.676 65.734 37.7891 63.6645 36.4884 61.9497L40.6388 54.3138L40.6441 54.3111Z" fill="#B97964"/>
<path id="Vector_17" d="M26.8866 52.4086C26.9499 52.378 26.9996 52.328 27.0277 52.2675C27.0838 52.1465 27.031 52.0154 26.9116 51.9791C26.2006 51.7741 25.382 51.9236 24.7014 52.3874C24.5901 52.4724 24.5592 52.6126 24.6275 52.7101L24.631 52.7188C24.7042 52.814 24.8493 52.8275 24.9624 52.7469C25.5006 52.3777 26.1524 52.2617 26.7144 52.429C26.7674 52.4452 26.825 52.4435 26.8835 52.4153L26.8866 52.4086Z" fill="#263238"/>
<path id="Vector_18" d="M26.5012 57.5092C26.7346 58.5722 27.2533 59.6795 27.169 60.8094C27.7669 60.7488 28.3413 60.4266 28.7395 59.9428L26.5012 57.5092Z" fill="#AE6355"/>
<path id="Vector_19" d="M27.5057 56.6093C27.7538 56.9474 27.7507 57.3818 27.5004 57.5785C27.2501 57.7752 26.8521 57.6605 26.6381 57.3112C26.4242 56.9619 26.3897 56.5463 26.6381 56.3446C26.8864 56.143 27.2522 56.2738 27.5057 56.6093Z" fill="#263238"/>
<path id="Vector_20" d="M25.1701 55.69L25.8177 54.8687C25.8177 54.8687 24.9778 55.0692 25.1701 55.69Z" fill="#263238"/>
</g>
<g id="Group_9">
<path id="Vector_21" opacity="0.3" d="M55.8727 64.8057C55.8789 64.9119 57.1526 71.5882 55.0531 73.2923C54.0529 74.1035 45.1299 78.3402 45.1299 78.3402L43.8984 77.6004L43.0099 79.3884L37.3747 82.1743L38.5683 75.4632L34.9284 67.2648L55.8727 64.8057Z" fill="black"/>
<path id="Vector_22" d="M30.4549 56.7312C26.8508 54.0486 25.4043 46.6578 29.6194 43.0265C33.4113 39.7556 40.5931 37.5567 43.0864 44.6889C45.5816 51.8261 47.0615 50.2009 50.7406 53.7463C54.6016 57.4612 56.4507 63.9806 55.0467 70.7753L45.6553 75.4868L43.0475 74.0699L41.9084 77.3666L33.7552 81.4569C35.7612 74.2832 32.5648 73.4756 30.2436 69.0415C27.9224 64.6075 33.5477 59.0423 30.4441 56.7366L30.4549 56.7312Z" fill="#263238"/>
<path id="Vector_23" d="M33.688 40.0001C33.7293 39.3556 34.0404 38.6335 34.6436 38.2901C34.9495 38.1134 35.3008 38.0526 35.6364 37.9996L35.8356 38.3326C36.2971 38.7766 36.9584 38.9643 37.5278 39.2847C38.0953 39.6004 38.6036 40.1478 38.5 40.8409C38.4218 41.3594 38.0034 41.8236 37.5365 42.1158C36.6824 42.6486 35.6003 42.6953 34.8356 42.2593C34.0708 41.8232 33.6366 40.9383 33.6951 40.0023L33.688 40.0001Z" fill="#6E9BFF"/>
<path id="Vector_24" d="M35.489 42.5646C34.9418 42.1 34.1877 40.8017 34.1188 40.2075C34.0263 39.3281 34.3572 38.3874 34.8346 37.5478C35.0777 37.1229 35.3637 36.7114 35.7281 36.3712C36.3233 35.816 37.0935 35.4989 37.8508 35.2933C38.7103 35.0595 39.6157 34.9424 40.3971 35.1846C41.4634 35.5108 42.1939 36.5239 42.1903 37.6728C42.1868 38.8217 41.4529 40.0521 40.3852 40.6875C41.1471 40.526 41.9194 40.4874 42.6523 40.5735C42.7183 40.5811 42.7862 40.5936 42.8196 40.6467C42.8458 40.6976 42.8227 40.7674 42.7978 40.8323C42.5699 41.3602 42.0667 41.7644 41.5342 41.9969C41.0017 42.2295 40.444 42.3174 39.8897 42.3979C40.2253 42.7883 40.559 43.1739 40.8893 43.567C40.9919 43.6843 41.1003 43.8162 41.11 43.986C41.1377 44.3622 40.6959 44.6657 40.3099 44.7897C39.134 45.1649 37.9238 44.8411 37.0306 44.2009C36.4111 43.761 35.9247 43.1784 35.4871 42.5597L35.489 42.5646Z" fill="#263238"/>
</g>
</g>
<g id="Group_10">
<path id="Vector_25" d="M40.4871 114.616C40.5187 112.046 39.0576 102.101 39.0576 102.101L51.5139 105.642C53.52 105.609 55.683 104.511 57.2137 102.693C59.5897 99.8745 60.0279 95.4387 60.0279 95.4387C60.0279 95.4387 60.529 97.6801 61.3455 99.6173C62.162 101.554 64.3322 103.967 64.3322 103.967C64.3322 103.967 60.7152 104.683 54.776 107.043C48.835 109.399 40.7195 121.524 40.7195 121.524C40.7195 121.524 40.4591 117.195 40.4907 114.625L40.4871 114.616Z" fill="#263238"/>
<path id="Vector_26" d="M55.3118 99.4786C54.4842 96.1954 54.7202 92.5655 56.0634 89.1356C56.3133 88.4957 56.7552 87.7304 57.5267 87.9972C58.2001 88.2241 58.4387 89.0409 58.5483 89.6911C58.8316 91.38 58.2545 93.3676 57.6974 95.0669C57.0402 97.0767 56.0754 99.0149 54.875 100.822C54.5555 101.301 53.9043 100.856 54.2184 100.379C55.9516 97.7795 57.1541 94.864 57.641 91.9204C57.773 91.1261 57.8465 90.2958 57.637 89.5532C57.5829 89.367 57.3862 88.6892 57.1001 88.8496C56.8757 88.9734 56.7307 89.638 56.6497 89.8679C56.1483 91.2729 55.8423 92.7226 55.7208 94.1573C55.5816 95.8377 55.7169 97.5056 56.1094 99.069C56.236 99.5685 55.4418 99.9705 55.3132 99.466L55.3118 99.4786Z" fill="#263238"/>
<path id="Vector_27" d="M53.9252 107.239C52.3229 107.25 51.1056 106.336 50.0803 105.346C48.7726 104.086 47.6536 102.641 46.7549 101.056C46.4613 100.538 46.1551 99.8521 46.5603 99.214C46.9655 98.576 47.758 98.4725 48.3795 98.6324C49.9449 99.0357 51.2143 100.352 52.0497 101.608C53.2202 103.368 53.7953 105.458 54.3524 107.519C54.4919 108.039 53.6499 108.457 53.5084 107.932C52.9962 106.035 52.4879 104.08 51.4616 102.428C51.0196 101.722 50.4876 101.06 49.8489 100.519C49.5385 100.262 49.202 100.025 48.8477 99.827C48.5631 99.6692 47.9657 99.2994 47.5814 99.432C46.7376 99.7277 48.027 101.331 48.2721 101.694C48.7782 102.443 49.3385 103.159 49.9468 103.827C51.0023 104.993 52.2922 106.361 54.0964 106.35C54.673 106.346 54.511 107.224 53.9365 107.233L53.9252 107.239Z" fill="#263238"/>
</g>
<path id="Vector_28" d="M20.8774 86.2603C20.8774 86.2603 21.2192 84.654 20.494 83.5966C19.7688 82.5392 19.4809 81.4773 18.8823 80.7355C18.2838 79.9938 18.206 81.3436 18.3 82.0574C18.4011 82.7738 18.5036 83.5837 17.9575 83.617C17.4064 83.6528 13.0068 81.0314 12.5055 81.5332C11.7407 81.666 15.0021 84.0087 15.0021 84.0087C15.0021 84.0087 11.3699 81.8625 11.0358 82.2293C10.9478 82.3246 10.8903 82.676 11.3036 82.9713C12.2343 83.6414 14.2729 84.9434 14.2729 84.9434C14.1568 84.864 11.4306 83.6957 11.0004 83.5379C10.4437 83.3351 10.1354 83.2982 10.0016 83.6393C9.81355 84.1299 13.0167 85.9954 13.09 86.1778C13.09 86.1778 11.2836 85.0347 10.6984 85.3753C10.1132 85.7158 11.2031 86.4976 12.3159 86.9918C13.3334 87.4436 15.1878 88.6165 16.2743 88.9704C17.6116 89.4094 18.6321 89.389 19.6156 88.3624C20.5992 87.3358 20.8653 86.2602 20.8653 86.2602L20.8774 86.2603Z" fill="#DE9E7C"/>
</g>
</g>
<g id="&#208;&#179;&#208;&#181;&#208;&#189;&#208;&#181;&#209;&#128;&#208;&#176;&#208;&#187;&#209;&#140;&#208;&#189;&#208;&#181; &#208;&#191;&#209;&#128;&#208;&#184;&#208;&#177;&#208;&#184;&#209;&#128;&#208;&#176;&#208;&#189;&#208;&#189;&#209;&#143;">
<g id="&#208;&#179;&#208;&#181;&#208;&#189;&#208;&#181;&#209;&#128;&#208;&#176;&#208;&#187;&#209;&#140;&#208;&#189;&#208;&#176;&#209;&#143; &#209;&#131;&#208;&#177;&#208;&#190;&#209;&#128;&#208;&#186;&#208;&#176;">
<rect id="Rectangle 24" x="-310" y="-153" width="335" height="184" rx="10" fill="white"/>
<path id="Rectangle 28" d="M-310 -5H25V21C25 26.5229 20.5229 31 15 31H-300C-305.523 31 -310 26.5229 -310 21V-5Z" fill="#ECF0F8"/>
<g id="&#208;&#178;&#209;&#150;&#208;&#180; 40 &#208;&#179;&#209;&#128;&#208;&#189;/&#208;&#188;2">
<path d="M-79.687 18V11.175H-76.671C-75.8997 11.175 -75.293 11.3223 -74.851 11.617C-74.4003 11.9117 -74.175 12.345 -74.175 12.917C-74.175 13.4717 -74.3873 13.9007 -74.812 14.204C-75.2367 14.4987 -75.7957 14.646 -76.489 14.646L-76.307 14.373C-75.4923 14.373 -74.8943 14.5247 -74.513 14.828C-74.1317 15.1313 -73.941 15.569 -73.941 16.141C-73.941 16.7303 -74.1577 17.1897 -74.591 17.519C-75.0157 17.8397 -75.6787 18 -76.58 18H-79.687ZM-78.79 17.272H-76.619C-76.0383 17.272 -75.6007 17.181 -75.306 16.999C-75.0027 16.8083 -74.851 16.505 -74.851 16.089C-74.851 15.673 -74.9853 15.3697 -75.254 15.179C-75.5227 14.9883 -75.9473 14.893 -76.528 14.893H-78.79V17.272ZM-78.79 14.204H-76.736C-76.2073 14.204 -75.8043 14.1043 -75.527 13.905C-75.241 13.7057 -75.098 13.4153 -75.098 13.034C-75.098 12.6527 -75.241 12.3667 -75.527 12.176C-75.8043 11.9853 -76.2073 11.89 -76.736 11.89H-78.79V14.204ZM-71.7778 18V11.175H-70.8548V18H-71.7778ZM-71.3098 9.667C-71.5005 9.667 -71.6608 9.602 -71.7908 9.472C-71.9208 9.342 -71.9858 9.186 -71.9858 9.004C-71.9858 8.822 -71.9208 8.67033 -71.7908 8.549C-71.6608 8.419 -71.5005 8.354 -71.3098 8.354C-71.1192 8.354 -70.9588 8.41467 -70.8288 8.536C-70.6988 8.65733 -70.6338 8.809 -70.6338 8.991C-70.6338 9.18167 -70.6988 9.342 -70.8288 9.472C-70.9502 9.602 -71.1105 9.667 -71.3098 9.667ZM-63.5431 17.558V11.981H-66.8321L-66.9101 13.502C-66.9275 13.9613 -66.9578 14.412 -67.0011 14.854C-67.0358 15.296 -67.1008 15.7033 -67.1961 16.076C-67.2828 16.44 -67.4085 16.739 -67.5731 16.973C-67.7378 17.1983 -67.9501 17.3283 -68.2101 17.363L-69.1331 17.194C-68.8645 17.2027 -68.6435 17.1073 -68.4701 16.908C-68.2968 16.7 -68.1625 16.4183 -68.0671 16.063C-67.9718 15.7077 -67.9025 15.3047 -67.8591 14.854C-67.8158 14.3947 -67.7811 13.9267 -67.7551 13.45L-67.6641 11.175H-62.6201V17.558H-63.5431ZM-69.4191 19.651V17.194H-61.5541V19.651H-62.4251V18H-68.5481V19.651H-69.4191ZM-57.146 15.608V14.932L-52.323 8.9H-51.283L-56.067 14.932L-56.574 14.776H-49.255V15.608H-57.146ZM-52.011 18V15.608L-51.985 14.776V12.67H-51.075V18H-52.011ZM-44.7683 18.078C-45.4703 18.078 -46.0943 17.896 -46.6403 17.532C-47.1863 17.1593 -47.6153 16.6307 -47.9273 15.946C-48.2393 15.2527 -48.3953 14.4207 -48.3953 13.45C-48.3953 12.4793 -48.2393 11.6517 -47.9273 10.967C-47.6153 10.2737 -47.1863 9.745 -46.6403 9.381C-46.0943 9.00833 -45.4703 8.822 -44.7683 8.822C-44.0663 8.822 -43.4423 9.00833 -42.8963 9.381C-42.3503 9.745 -41.9213 10.2737 -41.6093 10.967C-41.2886 11.6517 -41.1283 12.4793 -41.1283 13.45C-41.1283 14.4207 -41.2886 15.2527 -41.6093 15.946C-41.9213 16.6307 -42.3503 17.1593 -42.8963 17.532C-43.4423 17.896 -44.0663 18.078 -44.7683 18.078ZM-44.7683 17.22C-44.231 17.22 -43.763 17.077 -43.3643 16.791C-42.9656 16.4963 -42.6536 16.0717 -42.4283 15.517C-42.203 14.9537 -42.0903 14.2647 -42.0903 13.45C-42.0903 12.6353 -42.203 11.9507 -42.4283 11.396C-42.6536 10.8327 -42.9656 10.408 -43.3643 10.122C-43.763 9.82733 -44.231 9.68 -44.7683 9.68C-45.2883 9.68 -45.752 9.82733 -46.1593 10.122C-46.5666 10.408 -46.883 10.8327 -47.1083 11.396C-47.3336 11.9507 -47.4463 12.6353 -47.4463 13.45C-47.4463 14.2647 -47.3336 14.9537 -47.1083 15.517C-46.883 16.0717 -46.5666 16.4963 -46.1593 16.791C-45.752 17.077 -45.2883 17.22 -44.7683 17.22ZM-35.7485 18V11.175H-30.9125V11.981H-35.0595L-34.8255 11.747V18H-35.7485ZM-26.0556 18.065C-26.6449 18.065 -27.1779 17.9307 -27.6546 17.662C-28.1313 17.3847 -28.5126 16.9903 -28.7986 16.479C-29.0759 15.959 -29.2146 15.3263 -29.2146 14.581C-29.2146 13.8357 -29.0759 13.2073 -28.7986 12.696C-28.5213 12.176 -28.1443 11.7817 -27.6676 11.513C-27.1909 11.2443 -26.6536 11.11 -26.0556 11.11C-25.4056 11.11 -24.8249 11.2573 -24.3136 11.552C-23.7936 11.838 -23.3863 12.2453 -23.0916 12.774C-22.7969 13.294 -22.6496 13.8963 -22.6496 14.581C-22.6496 15.2743 -22.7969 15.881 -23.0916 16.401C-23.3863 16.921 -23.7936 17.3283 -24.3136 17.623C-24.8249 17.9177 -25.4056 18.065 -26.0556 18.065ZM-29.5786 20.522V11.175H-28.6946V13.229L-28.7856 14.594L-28.6556 15.972V20.522H-29.5786ZM-26.1206 17.246C-25.6353 17.246 -25.2019 17.1377 -24.8206 16.921C-24.4393 16.6957 -24.1359 16.3837 -23.9106 15.985C-23.6853 15.5777 -23.5726 15.1097 -23.5726 14.581C-23.5726 14.0523 -23.6853 13.5887 -23.9106 13.19C-24.1359 12.7913 -24.4393 12.4793 -24.8206 12.254C-25.2019 12.0287 -25.6353 11.916 -26.1206 11.916C-26.6059 11.916 -27.0436 12.0287 -27.4336 12.254C-27.8149 12.4793 -28.1183 12.7913 -28.3436 13.19C-28.5603 13.5887 -28.6686 14.0523 -28.6686 14.581C-28.6686 15.1097 -28.5603 15.5777 -28.3436 15.985C-28.1183 16.3837 -27.8149 16.6957 -27.4336 16.921C-27.0436 17.1377 -26.6059 17.246 -26.1206 17.246ZM-20.6665 18V11.175H-19.7435V14.191H-15.4405V11.175H-14.5175V18H-15.4405V14.984H-19.7435V18H-20.6665ZM-11.842 19.3L-7.55203 7.054H-6.70703L-10.997 19.3H-11.842ZM-5.32954 18V11.175H-4.39354L-1.29954 16.414H-1.68954L1.45646 11.175H2.31446V18H1.46946V12.228L1.63846 12.306L-1.29954 17.168H-1.71554L-4.67954 12.254L-4.48454 12.215V18H-5.32954ZM4.25197 13.749V13.294L6.72197 11.11C7.05997 10.8067 7.28097 10.564 7.38497 10.382C7.49763 10.1913 7.55397 10.005 7.55397 9.823C7.55397 9.57167 7.4413 9.355 7.21597 9.173C6.99063 8.991 6.6223 8.9 6.11097 8.9C5.78163 8.9 5.4783 8.952 5.20097 9.056C4.92363 9.15133 4.6983 9.29867 4.52497 9.498L4.04397 9.121C4.2693 8.85233 4.55963 8.64867 4.91497 8.51C5.2703 8.37133 5.68197 8.302 6.14997 8.302C6.85197 8.302 7.3763 8.445 7.72297 8.731C8.0783 9.017 8.25597 9.368 8.25597 9.784C8.25597 10.0527 8.18663 10.3083 8.04797 10.551C7.91797 10.7937 7.6493 11.097 7.24197 11.461L5.01897 13.424L4.79797 13.164H8.51597V13.749H4.25197Z" fill="#263238"/>
</g>
</g>
</g>
</g>
</g>
<defs>
<clipPath id="clip0_0_1">
<rect width="390" height="9523" fill="white" transform="translate(-338 -2450)"/>
</clipPath>
</defs>
</svg>
