<svg width="87" height="227" viewBox="0 0 87 227" fill="none" xmlns="http://www.w3.org/2000/svg">
<g id="&#208;&#182;&#208;&#181;&#208;&#189;&#209;&#137;&#208;&#184;&#208;&#189;&#208;&#176;">
<g id="Group">
<path id="Vector" d="M72.7529 204.666L72.7681 218.902L65.2881 219.417L62.6633 206.038C66.0847 203.852 69.4529 203.336 72.7529 204.666Z" fill="#B97964"/>
<path id="Vector_2" d="M72.5023 217.42C73.2382 219.301 73.2837 226.985 73.2837 226.985L57.4286 227C56.488 224.218 57.9445 222.322 59.7955 222.068C60.5921 221.959 61.5252 221.182 62.2079 220.499C62.2079 220.412 63.1789 216.141 63.7783 215.938C63.7783 215.938 64.1879 215.495 64.5445 215.938C64.8934 216.381 65.2044 217.826 65.2044 217.826C67.6775 214.885 70.1051 215.277 72.5023 217.42Z" fill="#263238"/>
<path id="Vector_3" d="M72.6995 219.65C70.9092 219.018 68.9899 219.257 67.4271 220.311C67.154 220.492 66.8961 220.064 67.1692 219.882C68.8305 218.764 70.9319 218.502 72.8436 219.17C73.1547 219.279 73.0181 219.759 72.7071 219.65H72.6995Z" fill="white"/>
<path id="Vector_4" d="M57.4818 225.882L73.1017 225.867C73.2458 225.867 73.3596 225.758 73.3596 225.62C73.3596 225.482 73.2458 225.373 73.1017 225.373L57.4818 225.388C57.3377 225.388 57.2239 225.497 57.2239 225.635C57.2239 225.773 57.3377 225.882 57.4818 225.882Z" fill="white"/>
</g>
<g id="Group_2">
<path id="Vector_5" d="M52.4597 204.665L52.4749 218.901L44.9949 219.417L42.3701 206.038C45.7915 203.852 49.1597 203.336 52.4597 204.665Z" fill="#B97964"/>
<path id="Vector_6" d="M52.2172 217.419C52.953 219.301 52.9985 226.985 52.9985 226.985L37.1435 227C36.2028 224.218 37.6593 222.322 39.5104 222.068C40.3069 221.959 41.24 221.182 41.9228 220.499C41.9228 220.412 42.8938 216.141 43.4931 215.938C43.4931 215.938 43.9028 215.495 44.2593 215.938C44.6083 216.381 44.9193 217.826 44.9193 217.826C47.3924 214.884 49.8199 215.277 52.2172 217.419Z" fill="#263238"/>
<path id="Vector_7" d="M52.4068 219.649C50.6164 219.018 48.6972 219.257 47.1344 220.31C46.8613 220.492 46.6034 220.063 46.8765 219.882C48.5378 218.763 50.6468 218.502 52.5509 219.17C52.8619 219.279 52.7254 219.758 52.4144 219.649H52.4068Z" fill="white"/>
<path id="Vector_8" d="M37.1964 225.882L52.8163 225.867C52.9604 225.867 53.0742 225.758 53.0742 225.62C53.0742 225.482 52.9604 225.373 52.8163 225.373L37.1964 225.388C37.0523 225.388 36.9385 225.497 36.9385 225.635C36.9385 225.773 37.0523 225.882 37.1964 225.882Z" fill="white"/>
</g>
<path id="Vector_9" d="M43.7431 74.0342C43.7431 74.0342 35.4909 90 32 113.5C28.2457 138.773 29.7543 175.844 29.7543 175.844H67.5333L67.5333 127.558L71.3567 80.0409L43.7431 74.0342Z" fill="#263238"/>
<path id="Vector_10" d="M75.1652 52.4259C75.5369 52.4186 78.1162 68.122 77.9417 68.5796C77.3045 70.2792 58.3694 66.4877 58.3694 66.4877L57.1784 71.3324C57.1784 71.3324 65.4473 75.1747 74.3459 76.5692C83.5251 78.0001 86.954 74.1142 86.9995 68.151C87.0375 62.689 84.6782 49.4116 84.6782 49.4116L75.1727 52.4259H75.1652Z" fill="#DE9E7C"/>
<g id="Group_3">
<g id="Group_4">
<path id="Vector_11" d="M43.4248 79.9829L72.7604 78.356C77.0542 83.7453 78.7459 94.1537 78.4425 103.073C78.1163 108.782 77.1073 116.205 76.0073 123.309C74.4142 133.572 72.6239 143.159 72.4266 145.941C72.4115 145.941 72.108 145.941 72.0853 145.941C72.108 149.544 74.4521 161.681 74.4597 167.085C74.4673 185.505 74.7177 213.737 74.7177 213.737H60.4633C60.4633 213.737 54.3868 150.43 54.2578 146.595C54.2426 146.166 54.2275 145.738 54.2047 145.295L53.8026 138.598C53.3702 132.475 52.8013 125.655 52.6192 118.762L51.9516 107.591C43.4855 104.671 39.5786 94.7783 38.1524 92.6865C40.6179 84.8784 41.2779 83.3459 43.4172 79.9684L43.4248 79.9829Z" fill="#263238"/>
<path id="Vector_12" d="M39.0323 89.3601C39.0323 89.3601 34.7006 103.647 31.029 137.814C30.331 144.336 32.6144 154.185 33.7448 160.279L41.5206 213.803L55.2667 213.737C54.0757 189.115 51.9895 160.737 49.4481 150.191L65.8494 96.7251L39.0323 89.3601Z" fill="#263238"/>
</g>
<g id="Group_5" opacity="0.4">
<path id="Vector_13" d="M43.4248 79.9829L72.7604 78.356C77.0542 83.7453 78.7459 94.1537 78.4425 103.073C78.1163 108.782 77.1073 116.205 76.0073 123.309C74.4142 133.572 72.6239 143.159 72.4266 145.941C72.4115 145.941 72.108 145.941 72.0853 145.941C72.108 149.544 74.4521 161.681 74.4597 167.085C74.4673 185.505 74.7177 213.737 74.7177 213.737H60.4633C60.4633 213.737 54.3868 150.43 54.2578 146.595C54.2426 146.166 54.2275 145.738 54.2047 145.295L53.8026 138.598C53.3702 132.475 52.8013 125.655 52.6192 118.762L51.9516 107.591C43.4855 104.671 41.9262 92.0918 40.5 90C42.9655 82.1919 41.2779 83.3459 43.4172 79.9684L43.4248 79.9829Z" fill="white"/>
<path id="Vector_14" d="M40.5 90C40.5 90 35.6717 103.833 32 138C31.3021 144.522 32.1304 151.406 33.2607 157.5L41.0365 211.024L55.2667 213.737C54.0757 189.115 51.9895 160.737 49.4481 150.191L65.8494 96.7251L40.5 90Z" fill="white"/>
</g>
<path id="Vector_15" opacity="0.2" d="M49.4478 150.198L55.1298 131.684C56.9505 123.999 59.1505 119.677 61.0471 116.961C61.0167 116.67 61.1153 116.351 61.1153 116.351C61.1836 116.365 61.6995 115.879 62.4808 115.109C63.1484 114.324 63.7477 113.714 64.2181 113.177L64.1043 113.46C67.298 110.17 71.9028 105.267 71.9028 105.267C71.9028 105.267 68.4056 112.784 63.6263 116.365C63.2698 116.634 62.9663 116.837 62.6932 116.997L49.4402 150.212L49.4478 150.198Z" fill="black"/>
</g>
<g id="Group_6">
<path id="Vector_16" d="M41.9586 40.9749C37.4276 46.9101 34.9405 52.6886 34.9405 52.6886L45.5196 56.3056C45.5196 56.3056 54.2889 43.4576 53.2847 39.7364C52.3562 36.2763 51.0947 37.6728 45.6921 38.7022C44.191 38.9902 42.865 39.7966 41.9661 40.976L41.9586 40.9749Z" fill="#6E9BFF"/>
<path id="Vector_17" d="M78.6773 55.0843L83.0469 40.8191C80.2855 36.8679 66.6001 33.8318 66.6001 33.8318L57.5878 34.3039C57.5878 34.3039 54.1209 35.0448 51.1547 35.9672C47.1948 37.202 45.0555 38.1971 44.1072 40.3034C44.1072 40.3034 43.6975 48.0752 44.6913 57.6773C44.9644 60.3212 44.35 71.1435 43.5762 75.6759L39.1686 86.7452C64.7415 96.9502 76.318 86.3893 76.318 86.3893C75.5745 84.2175 73.8221 78.5449 73.4883 76.4312C73.7311 73.7293 73.8601 72.6035 75.0587 67.8678C75.2863 66.9526 78.2676 55.9704 78.6697 55.0843H78.6773Z" fill="#6E9BFF"/>
<path id="Vector_18" d="M81.9089 39.6645C85.1103 41.3351 86.6123 52.2155 86.6123 52.2155L75.4379 56.8568C75.4379 56.8568 71.1062 47.5307 72.9572 43.4051C74.5276 39.9187 77.8427 37.5364 81.9089 39.6645Z" fill="#6E9BFF"/>
</g>
<g id="Group_7">
<g id="Group_8">
<path id="Vector_19" d="M0.136258 38.5787C-0.296153 37.0898 0.341076 35.441 1.45624 34.3224C2.5714 33.2039 4.11139 32.5502 5.67414 32.1434C6.72102 31.8674 7.83619 31.7004 8.89825 31.9328C9.96031 32.1652 10.9617 32.8698 11.2651 33.8721C11.5003 34.6493 11.3031 35.5281 11.6899 36.2472C11.9175 36.6757 12.3196 36.9881 12.7065 37.3004C13.0934 37.6127 13.4727 37.9614 13.6244 38.4189C13.7837 38.8765 13.6244 39.4649 13.1693 39.661L13.4651 39.523C13.6092 41.6874 15.4223 43.4306 15.923 45.5443C16.3934 47.5054 15.6272 49.6408 14.1782 51.1007C12.7292 52.5679 10.681 53.3959 8.59481 53.6574C6.66793 53.8898 4.63484 53.6429 2.95831 52.6987C2.07831 52.1975 1.26658 51.4421 1.0921 50.4761C0.894857 49.3648 1.55485 48.3043 2.08588 47.302C2.75346 46.0382 3.24658 44.5855 2.85968 43.22C2.38175 41.4986 0.636944 40.3074 0.136258 38.586V38.5787Z" fill="#536181"/>
</g>
<path id="Vector_20" d="M36 53L32 64.5L14 46.5L8.5 49.5C8.5 49.5 22.5002 66.4945 27.4534 71C33.5 76.5 34.5 76 38 71C39.9733 65.6012 44 55.5 44 55.5L36 53Z" fill="#DE9E7C"/>
</g>
<g id="Group_9">
<g id="Group_10">
<path id="Vector_21" d="M67.1615 22.1157C66.3726 25.9072 64.5671 33.4828 67.3057 36.0177C67.3057 36.0177 66.2057 39.8092 58.8926 39.8092C50.8589 39.8092 55.0768 36.0177 55.0768 36.0177C59.4692 35.0154 59.3781 31.9067 58.6271 28.9796L67.1539 22.1157H67.1615Z" fill="#DE9E7C"/>
<path id="Vector_22" d="M50.6089 15.165C50.7075 15.165 50.7985 15.1287 50.8668 15.0633C51.0034 14.9326 51.0034 14.7147 50.8668 14.5839C50.0475 13.8213 48.902 13.4799 47.7717 13.6688C47.582 13.7123 47.4682 13.8866 47.5062 14.0682V14.0828C47.5517 14.2643 47.7337 14.3806 47.9234 14.3442C48.8186 14.1917 49.7289 14.4677 50.3737 15.0778C50.4344 15.1359 50.5103 15.1723 50.6013 15.1723L50.6089 15.165Z" fill="#263238"/>
<path id="Vector_23" d="M49.5166 19.552C49.3041 20.9611 48.8869 22.3339 48.28 23.634C48.9931 23.9173 49.7972 23.8737 50.4724 23.5323L49.5166 19.552Z" fill="#A24E3F"/>
<path id="Vector_24" d="M49.8197 18.4626C49.9563 19.0292 49.7514 19.5594 49.3645 19.6466C48.9777 19.7337 48.5604 19.3487 48.4694 18.7895C48.3784 18.2302 48.5301 17.7 48.917 17.6056C49.3039 17.5111 49.6756 17.8961 49.8197 18.4626Z" fill="#263238"/>
<path id="Vector_25" d="M49.0461 17.584L47.5365 17.5186C47.5365 17.5186 48.5151 18.4202 49.0461 17.584Z" fill="#263238"/>
<path id="Vector_26" d="M69.1568 12.0273C70.3858 19.0727 71.0609 22.0289 68.2616 26.4232C64.0513 33.0256 54.7583 32.982 51.3749 26.4232C48.3177 20.5472 46.8308 10.0153 53.2487 5.64281C57.77 2.51231 64.0817 3.47833 67.3589 7.80728C68.2996 9.05657 68.9216 10.502 69.1644 12.0273H69.1568Z" fill="#DE9E7C"/>
<path id="Vector_27" d="M60.1147 2.30882C53.9776 -0.102604 47.5673 1.50985 46.9452 7.62558C46.3231 13.734 53.5148 19.552 53.5148 19.552L60.1147 2.30882Z" fill="#263238"/>
<path id="Vector_28" d="M57.1556 18.172C57.3225 19.5448 56.9205 20.9321 56.0329 22.0289C54.8419 23.4597 53.135 22.7043 52.5357 21.0774C51.9895 19.6102 51.9591 17.0898 53.6053 16.24C54.8039 15.6517 56.2756 16.102 56.8901 17.2496C57.0494 17.5401 57.1329 17.8597 57.1556 18.1793V18.172Z" fill="#DE9E7C"/>
<path id="Vector_29" opacity="0.3" d="M54.1287 21.6945C54.1742 21.6945 54.2121 21.68 54.25 21.6509C55.0087 21.0626 55.4638 20.1184 55.4411 19.1814C55.4335 18.7965 55.35 18.4987 55.1832 18.259C54.9632 17.9394 54.5914 17.7651 54.2349 17.8014C54.1287 17.8159 54.0604 17.9031 54.068 18.0047C54.0832 18.1064 54.1818 18.1791 54.2804 18.1645C54.4928 18.1355 54.7204 18.259 54.8645 18.4623C54.9935 18.6439 55.0542 18.8836 55.0618 19.1887C55.0769 20.0094 54.6749 20.8447 54.0073 21.3677C53.9239 21.433 53.9163 21.542 53.977 21.6219C54.0149 21.6655 54.068 21.6873 54.1211 21.6873L54.1287 21.6945Z" fill="black"/>
</g>
<g id="Group_11">
<path id="Vector_30" opacity="0.3" d="M81.0901 43.0707C81.0446 43.2159 79.3074 52.9343 75.7874 53.8204C74.1108 54.2417 60.6606 54.0092 60.6606 54.0092L59.4696 52.2152L57.4441 54.0092H48.8945L53.78 45.867L53.2793 32.5679L81.0901 43.0707Z" fill="black"/>
<path id="Vector_31" d="M54.8268 19.3632C51.8075 13.8576 53.522 3.90685 60.1902 2.04743C66.1908 0.369605 75.7039 2.09101 75.3473 12.3686C74.9908 22.6535 77.4942 21.5713 80.2025 28.1809C83.0473 35.1101 82.2128 44.2401 77.4032 51.7068H64.1122L61.6847 48.3657L58.8095 51.7068H47.271C52.9682 44.1457 49.562 41.1895 48.8717 34.3257C48.1813 27.4618 57.4137 24.0989 54.8116 19.3632H54.8268Z" fill="#263238"/>
<path id="Vector_32" d="M68.4895 3.94292C68.846 3.15848 69.5667 2.44667 70.4619 2.39583C70.917 2.36678 71.3722 2.51204 71.8046 2.65731L71.8881 3.20206C72.237 4.05187 72.9501 4.70557 73.4887 5.46822C74.0274 6.2236 74.3839 7.23321 73.9287 8.03944C73.5873 8.6423 72.8591 8.96188 72.1536 9.03452C70.8639 9.16526 69.5288 8.5406 68.8081 7.50921C68.0874 6.47782 67.9812 5.09053 68.497 3.95018L68.4895 3.94292Z" fill="#407BFF"/>
<path id="Vector_33" d="M70.0442 7.78539C69.6042 6.86295 69.3084 4.77111 69.5056 3.98667C69.8091 2.8318 70.6511 1.86577 71.6222 1.11764C72.1153 0.73995 72.6539 0.405837 73.2532 0.209727C74.2318 -0.10986 75.309 -0.0226916 76.318 0.195208C77.4635 0.442162 78.609 0.863431 79.4359 1.65513C80.5662 2.73011 80.9683 4.45152 80.4221 5.8824C79.8759 7.31328 78.4118 8.38825 76.8262 8.51172C77.82 8.78773 78.7683 9.22353 79.6104 9.79007C79.6862 9.84091 79.7621 9.89902 79.7773 9.98618C79.7849 10.0661 79.7241 10.1387 79.6635 10.2041C79.14 10.7198 78.3435 10.9086 77.5925 10.865C76.8414 10.8215 76.1283 10.5818 75.4228 10.3348C75.6428 11.0321 75.8628 11.7221 76.0752 12.4194C76.1435 12.63 76.2118 12.8625 76.1435 13.0804C75.9994 13.567 75.3242 13.6687 74.8007 13.5815C73.2076 13.3128 71.9028 12.1507 71.129 10.7924C70.5904 9.85544 70.2794 8.82405 70.0442 7.77813V7.78539Z" fill="#263238"/>
</g>
</g>
<g id="Group_12">
<path id="Vector_34" d="M40.0944 82.4381C41.4295 79.0752 44.5854 65.0352 44.5854 65.0352L58.6198 77.7678C61.1839 79.0243 64.4839 78.9808 67.3438 77.5789C71.7817 75.4072 74.5734 69.8508 74.5734 69.8508C74.5734 69.8508 74.0803 73.1265 74.141 76.2062C74.2017 79.2858 75.7417 83.869 75.7417 83.869C75.7417 83.869 70.7879 82.4672 62.0563 81.7263C53.3246 80.9782 36.9082 91.6843 36.9082 91.6843C36.9082 91.6843 38.7592 85.8156 40.0944 82.4526V82.4381Z" fill="#263238"/>
<path id="Vector_35" d="M61.8138 79.1626C62.3675 74.6303 64.3551 70.3231 67.5716 66.9384C68.1709 66.3065 69.0585 65.6383 69.8551 66.4372C70.553 67.1273 70.4544 68.2749 70.2799 69.1392C69.8247 71.3836 68.2013 73.4681 66.7372 75.2113C65.0075 77.2741 62.9441 79.0609 60.6607 80.5426C60.0538 80.9348 59.4848 79.9906 60.0841 79.5984C63.3765 77.4702 66.1834 74.6303 68.1482 71.3182C68.6792 70.4248 69.1571 69.4515 69.2558 68.4129C69.2785 68.1514 69.362 67.1999 68.9447 67.2217C68.6185 67.2362 68.133 67.9625 67.9282 68.195C66.6689 69.6113 65.622 71.202 64.8027 72.8871C63.8468 74.8627 63.2248 76.9909 62.9593 79.1481C62.8758 79.8381 61.7379 79.8453 61.8213 79.1481L61.8138 79.1626Z" fill="#263238"/>
<path id="Vector_36" d="M62.0339 79.5472C60.2208 78.6393 59.2573 76.867 58.5442 75.1166C57.6339 72.8867 57.0194 70.5479 56.716 68.1728C56.6173 67.3957 56.5794 66.4151 57.3229 65.8994C58.0663 65.3837 59.007 65.7178 59.6366 66.2626C61.2221 67.6353 62.0642 69.9088 62.4435 71.8626C62.9745 74.6009 62.6863 77.3827 62.3904 80.121C62.3145 80.811 61.1766 80.8183 61.2525 80.121C61.5256 77.6006 61.829 75.0149 61.4118 72.4873C61.2297 71.405 60.9263 70.3228 60.4483 69.3204C60.2132 68.8411 59.9401 68.3689 59.629 67.9331C59.3787 67.5845 58.8704 66.8073 58.3773 66.742C57.2925 66.604 58.0284 69.226 58.1422 69.7926C58.3773 70.9619 58.6884 72.1241 59.0753 73.2572C59.7428 75.2328 60.5849 77.5788 62.6256 78.603C63.278 78.9298 62.7014 79.8668 62.049 79.5472H62.0339Z" fill="#263238"/>
<path id="Vector_37" d="M64.3325 81.0075L63.7787 81.1818L64.196 80.6588C65.0456 86.7963 65.387 92.992 65.2201 99.1803C65.205 99.8776 64.0594 99.8849 64.0822 99.1803C64.2491 92.992 63.9077 86.7963 63.0581 80.6588C63.0277 80.4191 63.2629 80.2012 63.4753 80.1359L64.0291 79.9615C64.727 79.7364 65.0229 80.7896 64.3325 81.0147V81.0075Z" fill="#263238"/>
<path id="Vector_38" d="M63.7937 80.9929C62.2234 86.8907 59.9475 92.5924 57.0193 97.9891C56.6779 98.6137 55.6993 98.0617 56.0331 97.4371C58.9158 92.1203 61.1461 86.5057 62.6937 80.7023C62.8758 80.0269 63.9758 80.3101 63.7937 80.9929Z" fill="#263238"/>
</g>
<path id="Vector_39" d="M13.4873 47.6872C13.4873 47.6872 14.7314 45.9077 14.3521 44.1718C13.9728 42.4359 14.1473 40.9541 13.768 39.6831C13.3887 38.412 12.6073 40.0317 12.3646 40.9687C12.1294 41.9129 11.8487 42.9734 11.1432 42.6901C10.4301 42.4068 6.40945 37.3806 5.37773 37.09C4.34601 36.7995 5.5 39 5.5 39C5.5 39 3.72394 36.6107 3.11705 36.8649C2.95774 36.9303 2.70741 37.3297 3.07913 37.9399C3.91361 39.3199 5.82531 42.1381 5.82531 42.1381C5.7191 41.971 3.10187 38.6662 2.63912 38.2159C2.03981 37.6348 1.44051 37.6493 1.09913 37.9907C0.613619 38.4846 3.70877 42.6901 3.70877 42.9588C3.70877 42.9588 2.00947 40.4748 1.09913 40.5474C0.188795 40.62 1.16742 42.2325 2.32051 43.5036C3.37499 44.6657 5.11979 47.2151 6.31081 48.2974C7.77494 49.6338 9.07216 50.2149 10.8321 49.5321C12.5921 48.8494 13.4721 47.68 13.4721 47.68L13.4873 47.6872Z" fill="#DE9E7C"/>
</g>
</svg>
