<svg width="110" height="213" viewBox="0 0 110 213" fill="none" xmlns="http://www.w3.org/2000/svg">
<g id="freepik--character-1--inject-46">
<path id="Vector" d="M91.6253 8.91245C91.0315 7.83085 90.1053 6.96764 88.9828 6.44968C88.3405 6.22714 87.6519 6.17082 86.9818 6.286C86.3116 6.40117 85.6817 6.68406 85.1512 7.10817C84.6268 7.53867 84.1988 8.07409 83.895 8.6798C83.5912 9.28551 83.4182 9.94803 83.3874 10.6245L84.7086 18.5594C84.8167 18.8445 85.0039 19.0931 85.2484 19.2761C85.4928 19.4592 85.7845 19.5692 86.0893 19.5932C86.2919 19.6125 86.4961 19.5797 86.6823 19.4978C86.8685 19.416 87.0306 19.2878 87.1529 19.1257C87.2133 19.0394 87.2556 18.9418 87.2773 18.8389C87.2991 18.7359 87.2998 18.6297 87.2795 18.5264C87.2591 18.4232 87.2181 18.3251 87.1589 18.238C87.0997 18.1509 87.0235 18.0765 86.9349 18.0194C87.2585 18.2934 87.6476 18.4794 88.0646 18.5594C88.2748 18.5887 88.4883 18.5369 88.6614 18.4145C88.8346 18.2921 88.9543 18.1083 88.996 17.9009C88.9814 17.626 88.8662 17.366 88.6723 17.17C88.0428 16.3969 87.2631 15.7586 86.38 15.2933C87.7062 15.5876 89.0915 15.4633 90.3437 14.9377C90.9653 14.6657 91.5033 14.234 91.9026 13.6868C92.3019 13.1395 92.5482 12.4963 92.6162 11.823C92.5942 10.7743 92.2482 9.75787 91.6253 8.91245Z" fill="#263238"/>
<path id="Vector_2" d="M80.4544 4.93529C78.7669 3.19312 76.7081 1.85128 74.4303 1.00898C72.1525 0.166671 69.714 -0.154563 67.2948 0.0690247C64.4542 0.325837 63.3311 1.03701 61.3493 1.80745C59.3552 2.51331 57.6753 3.89862 56.606 5.7189C55.2785 7.87716 54.5195 10.3348 54.3996 12.8636C54.404 15.039 54.6477 17.2074 55.1263 19.33C55.5953 21.8783 57.3393 26.2441 58.8522 26.2441L64.7184 28.0221C68.3518 27.7587 72.0315 27.4887 75.4667 26.2902C78.9019 25.0918 82.1389 22.8331 83.698 19.5539C85.8582 14.9971 84.0613 8.47799 80.4544 4.93529Z" fill="#263238"/>
<path id="Vector_3" d="M74.6209 5.50835L65.511 2.97974L63.2583 3.48677C58.1253 4.05307 55.1921 10.0717 55.6017 14.2268C56.0575 18.8363 56.7974 24.4466 57.894 27.7588C60.1005 34.4294 66.0064 34.3438 66.0064 34.3438L66.3764 38.9532L61.8842 41.495L66.9643 57.8784H77.8315L84.3584 36.4576L79.9257 35.9966L79.5161 32.8819L77.1709 7.6287C77.0904 7.02077 76.7834 6.46525 76.311 6.07244C75.8386 5.67964 75.2353 5.47828 74.6209 5.50835Z" fill="#DAA08D"/>
<path id="Vector_4" d="M67.9948 25.0721C67.929 24.829 67.8026 24.6063 67.6275 24.4249C67.4523 24.2435 67.234 24.1091 66.9929 24.0342C66.7517 23.9593 66.4954 23.9464 66.2479 23.9966C66.0003 24.0468 65.7695 24.1585 65.5769 24.3214C65.3118 24.5685 65.1199 24.8833 65.022 25.2317C64.9242 25.58 64.9241 25.9485 65.022 26.2969C65.1933 26.4916 65.4047 26.6471 65.6419 26.7528C65.879 26.8585 66.1363 26.9119 66.3961 26.9093C66.4774 26.916 66.5592 26.916 66.6405 26.9093C67.0491 26.8657 67.4264 26.6706 67.6975 26.3627C67.8454 26.1861 67.9495 25.9771 68.0011 25.7529C68.0528 25.5286 68.0506 25.2953 67.9948 25.0721Z" fill="#6F4439"/>
<path id="Vector_5" d="M58.5943 19.7581C58.6287 19.9885 58.7525 20.1963 58.939 20.3367C59.1256 20.4771 59.36 20.5389 59.5918 20.5088C59.7054 20.4989 59.8158 20.4666 59.9168 20.4137C60.0177 20.3608 60.107 20.2884 60.1796 20.2008C60.2521 20.1131 60.3065 20.012 60.3394 19.9032C60.3723 19.7944 60.3832 19.6801 60.3713 19.5671C60.3338 19.3386 60.209 19.1334 60.023 18.9947C59.837 18.856 59.6043 18.7944 59.3738 18.823C59.2605 18.8321 59.1502 18.8636 59.0493 18.9158C58.9484 18.968 58.8591 19.0397 58.7864 19.1268C58.7138 19.214 58.6594 19.3147 58.6264 19.4231C58.5934 19.5315 58.5825 19.6454 58.5943 19.7581Z" fill="#263238"/>
<path id="Vector_6" d="M57.4119 16.3669C57.5375 16.4657 58.1254 15.8599 59.0767 15.7084C60.028 15.557 60.7943 15.9192 60.8802 15.7875C60.9661 15.6558 60.7745 15.5372 60.4376 15.366C59.9801 15.1536 59.4686 15.0847 58.971 15.1685C58.4711 15.2408 58.0078 15.4717 57.6498 15.827C57.4185 16.1035 57.3525 16.3208 57.4119 16.3669Z" fill="#263238"/>
<path id="Vector_7" d="M64.3416 23.1691C63.8153 23.1009 63.2824 23.1009 62.7561 23.1691C62.5116 23.1691 62.2738 23.1691 62.2012 23.0111C62.14 22.7664 62.1562 22.5088 62.2474 22.2736L62.6636 20.2981C63.2317 17.5192 63.6017 15.254 63.4894 15.2343C63.3771 15.2145 62.8287 17.4402 62.254 20.2191C62.1219 20.8775 61.9964 21.536 61.8708 22.1945C61.7668 22.511 61.7785 22.8539 61.9039 23.1625C61.953 23.2414 62.0197 23.3079 62.0987 23.357C62.1777 23.4061 62.267 23.4364 62.3597 23.4457C62.4977 23.4659 62.6379 23.4659 62.7759 23.4457C63.3071 23.4172 63.8329 23.3243 64.3416 23.1691Z" fill="#263238"/>
<path id="Vector_8" d="M65.9999 34.3763C69.2429 33.8949 72.2887 32.5274 74.7993 30.4253C74.7993 30.4253 73.1213 35.5681 66.1386 36.0422L65.9999 34.3763Z" fill="#6F4439"/>
<path id="Vector_9" d="M67.2354 23.3663C67.0834 23.3663 67.2354 24.4067 66.4823 25.2825C65.7292 26.1583 64.6061 26.2175 64.6259 26.3624C64.6457 26.5073 64.9034 26.5204 65.3658 26.4612C65.9695 26.3696 66.5216 26.0688 66.9249 25.6117C67.316 25.175 67.5199 24.603 67.493 24.0182C67.46 23.5836 67.308 23.3531 67.2354 23.3663Z" fill="#263238"/>
<path id="Vector_10" d="M57.3792 13.0018C57.5773 13.2059 58.2776 12.9359 59.1364 12.8701C59.9952 12.8043 60.7351 12.9096 60.887 12.6726C60.9531 12.554 60.8276 12.3499 60.4973 12.1655C60.0492 11.9375 59.5438 11.8459 59.0439 11.9021C58.5434 11.9369 58.0647 12.1204 57.6698 12.4289C57.3792 12.6726 57.2735 12.903 57.3792 13.0018Z" fill="#263238"/>
<path id="Vector_11" d="M68.9268 18.1839C68.9573 18.413 68.8972 18.645 68.759 18.8306C68.6209 19.0162 68.4157 19.1409 68.1869 19.1783C68.0767 19.2024 67.9628 19.2044 67.8517 19.1843C67.7407 19.1642 67.6348 19.1223 67.5402 19.061C67.4455 18.9997 67.364 18.9203 67.3004 18.8274C67.2368 18.7345 67.1923 18.63 67.1696 18.5198C67.1391 18.2889 67.1999 18.0554 67.3393 17.8685C67.4786 17.6817 67.6855 17.5563 67.9161 17.5189C68.1385 17.4741 68.3697 17.519 68.5591 17.6436C68.7485 17.7682 68.8807 17.9625 68.9268 18.1839Z" fill="#263238"/>
<path id="Vector_12" d="M70.2741 14.6217C70.1816 14.7534 69.4483 14.3385 68.497 14.4636C67.5457 14.5888 66.9049 15.1221 66.786 15.0431C66.6671 14.9641 66.786 14.7731 67.0899 14.5163C67.46 14.1879 67.9201 13.9769 68.4111 13.9105C68.9056 13.8472 69.4075 13.9417 69.8447 14.1805C70.2014 14.3715 70.3269 14.5624 70.2741 14.6217Z" fill="#263238"/>
<path id="Vector_13" d="M69.3757 11.6388C69.2171 11.8759 68.4508 11.7442 67.5656 11.8429C66.6804 11.9417 65.9537 12.1919 65.7555 11.9878C65.663 11.889 65.7555 11.6586 66.0528 11.4149C66.4681 11.1049 66.9626 10.9177 67.4797 10.8749C67.9939 10.8163 68.5142 10.9054 68.9793 11.1318C69.3162 11.3161 69.4483 11.5269 69.3757 11.6388Z" fill="#263238"/>
<path id="Vector_14" d="M77.2371 19.3364C77.1512 18.8228 77.5476 17.5256 78.0431 17.361C79.3643 16.9329 81.802 16.6432 82.3833 20.0542C83.1761 24.7163 78.3139 24.5517 78.2875 24.42C78.2611 24.2883 77.5212 21.0683 77.2371 19.3364Z" fill="#DAA08D"/>
<path id="Vector_15" d="M79.2848 22.4774C79.2848 22.4774 79.3773 22.5169 79.5293 22.5564C79.7353 22.6089 79.9537 22.5782 80.137 22.4708C80.4137 22.2301 80.6209 21.92 80.737 21.5727C80.8532 21.2254 80.8741 20.8534 80.7976 20.4954C80.7437 20.092 80.5967 19.7066 80.3682 19.3693C80.3004 19.2315 80.2001 19.1122 80.0758 19.0216C79.9515 18.931 79.8071 18.8718 79.6548 18.8491C79.5572 18.8407 79.4598 18.8663 79.379 18.9216C79.2983 18.9768 79.2393 19.0583 79.2122 19.152C79.1659 19.2969 79.2122 19.3825 79.2122 19.3957C79.2122 19.4088 79.0999 19.3364 79.0999 19.1323C79.1088 19.0123 79.1576 18.8988 79.2386 18.8096C79.2939 18.7509 79.3603 18.7038 79.434 18.6711C79.5077 18.6383 79.5873 18.6205 79.668 18.6187C79.8664 18.6229 80.0603 18.6785 80.2306 18.7802C80.4008 18.8818 80.5416 19.0258 80.6391 19.1981C80.9081 19.5678 81.0827 19.9972 81.1478 20.4493C81.2733 21.3909 80.943 22.3523 80.2956 22.6618C80.1757 22.7181 80.0449 22.7473 79.9124 22.7473C79.7799 22.7473 79.6491 22.7181 79.5293 22.6618C79.3113 22.5894 79.2716 22.484 79.2848 22.4774Z" fill="#6F4439"/>
<path id="Vector_16" d="M78.2347 17.361L77.1711 18.678C71.4765 14.299 60.0544 3.03217 60.6952 3.70384C62.9488 2.58509 65.4458 2.04203 67.962 2.12345C71.8729 2.3671 79.3643 3.50629 79.7343 8.0499C80.1042 12.5935 78.2347 17.361 78.2347 17.361Z" fill="#263238"/>
<path id="Vector_17" d="M83.1625 8.68872C83.6593 10.3521 84.0107 12.0551 84.2129 13.7789C84.2995 15.513 84.2354 17.2513 84.0213 18.9744C84.2266 18.4988 84.3581 17.9947 84.411 17.4796C84.8092 15.0123 84.5984 12.4855 83.7967 10.1177C83.6648 9.61009 83.4505 9.12742 83.1625 8.68872Z" fill="#455A64"/>
<path id="Vector_18" d="M84.0613 13.7262C82.83 13.7108 81.6027 13.583 80.3948 13.3443C79.1133 13.0474 77.8634 12.6284 76.6624 12.0931C75.1752 11.4351 73.7242 10.6988 72.3155 9.88718C69.2965 8.18168 66.6276 6.52228 64.7184 5.27773L62.4657 3.80929C62.1985 3.61703 61.9157 3.44742 61.6201 3.30225C61.8563 3.53121 62.1127 3.73839 62.3864 3.92123C62.8951 4.30316 63.6482 4.83654 64.5863 5.48187C66.4624 6.76593 69.1181 8.46484 72.1437 10.1703C73.5631 10.9896 75.03 11.724 76.5368 12.3697C77.7712 12.8974 79.0576 13.2947 80.375 13.555C81.2643 13.7321 82.1703 13.8115 83.077 13.7921C83.3221 13.7914 83.567 13.776 83.8102 13.746C83.9754 13.7525 84.0613 13.7394 84.0613 13.7262Z" fill="#455A64"/>
<path id="Vector_19" d="M83.0374 10.776C82.7588 10.6731 82.4713 10.596 82.1785 10.5455C81.6236 10.427 80.8573 10.236 79.8466 9.97923C74.7313 8.65166 69.8469 6.56032 65.3592 3.77622C64.4938 3.24284 63.8068 2.79507 63.3377 2.45923C63.0981 2.28429 62.844 2.13008 62.578 1.99829C62.7788 2.21046 63.0001 2.40235 63.2386 2.57118C63.6879 2.92018 64.3551 3.39429 65.2205 3.9606C67.4396 5.41611 69.7828 6.6743 72.223 7.7206C74.6659 8.76138 77.1945 9.58977 79.7805 10.1965C80.778 10.4204 81.584 10.5785 82.1521 10.6575C82.442 10.7291 82.7388 10.7689 83.0374 10.776Z" fill="#455A64"/>
<path id="Vector_20" d="M98.7862 188.754L99.5525 201.311L97.3263 211.426C97.2918 211.597 97.2919 211.774 97.3266 211.945C97.3613 212.116 97.4298 212.279 97.5282 212.424C97.6265 212.568 97.7528 212.692 97.8996 212.787C98.0464 212.883 98.2108 212.948 98.3832 212.98C98.5839 213.013 98.7896 212.996 98.9821 212.93C99.1745 212.865 99.3478 212.753 99.4865 212.605C101.31 210.688 107.989 203.603 107.883 202.688C107.757 201.627 107.942 189.379 107.942 189.379L98.7862 188.754Z" fill="#263238"/>
<path id="Vector_21" d="M98.3898 212.98L107.856 201.838V202.372C107.874 202.829 107.731 203.278 107.454 203.643C106.7 204.617 104.567 207.251 99.5261 212.605C99.382 212.757 99.202 212.871 99.0024 212.937C98.8029 213.003 98.59 213.017 98.3832 212.98H98.3898Z" fill="#455A64"/>
<g id="Group" opacity="0.6">
<path id="Vector_22" d="M105.148 197.881C105.001 198.003 104.902 198.174 104.871 198.362C104.839 198.551 104.877 198.745 104.976 198.908C105.087 199.063 105.254 199.169 105.441 199.203C105.628 199.237 105.822 199.198 105.981 199.092C106.14 198.964 106.247 198.782 106.279 198.58C106.312 198.378 106.269 198.171 106.159 197.999C106.026 197.851 105.84 197.762 105.641 197.749C105.442 197.737 105.246 197.803 105.095 197.933" fill="white"/>
</g>
<path id="Vector_23" d="M101.019 207.37C100.947 207.409 100.643 206.764 99.8896 206.441C99.428 206.277 98.9394 206.201 98.4495 206.217C98.4495 206.217 98.5882 206.085 98.8789 206.033C99.26 205.97 99.6512 206.023 100.002 206.184C100.359 206.339 100.662 206.596 100.874 206.922C101.019 207.179 101.046 207.363 101.019 207.37Z" fill="white"/>
<path id="Vector_24" d="M100.213 209.095C99.8526 208.904 99.4796 208.737 99.097 208.594C98.6924 208.533 98.2841 208.498 97.8749 208.489C98.0639 208.354 98.2842 208.268 98.5151 208.241C98.7461 208.213 98.9804 208.244 99.1961 208.331C99.8832 208.515 100.26 209.055 100.213 209.095Z" fill="white"/>
<path id="Vector_25" d="M102.579 205.151C102.035 204.809 101.465 204.512 100.874 204.262C100.264 204.092 99.6411 203.973 99.0113 203.906C99.6615 203.694 100.367 203.729 100.993 204.005C101.644 204.182 102.207 204.59 102.579 205.151Z" fill="white"/>
<path id="Vector_26" d="M102.664 201.311C102.631 201.384 101.931 201.12 101.039 201.127C100.147 201.134 99.4469 201.377 99.4138 201.298C99.8863 200.964 100.461 200.806 101.039 200.85C101.618 200.808 102.194 200.972 102.664 201.311Z" fill="white"/>
<path id="Vector_27" d="M102.526 197.617C101.978 197.46 101.411 197.38 100.841 197.38C100.276 197.464 99.7269 197.628 99.2093 197.868C99.2093 197.868 99.3216 197.677 99.5991 197.499C99.9689 197.271 100.388 197.135 100.822 197.103C101.255 197.071 101.69 197.144 102.09 197.314C102.394 197.446 102.545 197.591 102.526 197.617Z" fill="white"/>
<path id="Vector_28" d="M100.841 196.675C100.841 196.675 100.788 196.511 100.802 196.201C100.829 195.765 100.938 195.339 101.125 194.944C101.238 194.643 101.447 194.389 101.72 194.219C101.814 194.171 101.921 194.153 102.026 194.17C102.13 194.187 102.227 194.236 102.301 194.311C102.443 194.463 102.521 194.664 102.519 194.871C102.51 195.291 102.355 195.695 102.08 196.013C101.805 196.331 101.428 196.544 101.013 196.616C100.597 196.682 100.171 196.62 99.7921 196.437C99.413 196.255 99.099 195.961 98.8925 195.595C98.8403 195.504 98.808 195.403 98.7977 195.299C98.7875 195.195 98.7995 195.089 98.833 194.99C98.877 194.893 98.9507 194.813 99.0433 194.761C99.1359 194.709 99.2427 194.688 99.3483 194.7C99.6566 194.754 99.9443 194.89 100.181 195.095C100.53 195.353 100.83 195.672 101.066 196.037C101.164 196.164 101.236 196.309 101.277 196.465C100.936 196.004 100.529 195.596 100.068 195.253C99.8535 195.087 99.6022 194.974 99.3351 194.924C99.2771 194.917 99.2184 194.929 99.1674 194.957C99.1164 194.985 99.0756 195.029 99.051 195.082C99.0196 195.219 99.0433 195.363 99.1171 195.484C99.3051 195.787 99.5773 196.03 99.9008 196.183C100.224 196.336 100.585 196.393 100.94 196.346C101.296 196.289 101.621 196.112 101.862 195.845C102.102 195.578 102.243 195.236 102.262 194.878C102.268 194.734 102.221 194.594 102.129 194.483C102.088 194.441 102.034 194.413 101.976 194.404C101.918 194.394 101.858 194.403 101.806 194.43C101.577 194.572 101.397 194.782 101.291 195.029C101.046 195.548 100.894 196.105 100.841 196.675Z" fill="white"/>
<path id="Vector_29" d="M100.055 93.7466C100.055 93.7466 107.269 107.865 106.938 120.086C106.608 132.308 104.421 144.905 104.89 151.641C105.214 156.211 109.046 167.366 109.706 177.586C110.367 187.806 109.706 200.133 109.706 200.133H98.7203C98.7203 200.133 96.3685 183.789 94.1554 174.359C92.3586 166.701 92.1736 164.1 90.0662 157.897C87.9589 151.694 84.3321 131.946 82.9249 124.314C81.5178 116.682 80.19 106.245 80.19 106.245L78.6045 95.7484L100.055 93.7466Z" fill="#263238"/>
<path id="Vector_30" d="M78.7828 126.434C78.9876 127.343 76.8802 157.442 75.5854 163.757C74.2906 170.072 72.8901 197.999 72.8901 197.999L61.2698 197.373C61.2698 197.373 59.8759 178.08 59.506 171.732C59.136 165.384 60.3383 158.239 60.4837 152.346C60.629 146.452 59.2879 134.876 58.0658 123.596C56.8437 112.316 55.7074 96.8149 59.975 96.6569C61.0848 96.6173 78.6044 95.8271 78.6044 95.8271L81.4715 115.477L84.3584 121.811L78.7828 126.434Z" fill="#263238"/>
<path id="Vector_31" d="M105.868 61.1311C105.868 61.1311 106.978 65.7932 107.764 69.9813C108.676 74.8212 107.229 81.2613 102.882 81.5115C98.5353 81.7617 96.276 75.1834 96.276 75.1834L94.5782 63.8046L100.98 62.3361L105.868 61.1311Z" fill="#DAA08D"/>
<path id="Vector_32" d="M56.4803 78.825C56.8371 78.8645 56.4803 90.8162 56.4803 90.8162L57.75 100.5L50.7802 103C49.4591 99.0255 47.3075 94.9878 46.9476 90.8162C46.7123 86.2245 46.8272 81.6215 47.2911 77.0471L56.4803 78.825Z" fill="#DAA08D"/>
<path id="Vector_33" d="M97.0689 75.9208C97.0988 75.8204 97.1122 75.7159 97.1085 75.6113C97.1085 75.3742 97.1416 75.0845 97.1614 74.7355C97.1614 73.9124 97.2341 72.8193 97.2869 71.4891L97.4455 66.6821C97.4455 65.7734 97.5115 64.8251 97.5512 63.844V63.4818C97.551 63.4979 97.5467 63.5136 97.5386 63.5274C97.5304 63.5413 97.5189 63.5528 97.5049 63.5608H97.5974L97.7758 63.5082L98.509 63.3106L100.009 62.8958L102.856 62.0726L102.671 61.9936C104.139 64.4802 105.373 67.0968 106.357 69.8099C106.721 70.824 106.952 71.6603 107.11 72.2398C107.166 72.5433 107.25 72.841 107.361 73.1287C107.339 72.8205 107.293 72.5145 107.223 72.2134C107.05 71.3763 106.829 70.5497 106.562 69.7375C105.64 66.9853 104.431 64.3369 102.955 61.8356L102.896 61.7236L102.77 61.7566L99.8765 62.5533L98.3769 62.9682L97.6502 63.1723L97.4653 63.225H97.3728C97.3728 63.225 97.3728 63.225 97.2737 63.2843C97.2433 63.3226 97.2229 63.3679 97.2142 63.416C97.2142 63.5477 97.2142 63.6662 97.2142 63.7913C97.1812 64.779 97.1548 65.7273 97.1284 66.636C97.1284 68.4337 97.0689 70.0668 97.0425 71.4496C97.0161 72.8324 97.0425 73.8728 97.0425 74.696C97.0425 75.045 97.0425 75.3545 97.0425 75.5783C97.0321 75.6932 97.041 75.8089 97.0689 75.9208Z" fill="#6F4439"/>
<path id="Vector_34" d="M81.7162 35.7396C81.7162 35.7396 94.4793 37.5044 95.3249 39.2955C96.1705 41.0866 93.6404 76.744 93.9575 78.1466C94.2745 79.5492 101.535 92.1528 100.055 93.7463C98.5752 95.3399 59.9753 96.6635 59.9753 96.6635C59.9753 96.6635 58.5682 74.2747 58.5814 73.7676C58.5946 73.2606 56.7581 61.1377 56.7581 61.1377L54.7762 44.5766L64.5401 39.5787L66.1983 36.3915C66.1983 36.3915 72.5799 44.2935 72.2297 44.0037L79.5692 33.2834L81.7162 35.7396Z" fill="#455A64"/>
<path id="Vector_35" d="M94.4593 38.6038C96.5336 39.4868 98.2861 40.9831 99.48 42.8906C100.999 45.4126 107.196 60.8213 107.196 60.8213C107.196 60.8213 92.6228 64.5287 93.2042 63.9755C93.7855 63.4224 94.4593 38.6038 94.4593 38.6038Z" fill="#455A64"/>
<path id="Vector_36" d="M54.7956 44.5435C52.1067 46.308 50.166 48.9999 49.3455 52.103C48.3282 55.8564 44.2786 76.3487 44.2786 76.3487C44.2786 76.3487 57.7221 79.4897 57.6032 78.7851C57.4843 78.0805 58.1846 68.8221 58.1846 68.8221L56.8633 52.8602L54.7956 44.5435Z" fill="#455A64"/>
<path id="Vector_37" d="M56.3021 52.8604C56.1971 53.0949 56.1174 53.3399 56.0643 53.5913C55.9811 53.8773 55.9127 54.1674 55.8595 54.4605C55.7868 54.8029 55.7009 55.1914 55.6415 55.6326C55.3021 57.9051 55.2665 60.2123 55.5358 62.4941C55.7942 64.7753 56.3197 67.0185 57.1014 69.1778C57.4053 70.0075 57.6762 70.666 57.8876 71.1072C57.9832 71.3385 58.1028 71.5591 58.2443 71.7657C58.2972 71.7657 57.8744 70.745 57.3327 69.0856C56.6282 66.9222 56.1413 64.6943 55.8793 62.4348C55.6152 60.1795 55.6152 57.9011 55.8793 55.6458C56.0973 53.9271 56.3615 52.8735 56.3021 52.8604Z" fill="#263238"/>
<path id="Vector_38" d="M64.5398 39.5786C64.6268 39.8089 64.7375 40.0295 64.8702 40.2371L65.8611 41.9228L69.4945 47.9019L69.62 48.1061L69.7587 47.9085L72.355 44.0958L72.0973 44.1288L73.8876 45.7816C74.7926 46.5981 75.6713 47.4015 76.5631 48.1258L76.7415 48.2707L76.8207 48.0534C78.142 44.5173 79.3707 41.4685 80.2692 39.2888L81.3261 36.7339C81.4691 36.4303 81.5862 36.1153 81.6763 35.7922C81.5017 36.0788 81.3493 36.3781 81.2204 36.6878C80.9364 37.2673 80.5598 38.1233 80.071 39.2032C79.1197 41.3565 77.8447 44.4053 76.5102 47.9349L76.7679 47.8624C75.9025 47.1513 75.0238 46.3413 74.1254 45.5248L72.3351 43.8785L72.1898 43.7468L72.0775 43.9115L69.5011 47.7373H69.7653L66.0328 41.8109L64.9494 40.1449C64.8274 39.9461 64.6904 39.7568 64.5398 39.5786Z" fill="#263238"/>
<path id="Vector_39" d="M97.419 84.7382C97.419 84.7382 92.3851 82.1569 90.5551 80.7544C88.7252 79.3518 87.001 56.1135 87.001 56.1135L59.5854 57.8783L62.0032 84.3563L59.3608 87.043L57.3789 101.424C57.3789 101.424 56.0577 160.162 59.5061 160.03C70.0099 159.629 102.407 158.713 101.825 154.901C101.244 151.088 97.7295 96.2948 97.7295 96.2948L101.033 93.7596L97.419 84.7382Z" fill="#6E9BFF"/>
<path id="Vector_40" d="M86.0692 56.9563L90.0725 37.2475L86.1286 36.2993L82.1979 57.3909L86.0692 56.9563Z" fill="#6E9BFF"/>
<path id="Vector_41" d="M64.5137 58.306L58.9645 42.4231L55.8332 44.0298L60.9331 59.1027L64.5137 58.306Z" fill="#6E9BFF"/>
<path id="Vector_42" d="M68.2325 68.941L78.8024 68.3879C79.2481 68.3607 79.6652 68.1595 79.9632 67.828C80.2612 67.4964 80.4162 67.0612 80.3945 66.6165C80.3689 66.171 80.1678 65.7536 79.835 65.4552C79.5022 65.1567 79.0646 65.0014 78.6174 65.023L68.0475 65.5827C67.6 65.6065 67.1802 65.8064 66.8804 66.1386C66.5807 66.4707 66.4254 66.9079 66.4488 67.354C66.4606 67.5753 66.5162 67.7919 66.6124 67.9916C66.7086 68.1913 66.8435 68.3701 67.0093 68.5176C67.1751 68.6651 67.3685 68.7785 67.5784 68.8512C67.7884 68.9238 68.0107 68.9543 68.2325 68.941Z" fill="white"/>
<path id="Vector_43" d="M61.9967 84.3562C62.3553 84.4828 62.7245 84.5775 63.0999 84.6394C63.8134 84.7974 64.8571 85.0015 66.1453 85.2386C68.7218 85.6995 72.3155 86.2329 76.3056 86.5556C80.2958 86.8782 83.9226 86.8848 86.5452 86.8321C87.8665 86.7992 88.9102 86.7597 89.6435 86.7136C90.0245 86.7097 90.4046 86.6744 90.7798 86.6083C90.4003 86.5665 90.0181 86.5555 89.6369 86.5753H86.5386C83.8961 86.5753 80.309 86.5029 76.3321 86.2C72.3552 85.8971 68.768 85.4032 66.185 85.0015L63.1263 84.5077C62.7539 84.4302 62.3764 84.3796 61.9967 84.3562Z" fill="#263238"/>
<path id="Vector_44" d="M62.2079 187.911L62.1089 197.788C62.1089 197.788 51.6645 201.601 51.539 203.544L71.6416 203.715L71.7142 199.033L72.8901 189.313L62.2079 187.911Z" fill="#263238"/>
<path id="Vector_45" d="M71.6416 203.715V202.148L52.3053 202.503C52.3053 202.503 51.4069 202.892 51.506 203.531L71.6416 203.715Z" fill="#455A64"/>
<path id="Vector_46" d="M62.0428 197.855C62.0428 197.953 62.5317 197.999 63.0139 198.329C63.4962 198.658 63.7472 199.073 63.8397 199.033C63.9322 198.994 63.7869 198.414 63.1791 198.039C62.5713 197.664 62.023 197.789 62.0428 197.855Z" fill="white"/>
<path id="Vector_47" d="M59.7374 198.736C59.7374 198.835 60.1337 199.006 60.464 199.428C60.7944 199.849 60.8868 200.297 60.9859 200.297C61.085 200.297 61.1511 199.731 60.7283 199.21C60.3055 198.69 59.7374 198.644 59.7374 198.736Z" fill="white"/>
<path id="Vector_48" d="M58.3829 201.324C58.4688 201.324 58.6142 200.85 58.3829 200.304C58.1517 199.757 57.6827 199.533 57.6365 199.645C57.5902 199.757 57.8809 200.021 58.0725 200.468C58.264 200.916 58.2839 201.311 58.3829 201.324Z" fill="white"/>
<path id="Vector_49" d="M99.1032 51.5434C98.152 51.41 97.1823 51.5588 96.3154 51.9714C95.4095 52.2708 94.6122 52.8297 94.0231 53.5782C94.808 53.098 95.6173 52.6584 96.4476 52.2612C97.8547 51.708 99.1099 51.6488 99.1032 51.5434Z" fill="#263238"/>
<path id="Vector_50" d="M99.1895 54.6451C99.1895 54.599 98.9516 54.5134 98.5288 54.5068C97.9785 54.5116 97.4373 54.647 96.95 54.9019C96.4589 55.1575 96.0356 55.5253 95.7146 55.9753C95.4768 56.3177 95.4107 56.5745 95.4504 56.5877C95.9349 56.053 96.4932 55.5896 97.1085 55.2114C97.7714 54.9243 98.4722 54.7335 99.1895 54.6451Z" fill="#263238"/>
<path id="Vector_51" d="M16.618 195.315L44.2913 147.489L89.1472 69.9511L99.5717 51.9677C100.364 50.5914 102.505 51.836 101.706 53.2122L73.3452 102.244L28.4827 179.781L19.5049 195.309L34.5802 195.276V199.26L0.148775 199.345V195.355L16.618 195.315Z" fill="#263238"/>
<path id="Vector_52" d="M16.6182 195.315H15.5348H0.0630967V199.398H0.135765H34.5672H34.6861V199.279C34.6861 198.074 34.6861 196.691 34.6861 195.295V195.177H34.5672H19.4919L19.6042 195.374L84.675 82.9629L95.1062 64.9333C96.8238 61.9482 98.5326 59.0047 100.233 56.1029C100.655 55.372 101.078 54.6477 101.494 53.9167L101.811 53.3768C101.934 53.1751 102.014 52.9513 102.049 52.7183C102.064 52.479 102.016 52.2399 101.91 52.0249C101.803 51.81 101.642 51.6267 101.442 51.4935C101.254 51.356 101.036 51.2657 100.806 51.2302C100.576 51.1946 100.341 51.2149 100.12 51.2893C99.715 51.5049 99.3974 51.854 99.2218 52.2771L97.9733 54.4369C91.3671 65.9145 84.9327 76.9904 78.8154 87.546L46.4451 143.61C37.2427 159.572 29.7975 172.479 24.6447 181.408L18.6991 191.707L17.1599 194.393C16.8164 194.999 16.6446 195.315 16.6446 195.315C16.6446 195.315 16.8296 195.019 17.1797 194.426C17.5298 193.833 18.0517 192.931 18.7388 191.792C20.0996 189.441 22.1145 185.991 24.6843 181.539L46.6102 143.762L79.0664 87.7238C85.1705 77.1879 91.5851 66.1054 98.2243 54.6279L99.4729 52.4746C99.6909 52.0993 99.8626 51.7569 100.206 51.6318C100.377 51.5723 100.56 51.5561 100.739 51.5849C100.918 51.6136 101.087 51.6863 101.23 51.7964C101.381 51.8959 101.503 52.0324 101.585 52.1927C101.667 52.3531 101.707 52.5318 101.699 52.7117C101.592 53.0936 101.42 53.4544 101.19 53.7784L99.9287 55.9581L94.8155 64.7885L84.3778 82.7917L19.3664 195.243L19.2541 195.447H19.4853L34.5606 195.401L34.435 195.282C34.435 196.678 34.435 198.061 34.435 199.266L34.554 199.154L0.12256 199.273L0.201831 199.352C0.201831 197.942 0.201831 196.599 0.201831 195.361L0.135765 195.434L12.4034 195.368H15.5612L16.6182 195.315Z" fill="#455A64"/>
<path id="Vector_53" d="M103.279 61.9214C103.279 61.9214 102.618 55.297 102.149 53.4993C101.68 51.7016 101.152 50.6743 100.484 50.5295C99.8171 50.3846 97.6239 50.9707 96.666 50.8851C95.7081 50.7994 93.059 49.7722 92.0416 50.2266C91.6849 50.3912 91.4405 51.2011 92.3125 52.2415C92.7461 52.8166 93.3452 53.2462 94.0301 53.4729C94.0301 53.4729 89.9012 56.8115 90.4429 58.3524C90.9847 59.8932 92.1672 58.7936 92.4909 58.675C92.8146 58.5565 95.4108 56.5744 95.4108 56.5744C95.4108 56.5744 93.6337 61.6317 94.3802 62.4153C95.1267 63.1989 96.8377 61.3946 96.8377 61.3946L96.9699 69.099C97.4983 69.5402 104.494 69.099 105.472 67.5054C105.703 67.1762 103.279 61.9214 103.279 61.9214Z" fill="#455A64"/>
<path id="Vector_54" d="M0.274326 199.154H34.1706C34.6066 199.668 34.2499 202.019 33.6355 202.302C32.992 202.526 32.2894 202.514 31.6537 202.269C31.0227 202.025 30.3481 201.913 29.6718 201.94C28.8328 202.052 28.0797 202.671 27.2407 202.598C26.4018 202.526 25.7808 201.769 24.9682 201.775C24.0368 201.775 23.2969 202.789 22.372 202.69C21.7708 202.625 21.3018 202.104 20.7072 202.032C19.7824 201.88 18.9698 202.75 18.0648 202.763C17.1597 202.776 16.2679 201.841 15.2902 201.927C14.4314 201.999 13.8038 202.835 12.9582 202.967C11.7294 203.165 10.6791 201.841 9.43049 201.927C8.63775 201.979 7.95731 202.585 7.15796 202.585C6.35861 202.585 5.66497 201.959 4.86562 201.854C4.14486 201.842 3.43454 202.027 2.8111 202.388C2.18301 202.753 1.43698 202.862 0.730154 202.69C0.0629299 202.401 -0.273987 199.615 0.274326 199.154Z" fill="#455A64"/>
<path id="Vector_55" d="M103.278 61.9214C103.302 62.0072 103.333 62.0909 103.371 62.1716L103.681 62.9026C103.946 63.561 104.342 64.4698 104.831 65.6748C104.95 65.9711 105.069 66.2938 105.188 66.6296C105.247 66.8008 105.307 66.972 105.353 67.1498C105.38 67.2355 105.398 67.3238 105.406 67.4132V67.4659L105.313 67.5647C104.667 68.0873 103.895 68.4324 103.074 68.5656C102.132 68.7823 101.176 68.9341 100.213 69.02C99.7045 69.0595 99.176 69.099 98.6409 69.1121C98.37 69.1121 98.0992 69.1121 97.8283 69.1121C97.6962 69.1121 97.5575 69.1122 97.4254 69.0792L97.2338 69.0463C97.1677 69.0463 97.1413 69.0134 97.0885 69.0002L97.1413 69.1056C97.1413 66.7679 97.0686 64.1669 97.029 61.3946V61.0193L96.7581 61.2892C96.3035 61.7943 95.7352 62.1846 95.1 62.4284C94.7961 62.5075 94.4922 62.4284 94.4394 62.0926C94.38 61.7483 94.38 61.3965 94.4394 61.0522C94.6903 59.5498 95.0772 58.0731 95.5955 56.6403L95.7738 56.1135L95.3312 56.4493C94.5913 57.009 93.7986 57.6017 92.986 58.1746C92.8266 58.2926 92.6612 58.4025 92.4905 58.5038C92.2858 58.596 92.114 58.7211 91.9422 58.8067C91.6053 58.9977 91.2222 59.0899 90.9843 58.8726C90.8565 58.7539 90.7565 58.6085 90.6914 58.4469C90.6263 58.2853 90.5978 58.1114 90.6078 57.9375C90.6693 57.5688 90.8114 57.2181 91.024 56.9103C91.9082 55.6701 92.9647 54.5615 94.1619 53.6178L94.3865 53.4202L94.0892 53.3281C93.2916 53.0291 92.6172 52.4728 92.1735 51.7477C92.0618 51.5885 91.9838 51.4083 91.944 51.2182C91.9043 51.028 91.9037 50.8318 91.9422 50.6414C91.9657 50.5652 92.0063 50.4953 92.0611 50.4373C92.1219 50.3854 92.1945 50.3493 92.2725 50.3319C92.463 50.2877 92.6586 50.27 92.8539 50.2792C93.6597 50.3411 94.4567 50.4868 95.2321 50.7138C95.6219 50.8126 95.9984 50.9114 96.3948 50.9838C96.7887 51.0464 97.19 51.0464 97.5839 50.9838C98.3436 50.8916 99.0637 50.7468 99.764 50.6677C100.078 50.596 100.406 50.626 100.702 50.7534C100.958 50.9401 101.165 51.1865 101.303 51.4711C101.814 52.554 102.155 53.7089 102.314 54.8953C102.657 57.0815 102.869 58.8462 103.021 60.0381C103.1 60.6242 103.16 61.0785 103.199 61.4209C103.239 61.7634 103.272 61.8951 103.278 61.8951C103.296 61.7353 103.296 61.5741 103.278 61.4144C103.278 61.0719 103.206 60.611 103.153 60.0249C103.034 58.8199 102.856 57.0617 102.539 54.8623C102.393 53.6467 102.054 52.4619 101.534 51.3526C101.386 51.0295 101.159 50.7488 100.874 50.536C100.708 50.4321 100.515 50.3773 100.319 50.378C100.136 50.3649 99.9531 50.3649 99.7706 50.378C99.0571 50.4504 98.337 50.5953 97.5905 50.6809C97.2249 50.737 96.8529 50.737 96.4873 50.6809C96.1107 50.6085 95.7342 50.5097 95.3444 50.4043C94.5471 50.1712 93.7282 50.0189 92.9001 49.95C92.6778 49.9379 92.455 49.9601 92.2395 50.0158C92.1109 50.0427 91.9921 50.1042 91.896 50.1936C91.8002 50.2864 91.7297 50.402 91.6912 50.5295C91.6376 50.7621 91.6328 51.0033 91.6771 51.2378C91.7215 51.4724 91.814 51.6953 91.9488 51.8925C92.4322 52.698 93.1821 53.3104 94.0694 53.6244L94.0034 53.3412C92.7753 54.307 91.6939 55.4448 90.7928 56.7193C90.5479 57.0688 90.3874 57.4699 90.3237 57.8914C90.3008 58.0066 90.3008 58.1252 90.3237 58.2404C90.3377 58.3529 90.3712 58.4621 90.4228 58.5631C90.5058 58.7781 90.6395 58.9701 90.8126 59.1228C90.909 59.2026 91.0211 59.2614 91.1417 59.2954C91.2623 59.3294 91.3887 59.3379 91.5128 59.3203C91.746 59.2914 91.9709 59.2152 92.1735 59.0965C92.365 58.9977 92.5302 58.8726 92.7019 58.8001C92.8737 58.7277 93.0719 58.5631 93.2503 58.4446C94.076 57.8651 94.8622 57.2658 95.6087 56.7061L95.3378 56.5152C94.8173 57.9707 94.426 59.4691 94.1685 60.9929C94.1059 61.3789 94.1059 61.7725 94.1685 62.1585C94.1909 62.2707 94.2383 62.3764 94.3072 62.4679C94.3813 62.5584 94.4736 62.6325 94.5781 62.6853C94.7856 62.7784 95.019 62.797 95.2387 62.7379C95.94 62.4789 96.5662 62.0514 97.062 61.4934L96.778 61.388C96.8374 64.1603 96.8837 66.7613 96.9299 69.099V69.178H96.9761C97.0583 69.2215 97.1446 69.2568 97.2338 69.2834L97.4518 69.3163C97.5971 69.3163 97.7425 69.3163 97.8812 69.3163C98.1653 69.3163 98.4427 69.3163 98.7136 69.3163C99.2619 69.3163 99.7904 69.257 100.306 69.2043C101.279 69.1139 102.244 68.951 103.193 68.717C104.057 68.5717 104.866 68.1938 105.531 67.6239L105.637 67.5054C105.66 67.4741 105.676 67.4381 105.683 67.4001C105.686 67.3694 105.686 67.3385 105.683 67.3079C105.671 67.2077 105.651 67.1087 105.624 67.0116C105.571 66.8272 105.505 66.656 105.445 66.4848C105.32 66.1423 105.188 65.8263 105.069 65.5234C104.567 64.3249 104.137 63.403 103.84 62.7774C103.701 62.4877 103.589 62.2506 103.496 62.0728C103.431 62.0122 103.358 61.9612 103.278 61.9214Z" fill="#263238"/>
<path id="Vector_56" d="M58.4189 100.055C58.6435 100.535 60.011 106.166 60.011 106.166C61.1564 106.479 62.2399 106.984 63.215 107.66C64.189 108.553 65.0299 109.579 65.7122 110.709L64.1201 113.231C64.1201 113.231 64.6882 115.417 64.9591 117.314C65.2299 119.21 64.2456 119.671 64.2456 119.671C64.2456 119.671 65.0053 122.792 63.3538 123.049C62.8253 123.135 61.7683 121.568 61.7683 121.568C61.8002 121.929 61.6982 122.289 61.4815 122.581C61.2648 122.872 60.9484 123.074 60.5924 123.148C59.4825 123.451 58.5511 122.299 58.5511 122.299C58.5511 122.299 57.5139 124.202 56.186 123.504C54.8582 122.806 53.9862 120.007 53.9862 120.007C53.9862 120.007 52.077 117.077 52.4602 114.568C52.8433 112.059 52.9622 110.169 52.9622 110.169C52.9622 110.169 51.9713 107.153 51.0795 104.598C50.5179 102.992 50.0819 101.115 52.8764 99.923C54.6687 99.2351 56.6615 99.2824 58.4189 100.055Z" fill="#455A64"/>
<path id="Vector_57" d="M59.1295 113.916C59.5543 115.061 60.0874 116.164 60.7216 117.208C61.3822 118.4 61.9767 119.428 62.3137 119.941C62.3137 119.941 62.3137 119.981 62.3137 119.974C62.3137 119.968 62.3137 119.974 62.3137 119.935C62.3137 119.895 62.3665 119.862 62.3665 119.849C62.3665 119.836 62.2938 119.796 62.2344 119.902C62.2234 119.92 62.2167 119.94 62.2149 119.961C62.213 119.982 62.2161 120.003 62.2237 120.023C62.2314 120.043 62.2435 120.061 62.2591 120.075C62.2746 120.089 62.2933 120.1 62.3137 120.106C62.3441 120.113 62.3758 120.112 62.4057 120.103C62.4356 120.094 62.4626 120.077 62.484 120.055C62.5054 120.032 62.5204 120.004 62.5277 119.974C62.5349 119.943 62.534 119.912 62.5251 119.882C62.274 119.316 61.7389 118.255 61.0849 117.064C60.5305 115.957 59.876 114.904 59.1295 113.916Z" fill="#263238"/>
<path id="Vector_58" d="M55.8992 115.753C56.5222 116.924 57.2426 118.041 58.0528 119.092C58.7714 120.206 59.5847 121.257 60.4839 122.233C59.8674 121.058 59.1466 119.941 58.3303 118.894C57.6138 117.778 56.8003 116.727 55.8992 115.753Z" fill="#263238"/>
<path id="Vector_59" d="M53.3094 116.939C53.6266 117.943 54.104 118.89 54.7231 119.744C55.2436 120.653 55.852 121.508 56.5398 122.299C56.1462 121.327 55.6336 120.407 55.0138 119.56C54.495 118.655 53.926 117.78 53.3094 116.939Z" fill="#263238"/>
</g>
</svg>
