<svg width="21" height="21" viewBox="0 0 21 21" fill="none" xmlns="http://www.w3.org/2000/svg">
<path id="&#208;&#162;&#208;&#181;&#208;&#187;&#208;&#181;&#208;&#179;&#209;&#128;&#208;&#176;&#208;&#188;" d="M18.585 1.75161C19.4284 1.75161 19.6504 2.49662 19.4009 4.24589C19.1154 6.24623 18.293 12.869 17.6371 16.9917C17.3861 18.5694 16.9337 19.2496 16.2753 19.2496C15.9133 19.2496 15.4894 19.044 15.0024 18.6686C14.3425 18.1595 11.0109 15.5864 10.2875 14.9821C9.6276 14.4315 8.71721 13.7688 9.85907 12.4644C10.2655 11.9997 12.9287 9.02953 15.0034 6.71799C15.2249 6.47101 15.0394 6.09442 14.7935 6.09442C14.7375 6.09442 14.678 6.11427 14.62 6.15923C11.8233 8.32538 7.94531 11.3317 7.45187 11.7235C6.95843 12.1147 6.47749 12.3658 5.83657 12.3658C5.50911 12.3658 5.13966 12.3004 4.70521 12.1544C3.73383 11.8286 2.78545 11.4403 2.416 11.292C0.993677 10.7222 1.33114 9.98357 2.71246 9.27358C8.25077 6.42839 15.4174 2.95905 16.4068 2.47911C17.3706 2.01143 18.0865 1.75161 18.585 1.75161ZM18.585 0C17.9011 0 17.0777 0.257486 15.8323 0.860622L15.6828 0.933022C10.366 3.51139 5.54511 5.90408 2.10854 7.6697C1.5716 7.94587 -0.0616915 8.78489 0.00180059 10.54C0.0287972 11.2973 0.385753 12.3296 1.92956 12.9479L2.04355 12.9934C2.47449 13.1668 3.37188 13.5282 4.29177 13.8371C4.8517 14.0251 5.35763 14.1162 5.83707 14.1162C6.66897 14.1162 7.31339 13.8389 7.81733 13.516C7.81483 13.6141 7.81683 13.7127 7.82332 13.812C7.91431 15.1619 8.8082 15.9022 9.34214 16.3448L9.41663 16.4067C10.205 17.0653 13.7731 19.8182 14.177 20.1295C14.9374 20.7157 15.6239 21 16.2763 21C17.3021 21 18.6275 20.3601 19.1124 17.3111C19.5729 14.4192 20.1048 10.3794 20.4932 7.42973C20.6587 6.17091 20.7947 5.13863 20.8812 4.53316C21.0557 3.31053 21.1357 1.9256 20.4073 0.921929C20.1013 0.501543 19.5374 0 18.585 0Z" fill="#3D4E62"/>
</svg>
